G04 Layer_Physical_Order=1*
G04 Layer_Color=255*
%FSLAX24Y24*%
%MOIN*%
G70*
G01*
G75*
G04:AMPARAMS|DCode=10|XSize=59.1mil|YSize=78.7mil|CornerRadius=0mil|HoleSize=0mil|Usage=FLASHONLY|Rotation=40.000|XOffset=0mil|YOffset=0mil|HoleType=Round|Shape=Rectangle|*
%AMROTATEDRECTD10*
4,1,4,0.0027,-0.0491,-0.0479,0.0112,-0.0027,0.0491,0.0479,-0.0112,0.0027,-0.0491,0.0*
%
%ADD10ROTATEDRECTD10*%

%ADD11R,0.0787X0.0591*%
%ADD12R,0.0591X0.0787*%
%ADD13R,0.0945X0.0748*%
G04:AMPARAMS|DCode=14|XSize=21.7mil|YSize=59.1mil|CornerRadius=0mil|HoleSize=0mil|Usage=FLASHONLY|Rotation=40.000|XOffset=0mil|YOffset=0mil|HoleType=Round|Shape=Round|*
%AMOVALD14*
21,1,0.0374,0.0217,0.0000,0.0000,130.0*
1,1,0.0217,0.0120,-0.0143*
1,1,0.0217,-0.0120,0.0143*
%
%ADD14OVALD14*%

G04:AMPARAMS|DCode=15|XSize=21.7mil|YSize=59.1mil|CornerRadius=0mil|HoleSize=0mil|Usage=FLASHONLY|Rotation=310.000|XOffset=0mil|YOffset=0mil|HoleType=Round|Shape=Round|*
%AMOVALD15*
21,1,0.0374,0.0217,0.0000,0.0000,40.0*
1,1,0.0217,-0.0143,-0.0120*
1,1,0.0217,0.0143,0.0120*
%
%ADD15OVALD15*%

%ADD16C,0.0100*%
%ADD17R,0.0709X0.0709*%
%ADD18C,0.0709*%
%ADD19C,0.1220*%
%ADD20C,0.0543*%
%ADD21R,0.0543X0.0543*%
%ADD22C,0.0787*%
%ADD23R,0.0591X0.0591*%
%ADD24C,0.0591*%
%ADD25R,0.0709X0.0709*%
%ADD26O,0.0394X0.0787*%
%ADD27R,0.0394X0.0787*%
%ADD28C,0.0500*%
D10*
X9287Y4080D02*
D03*
X8382Y3320D02*
D03*
D11*
X10634Y4359D02*
D03*
Y5541D02*
D03*
D12*
X9594Y8150D02*
D03*
X10775D02*
D03*
X9594Y6800D02*
D03*
X10775D02*
D03*
X8657Y11467D02*
D03*
X7476D02*
D03*
X9694Y1150D02*
D03*
X10875D02*
D03*
D13*
X8334Y8643D02*
D03*
Y10257D02*
D03*
D14*
X6303Y7340D02*
D03*
X6062Y7138D02*
D03*
X5821Y6935D02*
D03*
X5579Y6733D02*
D03*
X5338Y6531D02*
D03*
X5097Y6328D02*
D03*
X4856Y6126D02*
D03*
X4614Y5923D02*
D03*
X6765Y3360D02*
D03*
X7007Y3562D02*
D03*
X7248Y3765D02*
D03*
X7480Y3990D02*
D03*
X7730Y4169D02*
D03*
X7972Y4372D02*
D03*
X8213Y4574D02*
D03*
X8454Y4777D02*
D03*
D15*
X4544Y5119D02*
D03*
X4746Y4878D02*
D03*
X4949Y4636D02*
D03*
X5151Y4395D02*
D03*
X5354Y4154D02*
D03*
X5556Y3913D02*
D03*
X5759Y3671D02*
D03*
X5961Y3430D02*
D03*
X8525Y5581D02*
D03*
X8322Y5822D02*
D03*
X8120Y6064D02*
D03*
X7917Y6305D02*
D03*
X7715Y6546D02*
D03*
X7512Y6787D02*
D03*
X7310Y7029D02*
D03*
X7107Y7270D02*
D03*
D16*
X6062Y7070D02*
X6196D01*
X6062Y7030D02*
X6186D01*
X5556Y6770D02*
X5579D01*
X7007Y3490D02*
X7067D01*
X5036Y6400D02*
X5097D01*
X10775Y6700D02*
X11116D01*
X7730Y4100D02*
X7846D01*
X5821Y6860D02*
X5878D01*
X7360Y4133D02*
Y4570D01*
X6062Y7070D02*
Y7138D01*
Y7030D02*
Y7070D01*
X9287Y4550D02*
Y4701D01*
X7886Y6240D02*
Y6305D01*
X1986Y2400D02*
Y2750D01*
X8396Y5822D02*
Y5950D01*
X8525Y5420D02*
X9376D01*
X7546Y6787D02*
Y6910D01*
X8657Y11470D02*
X10516D01*
X8657D02*
Y11990D01*
Y11467D02*
Y11470D01*
X7786Y6546D02*
Y6670D01*
X4487Y5923D02*
Y8331D01*
X8334Y8320D02*
X8916D01*
X4796Y6126D02*
Y6270D01*
X7730Y4100D02*
Y4169D01*
Y4060D02*
Y4100D01*
X5821Y6935D02*
X5878Y6860D01*
X5946D01*
X5878D02*
X5946Y6770D01*
X5876Y6250D02*
X5946Y6320D01*
X5116Y5490D02*
X5876Y6250D01*
X5514Y6903D02*
X5556Y6770D01*
X5561Y6755D01*
X7007Y3562D02*
X7067Y3490D01*
X7126Y3419D01*
X7067Y3490D02*
X7126D01*
X5456Y6877D02*
Y7350D01*
Y6770D02*
Y6877D01*
X5459Y6876D01*
X4976Y7020D02*
X5456Y6877D01*
Y6770D02*
X5556D01*
X4976Y6400D02*
X5036D01*
X4976Y6471D02*
X5036Y6400D01*
X5097Y6328D01*
X7107Y7270D02*
Y8220D01*
X7246Y4570D02*
X7360D01*
Y4133D02*
X7480Y3990D01*
X6186Y6300D02*
Y7030D01*
Y6300D02*
X6316Y6170D01*
X7886Y6305D02*
X7917D01*
X7736Y6240D02*
X7886D01*
X7736Y5458D02*
Y6240D01*
Y5458D02*
X7766D01*
X8003Y5220D01*
X8617D01*
X9287Y4550D01*
Y4080D02*
Y4550D01*
Y4701D02*
X10126Y5541D01*
X10634D01*
X5936Y4250D02*
Y5610D01*
X5598Y3913D02*
X5936Y4250D01*
X5556Y3913D02*
X5598D01*
X3356Y5410D02*
X3516D01*
X3721Y5205D01*
Y4550D02*
Y5205D01*
Y4550D02*
X4241Y4030D01*
X5210D01*
Y4034D01*
X5354Y4154D01*
X9694Y1150D02*
Y2704D01*
X10116Y3126D01*
X10924D01*
X5556Y4840D02*
Y4850D01*
X5151Y4435D02*
X5556Y4840D01*
X5151Y4395D02*
Y4435D01*
X10875Y1150D02*
X11246D01*
X11446Y1350D01*
Y1820D01*
X1984Y2400D02*
X1986D01*
X1876Y2860D02*
X1986Y2750D01*
X1266Y2860D02*
X1876D01*
X776Y3350D02*
X1266Y2860D01*
X776Y3350D02*
Y10050D01*
X1396Y10670D01*
Y11820D01*
X1516Y11940D01*
X3716D01*
X3900Y11756D01*
Y4637D02*
Y11756D01*
Y4637D02*
X4016Y4520D01*
X4806D01*
X4949Y4636D01*
X7476Y11050D02*
Y11467D01*
X7366Y10940D02*
X7476Y11050D01*
X4916Y10940D02*
X7366D01*
X4257Y10281D02*
X4916Y10940D01*
X4257Y5119D02*
Y10281D01*
Y5119D02*
X4544D01*
X7476Y11050D02*
X7586Y10940D01*
X10116D01*
X10634Y10421D01*
Y9400D02*
Y10421D01*
X8350Y800D02*
X8746D01*
X8896Y950D01*
Y1083D01*
X8527Y1451D02*
X8896Y1083D01*
X8527Y1451D02*
Y2409D01*
X8896Y2777D01*
Y3780D01*
X8584Y4092D02*
X8896Y3780D01*
X8584Y4092D02*
Y4421D01*
X8574Y4634D02*
X8584Y4421D01*
X8454Y4777D02*
X8574Y4634D01*
X11608Y5500D02*
X12084D01*
X10928Y6180D02*
X11608Y5500D01*
X8263Y6180D02*
X10928D01*
X8120Y6064D02*
X8263Y6180D01*
X8322Y5822D02*
X8396D01*
Y5950D02*
X8996D01*
X9146Y5800D01*
X8525Y5420D02*
Y5581D01*
X9376Y5420D02*
X9756Y5800D01*
X984Y1970D02*
Y2400D01*
X916Y1970D02*
X984D01*
X436Y1490D02*
X916Y1970D01*
X436Y550D02*
Y1490D01*
Y550D02*
X856Y130D01*
X11906D01*
X12326Y550D01*
Y2500D01*
X12116Y2710D02*
X12326Y2500D01*
X11596Y2710D02*
X12116D01*
X11356Y2950D02*
X11596Y2710D01*
X11356Y2950D02*
Y3940D01*
X7686Y4950D02*
X7936D01*
X8213Y4673D01*
Y4574D02*
Y4673D01*
X7087Y5231D02*
Y6902D01*
X7310Y7029D01*
X7512Y6787D02*
X7546D01*
Y6910D02*
X8476D01*
X8626Y7060D01*
X4516Y11990D02*
X8657D01*
X4078Y11553D02*
X4516Y11990D01*
X4078Y4897D02*
Y11553D01*
Y4897D02*
X4216Y4760D01*
X4603D01*
X4746Y4878D01*
X10516Y11470D02*
X10966Y11020D01*
Y9020D02*
Y11020D01*
X10816Y8870D02*
X10966Y9020D01*
X10134Y8870D02*
X10816D01*
X10134D02*
Y9400D01*
X6765Y2550D02*
Y3360D01*
X6225Y2010D02*
X6765Y2550D01*
X5760Y2010D02*
X6225D01*
X7715Y6546D02*
X7786D01*
Y6670D02*
X8826D01*
X9006Y6850D01*
Y7218D01*
X8683Y7540D02*
X9006Y7218D01*
X8066Y7540D02*
X8683D01*
X4487Y5923D02*
X4614D01*
X4487Y8331D02*
X4916Y8760D01*
X6516D01*
X6842Y9087D01*
Y9784D01*
X7316Y10257D01*
X8334D01*
Y9660D02*
Y10257D01*
Y9660D02*
X8516D01*
X9594Y8582D01*
Y8150D02*
Y8582D01*
X4796Y6126D02*
X4856D01*
X4727Y6338D02*
X4796Y6270D01*
X4727Y6338D02*
Y7772D01*
X5316Y8360D01*
X6738D01*
X7021Y8643D01*
X8334D01*
Y8320D02*
Y8643D01*
X8916Y8320D02*
X9026Y8210D01*
Y7750D02*
Y8210D01*
Y7750D02*
X9196Y7580D01*
X9364D01*
X9594Y7350D01*
Y6800D02*
Y7350D01*
X2234Y3700D02*
X2556D01*
X2986Y4130D01*
X3827D01*
X4406Y3551D01*
X5615D01*
X5759Y3671D01*
X2906Y4700D02*
X3234D01*
X2626Y4270D02*
X2906Y4700D01*
X2116Y4270D02*
X2626D01*
X1806Y3960D02*
X2116Y4270D01*
X1806Y3350D02*
Y3960D01*
Y3350D02*
X2116Y3040D01*
X5716D01*
X5961Y3285D01*
Y3430D01*
X10775Y8150D02*
Y8550D01*
X10645Y8680D02*
X10775Y8550D01*
X9916Y8680D02*
X10645D01*
X9634Y8961D02*
X9916Y8680D01*
X9634Y8961D02*
Y9400D01*
X10775Y6800D02*
Y8150D01*
X12084Y3891D02*
Y4500D01*
X11924Y3730D02*
X12084Y3891D01*
X11924Y3126D02*
Y3730D01*
X10775Y6700D02*
Y6800D01*
X11116Y6700D02*
X11806Y6010D01*
X12316D01*
X12576Y5750D01*
Y4500D02*
Y5750D01*
X12084Y4500D02*
X12576D01*
X10516Y2295D02*
X10924D01*
X10276Y2055D02*
X10516Y2295D01*
X10276Y550D02*
Y2055D01*
X10036Y310D02*
X10276Y550D01*
X8107Y310D02*
X10036D01*
X7867Y550D02*
X8107Y310D01*
X7867Y550D02*
Y1280D01*
X8213Y1626D01*
Y2587D01*
X8382Y2756D01*
Y3320D01*
X5946Y6320D02*
Y6770D01*
X5606Y6250D02*
X5876D01*
X5506Y6350D02*
X5606Y6250D01*
X5338Y6531D02*
X5506Y6350D01*
X7730Y4060D02*
X8326Y3920D01*
Y3377D02*
Y3920D01*
Y3377D02*
X8382Y3320D01*
X1884Y10376D02*
Y11450D01*
X1298Y9790D02*
X1884Y10376D01*
X1298Y8730D02*
Y9790D01*
X7350Y444D02*
Y800D01*
X7216Y310D02*
X7350Y444D01*
X3624Y310D02*
X7216D01*
X2984Y950D02*
X3624Y310D01*
X2984Y950D02*
Y2400D01*
X1298Y6170D02*
Y8730D01*
X1234Y3700D02*
Y3959D01*
X1706Y4430D01*
Y5223D01*
X1298Y5630D02*
X1706Y5223D01*
X1298Y5630D02*
Y6170D01*
X5579Y6733D02*
Y6770D01*
X5456Y7350D02*
X6106Y8000D01*
X6116D01*
X6666Y7450D01*
Y6870D02*
Y7450D01*
Y6870D02*
X6756D01*
X6876Y6750D01*
Y5610D02*
Y6750D01*
X6807Y5610D02*
X6876D01*
X6647Y5450D02*
X6807Y5610D01*
X6647Y4191D02*
Y5450D01*
Y4191D02*
X6745D01*
X6886Y4050D01*
Y3705D02*
Y4050D01*
Y3705D02*
X7007Y3562D01*
X8906Y1830D02*
Y2030D01*
X9306Y2430D01*
Y2991D01*
X10106Y3791D01*
Y4250D01*
X10634Y4359D01*
X5561Y6755D02*
X5579Y6733D01*
X5486Y6903D02*
X5514D01*
X5459Y6876D02*
X5486Y6903D01*
X4976Y6471D02*
Y7020D01*
X7126Y2370D02*
X7656Y1840D01*
X7126Y2370D02*
Y3419D01*
X5350Y800D02*
Y2150D01*
X6346Y3146D01*
Y5650D01*
X6696Y6000D01*
Y6540D01*
X6423Y6812D02*
X6696Y6540D01*
X6423Y6812D02*
Y7197D01*
X6303Y7340D02*
X6423Y7197D01*
X7107Y8220D02*
X7196D01*
D17*
X6284Y9450D02*
D03*
X12084Y8500D02*
D03*
X3284Y11450D02*
D03*
D18*
X6284D02*
D03*
Y10450D02*
D03*
X12084Y4500D02*
D03*
Y5500D02*
D03*
Y6500D02*
D03*
Y7500D02*
D03*
X8350Y800D02*
D03*
X7350D02*
D03*
X6350D02*
D03*
X1884Y11450D02*
D03*
D19*
X1181Y1181D02*
D03*
X11811Y11220D02*
D03*
D20*
X1984Y2400D02*
D03*
X984D02*
D03*
X10924Y2295D02*
D03*
X11924D02*
D03*
Y3126D02*
D03*
D21*
X2984Y2400D02*
D03*
X10924Y3126D02*
D03*
D22*
X1298Y6170D02*
D03*
Y8730D02*
D03*
X3070Y6170D02*
D03*
Y8730D02*
D03*
D23*
X3234Y4700D02*
D03*
D24*
Y3700D02*
D03*
X2234Y4700D02*
D03*
Y3700D02*
D03*
X1234Y4700D02*
D03*
Y3700D02*
D03*
D25*
X5350Y800D02*
D03*
X884Y11450D02*
D03*
D26*
X10634Y9400D02*
D03*
X10134D02*
D03*
D27*
X9634D02*
D03*
D28*
X7246Y4570D02*
D03*
X6316Y6170D02*
D03*
X5936Y5610D02*
D03*
X3356Y5410D02*
D03*
X5556Y4850D02*
D03*
X11446Y1820D02*
D03*
X9146Y5800D02*
D03*
X9756D02*
D03*
X11356Y3940D02*
D03*
X7686Y4950D02*
D03*
X7087Y5231D02*
D03*
X8626Y7060D02*
D03*
X5760Y2010D02*
D03*
X8066Y7540D02*
D03*
X5116Y5490D02*
D03*
X8906Y1830D02*
D03*
X7656Y1840D02*
D03*
X7196Y8220D02*
D03*
M02*
