G04 Layer_Color=32768*
%FSLAX24Y24*%
%MOIN*%
G70*
G01*
G75*
%ADD16C,0.0100*%
%ADD52C,0.0039*%
%ADD53C,0.0020*%
%ADD54C,0.0060*%
D16*
X12992Y12552D02*
Y16550D01*
X11811Y11971D02*
Y16550D01*
X10811Y16450D02*
X11811D01*
X12992D02*
X13992D01*
X11211Y16650D02*
X11811Y16450D01*
X11211Y16250D02*
X11811Y16450D01*
X12992D02*
X13592Y16250D01*
X12992Y16450D02*
X13592Y16650D01*
X13134Y12402D02*
X16666D01*
X12561Y11220D02*
X16666D01*
X16566Y10220D02*
Y11220D01*
Y12402D02*
Y13402D01*
X16366Y10620D02*
X16566Y11220D01*
X16766Y10620D01*
X16566Y12402D02*
X16766Y13002D01*
X16366D02*
X16566Y12402D01*
X16Y6406D02*
Y14067D01*
X-10218Y6406D02*
Y14067D01*
X-3751Y13967D02*
X16D01*
X-10218D02*
X-6771D01*
X-584Y14167D02*
X16Y13967D01*
X-584Y13767D02*
X16Y13967D01*
X-10218D02*
X-9618Y13767D01*
X-10218Y13967D02*
X-9618Y14167D01*
X13105Y0D02*
X15484D01*
X13134Y12402D02*
X15484D01*
X15384Y0D02*
Y4581D01*
Y7500D02*
Y12402D01*
Y0D02*
X15584Y600D01*
X15184D02*
X15384Y0D01*
X15184Y11802D02*
X15384Y12402D01*
X15584Y11802D01*
X12992Y12552D02*
Y14700D01*
X0Y12567D02*
Y14700D01*
X7846Y14600D02*
X12992D01*
X0D02*
X4827D01*
X12392Y14800D02*
X12992Y14600D01*
X12392Y14400D02*
X12992Y14600D01*
X0D02*
X600Y14400D01*
X0Y14600D02*
X600Y14800D01*
X0Y-1700D02*
Y-150D01*
X1181Y-1700D02*
Y431D01*
Y-1600D02*
X2181D01*
X-1000D02*
X0D01*
X1181D02*
X1781Y-1800D01*
X1181Y-1600D02*
X1781Y-1400D01*
X-600D02*
X0Y-1600D01*
X-600Y-1800D02*
X0Y-1600D01*
X-12250Y0D02*
X-150D01*
X-12250Y1181D02*
X431D01*
X-12150D02*
Y2181D01*
Y-1000D02*
Y0D01*
Y1181D02*
X-11950Y1781D01*
X-12350D02*
X-12150Y1181D01*
X-12350Y-600D02*
X-12150Y0D01*
X-11950Y-600D01*
D52*
X6408Y5501D02*
X6661Y5199D01*
X6383Y5223D02*
X6685Y5477D01*
X9937Y9400D02*
X10331D01*
X10134Y9203D02*
Y9597D01*
D53*
X12723Y1748D02*
Y3673D01*
X10124Y1748D02*
X12723D01*
X10124D02*
Y3673D01*
X12723D01*
X3636Y5604D02*
X6788Y8248D01*
X6281Y2452D02*
X9432Y5096D01*
X6788Y8248D02*
X9432Y5096D01*
X3636Y5604D02*
X6281Y2452D01*
D54*
X11192Y17670D02*
X11292Y17770D01*
X11492D01*
X11592Y17670D01*
Y17570D01*
X11492Y17470D01*
X11392D01*
X11492D01*
X11592Y17370D01*
Y17270D01*
X11492Y17170D01*
X11292D01*
X11192Y17270D01*
X11792Y17170D02*
Y17270D01*
X11892D01*
Y17170D01*
X11792D01*
X12292Y17670D02*
X12392Y17770D01*
X12591D01*
X12691Y17670D01*
Y17270D01*
X12591Y17170D01*
X12392D01*
X12292Y17270D01*
Y17670D01*
X12891D02*
X12991Y17770D01*
X13191D01*
X13291Y17670D01*
Y17270D01*
X13191Y17170D01*
X12991D01*
X12891Y17270D01*
Y17670D01*
X17506Y10601D02*
X17406Y10701D01*
Y10901D01*
X17506Y11001D01*
X17605D01*
X17705Y10901D01*
Y10801D01*
Y10901D01*
X17805Y11001D01*
X17905D01*
X18005Y10901D01*
Y10701D01*
X17905Y10601D01*
X18005Y11201D02*
X17905D01*
Y11301D01*
X18005D01*
Y11201D01*
X17506Y11701D02*
X17406Y11801D01*
Y12001D01*
X17506Y12101D01*
X17905D01*
X18005Y12001D01*
Y11801D01*
X17905Y11701D01*
X17506D01*
Y12301D02*
X17406Y12401D01*
Y12601D01*
X17506Y12701D01*
X17905D01*
X18005Y12601D01*
Y12401D01*
X17905Y12301D01*
X17506D01*
X-6211Y13607D02*
X-6611D01*
X-6211Y14007D01*
Y14106D01*
X-6311Y14206D01*
X-6511D01*
X-6611Y14106D01*
X-5611Y14206D02*
X-5811Y14106D01*
X-6011Y13907D01*
Y13707D01*
X-5911Y13607D01*
X-5711D01*
X-5611Y13707D01*
Y13807D01*
X-5711Y13907D01*
X-6011D01*
X-5411Y13607D02*
Y13707D01*
X-5311D01*
Y13607D01*
X-5411D01*
X-4911Y14106D02*
X-4811Y14206D01*
X-4611D01*
X-4511Y14106D01*
Y13707D01*
X-4611Y13607D01*
X-4811D01*
X-4911Y13707D01*
Y14106D01*
X-4311D02*
X-4211Y14206D01*
X-4011D01*
X-3911Y14106D01*
Y13707D01*
X-4011Y13607D01*
X-4211D01*
X-4311Y13707D01*
Y14106D01*
X15244Y4741D02*
X15144Y4841D01*
Y5041D01*
X15244Y5141D01*
X15344D01*
X15444Y5041D01*
Y4941D01*
Y5041D01*
X15544Y5141D01*
X15644D01*
X15744Y5041D01*
Y4841D01*
X15644Y4741D01*
X15744Y5341D02*
Y5541D01*
Y5441D01*
X15144D01*
X15244Y5341D01*
X15744Y5841D02*
X15644D01*
Y5941D01*
X15744D01*
Y5841D01*
X15144Y6741D02*
Y6341D01*
X15444D01*
X15344Y6541D01*
Y6641D01*
X15444Y6741D01*
X15644D01*
X15744Y6641D01*
Y6441D01*
X15644Y6341D01*
X15244Y6941D02*
X15144Y7040D01*
Y7240D01*
X15244Y7340D01*
X15644D01*
X15744Y7240D01*
Y7040D01*
X15644Y6941D01*
X15244D01*
X4987Y14740D02*
X5086Y14840D01*
X5286D01*
X5386Y14740D01*
Y14640D01*
X5286Y14540D01*
X5186D01*
X5286D01*
X5386Y14440D01*
Y14340D01*
X5286Y14240D01*
X5086D01*
X4987Y14340D01*
X5586Y14740D02*
X5686Y14840D01*
X5886D01*
X5986Y14740D01*
Y14640D01*
X5886Y14540D01*
X5786D01*
X5886D01*
X5986Y14440D01*
Y14340D01*
X5886Y14240D01*
X5686D01*
X5586Y14340D01*
X6186Y14240D02*
Y14340D01*
X6286D01*
Y14240D01*
X6186D01*
X6686Y14740D02*
X6786Y14840D01*
X6986D01*
X7086Y14740D01*
Y14340D01*
X6986Y14240D01*
X6786D01*
X6686Y14340D01*
Y14740D01*
X7286D02*
X7386Y14840D01*
X7586D01*
X7686Y14740D01*
Y14340D01*
X7586Y14240D01*
X7386D01*
X7286Y14340D01*
Y14740D01*
X-619Y-2540D02*
X-519Y-2440D01*
X-319D01*
X-219Y-2540D01*
Y-2640D01*
X-319Y-2740D01*
X-419D01*
X-319D01*
X-219Y-2840D01*
Y-2940D01*
X-319Y-3040D01*
X-519D01*
X-619Y-2940D01*
X-19Y-3040D02*
Y-2940D01*
X81D01*
Y-3040D01*
X-19D01*
X481Y-2540D02*
X580Y-2440D01*
X780D01*
X880Y-2540D01*
Y-2940D01*
X780Y-3040D01*
X580D01*
X481Y-2940D01*
Y-2540D01*
X1080D02*
X1180Y-2440D01*
X1380D01*
X1480Y-2540D01*
Y-2940D01*
X1380Y-3040D01*
X1180D01*
X1080Y-2940D01*
Y-2540D01*
X-13370Y-619D02*
X-13470Y-519D01*
Y-319D01*
X-13370Y-219D01*
X-13270D01*
X-13170Y-319D01*
Y-419D01*
Y-319D01*
X-13070Y-219D01*
X-12970D01*
X-12870Y-319D01*
Y-519D01*
X-12970Y-619D01*
X-12870Y-19D02*
X-12970D01*
Y81D01*
X-12870D01*
Y-19D01*
X-13370Y481D02*
X-13470Y580D01*
Y780D01*
X-13370Y880D01*
X-12970D01*
X-12870Y780D01*
Y580D01*
X-12970Y481D01*
X-13370D01*
Y1080D02*
X-13470Y1180D01*
Y1380D01*
X-13370Y1480D01*
X-12970D01*
X-12870Y1380D01*
Y1180D01*
X-12970Y1080D01*
X-13370D01*
M02*
