G04 Layer_Color=8421504*
%FSLAX24Y24*%
%MOIN*%
G70*
G01*
G75*
G04:AMPARAMS|DCode=10|XSize=21.7mil|YSize=59.1mil|CornerRadius=0mil|HoleSize=0mil|Usage=FLASHONLY|Rotation=310.000|XOffset=0mil|YOffset=0mil|HoleType=Round|Shape=Round|*
%AMOVALD10*
21,1,0.0374,0.0217,0.0000,0.0000,40.0*
1,1,0.0217,-0.0143,-0.0120*
1,1,0.0217,0.0143,0.0120*
%
%ADD10OVALD10*%

G04:AMPARAMS|DCode=11|XSize=21.7mil|YSize=59.1mil|CornerRadius=0mil|HoleSize=0mil|Usage=FLASHONLY|Rotation=40.000|XOffset=0mil|YOffset=0mil|HoleType=Round|Shape=Round|*
%AMOVALD11*
21,1,0.0374,0.0217,0.0000,0.0000,130.0*
1,1,0.0217,0.0120,-0.0143*
1,1,0.0217,-0.0120,0.0143*
%
%ADD11OVALD11*%

%ADD12R,0.0591X0.0787*%
%ADD13R,0.0945X0.0748*%
%ADD14R,0.0787X0.0591*%
G04:AMPARAMS|DCode=15|XSize=59.1mil|YSize=78.7mil|CornerRadius=0mil|HoleSize=0mil|Usage=FLASHONLY|Rotation=40.000|XOffset=0mil|YOffset=0mil|HoleType=Round|Shape=Rectangle|*
%AMROTATEDRECTD15*
4,1,4,0.0027,-0.0491,-0.0479,0.0112,-0.0027,0.0491,0.0479,-0.0112,0.0027,-0.0491,0.0*
%
%ADD15ROTATEDRECTD15*%

%ADD16R,0.0250X0.0600*%
%ADD17R,0.0600X0.0250*%
D10*
X15373Y12570D02*
D03*
X15576Y12329D02*
D03*
X15778Y12087D02*
D03*
X15981Y11846D02*
D03*
X16183Y11605D02*
D03*
X16385Y11364D02*
D03*
X16588Y11122D02*
D03*
X16790Y10881D02*
D03*
X14227Y8730D02*
D03*
X14024Y8971D02*
D03*
X13822Y9213D02*
D03*
X13619Y9454D02*
D03*
X13417Y9695D02*
D03*
X13215Y9936D02*
D03*
X13012Y10178D02*
D03*
X12810Y10419D02*
D03*
D11*
X16720Y10077D02*
D03*
X16479Y9874D02*
D03*
X16237Y9672D02*
D03*
X15996Y9469D02*
D03*
X15746Y9290D02*
D03*
X15514Y9065D02*
D03*
X15272Y8862D02*
D03*
X15031Y8660D02*
D03*
X12880Y11223D02*
D03*
X13121Y11426D02*
D03*
X13363Y11628D02*
D03*
X13604Y11831D02*
D03*
X13845Y12033D02*
D03*
X14086Y12235D02*
D03*
X14328Y12438D02*
D03*
X14569Y12640D02*
D03*
D12*
X2341Y1050D02*
D03*
X3522D02*
D03*
X2341Y2350D02*
D03*
X3522D02*
D03*
X15741Y16767D02*
D03*
X16922D02*
D03*
X19041Y12100D02*
D03*
X17859D02*
D03*
X19041Y13450D02*
D03*
X17859D02*
D03*
D13*
X16600Y15557D02*
D03*
Y13943D02*
D03*
D14*
X18900Y10841D02*
D03*
Y9659D02*
D03*
D15*
X16648Y8620D02*
D03*
X17552Y9380D02*
D03*
D16*
X17875Y5923D02*
D03*
X17284D02*
D03*
X16694D02*
D03*
X16103D02*
D03*
X15513D02*
D03*
X14922D02*
D03*
X14332D02*
D03*
X13741D02*
D03*
X13150D02*
D03*
X12560D02*
D03*
X11969D02*
D03*
X11379D02*
D03*
X10788D02*
D03*
Y600D02*
D03*
X11379D02*
D03*
X11969D02*
D03*
X12560D02*
D03*
X13150D02*
D03*
X13741D02*
D03*
X14332D02*
D03*
X14922D02*
D03*
X15513D02*
D03*
X16103D02*
D03*
X16694D02*
D03*
X17284D02*
D03*
X17875D02*
D03*
D17*
X10050Y5332D02*
D03*
Y4742D02*
D03*
Y4151D02*
D03*
Y3561D02*
D03*
Y2970D02*
D03*
Y2370D02*
D03*
Y1780D02*
D03*
Y1190D02*
D03*
M02*
