G04 Layer_Color=8388736*
%FSLAX24Y24*%
%MOIN*%
G70*
G01*
G75*
G04:AMPARAMS|DCode=33|XSize=67.1mil|YSize=86.7mil|CornerRadius=0mil|HoleSize=0mil|Usage=FLASHONLY|Rotation=40.000|XOffset=0mil|YOffset=0mil|HoleType=Round|Shape=Rectangle|*
%AMROTATEDRECTD33*
4,1,4,0.0022,-0.0548,-0.0536,0.0117,-0.0022,0.0548,0.0536,-0.0117,0.0022,-0.0548,0.0*
%
%ADD33ROTATEDRECTD33*%

%ADD34R,0.0867X0.0671*%
%ADD35R,0.0671X0.0867*%
%ADD36R,0.1025X0.0828*%
G04:AMPARAMS|DCode=37|XSize=29.7mil|YSize=67.1mil|CornerRadius=0mil|HoleSize=0mil|Usage=FLASHONLY|Rotation=40.000|XOffset=0mil|YOffset=0mil|HoleType=Round|Shape=Round|*
%AMOVALD37*
21,1,0.0374,0.0297,0.0000,0.0000,130.0*
1,1,0.0297,0.0120,-0.0143*
1,1,0.0297,-0.0120,0.0143*
%
%ADD37OVALD37*%

G04:AMPARAMS|DCode=38|XSize=29.7mil|YSize=67.1mil|CornerRadius=0mil|HoleSize=0mil|Usage=FLASHONLY|Rotation=310.000|XOffset=0mil|YOffset=0mil|HoleType=Round|Shape=Round|*
%AMOVALD38*
21,1,0.0374,0.0297,0.0000,0.0000,40.0*
1,1,0.0297,-0.0143,-0.0120*
1,1,0.0297,0.0143,0.0120*
%
%ADD38OVALD38*%

%ADD39R,0.0789X0.0789*%
%ADD40C,0.0789*%
%ADD41C,0.1300*%
%ADD42C,0.0623*%
%ADD43R,0.0623X0.0623*%
%ADD44C,0.0867*%
%ADD45R,0.0671X0.0671*%
%ADD46C,0.0671*%
%ADD47R,0.0789X0.0789*%
%ADD48O,0.0474X0.0867*%
%ADD49R,0.0474X0.0867*%
%ADD50C,0.0580*%
D33*
X9287Y4080D02*
D03*
X8382Y3320D02*
D03*
D34*
X10634Y4359D02*
D03*
Y5541D02*
D03*
D35*
X9594Y8150D02*
D03*
X10775D02*
D03*
X9594Y6800D02*
D03*
X10775D02*
D03*
X8657Y11467D02*
D03*
X7476D02*
D03*
X9694Y1150D02*
D03*
X10875D02*
D03*
D36*
X8334Y8643D02*
D03*
Y10257D02*
D03*
D37*
X6303Y7340D02*
D03*
X6062Y7138D02*
D03*
X5821Y6935D02*
D03*
X5579Y6733D02*
D03*
X5338Y6531D02*
D03*
X5097Y6328D02*
D03*
X4856Y6126D02*
D03*
X4614Y5923D02*
D03*
X6765Y3360D02*
D03*
X7007Y3562D02*
D03*
X7248Y3765D02*
D03*
X7480Y3990D02*
D03*
X7730Y4169D02*
D03*
X7972Y4372D02*
D03*
X8213Y4574D02*
D03*
X8454Y4777D02*
D03*
D38*
X4544Y5119D02*
D03*
X4746Y4878D02*
D03*
X4949Y4636D02*
D03*
X5151Y4395D02*
D03*
X5354Y4154D02*
D03*
X5556Y3913D02*
D03*
X5759Y3671D02*
D03*
X5961Y3430D02*
D03*
X8525Y5581D02*
D03*
X8322Y5822D02*
D03*
X8120Y6064D02*
D03*
X7917Y6305D02*
D03*
X7715Y6546D02*
D03*
X7512Y6787D02*
D03*
X7310Y7029D02*
D03*
X7107Y7270D02*
D03*
D39*
X6284Y9450D02*
D03*
X12084Y8500D02*
D03*
X3284Y11450D02*
D03*
D40*
X6284D02*
D03*
Y10450D02*
D03*
X12084Y4500D02*
D03*
Y5500D02*
D03*
Y6500D02*
D03*
Y7500D02*
D03*
X8350Y800D02*
D03*
X7350D02*
D03*
X6350D02*
D03*
X1884Y11450D02*
D03*
D41*
X1181Y1181D02*
D03*
X11811Y11220D02*
D03*
D42*
X1984Y2400D02*
D03*
X984D02*
D03*
X10924Y2295D02*
D03*
X11924D02*
D03*
Y3126D02*
D03*
D43*
X2984Y2400D02*
D03*
X10924Y3126D02*
D03*
D44*
X1298Y6170D02*
D03*
Y8730D02*
D03*
X3070Y6170D02*
D03*
Y8730D02*
D03*
D45*
X3234Y4700D02*
D03*
D46*
Y3700D02*
D03*
X2234Y4700D02*
D03*
Y3700D02*
D03*
X1234Y4700D02*
D03*
Y3700D02*
D03*
D47*
X5350Y800D02*
D03*
X884Y11450D02*
D03*
D48*
X10634Y9400D02*
D03*
X10134D02*
D03*
D49*
X9634D02*
D03*
D50*
X7246Y4570D02*
D03*
X6316Y6170D02*
D03*
X5936Y5610D02*
D03*
X3356Y5410D02*
D03*
X5556Y4850D02*
D03*
X11446Y1820D02*
D03*
X9146Y5800D02*
D03*
X9756D02*
D03*
X11356Y3940D02*
D03*
X7686Y4950D02*
D03*
X7087Y5231D02*
D03*
X8626Y7060D02*
D03*
X5760Y2010D02*
D03*
X8066Y7540D02*
D03*
X5116Y5490D02*
D03*
X8906Y1830D02*
D03*
X7656Y1840D02*
D03*
X7196Y8220D02*
D03*
M02*
