G04 Layer_Color=16711935*
%FSLAX24Y24*%
%MOIN*%
G70*
G01*
G75*
%ADD43R,0.0671X0.0867*%
%ADD45R,0.0867X0.0671*%
%ADD49R,0.0474X0.0867*%
%ADD50O,0.0474X0.0867*%
%ADD51C,0.0623*%
%ADD52R,0.0623X0.0623*%
%ADD53R,0.0789X0.0789*%
%ADD54R,0.0789X0.0789*%
%ADD55C,0.0789*%
%ADD56C,0.1300*%
%ADD57C,0.0671*%
%ADD58R,0.0671X0.0671*%
%ADD59C,0.0867*%
%ADD60C,0.0580*%
G04:AMPARAMS|DCode=61|XSize=67.1mil|YSize=86.7mil|CornerRadius=0mil|HoleSize=0mil|Usage=FLASHONLY|Rotation=10.000|XOffset=0mil|YOffset=0mil|HoleType=Round|Shape=Rectangle|*
%AMROTATEDRECTD61*
4,1,4,-0.0255,-0.0485,-0.0405,0.0369,0.0255,0.0485,0.0405,-0.0369,-0.0255,-0.0485,0.0*
%
%ADD61ROTATEDRECTD61*%

%ADD62R,0.0769X0.0572*%
G04:AMPARAMS|DCode=63|XSize=22.6mil|YSize=33.6mil|CornerRadius=0mil|HoleSize=0mil|Usage=FLASHONLY|Rotation=130.000|XOffset=0mil|YOffset=0mil|HoleType=Round|Shape=Rectangle|*
%AMROTATEDRECTD63*
4,1,4,0.0201,0.0022,-0.0056,-0.0194,-0.0201,-0.0022,0.0056,0.0194,0.0201,0.0022,0.0*
%
%ADD63ROTATEDRECTD63*%

G04:AMPARAMS|DCode=64|XSize=22.6mil|YSize=33.6mil|CornerRadius=0mil|HoleSize=0mil|Usage=FLASHONLY|Rotation=220.000|XOffset=0mil|YOffset=0mil|HoleType=Round|Shape=Rectangle|*
%AMROTATEDRECTD64*
4,1,4,-0.0022,0.0201,0.0194,-0.0056,0.0022,-0.0201,-0.0194,0.0056,-0.0022,0.0201,0.0*
%
%ADD64ROTATEDRECTD64*%

%ADD65P,0.1088X4X265.0*%
D43*
X12509Y13500D02*
D03*
X13691D02*
D03*
X11041Y12750D02*
D03*
X9859D02*
D03*
X18859Y8900D02*
D03*
X20041D02*
D03*
X18861Y10300D02*
D03*
X20042D02*
D03*
X18883Y11549D02*
D03*
X20064D02*
D03*
X18859Y12850D02*
D03*
X20041D02*
D03*
D45*
X13632Y959D02*
D03*
Y2141D02*
D03*
D49*
X17900Y14700D02*
D03*
D50*
X18400D02*
D03*
X18900D02*
D03*
D51*
X9250Y7700D02*
D03*
X10250D02*
D03*
X5521Y2076D02*
D03*
Y1245D02*
D03*
X4521D02*
D03*
D52*
X11250Y7700D02*
D03*
X4521Y2076D02*
D03*
D53*
X11550Y16750D02*
D03*
X21350Y12800D02*
D03*
X14550Y14750D02*
D03*
D54*
X9150Y16750D02*
D03*
X13700Y7050D02*
D03*
D55*
X10150Y16750D02*
D03*
X14700Y7050D02*
D03*
X15700D02*
D03*
X16700D02*
D03*
X21350Y11800D02*
D03*
Y10800D02*
D03*
Y9800D02*
D03*
Y8800D02*
D03*
X14550Y15750D02*
D03*
Y16750D02*
D03*
D56*
X7874Y1378D02*
D03*
X18504Y16339D02*
D03*
D57*
X9500Y9000D02*
D03*
Y10000D02*
D03*
X10500Y9000D02*
D03*
Y10000D02*
D03*
X11500Y9000D02*
D03*
D58*
Y10000D02*
D03*
D59*
X11336Y14030D02*
D03*
Y11470D02*
D03*
X9564Y14030D02*
D03*
Y11470D02*
D03*
D60*
X18100Y8700D02*
D03*
X13501Y12770D02*
D03*
X12681Y6940D02*
D03*
X10422D02*
D03*
X13842Y8180D02*
D03*
X16431Y13210D02*
D03*
X11672Y12991D02*
D03*
X12321Y9250D02*
D03*
X12941Y1880D02*
D03*
X20612Y15190D02*
D03*
X10452Y15140D02*
D03*
Y11450D02*
D03*
X12121Y1990D02*
D03*
X12462Y9820D02*
D03*
X13261Y8260D02*
D03*
X15522Y13970D02*
D03*
X16999Y12101D02*
D03*
X16472Y12480D02*
D03*
X12091Y12470D02*
D03*
X15352Y11390D02*
D03*
X15381Y10518D02*
D03*
X15491Y8290D02*
D03*
X12021Y7920D02*
D03*
X5041Y2570D02*
D03*
X19059Y7637D02*
D03*
X17121Y8030D02*
D03*
X14291Y9720D02*
D03*
X18275Y7093D02*
D03*
X17976Y10665D02*
D03*
X15541Y14950D02*
D03*
X11342Y1820D02*
D03*
X11379Y5320D02*
D03*
X10788Y1990D02*
D03*
D61*
X10850Y1047D02*
D03*
X12013Y1253D02*
D03*
D62*
X14796Y1076D02*
D03*
Y2159D02*
D03*
D63*
X13069Y10063D02*
D03*
X12904Y10259D02*
D03*
X12740Y10455D02*
D03*
X12576Y10651D02*
D03*
X13631Y11537D02*
D03*
X13796Y11341D02*
D03*
X13960Y11145D02*
D03*
X14125Y10949D02*
D03*
D64*
X12613Y11081D02*
D03*
X12809Y11246D02*
D03*
X13005Y11410D02*
D03*
X13201Y11575D02*
D03*
X14087Y10519D02*
D03*
X13891Y10354D02*
D03*
X13695Y10190D02*
D03*
X13499Y10025D02*
D03*
D65*
X13350Y10800D02*
D03*
M02*
