G04 Layer_Color=16711935*
%FSLAX24Y24*%
%MOIN*%
G70*
G01*
G75*
%ADD38C,0.0079*%
%ADD39C,0.0050*%
%ADD67C,0.0039*%
%ADD68C,0.0060*%
D38*
X4230Y2774D02*
G03*
X4230Y2774I-39J0D01*
G01*
D02*
G03*
X4230Y2774I-39J0D01*
G01*
D39*
X12776Y9754D02*
G03*
X12776Y9754I-50J0D01*
G01*
X12868D02*
G03*
X12868Y9754I-141J0D01*
G01*
X12776D02*
G03*
X12776Y9754I-50J0D01*
G01*
X12868D02*
G03*
X12868Y9754I-141J0D01*
G01*
X6222Y796D02*
Y2525D01*
X3820D02*
X6222D01*
X3820Y796D02*
Y2525D01*
Y796D02*
X6222D01*
Y2525D01*
X3820D02*
X6222D01*
X3820Y796D02*
Y2525D01*
Y796D02*
X6222D01*
X13671Y10417D02*
X14054Y10738D01*
X12646Y10862D02*
X12967Y10479D01*
X13671Y10417D02*
X14054Y10738D01*
X12646Y10862D02*
X12967Y10479D01*
D67*
X17593Y15330D02*
G03*
X19207Y15330I807J-630D01*
G01*
X15123Y12092D02*
G03*
X15123Y12092I-197J0D01*
G01*
X17593Y15330D02*
X19207D01*
X12859Y10820D02*
X14630Y8709D01*
X14970Y12591D02*
X16741Y10480D01*
X14630Y8709D02*
X16741Y10480D01*
X12859Y10820D02*
X14970Y12591D01*
D68*
X12967Y10479D02*
X13128Y10287D01*
X13480Y10256D02*
X14054Y10738D01*
X13412Y11504D02*
X14054Y10738D01*
X12646Y10862D02*
X13412Y11504D01*
M02*
