G04 Layer_Color=8388736*
%FSLAX24Y24*%
%MOIN*%
G70*
G01*
G75*
G04:AMPARAMS|DCode=41|XSize=29.7mil|YSize=67.1mil|CornerRadius=0mil|HoleSize=0mil|Usage=FLASHONLY|Rotation=310.000|XOffset=0mil|YOffset=0mil|HoleType=Round|Shape=Round|*
%AMOVALD41*
21,1,0.0374,0.0297,0.0000,0.0000,40.0*
1,1,0.0297,-0.0143,-0.0120*
1,1,0.0297,0.0143,0.0120*
%
%ADD41OVALD41*%

G04:AMPARAMS|DCode=42|XSize=29.7mil|YSize=67.1mil|CornerRadius=0mil|HoleSize=0mil|Usage=FLASHONLY|Rotation=40.000|XOffset=0mil|YOffset=0mil|HoleType=Round|Shape=Round|*
%AMOVALD42*
21,1,0.0374,0.0297,0.0000,0.0000,130.0*
1,1,0.0297,0.0120,-0.0143*
1,1,0.0297,-0.0120,0.0143*
%
%ADD42OVALD42*%

%ADD43R,0.0671X0.0867*%
%ADD44R,0.1025X0.0828*%
%ADD45R,0.0867X0.0671*%
G04:AMPARAMS|DCode=46|XSize=67.1mil|YSize=86.7mil|CornerRadius=0mil|HoleSize=0mil|Usage=FLASHONLY|Rotation=40.000|XOffset=0mil|YOffset=0mil|HoleType=Round|Shape=Rectangle|*
%AMROTATEDRECTD46*
4,1,4,0.0022,-0.0548,-0.0536,0.0117,-0.0022,0.0548,0.0536,-0.0117,0.0022,-0.0548,0.0*
%
%ADD46ROTATEDRECTD46*%

%ADD47R,0.0330X0.0680*%
%ADD48R,0.0680X0.0330*%
%ADD49R,0.0474X0.0867*%
%ADD50O,0.0474X0.0867*%
%ADD51C,0.0623*%
%ADD52R,0.0623X0.0623*%
%ADD53R,0.0789X0.0789*%
%ADD54R,0.0789X0.0789*%
%ADD55C,0.0789*%
%ADD56C,0.1300*%
%ADD57C,0.0671*%
%ADD58R,0.0671X0.0671*%
%ADD59C,0.0867*%
%ADD60C,0.0580*%
D41*
X15373Y12570D02*
D03*
X15576Y12329D02*
D03*
X15778Y12087D02*
D03*
X15981Y11846D02*
D03*
X16183Y11605D02*
D03*
X16385Y11364D02*
D03*
X16588Y11122D02*
D03*
X16790Y10881D02*
D03*
X14227Y8730D02*
D03*
X14024Y8971D02*
D03*
X13822Y9213D02*
D03*
X13619Y9454D02*
D03*
X13417Y9695D02*
D03*
X13215Y9936D02*
D03*
X13012Y10178D02*
D03*
X12810Y10419D02*
D03*
D42*
X16720Y10077D02*
D03*
X16479Y9874D02*
D03*
X16237Y9672D02*
D03*
X15996Y9469D02*
D03*
X15746Y9290D02*
D03*
X15514Y9065D02*
D03*
X15272Y8862D02*
D03*
X15031Y8660D02*
D03*
X12880Y11223D02*
D03*
X13121Y11426D02*
D03*
X13363Y11628D02*
D03*
X13604Y11831D02*
D03*
X13845Y12033D02*
D03*
X14086Y12235D02*
D03*
X14328Y12438D02*
D03*
X14569Y12640D02*
D03*
D43*
X2341Y1050D02*
D03*
X3522D02*
D03*
X2341Y2350D02*
D03*
X3522D02*
D03*
X15741Y16767D02*
D03*
X16922D02*
D03*
X19041Y12100D02*
D03*
X17859D02*
D03*
X19041Y13450D02*
D03*
X17859D02*
D03*
D44*
X16600Y15557D02*
D03*
Y13943D02*
D03*
D45*
X18900Y10841D02*
D03*
Y9659D02*
D03*
D46*
X16648Y8620D02*
D03*
X17552Y9380D02*
D03*
D47*
X17875Y5923D02*
D03*
X17284D02*
D03*
X16694D02*
D03*
X16103D02*
D03*
X15513D02*
D03*
X14922D02*
D03*
X14332D02*
D03*
X13741D02*
D03*
X13150D02*
D03*
X12560D02*
D03*
X11969D02*
D03*
X11379D02*
D03*
X10788D02*
D03*
Y600D02*
D03*
X11379D02*
D03*
X11969D02*
D03*
X12560D02*
D03*
X13150D02*
D03*
X13741D02*
D03*
X14332D02*
D03*
X14922D02*
D03*
X15513D02*
D03*
X16103D02*
D03*
X16694D02*
D03*
X17284D02*
D03*
X17875D02*
D03*
D48*
X10050Y5332D02*
D03*
Y4742D02*
D03*
Y4151D02*
D03*
Y3561D02*
D03*
Y2970D02*
D03*
Y2370D02*
D03*
Y1780D02*
D03*
Y1190D02*
D03*
D49*
X17900Y14700D02*
D03*
D50*
X18400D02*
D03*
X18900D02*
D03*
D51*
X9250Y7700D02*
D03*
X10250D02*
D03*
X5521Y2076D02*
D03*
Y1245D02*
D03*
X4521D02*
D03*
D52*
X11250Y7700D02*
D03*
X4521Y2076D02*
D03*
D53*
X11550Y16750D02*
D03*
X21350Y12800D02*
D03*
X14550Y14750D02*
D03*
D54*
X9150Y16750D02*
D03*
X13700Y7050D02*
D03*
D55*
X10150Y16750D02*
D03*
X14700Y7050D02*
D03*
X15700D02*
D03*
X16700D02*
D03*
X21350Y11800D02*
D03*
Y10800D02*
D03*
Y9800D02*
D03*
Y8800D02*
D03*
X14550Y15750D02*
D03*
Y16750D02*
D03*
D56*
X7874Y1378D02*
D03*
X18504Y16339D02*
D03*
D57*
X9500Y9000D02*
D03*
Y10000D02*
D03*
X10500Y9000D02*
D03*
Y10000D02*
D03*
X11500Y9000D02*
D03*
D58*
Y10000D02*
D03*
D59*
X11336Y14030D02*
D03*
Y11470D02*
D03*
X9564Y14030D02*
D03*
Y11470D02*
D03*
D60*
X18100Y8700D02*
D03*
X13501Y12770D02*
D03*
X12681Y6940D02*
D03*
X10422D02*
D03*
X13842Y8180D02*
D03*
X16431Y13210D02*
D03*
X11672Y12991D02*
D03*
X12321Y9250D02*
D03*
X12941Y1880D02*
D03*
X20612Y15190D02*
D03*
X10452Y15140D02*
D03*
Y11450D02*
D03*
X12121Y1990D02*
D03*
X12462Y9820D02*
D03*
X13261Y8260D02*
D03*
X15522Y13970D02*
D03*
X16999Y12101D02*
D03*
X16472Y12480D02*
D03*
X12091Y12470D02*
D03*
X15352Y11390D02*
D03*
X15381Y10518D02*
D03*
X15491Y8290D02*
D03*
X12021Y7920D02*
D03*
X5041Y2570D02*
D03*
X19059Y7637D02*
D03*
X17121Y8030D02*
D03*
X14291Y9720D02*
D03*
X18275Y7093D02*
D03*
X17976Y10665D02*
D03*
X15541Y14950D02*
D03*
X11342Y1820D02*
D03*
X11379Y5320D02*
D03*
X10788Y1990D02*
D03*
M02*
