G04 Layer_Color=128*
%FSLAX24Y24*%
%MOIN*%
G70*
G01*
G75*
%ADD39C,0.0050*%
D39*
X17752Y14700D02*
X18048D01*
X17900Y14552D02*
Y14848D01*
X18252Y14700D02*
X18548D01*
X18400Y14552D02*
Y14848D01*
X18752Y14700D02*
X19048D01*
X18900Y14552D02*
Y14848D01*
X9079Y7700D02*
X9421D01*
X9250Y7529D02*
Y7871D01*
X11079Y7700D02*
X11421D01*
X11250Y7529D02*
Y7871D01*
X10079Y7700D02*
X10421D01*
X10250Y7529D02*
Y7871D01*
X11353Y16750D02*
X11747D01*
X11550Y16553D02*
Y16947D01*
X5350Y2076D02*
X5692D01*
X5521Y1905D02*
Y2247D01*
X4350Y2076D02*
X4692D01*
X4521Y1905D02*
Y2247D01*
X5350Y1245D02*
X5692D01*
X5521Y1074D02*
Y1417D01*
X4350Y1245D02*
X4692D01*
X4521Y1074D02*
Y1417D01*
X8953Y16750D02*
X9347D01*
X9150Y16553D02*
Y16947D01*
X9953Y16750D02*
X10347D01*
X10150Y16553D02*
Y16947D01*
X7264Y1378D02*
X8484D01*
X7874Y768D02*
Y1988D01*
X17894Y16339D02*
X19114D01*
X18504Y15728D02*
Y16949D01*
X14503Y7050D02*
X14897D01*
X14700Y6853D02*
Y7247D01*
X15503Y7050D02*
X15897D01*
X15700Y6853D02*
Y7247D01*
X13503Y7050D02*
X13897D01*
X13700Y6853D02*
Y7247D01*
X16503Y7050D02*
X16897D01*
X16700Y6853D02*
Y7247D01*
X21153Y11800D02*
X21547D01*
X21350Y11603D02*
Y11997D01*
X21153Y10800D02*
X21547D01*
X21350Y10603D02*
Y10997D01*
X21153Y12800D02*
X21547D01*
X21350Y12603D02*
Y12997D01*
X21153Y9800D02*
X21547D01*
X21350Y9603D02*
Y9997D01*
X21153Y8800D02*
X21547D01*
X21350Y8603D02*
Y8997D01*
X14353Y15750D02*
X14747D01*
X14550Y15553D02*
Y15947D01*
X14353Y16750D02*
X14747D01*
X14550Y16553D02*
Y16947D01*
X14353Y14750D02*
X14747D01*
X14550Y14553D02*
Y14947D01*
X9323Y9000D02*
X9677D01*
X9500Y8823D02*
Y9177D01*
X9323Y10000D02*
X9677D01*
X9500Y9823D02*
Y10177D01*
X10323Y9000D02*
X10677D01*
X10500Y8823D02*
Y9177D01*
X10323Y10000D02*
X10677D01*
X10500Y9823D02*
Y10177D01*
X11323Y9000D02*
X11677D01*
X11500Y8823D02*
Y9177D01*
X11323Y10000D02*
X11677D01*
X11500Y9823D02*
Y10177D01*
X11139Y14030D02*
X11533D01*
X11336Y13833D02*
Y14226D01*
X11139Y11470D02*
X11533D01*
X11336Y11274D02*
Y11667D01*
X9367Y14030D02*
X9761D01*
X9564Y13833D02*
Y14226D01*
X9367Y11470D02*
X9761D01*
X9564Y11274D02*
Y11667D01*
X17960Y8700D02*
X18240D01*
X18100Y8560D02*
Y8840D01*
X13362Y12770D02*
X13642D01*
X13501Y12630D02*
Y12910D01*
X12542Y6940D02*
X12822D01*
X12681Y6800D02*
Y7080D01*
X10281Y6940D02*
X10561D01*
X10422Y6800D02*
Y7080D01*
X13701Y8180D02*
X13981D01*
X13842Y8040D02*
Y8320D01*
X16292Y13210D02*
X16572D01*
X16431Y13070D02*
Y13350D01*
X11531Y12991D02*
X11811D01*
X11672Y12851D02*
Y13131D01*
X12182Y9250D02*
X12462D01*
X12321Y9110D02*
Y9390D01*
X12802Y1880D02*
X13082D01*
X12941Y1740D02*
Y2020D01*
X20471Y15190D02*
X20752D01*
X20612Y15050D02*
Y15330D01*
X10311Y15140D02*
X10591D01*
X10452Y15000D02*
Y15280D01*
X10311Y11450D02*
X10591D01*
X10452Y11310D02*
Y11590D01*
X11982Y1990D02*
X12262D01*
X12121Y1850D02*
Y2130D01*
X12321Y9820D02*
X12601D01*
X12462Y9680D02*
Y9960D01*
X13122Y8260D02*
X13401D01*
X13261Y8120D02*
Y8400D01*
X15381Y13970D02*
X15661D01*
X15522Y13830D02*
Y14110D01*
X16859Y12101D02*
X17139D01*
X16999Y11961D02*
Y12241D01*
X16331Y12480D02*
X16611D01*
X16472Y12340D02*
Y12620D01*
X11952Y12470D02*
X12232D01*
X12091Y12330D02*
Y12610D01*
X15211Y11390D02*
X15491D01*
X15352Y11250D02*
Y11530D01*
X15242Y10518D02*
X15522D01*
X15381Y10378D02*
Y10658D01*
X15352Y8290D02*
X15632D01*
X15491Y8150D02*
Y8430D01*
X11882Y7920D02*
X12162D01*
X12021Y7780D02*
Y8060D01*
X4902Y2570D02*
X5181D01*
X5041Y2430D02*
Y2710D01*
X18919Y7637D02*
X19199D01*
X19059Y7497D02*
Y7777D01*
X16982Y8030D02*
X17262D01*
X17121Y7890D02*
Y8170D01*
X14152Y9720D02*
X14432D01*
X14291Y9580D02*
Y9860D01*
X18135Y7093D02*
X18415D01*
X18275Y6953D02*
Y7233D01*
X17837Y10665D02*
X18117D01*
X17976Y10525D02*
Y10805D01*
X15402Y14950D02*
X15682D01*
X15541Y14810D02*
Y15090D01*
X11201Y1820D02*
X11481D01*
X11342Y1680D02*
Y1960D01*
X11239Y5320D02*
X11519D01*
X11379Y5180D02*
Y5460D01*
X10648Y1990D02*
X10928D01*
X10788Y1850D02*
Y2130D01*
M02*
