G04 Layer_Color=128*
%FSLAX24Y24*%
%MOIN*%
G70*
G01*
G75*
%ADD55C,0.0020*%
D55*
X6087Y9450D02*
X6481D01*
X6284Y9253D02*
Y9647D01*
X6087Y11450D02*
X6481D01*
X6284Y11253D02*
Y11647D01*
X6087Y10450D02*
X6481D01*
X6284Y10253D02*
Y10647D01*
X571Y1181D02*
X1791D01*
X1181Y571D02*
Y1791D01*
X1813Y2400D02*
X2156D01*
X1984Y2229D02*
Y2571D01*
X2813Y2400D02*
X3155D01*
X2984Y2229D02*
Y2571D01*
X813Y2400D02*
X1155D01*
X984Y2229D02*
Y2571D01*
X10752Y2295D02*
X11095D01*
X10924Y2124D02*
Y2467D01*
X11752Y2295D02*
X12095D01*
X11924Y2124D02*
Y2467D01*
X10752Y3126D02*
X11095D01*
X10924Y2955D02*
Y3297D01*
X11752Y3126D02*
X12095D01*
X11924Y2955D02*
Y3297D01*
X1102Y6170D02*
X1495D01*
X1298Y5974D02*
Y6367D01*
X1102Y8730D02*
X1495D01*
X1298Y8533D02*
Y8926D01*
X2873Y6170D02*
X3267D01*
X3070Y5974D02*
Y6367D01*
X2873Y8730D02*
X3267D01*
X3070Y8533D02*
Y8926D01*
X3057Y4700D02*
X3411D01*
X3234Y4523D02*
Y4877D01*
X3057Y3700D02*
X3411D01*
X3234Y3523D02*
Y3877D01*
X2057Y4700D02*
X2411D01*
X2234Y4523D02*
Y4877D01*
X2057Y3700D02*
X2411D01*
X2234Y3523D02*
Y3877D01*
X1057Y4700D02*
X1411D01*
X1234Y4523D02*
Y4877D01*
X1057Y3700D02*
X1411D01*
X1234Y3523D02*
Y3877D01*
X11887Y4500D02*
X12281D01*
X12084Y4303D02*
Y4697D01*
X11887Y5500D02*
X12281D01*
X12084Y5303D02*
Y5697D01*
X11887Y8500D02*
X12281D01*
X12084Y8303D02*
Y8697D01*
X11887Y6500D02*
X12281D01*
X12084Y6303D02*
Y6697D01*
X11887Y7500D02*
X12281D01*
X12084Y7303D02*
Y7697D01*
X8153Y800D02*
X8547D01*
X8350Y603D02*
Y997D01*
X5153Y800D02*
X5547D01*
X5350Y603D02*
Y997D01*
X7153Y800D02*
X7547D01*
X7350Y603D02*
Y997D01*
X6153Y800D02*
X6547D01*
X6350Y603D02*
Y997D01*
X11201Y11220D02*
X12421D01*
X11811Y10610D02*
Y11831D01*
X1687Y11450D02*
X2081D01*
X1884Y11253D02*
Y11647D01*
X687Y11450D02*
X1081D01*
X884Y11253D02*
Y11647D01*
X3087Y11450D02*
X3481D01*
X3284Y11253D02*
Y11647D01*
X10487Y9400D02*
X10782D01*
X10634Y9252D02*
Y9548D01*
X9987Y9400D02*
X10282D01*
X10134Y9252D02*
Y9548D01*
X9487Y9400D02*
X9782D01*
X9634Y9252D02*
Y9548D01*
X7106Y4570D02*
X7386D01*
X7246Y4430D02*
Y4710D01*
X6176Y6170D02*
X6456D01*
X6316Y6030D02*
Y6310D01*
X5796Y5610D02*
X6076D01*
X5936Y5470D02*
Y5750D01*
X3216Y5410D02*
X3496D01*
X3356Y5270D02*
Y5550D01*
X5416Y4850D02*
X5696D01*
X5556Y4710D02*
Y4990D01*
X11306Y1820D02*
X11586D01*
X11446Y1680D02*
Y1960D01*
X9006Y5800D02*
X9286D01*
X9146Y5660D02*
Y5940D01*
X9616Y5800D02*
X9896D01*
X9756Y5660D02*
Y5940D01*
X11216Y3940D02*
X11496D01*
X11356Y3800D02*
Y4080D01*
X7546Y4950D02*
X7826D01*
X7686Y4810D02*
Y5090D01*
X6947Y5231D02*
X7227D01*
X7087Y5091D02*
Y5371D01*
X8486Y7060D02*
X8766D01*
X8626Y6920D02*
Y7200D01*
X5620Y2010D02*
X5900D01*
X5760Y1870D02*
Y2150D01*
X7926Y7540D02*
X8206D01*
X8066Y7400D02*
Y7680D01*
X4976Y5490D02*
X5256D01*
X5116Y5350D02*
Y5630D01*
X8766Y1830D02*
X9046D01*
X8906Y1690D02*
Y1970D01*
X7516Y1840D02*
X7796D01*
X7656Y1700D02*
Y1980D01*
X7056Y8220D02*
X7336D01*
X7196Y8080D02*
Y8360D01*
M02*
