G04 Layer_Color=16711935*
%FSLAX24Y24*%
%MOIN*%
G70*
G01*
G75*
%ADD35R,0.0671X0.0867*%
%ADD37R,0.0867X0.0671*%
%ADD39R,0.0474X0.0867*%
%ADD40O,0.0474X0.0867*%
%ADD41R,0.0789X0.0789*%
%ADD42R,0.0789X0.0789*%
%ADD43C,0.0789*%
%ADD44C,0.1300*%
%ADD45C,0.0671*%
%ADD46R,0.0671X0.0671*%
%ADD47C,0.0867*%
%ADD48C,0.0623*%
%ADD49R,0.0623X0.0623*%
%ADD50C,0.0580*%
D35*
X10944Y1150D02*
D03*
X12125D02*
D03*
X4244Y8200D02*
D03*
X5425D02*
D03*
X2775Y7450D02*
D03*
X1594D02*
D03*
D37*
X7434Y2809D02*
D03*
Y3991D02*
D03*
D39*
X9634Y9400D02*
D03*
D40*
X10134D02*
D03*
X10634D02*
D03*
D41*
X3284Y11450D02*
D03*
X12084Y8500D02*
D03*
X6284Y9450D02*
D03*
D42*
X884Y11450D02*
D03*
X5350Y800D02*
D03*
D43*
X1884Y11450D02*
D03*
X6350Y800D02*
D03*
X7350D02*
D03*
X8350D02*
D03*
X12084Y7500D02*
D03*
Y6500D02*
D03*
Y5500D02*
D03*
Y4500D02*
D03*
X6284Y10450D02*
D03*
Y11450D02*
D03*
D44*
X11811Y11220D02*
D03*
X1181Y1181D02*
D03*
D45*
X1234Y3700D02*
D03*
Y4700D02*
D03*
X2234Y3700D02*
D03*
Y4700D02*
D03*
X3234Y3700D02*
D03*
D46*
Y4700D02*
D03*
D47*
X3070Y8730D02*
D03*
Y6170D02*
D03*
X1298Y8730D02*
D03*
Y6170D02*
D03*
D48*
X11924Y3126D02*
D03*
Y2295D02*
D03*
X10924D02*
D03*
X984Y2400D02*
D03*
X1984D02*
D03*
D49*
X10924Y3126D02*
D03*
X2984Y2400D02*
D03*
D50*
X7196Y8220D02*
D03*
X7656Y1840D02*
D03*
X8906Y1830D02*
D03*
X5116Y5490D02*
D03*
X8066Y7540D02*
D03*
X5760Y2010D02*
D03*
X8626Y7060D02*
D03*
X7087Y5231D02*
D03*
X7686Y4950D02*
D03*
X11356Y3940D02*
D03*
X9756Y5800D02*
D03*
X9146D02*
D03*
X11446Y1820D02*
D03*
X5556Y4850D02*
D03*
X3356Y5410D02*
D03*
X5936Y5610D02*
D03*
X6316Y6170D02*
D03*
X7246Y4570D02*
D03*
M02*
