G04 Layer_Color=32896*
%FSLAX24Y24*%
%MOIN*%
G70*
G01*
G75*
%ADD16C,0.0100*%
%ADD30C,0.0098*%
%ADD31C,0.0079*%
%ADD51C,0.0050*%
D16*
X7921Y4550D02*
G03*
X7921Y4550I-5906J0D01*
G01*
X9890D02*
G03*
X9890Y4550I-7874J0D01*
G01*
X4388Y1599D02*
G03*
X-380Y1625I-2362J4092D01*
G01*
X-366Y-762D02*
Y1600D01*
Y-762D02*
X4359D01*
Y1600D01*
X800Y5400D02*
X3500D01*
X3550Y5450D01*
Y5738D01*
X3562Y5750D01*
X6750D01*
X4452Y4850D02*
X6650D01*
X4400Y4798D02*
X4452Y4850D01*
X4400Y3000D02*
Y4798D01*
X4350Y2950D02*
X4400Y3000D01*
X750Y2950D02*
X4350D01*
X500Y3200D02*
X750Y2950D01*
X500Y3200D02*
Y5250D01*
X700Y5450D01*
X6650Y10400D02*
X7150D01*
X7550Y10800D01*
Y11050D01*
X6700Y9500D02*
X7850D01*
X8350Y10000D01*
Y11050D01*
X12250Y10350D02*
Y9850D01*
X12150Y9750D01*
X11950D01*
X11850Y9850D01*
Y10350D01*
X11250Y9750D02*
X11650D01*
X11250Y10150D01*
Y10250D01*
X11350Y10350D01*
X11550D01*
X11650Y10250D01*
X1000Y7150D02*
Y7750D01*
X700D01*
X600Y7650D01*
Y7450D01*
X700Y7350D01*
X1000D01*
X800D02*
X600Y7150D01*
X400D02*
X200D01*
X300D01*
Y7750D01*
X400Y7650D01*
X4700Y8850D02*
Y9450D01*
X4400D01*
X4300Y9350D01*
Y9150D01*
X4400Y9050D01*
X4700D01*
X4500D02*
X4300Y8850D01*
X3700D02*
X4100D01*
X3700Y9250D01*
Y9350D01*
X3800Y9450D01*
X4000D01*
X4100Y9350D01*
X11984Y0D02*
Y600D01*
X11684D01*
X11584Y500D01*
Y300D01*
X11684Y200D01*
X11984D01*
X11784D02*
X11584Y0D01*
X10985Y600D02*
X11185Y500D01*
X11384Y300D01*
Y100D01*
X11284Y0D01*
X11085D01*
X10985Y100D01*
Y200D01*
X11085Y300D01*
X11384D01*
X9934Y2500D02*
Y2000D01*
X9834Y1900D01*
X9634D01*
X9534Y2000D01*
Y2500D01*
X9035Y1900D02*
Y2500D01*
X9334Y2200D01*
X8935D01*
X6150Y5500D02*
X6250Y5600D01*
X6450D01*
X6550Y5500D01*
Y5100D01*
X6450Y5000D01*
X6250D01*
X6150Y5100D01*
X5650Y5600D02*
X5850D01*
X5950Y5500D01*
Y5100D01*
X5850Y5000D01*
X5650D01*
X5550Y5100D01*
Y5500D01*
X5650Y5600D01*
X5350Y5000D02*
Y5600D01*
X4951Y5000D01*
Y5600D01*
X4751Y5000D02*
Y5600D01*
X4351Y5000D01*
Y5600D01*
X3751D02*
X4151D01*
Y5300D01*
X3951Y5400D01*
X3851D01*
X3751Y5300D01*
Y5100D01*
X3851Y5000D01*
X4051D01*
X4151Y5100D01*
X7526Y5260D02*
X7626Y5360D01*
X7826D01*
X7926Y5260D01*
Y4860D01*
X7826Y4760D01*
X7626D01*
X7526Y4860D01*
X7326Y5360D02*
X6926D01*
Y5260D01*
X7326Y4860D01*
Y4760D01*
X5916Y-1450D02*
X5633Y-1167D01*
Y-884D01*
X5916Y-884D01*
X6198Y-1167D01*
X5986Y-955D01*
X5704Y-1238D01*
X6340Y-1026D02*
X5916Y-602D01*
X6623Y-743D01*
X6198Y-319D01*
X6340Y-178D02*
X6623Y105D01*
X6481Y-36D01*
X6905Y-460D01*
X7047Y529D02*
X6764Y247D01*
X7188Y-178D01*
X7471Y105D01*
X6976Y34D02*
X7117Y176D01*
X7612Y247D02*
X7188Y671D01*
X7895Y529D01*
X7471Y953D01*
X8036Y671D02*
X7754Y953D01*
Y1236D01*
X8036D01*
X8319Y953D01*
X8107Y1165D01*
X7824Y883D01*
X8366Y8150D02*
X8083Y7867D01*
X7800D01*
X7800Y8150D01*
X8083Y8433D01*
X7871Y8221D01*
X8154Y7938D01*
X7942Y8574D02*
X7517Y8150D01*
X7659Y8857D01*
X7235Y8433D01*
X7093Y8574D02*
X6811Y8857D01*
X6952Y8716D01*
X7376Y9140D01*
X6386Y9281D02*
X6669Y8998D01*
X7093Y9422D01*
X6811Y9705D01*
X6881Y9210D02*
X6740Y9352D01*
X6669Y9847D02*
X6245Y9422D01*
X6386Y10129D01*
X5962Y9705D01*
X6245Y10271D02*
X5962Y9988D01*
X5680D01*
Y10271D01*
X5962Y10553D01*
X5750Y10341D01*
X6033Y10059D01*
X9116Y2900D02*
X8716D01*
X8516Y3100D01*
X8716Y3300D01*
X9116D01*
X8816D01*
Y2900D01*
X9116Y3500D02*
X8516D01*
X9116Y3900D01*
X8516D01*
Y4100D02*
Y4499D01*
Y4300D01*
X9116D01*
X8516Y5099D02*
Y4699D01*
X9116D01*
Y5099D01*
X8816Y4699D02*
Y4899D01*
X9116Y5299D02*
X8516D01*
X9116Y5699D01*
X8516D01*
X9116Y5899D02*
X8716D01*
X8516Y6099D01*
X8716Y6299D01*
X9116D01*
X8816D01*
Y5899D01*
X4016Y11600D02*
Y11200D01*
X3816Y11000D01*
X3616Y11200D01*
Y11600D01*
Y11300D01*
X4016D01*
X3416Y11600D02*
Y11000D01*
X3016Y11600D01*
Y11000D01*
X2816D02*
X2416D01*
X2616D01*
Y11600D01*
X1816Y11000D02*
X2216D01*
Y11600D01*
X1816D01*
X2216Y11300D02*
X2016D01*
X1617Y11600D02*
Y11000D01*
X1217Y11600D01*
Y11000D01*
X1017Y11600D02*
Y11200D01*
X817Y11000D01*
X617Y11200D01*
Y11600D01*
Y11300D01*
X1017D01*
X9700Y10300D02*
X9300D01*
X11000Y10350D02*
X10600D01*
X10800Y10150D02*
Y10550D01*
X11350Y4500D02*
X10950D01*
X10000Y10550D02*
X10300D01*
X10400Y10450D01*
X10300Y10350D01*
X10100D01*
X10000Y10250D01*
X10100Y10150D01*
X10400D01*
X11000Y5300D02*
X11400D01*
X11000Y5700D01*
X11400D01*
X11400Y6700D02*
Y6400D01*
X11300Y6300D01*
X11000D01*
Y6200D01*
X11100Y6100D01*
X11200D01*
X11000Y6300D02*
Y6700D01*
X11000Y7700D02*
X11400Y7300D01*
X11200Y7500D01*
X11400Y7700D01*
X11000Y7300D01*
X12350Y3100D02*
X12750D01*
X10124Y2300D02*
X10524D01*
X7150Y1250D02*
X7550D01*
X1600Y6450D02*
X2000D01*
X1600Y9000D02*
X2000D01*
X7900Y2500D02*
X8300D01*
X1000Y4050D02*
X1400D01*
X2700Y3950D02*
X3100D01*
X2900Y4150D02*
Y3750D01*
X3350Y2400D02*
X3750D01*
X1650Y12150D02*
X2050D01*
X650Y12150D02*
X1050D01*
X850Y12350D02*
Y11950D01*
X3050Y11800D02*
X2750D01*
X2650Y11900D01*
X2750Y12000D01*
X2950D01*
X3050Y12100D01*
X2950Y12200D01*
X2650D01*
X7400Y12150D02*
X7800D01*
X7600D01*
X7500Y12050D01*
X7400Y11950D01*
Y11850D01*
Y11550D02*
X7800Y11150D01*
X7600Y11350D01*
X7400Y11150D01*
X7800Y11550D01*
X8050Y12050D02*
X8150D01*
Y12150D01*
Y11950D01*
Y12050D01*
X8450D01*
X8550Y11950D01*
X8150Y11650D02*
X8550Y11250D01*
X8350Y11450D01*
X8150Y11250D01*
X8550Y11650D01*
X6350Y12150D02*
X5950D01*
X3500Y9922D02*
Y9450D01*
X3343Y9607D01*
X3185Y9450D01*
Y9922D01*
X3028D02*
X2870D01*
X2949D01*
Y9450D01*
X3028D01*
X2870D01*
X2319Y9844D02*
X2398Y9922D01*
X2555D01*
X2634Y9844D01*
Y9765D01*
X2555Y9686D01*
X2398D01*
X2319Y9607D01*
Y9529D01*
X2398Y9450D01*
X2555D01*
X2634Y9529D01*
X2162Y9450D02*
Y9922D01*
X1926D01*
X1847Y9844D01*
Y9686D01*
X1926Y9607D01*
X2162D01*
X2004D02*
X1847Y9450D01*
X1453Y9922D02*
X1611D01*
X1690Y9844D01*
Y9529D01*
X1611Y9450D01*
X1453D01*
X1375Y9529D01*
Y9844D01*
X1453Y9922D01*
X1217D02*
Y9607D01*
X1060Y9450D01*
X902Y9607D01*
Y9922D01*
X745D02*
X588D01*
X666D01*
Y9450D01*
X745D01*
X588D01*
D30*
X9042Y9983D02*
G03*
X9042Y9983I-49J0D01*
G01*
D31*
X9328Y10030D02*
G03*
X10941Y10030I807J-630D01*
G01*
X10633Y3824D02*
G03*
X10633Y3824I-39J0D01*
G01*
X11022Y599D02*
X11180D01*
X10511D02*
X11022D01*
X11731D02*
X12558D01*
Y1229D02*
Y1701D01*
X10511D02*
X12558D01*
X10511Y599D02*
Y1701D01*
X11180Y599D02*
X11731D01*
X12558D02*
Y1229D01*
X9328Y10030D02*
X10941D01*
X4322Y7649D02*
X4480D01*
X3811D02*
X4322D01*
X5031D02*
X5858D01*
Y8279D02*
Y8751D01*
X3811D02*
X5858D01*
X3811Y7649D02*
Y8751D01*
X4480Y7649D02*
X5031D01*
X5858D02*
Y8279D01*
X2539Y8001D02*
X2696D01*
X3208D01*
X1161D02*
X1987Y8001D01*
X1161Y6899D02*
Y7371D01*
Y6899D02*
X3208D01*
Y8001D01*
X1987Y8001D02*
X2539Y8001D01*
X1161Y7371D02*
Y8001D01*
X6883Y2376D02*
X7513D01*
X6883Y3203D02*
Y3754D01*
Y4424D02*
X7985D01*
Y2376D02*
Y4424D01*
X7513Y2376D02*
X7985D01*
X6883D02*
Y3203D01*
Y3912D02*
Y4424D01*
Y3754D02*
Y3912D01*
D51*
X10223Y3575D02*
X12624D01*
X10223Y1846D02*
Y3575D01*
Y1846D02*
X12624D01*
Y3575D01*
M02*
