G04 Layer_Color=2752767*
%FSLAX24Y24*%
%MOIN*%
G70*
G01*
G75*
%ADD54C,0.0020*%
%ADD55C,0.0027*%
D54*
X9554Y9320D02*
Y9480D01*
X9714D01*
Y9320D01*
X9554D01*
X10054D02*
Y9480D01*
X10214D01*
Y9320D01*
X10054D01*
X10554D02*
Y9480D01*
X10714D01*
Y9320D01*
X10554D01*
X11811Y11140D02*
X11731Y11300D01*
X11891D01*
X11811Y11140D01*
X1234Y3620D02*
X1274Y3660D01*
X1314D01*
X1274Y3700D01*
X1314Y3740D01*
X1274D01*
X1234Y3780D01*
X1194Y3740D01*
X1154D01*
X1194Y3700D01*
X1154Y3660D01*
X1194D01*
X1234Y3620D01*
Y4620D02*
X1274Y4660D01*
X1314D01*
X1274Y4700D01*
X1314Y4740D01*
X1274D01*
X1234Y4780D01*
X1194Y4740D01*
X1154D01*
X1194Y4700D01*
X1154Y4660D01*
X1194D01*
X1234Y4620D01*
X2234Y3620D02*
X2274Y3660D01*
X2314D01*
X2274Y3700D01*
X2314Y3740D01*
X2274D01*
X2234Y3780D01*
X2194Y3740D01*
X2154D01*
X2194Y3700D01*
X2154Y3660D01*
X2194D01*
X2234Y3620D01*
Y4620D02*
X2274Y4660D01*
X2314D01*
X2274Y4700D01*
X2314Y4740D01*
X2274D01*
X2234Y4780D01*
X2194Y4740D01*
X2154D01*
X2194Y4700D01*
X2154Y4660D01*
X2194D01*
X2234Y4620D01*
X3234Y3620D02*
X3274Y3660D01*
X3314D01*
X3274Y3700D01*
X3314Y3740D01*
X3274D01*
X3234Y3780D01*
X3194Y3740D01*
X3154D01*
X3194Y3700D01*
X3154Y3660D01*
X3194D01*
X3234Y3620D01*
Y4620D02*
X3274Y4660D01*
X3314D01*
X3274Y4700D01*
X3314Y4740D01*
X3274D01*
X3234Y4780D01*
X3194Y4740D01*
X3154D01*
X3194Y4700D01*
X3154Y4660D01*
X3194D01*
X3234Y4620D01*
X11844Y3046D02*
X11884Y3126D01*
X11844Y3206D01*
X11924Y3166D01*
X12004Y3206D01*
X11964Y3126D01*
X12004Y3046D01*
X11924Y3086D01*
X11844Y3046D01*
X10844D02*
X10884Y3126D01*
X10844Y3206D01*
X10924Y3166D01*
X11004Y3206D01*
X10964Y3126D01*
X11004Y3046D01*
X10924Y3086D01*
X10844Y3046D01*
X11844Y2215D02*
X11884Y2295D01*
X11844Y2375D01*
X11924Y2335D01*
X12004Y2375D01*
X11964Y2295D01*
X12004Y2215D01*
X11924Y2255D01*
X11844Y2215D01*
X10844D02*
X10884Y2295D01*
X10844Y2375D01*
X10924Y2335D01*
X11004Y2375D01*
X10964Y2295D01*
X11004Y2215D01*
X10924Y2255D01*
X10844Y2215D01*
X904Y2320D02*
X944Y2400D01*
X904Y2480D01*
X984Y2440D01*
X1064Y2480D01*
X1024Y2400D01*
X1064Y2320D01*
X984Y2360D01*
X904Y2320D01*
X2904D02*
X2944Y2400D01*
X2904Y2480D01*
X2984Y2440D01*
X3064Y2480D01*
X3024Y2400D01*
X3064Y2320D01*
X2984Y2360D01*
X2904Y2320D01*
X1904D02*
X1944Y2400D01*
X1904Y2480D01*
X1984Y2440D01*
X2064Y2480D01*
X2024Y2400D01*
X2064Y2320D01*
X1984Y2360D01*
X1904Y2320D01*
X1181Y1101D02*
X1101Y1261D01*
X1261D01*
X1181Y1101D01*
X7156Y8180D02*
Y8140D01*
X7236D01*
Y8180D01*
X7276D01*
Y8260D01*
X7236D01*
Y8300D01*
X7156D01*
Y8260D01*
X7116D01*
Y8180D01*
X7156D01*
X7616Y1800D02*
Y1760D01*
X7696D01*
Y1800D01*
X7736D01*
Y1880D01*
X7696D01*
Y1920D01*
X7616D01*
Y1880D01*
X7576D01*
Y1800D01*
X7616D01*
X8866Y1790D02*
Y1750D01*
X8946D01*
Y1790D01*
X8986D01*
Y1870D01*
X8946D01*
Y1910D01*
X8866D01*
Y1870D01*
X8826D01*
Y1790D01*
X8866D01*
X5076Y5450D02*
Y5410D01*
X5156D01*
Y5450D01*
X5196D01*
Y5530D01*
X5156D01*
Y5570D01*
X5076D01*
Y5530D01*
X5036D01*
Y5450D01*
X5076D01*
X8026Y7500D02*
Y7460D01*
X8106D01*
Y7500D01*
X8146D01*
Y7580D01*
X8106D01*
Y7620D01*
X8026D01*
Y7580D01*
X7986D01*
Y7500D01*
X8026D01*
X5720Y1970D02*
Y1930D01*
X5800D01*
Y1970D01*
X5840D01*
Y2050D01*
X5800D01*
Y2090D01*
X5720D01*
Y2050D01*
X5680D01*
Y1970D01*
X5720D01*
X8586Y7020D02*
Y6980D01*
X8666D01*
Y7020D01*
X8706D01*
Y7100D01*
X8666D01*
Y7140D01*
X8586D01*
Y7100D01*
X8546D01*
Y7020D01*
X8586D01*
X7047Y5191D02*
Y5151D01*
X7127D01*
Y5191D01*
X7167D01*
Y5271D01*
X7127D01*
Y5311D01*
X7047D01*
Y5271D01*
X7007D01*
Y5191D01*
X7047D01*
X7646Y4910D02*
Y4870D01*
X7726D01*
Y4910D01*
X7766D01*
Y4990D01*
X7726D01*
Y5030D01*
X7646D01*
Y4990D01*
X7606D01*
Y4910D01*
X7646D01*
X11316Y3900D02*
Y3860D01*
X11396D01*
Y3900D01*
X11436D01*
Y3980D01*
X11396D01*
Y4020D01*
X11316D01*
Y3980D01*
X11276D01*
Y3900D01*
X11316D01*
X9716Y5760D02*
Y5720D01*
X9796D01*
Y5760D01*
X9836D01*
Y5840D01*
X9796D01*
Y5880D01*
X9716D01*
Y5840D01*
X9676D01*
Y5760D01*
X9716D01*
X9106D02*
Y5720D01*
X9186D01*
Y5760D01*
X9226D01*
Y5840D01*
X9186D01*
Y5880D01*
X9106D01*
Y5840D01*
X9066D01*
Y5760D01*
X9106D01*
X11406Y1780D02*
Y1740D01*
X11486D01*
Y1780D01*
X11526D01*
Y1860D01*
X11486D01*
Y1900D01*
X11406D01*
Y1860D01*
X11366D01*
Y1780D01*
X11406D01*
X5516Y4810D02*
Y4770D01*
X5596D01*
Y4810D01*
X5636D01*
Y4890D01*
X5596D01*
Y4930D01*
X5516D01*
Y4890D01*
X5476D01*
Y4810D01*
X5516D01*
X3316Y5370D02*
Y5330D01*
X3396D01*
Y5370D01*
X3436D01*
Y5450D01*
X3396D01*
Y5490D01*
X3316D01*
Y5450D01*
X3276D01*
Y5370D01*
X3316D01*
X5896Y5570D02*
Y5530D01*
X5976D01*
Y5570D01*
X6016D01*
Y5650D01*
X5976D01*
Y5690D01*
X5896D01*
Y5650D01*
X5856D01*
Y5570D01*
X5896D01*
X6276Y6130D02*
Y6090D01*
X6356D01*
Y6130D01*
X6396D01*
Y6210D01*
X6356D01*
Y6250D01*
X6276D01*
Y6210D01*
X6236D01*
Y6130D01*
X6276D01*
X7206Y4530D02*
Y4490D01*
X7286D01*
Y4530D01*
X7326D01*
Y4610D01*
X7286D01*
Y4650D01*
X7206D01*
Y4610D01*
X7166D01*
Y4530D01*
X7206D01*
D55*
X3364Y11450D02*
G03*
X3364Y11450I-80J0D01*
G01*
X964D02*
G03*
X964Y11450I-80J0D01*
G01*
X1964D02*
G03*
X1964Y11450I-80J0D01*
G01*
X6430Y800D02*
G03*
X6430Y800I-80J0D01*
G01*
X7430D02*
G03*
X7430Y800I-80J0D01*
G01*
X5430D02*
G03*
X5430Y800I-80J0D01*
G01*
X8430D02*
G03*
X8430Y800I-80J0D01*
G01*
X12164Y7500D02*
G03*
X12164Y7500I-80J0D01*
G01*
Y6500D02*
G03*
X12164Y6500I-80J0D01*
G01*
Y8500D02*
G03*
X12164Y8500I-80J0D01*
G01*
Y5500D02*
G03*
X12164Y5500I-80J0D01*
G01*
Y4500D02*
G03*
X12164Y4500I-80J0D01*
G01*
X3150Y8730D02*
G03*
X3150Y8730I-80J0D01*
G01*
Y6170D02*
G03*
X3150Y6170I-80J0D01*
G01*
X1378Y8730D02*
G03*
X1378Y8730I-80J0D01*
G01*
Y6170D02*
G03*
X1378Y6170I-80J0D01*
G01*
X6364Y10450D02*
G03*
X6364Y10450I-80J0D01*
G01*
Y11450D02*
G03*
X6364Y11450I-80J0D01*
G01*
Y9450D02*
G03*
X6364Y9450I-80J0D01*
G01*
M02*
