G04 Layer_Color=32768*
%FSLAX44Y44*%
%MOMM*%
%TF.FileFunction,Mechanical*%
%TF.Part,Single*%
G01*
G75*
%ADD18C,0.2540*%
%ADD67C,0.1000*%
%ADD68C,0.1524*%
%ADD69C,0.0500*%
D18*
X560070Y-201930D02*
Y156210D01*
X-0Y-201930D02*
Y18040D01*
X313044Y-199390D02*
X560070D01*
X-0D02*
X238898D01*
X544830Y-194310D02*
X560070Y-199390D01*
X544830Y-204470D02*
X560070Y-199390D01*
X-0D02*
X15240Y-204470D01*
X-0Y-199390D02*
X15240Y-194310D01*
X-116840Y75000D02*
X-53810D01*
X-116840Y0D02*
X-3810D01*
X-114300Y-25400D02*
Y0D01*
Y75000D02*
Y100400D01*
X-119380Y-15240D02*
X-114300Y0D01*
X-109220Y-15240D01*
X-114300Y75000D02*
X-109220Y90240D01*
X-119380D02*
X-114300Y75000D01*
X-186690Y450000D02*
X206140D01*
X-186690Y0D02*
X-3810D01*
X-184150Y260549D02*
Y450000D01*
Y0D02*
Y181324D01*
X-189230Y434760D02*
X-184150Y450000D01*
X-179070Y434760D01*
X-184150Y0D02*
X-179070Y15240D01*
X-189230D02*
X-184150Y0D01*
X210360Y297340D02*
Y491910D01*
X-49590Y297340D02*
Y491910D01*
X115934Y489370D02*
X210360D01*
X-49590D02*
X36709D01*
X195120Y494450D02*
X210360Y489370D01*
X195120Y484290D02*
X210360Y489370D01*
X-49590D02*
X-34350Y484290D01*
X-49590Y489370D02*
X-34350Y494450D01*
X-117310Y75190D02*
X-50000D01*
X-117310Y425190D02*
X-50000D01*
X-114770Y75190D02*
Y206514D01*
Y285738D02*
Y425190D01*
Y75190D02*
X-109690Y90430D01*
X-119850D02*
X-114770Y75190D01*
X-119850Y409950D02*
X-114770Y425190D01*
X-109690Y409950D01*
X563880Y450000D02*
X633260D01*
X489056Y415000D02*
X633260D01*
X630720Y389600D02*
Y415000D01*
Y450000D02*
Y475400D01*
X625640Y399760D02*
X630720Y415000D01*
X635800Y399760D01*
X630720Y450000D02*
X635800Y465240D01*
X625640D02*
X630720Y450000D01*
X560070Y453810D02*
Y554990D01*
X470000Y434056D02*
Y554990D01*
X540427Y552450D02*
X560070D01*
X470000D02*
X481515D01*
X544830Y557530D02*
X560070Y552450D01*
X544830Y547370D02*
X560070Y552450D01*
X470000D02*
X485240Y547370D01*
X470000Y552450D02*
X485240Y557530D01*
X560070Y-106680D02*
Y156210D01*
X465000Y-106680D02*
Y-3810D01*
X537927Y-104140D02*
X560070D01*
X465000D02*
X479016D01*
X544830Y-99060D02*
X560070Y-104140D01*
X544830Y-109220D02*
X560070Y-104140D01*
X465000D02*
X480240Y-109220D01*
X465000Y-104140D02*
X480240Y-99060D01*
X563880Y450000D02*
X621830D01*
X563880Y160020D02*
X621830D01*
X619290Y340559D02*
Y450000D01*
Y160020D02*
Y261334D01*
X614210Y434760D02*
X619290Y450000D01*
X624370Y434760D01*
X619290Y160020D02*
X624370Y175260D01*
X614210D02*
X619290Y160020D01*
X465000Y-106680D02*
Y-3810D01*
X200000Y-106680D02*
Y15944D01*
X368048Y-104140D02*
X465000D01*
X200000D02*
X288824D01*
X449760Y-99060D02*
X465000Y-104140D01*
X449760Y-109220D02*
X465000Y-104140D01*
X200000D02*
X215240Y-109220D01*
X200000Y-104140D02*
X215240Y-99060D01*
X3810Y0D02*
X654850D01*
X219056Y35000D02*
X654850D01*
X652310D02*
Y60400D01*
Y-25400D02*
Y0D01*
Y35000D02*
X657390Y50240D01*
X647230D02*
X652310Y35000D01*
X647230Y-15240D02*
X652310Y0D01*
X657390Y-15240D01*
X-0Y-40640D02*
Y18040D01*
X200000Y-40640D02*
Y15944D01*
X-0Y-38100D02*
X56323D01*
X135548D02*
X200000D01*
X-0D02*
X15240Y-43180D01*
X-0Y-38100D02*
X15240Y-33020D01*
X184760D02*
X200000Y-38100D01*
X184760Y-43180D02*
X200000Y-38100D01*
D67*
X467360Y368380D02*
Y378380D01*
X462360Y373380D02*
X472360D01*
X372090Y267296D02*
X379750Y273724D01*
X372706Y274340D02*
X379134Y266680D01*
D68*
X253118Y-195836D02*
X242962D01*
Y-203453D01*
X248040Y-200914D01*
X250579D01*
X253118Y-203453D01*
Y-208531D01*
X250579Y-211071D01*
X245501D01*
X242962Y-208531D01*
X268353Y-195836D02*
X263275Y-198375D01*
X258197Y-203453D01*
Y-208531D01*
X260736Y-211071D01*
X265814D01*
X268353Y-208531D01*
Y-205992D01*
X265814Y-203453D01*
X258197D01*
X275971Y-213610D02*
X278510Y-211071D01*
Y-208531D01*
X275971D01*
Y-211071D01*
X278510D01*
X275971Y-213610D01*
X273432Y-216149D01*
X288667Y-198375D02*
X291206Y-195836D01*
X296284D01*
X298824Y-198375D01*
Y-208531D01*
X296284Y-211071D01*
X291206D01*
X288667Y-208531D01*
Y-198375D01*
X303902Y-211071D02*
X308980D01*
X306441D01*
Y-195836D01*
X303902Y-198375D01*
X-152896Y5505D02*
Y15662D01*
X-150357D01*
X-140201Y5505D01*
X-137661D01*
X-135122Y23279D02*
X-137661Y25819D01*
X-140201D01*
Y23279D01*
X-137661D01*
Y25819D01*
X-135122Y23279D01*
X-132583Y20740D01*
X-152896Y46132D02*
Y35975D01*
X-145279D01*
X-147818Y41054D01*
Y43593D01*
X-145279Y46132D01*
X-140201D01*
X-137661Y43593D01*
Y38514D01*
X-140201Y35975D01*
X-150357Y51210D02*
X-152896Y53749D01*
Y58828D01*
X-150357Y61367D01*
X-140201D01*
X-137661Y58828D01*
Y53749D01*
X-140201Y51210D01*
X-150357D01*
X-172469Y193005D02*
X-187704D01*
X-180087Y185387D01*
Y195544D01*
X-187704Y210779D02*
Y200623D01*
X-180087D01*
X-182626Y205701D01*
Y208240D01*
X-180087Y210779D01*
X-175009D01*
X-172469Y208240D01*
Y203162D01*
X-175009Y200623D01*
X-169930Y218397D02*
X-172469Y220936D01*
X-175009D01*
Y218397D01*
X-172469D01*
Y220936D01*
X-169930Y218397D01*
X-167391Y215858D01*
X-185165Y231093D02*
X-187704Y233632D01*
Y238710D01*
X-185165Y241250D01*
X-175009D01*
X-172469Y238710D01*
Y233632D01*
X-175009Y231093D01*
X-185165D01*
Y246328D02*
X-187704Y248867D01*
Y253945D01*
X-185165Y256485D01*
X-175009D01*
X-172469Y253945D01*
Y248867D01*
X-175009Y246328D01*
X-185165D01*
X50929Y477689D02*
X40773D01*
X50929Y487846D01*
Y490385D01*
X48390Y492924D01*
X43312D01*
X40773Y490385D01*
X66164Y492924D02*
X61086Y490385D01*
X56008Y485307D01*
Y480229D01*
X58547Y477689D01*
X63625D01*
X66164Y480229D01*
Y482768D01*
X63625Y485307D01*
X56008D01*
X73782Y475150D02*
X76321Y477689D01*
Y480229D01*
X73782D01*
Y477689D01*
X76321D01*
X73782Y475150D01*
X71243Y472611D01*
X86478Y490385D02*
X89017Y492924D01*
X94095D01*
X96634Y490385D01*
Y480229D01*
X94095Y477689D01*
X89017D01*
X86478Y480229D01*
Y490385D01*
X101713D02*
X104252Y492924D01*
X109330D01*
X111869Y490385D01*
Y480229D01*
X109330Y477689D01*
X104252D01*
X101713Y480229D01*
Y490385D01*
X-115785Y210578D02*
X-118324Y213117D01*
Y218195D01*
X-115785Y220734D01*
X-113246D01*
X-110707Y218195D01*
Y215656D01*
Y218195D01*
X-108168Y220734D01*
X-105628D01*
X-103089Y218195D01*
Y213117D01*
X-105628Y210578D01*
X-118324Y235969D02*
Y225813D01*
X-110707D01*
X-113246Y230891D01*
Y233430D01*
X-110707Y235969D01*
X-105628D01*
X-103089Y233430D01*
Y228352D01*
X-105628Y225813D01*
X-100550Y243587D02*
X-103089Y246126D01*
X-105628D01*
Y243587D01*
X-103089D01*
Y246126D01*
X-100550Y243587D01*
X-98011Y241048D01*
X-115785Y256283D02*
X-118324Y258822D01*
Y263900D01*
X-115785Y266439D01*
X-105628D01*
X-103089Y263900D01*
Y258822D01*
X-105628Y256283D01*
X-115785D01*
Y271518D02*
X-118324Y274057D01*
Y279135D01*
X-115785Y281674D01*
X-105628D01*
X-103089Y279135D01*
Y274057D01*
X-105628Y271518D01*
X-115785D01*
X664747Y400505D02*
X662208Y403044D01*
Y408123D01*
X664747Y410662D01*
X667286D01*
X669825Y408123D01*
Y405583D01*
Y408123D01*
X672365Y410662D01*
X674904D01*
X677443Y408123D01*
Y403044D01*
X674904Y400505D01*
X679982Y418279D02*
X677443Y420818D01*
X674904D01*
Y418279D01*
X677443D01*
Y420818D01*
X679982Y418279D01*
X682521Y415740D01*
X662208Y441132D02*
Y430975D01*
X669825D01*
X667286Y436054D01*
Y438593D01*
X669825Y441132D01*
X674904D01*
X677443Y438593D01*
Y433514D01*
X674904Y430975D01*
X664747Y446210D02*
X662208Y448749D01*
Y453828D01*
X664747Y456367D01*
X674904D01*
X677443Y453828D01*
Y448749D01*
X674904Y446210D01*
X664747D01*
X485579Y543308D02*
X488118Y540769D01*
X493197D01*
X495736Y543308D01*
Y553465D01*
X493197Y556004D01*
X488118D01*
X485579Y553465D01*
Y550926D01*
X488118Y548387D01*
X495736D01*
X503353Y538230D02*
X505893Y540769D01*
Y543308D01*
X503353D01*
Y540769D01*
X505893D01*
X503353Y538230D01*
X500814Y535691D01*
X516049Y553465D02*
X518588Y556004D01*
X523667D01*
X526206Y553465D01*
Y543308D01*
X523667Y540769D01*
X518588D01*
X516049Y543308D01*
Y553465D01*
X531284Y540769D02*
X536363D01*
X533824D01*
Y556004D01*
X531284Y553465D01*
X483079Y-113281D02*
X485619Y-115821D01*
X490697D01*
X493236Y-113281D01*
Y-103125D01*
X490697Y-100586D01*
X485619D01*
X483079Y-103125D01*
Y-105664D01*
X485619Y-108203D01*
X493236D01*
X500854Y-118360D02*
X503393Y-115821D01*
Y-113281D01*
X500854D01*
Y-115821D01*
X503393D01*
X500854Y-118360D01*
X498314Y-120899D01*
X523706Y-100586D02*
X513549D01*
Y-108203D01*
X518628Y-105664D01*
X521167D01*
X523706Y-108203D01*
Y-113281D01*
X521167Y-115821D01*
X516089D01*
X513549Y-113281D01*
X528784Y-115821D02*
X533863D01*
X531324D01*
Y-100586D01*
X528784Y-103125D01*
X630971Y275554D02*
Y265397D01*
X620814Y275554D01*
X618275D01*
X615736Y273015D01*
Y267937D01*
X618275Y265397D01*
X628432Y280633D02*
X630971Y283172D01*
Y288250D01*
X628432Y290789D01*
X618275D01*
X615736Y288250D01*
Y283172D01*
X618275Y280633D01*
X620814D01*
X623353Y283172D01*
Y290789D01*
X633510Y298407D02*
X630971Y300946D01*
X628432D01*
Y298407D01*
X630971D01*
Y300946D01*
X633510Y298407D01*
X636049Y295868D01*
X618275Y311103D02*
X615736Y313642D01*
Y318720D01*
X618275Y321259D01*
X628432D01*
X630971Y318720D01*
Y313642D01*
X628432Y311103D01*
X618275D01*
Y326338D02*
X615736Y328877D01*
Y333955D01*
X618275Y336495D01*
X628432D01*
X630971Y333955D01*
Y328877D01*
X628432Y326338D01*
X618275D01*
X303044Y-115821D02*
X292888D01*
X303044Y-105664D01*
Y-103125D01*
X300505Y-100586D01*
X295427D01*
X292888Y-103125D01*
X318279Y-100586D02*
X313201Y-103125D01*
X308123Y-108203D01*
Y-113281D01*
X310662Y-115821D01*
X315740D01*
X318279Y-113281D01*
Y-110742D01*
X315740Y-108203D01*
X308123D01*
X325897Y-118360D02*
X328436Y-115821D01*
Y-113281D01*
X325897D01*
Y-115821D01*
X328436D01*
X325897Y-118360D01*
X323358Y-120899D01*
X348750Y-100586D02*
X338593D01*
Y-108203D01*
X343671Y-105664D01*
X346210D01*
X348750Y-108203D01*
Y-113281D01*
X346210Y-115821D01*
X341132D01*
X338593Y-113281D01*
X353828Y-103125D02*
X356367Y-100586D01*
X361445D01*
X363985Y-103125D01*
Y-113281D01*
X361445Y-115821D01*
X356367D01*
X353828Y-113281D01*
Y-103125D01*
X686337Y-14495D02*
X683798Y-11956D01*
Y-6877D01*
X686337Y-4338D01*
X688876D01*
X691415Y-6877D01*
Y-9416D01*
Y-6877D01*
X693954Y-4338D01*
X696494D01*
X699033Y-6877D01*
Y-11956D01*
X696494Y-14495D01*
X701572Y3279D02*
X699033Y5818D01*
X696494D01*
Y3279D01*
X699033D01*
Y5818D01*
X701572Y3279D01*
X704111Y740D01*
X683798Y26132D02*
Y15975D01*
X691415D01*
X688876Y21054D01*
Y23593D01*
X691415Y26132D01*
X696494D01*
X699033Y23593D01*
Y18514D01*
X696494Y15975D01*
X686337Y31210D02*
X683798Y33749D01*
Y38828D01*
X686337Y41367D01*
X696494D01*
X699033Y38828D01*
Y33749D01*
X696494Y31210D01*
X686337D01*
X70544Y-49781D02*
X60387D01*
X70544Y-39624D01*
Y-37085D01*
X68005Y-34546D01*
X62927D01*
X60387Y-37085D01*
X75623D02*
X78162Y-34546D01*
X83240D01*
X85779Y-37085D01*
Y-47242D01*
X83240Y-49781D01*
X78162D01*
X75623Y-47242D01*
Y-37085D01*
X93397Y-52320D02*
X95936Y-49781D01*
Y-47242D01*
X93397D01*
Y-49781D01*
X95936D01*
X93397Y-52320D01*
X90858Y-54859D01*
X106093Y-37085D02*
X108632Y-34546D01*
X113710D01*
X116249Y-37085D01*
Y-47242D01*
X113710Y-49781D01*
X108632D01*
X106093Y-47242D01*
Y-37085D01*
X121328D02*
X123867Y-34546D01*
X128945D01*
X131484Y-37085D01*
Y-47242D01*
X128945Y-49781D01*
X123867D01*
X121328Y-47242D01*
Y-37085D01*
D69*
X302309Y276950D02*
X369480Y196898D01*
X382360Y344122D02*
X449532Y264070D01*
X369480Y196898D02*
X449532Y264070D01*
X302309Y276950D02*
X382360Y344122D01*
X94530Y66630D02*
X160530D01*
X94530Y17730D02*
Y66630D01*
Y17730D02*
X160530D01*
Y66630D01*
%TF.MD5,E0F52BF58E59A570D951F588C9429A12*%
M02*
