M48
;Layer_Color=9474304
;FILE_FORMAT=4:4
METRIC,LZ
;TYPE=PLATED
T1F00S00C0.7112
T2F00S00C0.7500
T3F00S00C0.8700
T4F00S00C0.9000
T5F00S00C1.0000
T6F00S00C3.1000
%
T01
X00226206Y00046482
X00290722Y00046228
X00288436Y00100076
X00194456Y00046736
X00146292Y00051054
X00141116Y0012319
X0012994Y00139446
X00150768Y00142494
X0016042Y00156718
X00180005Y00132874
X00184042Y00116078
X00195218Y0012573
X0020487Y00191516
X00182772Y00208788
X00085236Y00137414
X00232302Y0014732
X00247796
X00219094Y00179324
T02
X0024471Y0023876
X0025741
X0027011
T03
X0027746Y000583
Y000794
X0030286
Y000583
X000758Y0006096
X000504
X00025
T04
X0003135Y0009398
X0005675
X0008215
Y0011938
X0005675
X0003135
T05
X0021209Y0002032
X00186691
X0016129
X00135891
X00077979Y0015673
X0003298
Y0022173
X00077979
X0008342Y0029083
X0004786
X0002246
X0015962
Y0026543
Y0024003
X0030694Y002159
Y001905
Y001651
Y001397
Y001143
T06
X0003Y0003
X003Y00285
M30
