G04 Layer_Color=32768*
%FSLAX24Y24*%
%MOIN*%
G70*
G01*
G75*
%ADD18C,0.0100*%
%ADD67C,0.0039*%
%ADD68C,0.0060*%
%ADD69C,0.0020*%
D18*
X22050Y-7950D02*
Y6150D01*
X-0Y-7950D02*
Y710D01*
X12325Y-7850D02*
X22050D01*
X-0D02*
X9405D01*
X21450Y-7650D02*
X22050Y-7850D01*
X21450Y-8050D02*
X22050Y-7850D01*
X-0D02*
X600Y-8050D01*
X-0Y-7850D02*
X600Y-7650D01*
X-4600Y2953D02*
X-2119D01*
X-4600Y0D02*
X-150D01*
X-4500Y-1000D02*
Y0D01*
Y2953D02*
Y3953D01*
X-4700Y-600D02*
X-4500Y0D01*
X-4300Y-600D01*
X-4500Y2953D02*
X-4300Y3553D01*
X-4700D02*
X-4500Y2953D01*
X-7350Y17717D02*
X8116D01*
X-7350Y0D02*
X-150D01*
X-7250Y10258D02*
Y17717D01*
Y0D02*
Y7139D01*
X-7450Y17117D02*
X-7250Y17717D01*
X-7050Y17117D01*
X-7250Y0D02*
X-7050Y600D01*
X-7450D02*
X-7250Y0D01*
X8282Y11706D02*
Y19367D01*
X-1952Y11706D02*
Y19367D01*
X4564Y19267D02*
X8282D01*
X-1952D02*
X1445D01*
X7682Y19467D02*
X8282Y19267D01*
X7682Y19067D02*
X8282Y19267D01*
X-1952D02*
X-1352Y19067D01*
X-1952Y19267D02*
X-1352Y19467D01*
X-4618Y2960D02*
X-1969D01*
X-4618Y16740D02*
X-1969D01*
X-4518Y2960D02*
Y8130D01*
Y11250D02*
Y16740D01*
Y2960D02*
X-4318Y3560D01*
X-4719D02*
X-4518Y2960D01*
X-4719Y16140D02*
X-4518Y16740D01*
X-4318Y16140D01*
X22200Y17717D02*
X24931D01*
X19254Y16339D02*
X24931D01*
X24832Y15339D02*
Y16339D01*
Y17717D02*
Y18717D01*
X24632Y15739D02*
X24832Y16339D01*
X25031Y15739D01*
X24832Y17717D02*
X25031Y18317D01*
X24632D02*
X24832Y17717D01*
X22050Y17867D02*
Y21850D01*
X18504Y17089D02*
Y21850D01*
X21277Y21750D02*
X22050D01*
X18504D02*
X18957D01*
X21450Y21950D02*
X22050Y21750D01*
X21450Y21550D02*
X22050Y21750D01*
X18504D02*
X19104Y21550D01*
X18504Y21750D02*
X19104Y21950D01*
X22050Y-4200D02*
Y6150D01*
X18307Y-4200D02*
Y-150D01*
X21178Y-4100D02*
X22050D01*
X18307D02*
X18859D01*
X21450Y-3900D02*
X22050Y-4100D01*
X21450Y-4300D02*
X22050Y-4100D01*
X18307D02*
X18907Y-4300D01*
X18307Y-4100D02*
X18907Y-3900D01*
X22200Y17717D02*
X24481D01*
X22200Y6300D02*
X24481D01*
X24381Y13408D02*
Y17717D01*
Y6300D02*
Y10289D01*
X24181Y17117D02*
X24381Y17717D01*
X24581Y17117D01*
X24381Y6300D02*
X24581Y6900D01*
X24181D02*
X24381Y6300D01*
X18307Y-4200D02*
Y-150D01*
X7874Y-4200D02*
Y628D01*
X14490Y-4100D02*
X18307D01*
X7874D02*
X11371D01*
X17707Y-3900D02*
X18307Y-4100D01*
X17707Y-4300D02*
X18307Y-4100D01*
X7874D02*
X8474Y-4300D01*
X7874Y-4100D02*
X8474Y-3900D01*
X150Y0D02*
X25782D01*
X8624Y1378D02*
X25782D01*
X25682D02*
Y2378D01*
Y-1000D02*
Y0D01*
Y1378D02*
X25882Y1978D01*
X25482D02*
X25682Y1378D01*
X25482Y-600D02*
X25682Y0D01*
X25882Y-600D01*
X-0Y-1600D02*
Y710D01*
X7874Y-1600D02*
Y628D01*
X-0Y-1500D02*
X2217D01*
X5337D02*
X7874D01*
X-0D02*
X600Y-1700D01*
X-0Y-1500D02*
X600Y-1300D01*
X7274D02*
X7874Y-1500D01*
X7274Y-1700D02*
X7874Y-1500D01*
D67*
X18400Y14503D02*
Y14897D01*
X18203Y14700D02*
X18597D01*
X14649Y10523D02*
X14951Y10777D01*
X14673Y10801D02*
X14927Y10499D01*
D68*
X9965Y-7710D02*
X9565D01*
Y-8010D01*
X9765Y-7910D01*
X9865D01*
X9965Y-8010D01*
Y-8210D01*
X9865Y-8310D01*
X9665D01*
X9565Y-8210D01*
X10565Y-7710D02*
X10365Y-7810D01*
X10165Y-8010D01*
Y-8210D01*
X10265Y-8310D01*
X10465D01*
X10565Y-8210D01*
Y-8110D01*
X10465Y-8010D01*
X10165D01*
X10865Y-8410D02*
X10965Y-8310D01*
Y-8210D01*
X10865D01*
Y-8310D01*
X10965D01*
X10865Y-8410D01*
X10765Y-8510D01*
X11365Y-7810D02*
X11465Y-7710D01*
X11665D01*
X11765Y-7810D01*
Y-8210D01*
X11665Y-8310D01*
X11465D01*
X11365Y-8210D01*
Y-7810D01*
X11965Y-8310D02*
X12165D01*
X12065D01*
Y-7710D01*
X11965Y-7810D01*
X-6020Y217D02*
Y617D01*
X-5920D01*
X-5520Y217D01*
X-5420D01*
X-5320Y917D02*
X-5420Y1016D01*
X-5520D01*
Y917D01*
X-5420D01*
Y1016D01*
X-5320Y917D01*
X-5220Y817D01*
X-6020Y1816D02*
Y1416D01*
X-5720D01*
X-5820Y1616D01*
Y1716D01*
X-5720Y1816D01*
X-5520D01*
X-5420Y1716D01*
Y1516D01*
X-5520Y1416D01*
X-5920Y2016D02*
X-6020Y2116D01*
Y2316D01*
X-5920Y2416D01*
X-5520D01*
X-5420Y2316D01*
Y2116D01*
X-5520Y2016D01*
X-5920D01*
X-6790Y7599D02*
X-7390D01*
X-7090Y7299D01*
Y7699D01*
X-7390Y8298D02*
Y7899D01*
X-7090D01*
X-7190Y8098D01*
Y8198D01*
X-7090Y8298D01*
X-6890D01*
X-6790Y8198D01*
Y7998D01*
X-6890Y7899D01*
X-6690Y8598D02*
X-6790Y8698D01*
X-6890D01*
Y8598D01*
X-6790D01*
Y8698D01*
X-6690Y8598D01*
X-6590Y8498D01*
X-7290Y9098D02*
X-7390Y9198D01*
Y9398D01*
X-7290Y9498D01*
X-6890D01*
X-6790Y9398D01*
Y9198D01*
X-6890Y9098D01*
X-7290D01*
Y9698D02*
X-7390Y9798D01*
Y9998D01*
X-7290Y10098D01*
X-6890D01*
X-6790Y9998D01*
Y9798D01*
X-6890Y9698D01*
X-7290D01*
X2005Y18807D02*
X1605D01*
X2005Y19207D01*
Y19306D01*
X1905Y19406D01*
X1705D01*
X1605Y19306D01*
X2605Y19406D02*
X2405Y19306D01*
X2205Y19107D01*
Y18907D01*
X2305Y18807D01*
X2505D01*
X2605Y18907D01*
Y19007D01*
X2505Y19107D01*
X2205D01*
X2905Y18707D02*
X3005Y18807D01*
Y18907D01*
X2905D01*
Y18807D01*
X3005D01*
X2905Y18707D01*
X2805Y18607D01*
X3405Y19306D02*
X3505Y19406D01*
X3705D01*
X3805Y19306D01*
Y18907D01*
X3705Y18807D01*
X3505D01*
X3405Y18907D01*
Y19306D01*
X4004D02*
X4104Y19406D01*
X4304D01*
X4404Y19306D01*
Y18907D01*
X4304Y18807D01*
X4104D01*
X4004Y18907D01*
Y19306D01*
X-4558Y8290D02*
X-4658Y8390D01*
Y8590D01*
X-4558Y8690D01*
X-4459D01*
X-4359Y8590D01*
Y8490D01*
Y8590D01*
X-4259Y8690D01*
X-4159D01*
X-4059Y8590D01*
Y8390D01*
X-4159Y8290D01*
X-4658Y9290D02*
Y8890D01*
X-4359D01*
X-4459Y9090D01*
Y9190D01*
X-4359Y9290D01*
X-4159D01*
X-4059Y9190D01*
Y8990D01*
X-4159Y8890D01*
X-3959Y9590D02*
X-4059Y9690D01*
X-4159D01*
Y9590D01*
X-4059D01*
Y9690D01*
X-3959Y9590D01*
X-3859Y9490D01*
X-4558Y10090D02*
X-4658Y10190D01*
Y10390D01*
X-4558Y10490D01*
X-4159D01*
X-4059Y10390D01*
Y10190D01*
X-4159Y10090D01*
X-4558D01*
Y10690D02*
X-4658Y10790D01*
Y10990D01*
X-4558Y11090D01*
X-4159D01*
X-4059Y10990D01*
Y10790D01*
X-4159Y10690D01*
X-4558D01*
X26171Y15768D02*
X26071Y15868D01*
Y16068D01*
X26171Y16168D01*
X26271D01*
X26371Y16068D01*
Y15968D01*
Y16068D01*
X26471Y16168D01*
X26571D01*
X26671Y16068D01*
Y15868D01*
X26571Y15768D01*
X26771Y16468D02*
X26671Y16568D01*
X26571D01*
Y16468D01*
X26671D01*
Y16568D01*
X26771Y16468D01*
X26871Y16368D01*
X26071Y17367D02*
Y16968D01*
X26371D01*
X26271Y17167D01*
Y17267D01*
X26371Y17367D01*
X26571D01*
X26671Y17267D01*
Y17067D01*
X26571Y16968D01*
X26171Y17567D02*
X26071Y17667D01*
Y17867D01*
X26171Y17967D01*
X26571D01*
X26671Y17867D01*
Y17667D01*
X26571Y17567D01*
X26171D01*
X19117Y21390D02*
X19217Y21290D01*
X19417D01*
X19517Y21390D01*
Y21790D01*
X19417Y21890D01*
X19217D01*
X19117Y21790D01*
Y21690D01*
X19217Y21590D01*
X19517D01*
X19817Y21190D02*
X19917Y21290D01*
Y21390D01*
X19817D01*
Y21290D01*
X19917D01*
X19817Y21190D01*
X19717Y21090D01*
X20317Y21790D02*
X20417Y21890D01*
X20617D01*
X20717Y21790D01*
Y21390D01*
X20617Y21290D01*
X20417D01*
X20317Y21390D01*
Y21790D01*
X20917Y21290D02*
X21117D01*
X21017D01*
Y21890D01*
X20917Y21790D01*
X19019Y-4460D02*
X19119Y-4560D01*
X19319D01*
X19419Y-4460D01*
Y-4060D01*
X19319Y-3960D01*
X19119D01*
X19019Y-4060D01*
Y-4160D01*
X19119Y-4260D01*
X19419D01*
X19719Y-4660D02*
X19819Y-4560D01*
Y-4460D01*
X19719D01*
Y-4560D01*
X19819D01*
X19719Y-4660D01*
X19619Y-4760D01*
X20618Y-3960D02*
X20218D01*
Y-4260D01*
X20418Y-4160D01*
X20518D01*
X20618Y-4260D01*
Y-4460D01*
X20518Y-4560D01*
X20318D01*
X20218Y-4460D01*
X20818Y-4560D02*
X21018D01*
X20918D01*
Y-3960D01*
X20818Y-4060D01*
X24841Y10849D02*
Y10449D01*
X24441Y10849D01*
X24342D01*
X24242Y10749D01*
Y10549D01*
X24342Y10449D01*
X24741Y11049D02*
X24841Y11149D01*
Y11348D01*
X24741Y11448D01*
X24342D01*
X24242Y11348D01*
Y11149D01*
X24342Y11049D01*
X24441D01*
X24541Y11149D01*
Y11448D01*
X24941Y11748D02*
X24841Y11848D01*
X24741D01*
Y11748D01*
X24841D01*
Y11848D01*
X24941Y11748D01*
X25041Y11648D01*
X24342Y12248D02*
X24242Y12348D01*
Y12548D01*
X24342Y12648D01*
X24741D01*
X24841Y12548D01*
Y12348D01*
X24741Y12248D01*
X24342D01*
Y12848D02*
X24242Y12948D01*
Y13148D01*
X24342Y13248D01*
X24741D01*
X24841Y13148D01*
Y12948D01*
X24741Y12848D01*
X24342D01*
X11931Y-4560D02*
X11531D01*
X11931Y-4160D01*
Y-4060D01*
X11831Y-3960D01*
X11631D01*
X11531Y-4060D01*
X12531Y-3960D02*
X12331Y-4060D01*
X12131Y-4260D01*
Y-4460D01*
X12231Y-4560D01*
X12431D01*
X12531Y-4460D01*
Y-4360D01*
X12431Y-4260D01*
X12131D01*
X12831Y-4660D02*
X12931Y-4560D01*
Y-4460D01*
X12831D01*
Y-4560D01*
X12931D01*
X12831Y-4660D01*
X12731Y-4760D01*
X13730Y-3960D02*
X13330D01*
Y-4260D01*
X13530Y-4160D01*
X13630D01*
X13730Y-4260D01*
Y-4460D01*
X13630Y-4560D01*
X13430D01*
X13330Y-4460D01*
X13930Y-4060D02*
X14030Y-3960D01*
X14230D01*
X14330Y-4060D01*
Y-4460D01*
X14230Y-4560D01*
X14030D01*
X13930Y-4460D01*
Y-4060D01*
X27021Y-571D02*
X26921Y-471D01*
Y-271D01*
X27021Y-171D01*
X27121D01*
X27221Y-271D01*
Y-371D01*
Y-271D01*
X27321Y-171D01*
X27421D01*
X27521Y-271D01*
Y-471D01*
X27421Y-571D01*
X27621Y129D02*
X27521Y229D01*
X27421D01*
Y129D01*
X27521D01*
Y229D01*
X27621Y129D01*
X27721Y29D01*
X26921Y1029D02*
Y629D01*
X27221D01*
X27121Y829D01*
Y929D01*
X27221Y1029D01*
X27421D01*
X27521Y929D01*
Y729D01*
X27421Y629D01*
X27021Y1229D02*
X26921Y1329D01*
Y1529D01*
X27021Y1629D01*
X27421D01*
X27521Y1529D01*
Y1329D01*
X27421Y1229D01*
X27021D01*
X2777Y-1960D02*
X2377D01*
X2777Y-1560D01*
Y-1460D01*
X2677Y-1360D01*
X2477D01*
X2377Y-1460D01*
X2977D02*
X3077Y-1360D01*
X3277D01*
X3377Y-1460D01*
Y-1860D01*
X3277Y-1960D01*
X3077D01*
X2977Y-1860D01*
Y-1460D01*
X3677Y-2060D02*
X3777Y-1960D01*
Y-1860D01*
X3677D01*
Y-1960D01*
X3777D01*
X3677Y-2060D01*
X3577Y-2160D01*
X4177Y-1460D02*
X4277Y-1360D01*
X4477D01*
X4577Y-1460D01*
Y-1860D01*
X4477Y-1960D01*
X4277D01*
X4177Y-1860D01*
Y-1460D01*
X4777D02*
X4877Y-1360D01*
X5077D01*
X5177Y-1460D01*
Y-1860D01*
X5077Y-1960D01*
X4877D01*
X4777Y-1860D01*
Y-1460D01*
D69*
X11902Y10904D02*
X14546Y7752D01*
X15054Y13548D02*
X17698Y10396D01*
X14546Y7752D02*
X17698Y10396D01*
X11902Y10904D02*
X15054Y13548D01*
X3722Y2623D02*
X6320D01*
X3722Y698D02*
Y2623D01*
Y698D02*
X6320D01*
Y2623D01*
M02*
