G04 Layer_Color=65535*
%FSLAX24Y24*%
%MOIN*%
G70*
G01*
G75*
%ADD18C,0.0100*%
%ADD36C,0.0236*%
%ADD37C,0.0098*%
%ADD38C,0.0079*%
%ADD39C,0.0050*%
%ADD40C,0.0080*%
G36*
X13312Y1086D02*
X13318D01*
X13324Y1085D01*
X13332Y1084D01*
X13341Y1083D01*
X13350Y1081D01*
X13360Y1079D01*
X13370Y1076D01*
X13380Y1072D01*
X13390Y1068D01*
X13401Y1064D01*
X13411Y1058D01*
X13420Y1051D01*
X13429Y1044D01*
X13429Y1044D01*
X13430Y1042D01*
X13433Y1039D01*
X13435Y1036D01*
X13439Y1032D01*
X13443Y1027D01*
X13447Y1021D01*
X13451Y1014D01*
X13455Y1007D01*
X13459Y999D01*
X13463Y989D01*
X13467Y980D01*
X13469Y969D01*
X13472Y958D01*
X13473Y947D01*
X13474Y934D01*
Y934D01*
Y932D01*
Y930D01*
X13473Y927D01*
Y923D01*
X13473Y919D01*
X13472Y913D01*
X13471Y908D01*
X13468Y896D01*
X13465Y882D01*
X13459Y869D01*
X13456Y862D01*
X13452Y855D01*
X13452Y854D01*
X13451Y854D01*
X13450Y852D01*
X13449Y849D01*
X13446Y846D01*
X13444Y843D01*
X13437Y835D01*
X13429Y826D01*
X13419Y817D01*
X13407Y809D01*
X13394Y801D01*
X13393D01*
X13392Y800D01*
X13390Y799D01*
X13387Y798D01*
X13384Y797D01*
X13379Y795D01*
X13374Y793D01*
X13369Y792D01*
X13363Y790D01*
X13356Y788D01*
X13349Y787D01*
X13342Y785D01*
X13326Y783D01*
X13308Y782D01*
X13304D01*
X13300Y783D01*
X13296D01*
X13291Y783D01*
X13285Y784D01*
X13279Y785D01*
X13266Y787D01*
X13251Y791D01*
X13237Y796D01*
X13229Y798D01*
X13222Y802D01*
X13222D01*
X13220Y803D01*
X13218Y804D01*
X13216Y806D01*
X13212Y808D01*
X13209Y810D01*
X13200Y816D01*
X13191Y824D01*
X13182Y833D01*
X13172Y844D01*
X13164Y857D01*
Y858D01*
X13163Y859D01*
X13162Y861D01*
X13161Y864D01*
X13160Y867D01*
X13158Y871D01*
X13156Y875D01*
X13155Y880D01*
X13153Y886D01*
X13151Y892D01*
X13148Y905D01*
X13146Y919D01*
X13145Y934D01*
Y935D01*
Y936D01*
Y939D01*
X13145Y942D01*
Y946D01*
X13146Y950D01*
X13147Y955D01*
X13148Y961D01*
X13150Y974D01*
X13154Y987D01*
X13160Y1001D01*
X13163Y1008D01*
X13166Y1015D01*
X13167Y1015D01*
X13167Y1016D01*
X13169Y1018D01*
X13171Y1021D01*
X13172Y1023D01*
X13175Y1027D01*
X13182Y1034D01*
X13190Y1043D01*
X13200Y1052D01*
X13212Y1061D01*
X13225Y1068D01*
X13226D01*
X13227Y1069D01*
X13229Y1070D01*
X13232Y1071D01*
X13235Y1072D01*
X13239Y1074D01*
X13244Y1076D01*
X13249Y1077D01*
X13255Y1079D01*
X13261Y1081D01*
X13275Y1084D01*
X13289Y1085D01*
X13305Y1086D01*
X13308D01*
X13312Y1086D01*
D02*
G37*
G36*
X13239Y705D02*
X13239D01*
X13238Y704D01*
X13236Y704D01*
X13234Y703D01*
X13231Y703D01*
X13228Y702D01*
X13221Y700D01*
X13213Y697D01*
X13205Y692D01*
X13198Y688D01*
X13191Y682D01*
X13191Y681D01*
X13189Y680D01*
X13187Y676D01*
X13184Y671D01*
X13182Y666D01*
X13179Y659D01*
X13177Y651D01*
X13177Y643D01*
Y642D01*
Y641D01*
Y640D01*
X13177Y638D01*
X13178Y633D01*
X13179Y627D01*
X13182Y619D01*
X13185Y612D01*
X13189Y604D01*
X13196Y597D01*
X13197Y596D01*
X13200Y593D01*
X13204Y591D01*
X13209Y587D01*
X13216Y583D01*
X13224Y580D01*
X13233Y578D01*
X13243Y577D01*
X13246D01*
X13248Y578D01*
X13253Y578D01*
X13259Y580D01*
X13266Y581D01*
X13273Y585D01*
X13281Y589D01*
X13288Y595D01*
X13289Y596D01*
X13290Y598D01*
X13293Y602D01*
X13296Y607D01*
X13300Y613D01*
X13302Y621D01*
X13304Y630D01*
X13305Y640D01*
Y640D01*
Y641D01*
Y644D01*
X13305Y647D01*
X13304Y651D01*
X13303Y656D01*
X13302Y661D01*
X13301Y667D01*
X13335Y663D01*
Y662D01*
Y660D01*
X13335Y658D01*
Y657D01*
Y656D01*
Y656D01*
Y654D01*
Y653D01*
X13336Y647D01*
X13337Y641D01*
X13338Y635D01*
X13340Y627D01*
X13344Y619D01*
X13348Y612D01*
Y611D01*
X13348Y611D01*
X13350Y608D01*
X13353Y605D01*
X13357Y602D01*
X13363Y598D01*
X13370Y595D01*
X13378Y592D01*
X13383Y591D01*
X13391D01*
X13395Y592D01*
X13400Y593D01*
X13406Y595D01*
X13412Y597D01*
X13418Y601D01*
X13423Y606D01*
X13424Y607D01*
X13425Y609D01*
X13428Y612D01*
X13430Y616D01*
X13433Y622D01*
X13435Y628D01*
X13437Y636D01*
X13437Y644D01*
Y644D01*
Y645D01*
Y647D01*
X13436Y652D01*
X13435Y657D01*
X13434Y663D01*
X13431Y669D01*
X13428Y675D01*
X13423Y681D01*
X13423Y682D01*
X13420Y684D01*
X13417Y686D01*
X13412Y690D01*
X13407Y693D01*
X13399Y696D01*
X13390Y699D01*
X13380Y701D01*
X13387Y740D01*
X13388D01*
X13389Y739D01*
X13391Y739D01*
X13394Y738D01*
X13397Y737D01*
X13401Y736D01*
X13409Y733D01*
X13419Y729D01*
X13429Y723D01*
X13439Y716D01*
X13448Y708D01*
X13448Y707D01*
X13449Y706D01*
X13450Y705D01*
X13451Y703D01*
X13453Y701D01*
X13455Y697D01*
X13457Y694D01*
X13459Y690D01*
X13463Y681D01*
X13466Y670D01*
X13468Y658D01*
X13469Y652D01*
Y645D01*
Y644D01*
Y643D01*
Y642D01*
Y640D01*
X13469Y635D01*
X13468Y629D01*
X13467Y622D01*
X13464Y613D01*
X13462Y605D01*
X13458Y597D01*
Y597D01*
X13457Y596D01*
X13456Y593D01*
X13453Y589D01*
X13450Y585D01*
X13446Y579D01*
X13440Y574D01*
X13435Y568D01*
X13428Y563D01*
X13427Y563D01*
X13424Y562D01*
X13420Y560D01*
X13415Y558D01*
X13409Y555D01*
X13402Y553D01*
X13395Y552D01*
X13387Y552D01*
X13383D01*
X13379Y552D01*
X13374Y553D01*
X13368Y554D01*
X13362Y557D01*
X13356Y559D01*
X13349Y563D01*
X13348Y563D01*
X13346Y565D01*
X13343Y568D01*
X13340Y571D01*
X13335Y576D01*
X13331Y581D01*
X13327Y588D01*
X13323Y596D01*
Y595D01*
X13322Y594D01*
X13322Y593D01*
X13321Y591D01*
X13319Y586D01*
X13317Y580D01*
X13313Y572D01*
X13308Y565D01*
X13302Y558D01*
X13295Y552D01*
X13295Y551D01*
X13292Y549D01*
X13287Y546D01*
X13281Y544D01*
X13274Y541D01*
X13265Y538D01*
X13255Y536D01*
X13244Y536D01*
X13240D01*
X13237Y536D01*
X13233Y537D01*
X13229Y538D01*
X13225Y539D01*
X13220Y540D01*
X13209Y543D01*
X13203Y546D01*
X13197Y549D01*
X13191Y552D01*
X13185Y557D01*
X13179Y561D01*
X13174Y567D01*
X13173Y567D01*
X13172Y568D01*
X13171Y570D01*
X13169Y572D01*
X13167Y575D01*
X13165Y579D01*
X13162Y583D01*
X13160Y588D01*
X13157Y593D01*
X13154Y599D01*
X13152Y605D01*
X13149Y612D01*
X13148Y619D01*
X13146Y627D01*
X13145Y635D01*
X13145Y643D01*
Y644D01*
Y645D01*
Y647D01*
X13145Y650D01*
X13146Y654D01*
X13146Y658D01*
X13147Y663D01*
X13148Y668D01*
X13151Y679D01*
X13155Y690D01*
X13158Y696D01*
X13161Y702D01*
X13166Y707D01*
X13170Y713D01*
X13170Y713D01*
X13171Y714D01*
X13172Y715D01*
X13174Y717D01*
X13177Y719D01*
X13180Y721D01*
X13183Y724D01*
X13187Y727D01*
X13192Y730D01*
X13196Y732D01*
X13207Y737D01*
X13220Y742D01*
X13227Y743D01*
X13234Y744D01*
X13239Y705D01*
D02*
G37*
G36*
X14059Y1148D02*
X13741D01*
Y1190D01*
X14059D01*
Y1148D01*
D02*
G37*
G36*
X12722Y1086D02*
X12727D01*
X12734Y1085D01*
X12742Y1084D01*
X12750Y1083D01*
X12760Y1081D01*
X12769Y1079D01*
X12779Y1076D01*
X12789Y1072D01*
X12800Y1068D01*
X12810Y1064D01*
X12820Y1058D01*
X12829Y1051D01*
X12838Y1044D01*
X12838Y1044D01*
X12840Y1042D01*
X12842Y1039D01*
X12845Y1036D01*
X12849Y1032D01*
X12852Y1027D01*
X12856Y1021D01*
X12860Y1014D01*
X12865Y1007D01*
X12869Y999D01*
X12872Y989D01*
X12876Y980D01*
X12879Y969D01*
X12881Y958D01*
X12883Y947D01*
X12883Y934D01*
Y934D01*
Y932D01*
Y930D01*
X12883Y927D01*
Y923D01*
X12882Y919D01*
X12881Y913D01*
X12880Y908D01*
X12878Y896D01*
X12874Y882D01*
X12869Y869D01*
X12866Y862D01*
X12862Y855D01*
X12861Y854D01*
X12861Y854D01*
X12860Y852D01*
X12858Y849D01*
X12856Y846D01*
X12853Y843D01*
X12847Y835D01*
X12838Y826D01*
X12828Y817D01*
X12816Y809D01*
X12803Y801D01*
X12803D01*
X12801Y800D01*
X12799Y799D01*
X12797Y798D01*
X12793Y797D01*
X12789Y795D01*
X12784Y793D01*
X12778Y792D01*
X12772Y790D01*
X12766Y788D01*
X12759Y787D01*
X12751Y785D01*
X12735Y783D01*
X12718Y782D01*
X12713D01*
X12709Y783D01*
X12705D01*
X12700Y783D01*
X12695Y784D01*
X12689Y785D01*
X12676Y787D01*
X12661Y791D01*
X12646Y796D01*
X12639Y798D01*
X12631Y802D01*
X12631D01*
X12630Y803D01*
X12628Y804D01*
X12625Y806D01*
X12622Y808D01*
X12619Y810D01*
X12610Y816D01*
X12601Y824D01*
X12591Y833D01*
X12582Y844D01*
X12574Y857D01*
Y858D01*
X12573Y859D01*
X12572Y861D01*
X12570Y864D01*
X12569Y867D01*
X12568Y871D01*
X12566Y875D01*
X12564Y880D01*
X12562Y886D01*
X12560Y892D01*
X12558Y905D01*
X12555Y919D01*
X12554Y934D01*
Y935D01*
Y936D01*
Y939D01*
X12555Y942D01*
Y946D01*
X12556Y950D01*
X12556Y955D01*
X12557Y961D01*
X12560Y974D01*
X12564Y987D01*
X12569Y1001D01*
X12572Y1008D01*
X12576Y1015D01*
X12576Y1015D01*
X12577Y1016D01*
X12578Y1018D01*
X12580Y1021D01*
X12582Y1023D01*
X12585Y1027D01*
X12592Y1034D01*
X12600Y1043D01*
X12610Y1052D01*
X12621Y1061D01*
X12635Y1068D01*
X12635D01*
X12636Y1069D01*
X12638Y1070D01*
X12641Y1071D01*
X12645Y1072D01*
X12649Y1074D01*
X12653Y1076D01*
X12659Y1077D01*
X12664Y1079D01*
X12670Y1081D01*
X12684Y1084D01*
X12698Y1085D01*
X12714Y1086D01*
X12718D01*
X12722Y1086D01*
D02*
G37*
G36*
X12569Y749D02*
X12573Y749D01*
X12577Y748D01*
X12582Y747D01*
X12587Y745D01*
X12587D01*
X12588Y745D01*
X12591Y744D01*
X12595Y742D01*
X12600Y739D01*
X12607Y736D01*
X12614Y731D01*
X12621Y726D01*
X12629Y720D01*
X12630D01*
X12630Y719D01*
X12633Y716D01*
X12637Y712D01*
X12643Y706D01*
X12650Y699D01*
X12658Y691D01*
X12667Y680D01*
X12677Y669D01*
X12677Y668D01*
X12679Y666D01*
X12681Y664D01*
X12684Y660D01*
X12687Y656D01*
X12692Y651D01*
X12696Y646D01*
X12701Y640D01*
X12712Y629D01*
X12723Y617D01*
X12729Y612D01*
X12734Y607D01*
X12739Y602D01*
X12744Y598D01*
X12745D01*
X12745Y597D01*
X12747Y597D01*
X12748Y596D01*
X12754Y592D01*
X12760Y589D01*
X12767Y586D01*
X12775Y582D01*
X12783Y580D01*
X12792Y580D01*
X12793D01*
X12795Y580D01*
X12800Y580D01*
X12805Y582D01*
X12811Y584D01*
X12818Y587D01*
X12824Y591D01*
X12831Y597D01*
X12832Y597D01*
X12833Y600D01*
X12836Y603D01*
X12839Y608D01*
X12842Y614D01*
X12844Y622D01*
X12846Y630D01*
X12847Y640D01*
Y641D01*
Y641D01*
Y643D01*
X12846Y645D01*
X12846Y650D01*
X12844Y657D01*
X12843Y664D01*
X12839Y671D01*
X12835Y679D01*
X12830Y686D01*
X12829Y686D01*
X12827Y688D01*
X12823Y691D01*
X12817Y694D01*
X12811Y697D01*
X12803Y700D01*
X12793Y702D01*
X12783Y703D01*
X12787Y742D01*
X12788D01*
X12789Y742D01*
X12791D01*
X12794Y742D01*
X12798Y741D01*
X12802Y740D01*
X12807Y738D01*
X12812Y737D01*
X12823Y733D01*
X12834Y728D01*
X12840Y725D01*
X12845Y720D01*
X12850Y716D01*
X12855Y712D01*
X12855Y711D01*
X12856Y710D01*
X12857Y709D01*
X12859Y707D01*
X12860Y704D01*
X12862Y701D01*
X12865Y697D01*
X12867Y692D01*
X12869Y687D01*
X12872Y682D01*
X12873Y676D01*
X12875Y669D01*
X12877Y663D01*
X12878Y655D01*
X12878Y647D01*
X12879Y639D01*
Y639D01*
Y637D01*
Y635D01*
X12878Y631D01*
X12878Y628D01*
X12877Y623D01*
X12877Y618D01*
X12876Y613D01*
X12872Y601D01*
X12868Y589D01*
X12865Y583D01*
X12862Y577D01*
X12858Y572D01*
X12853Y567D01*
X12853Y566D01*
X12852Y565D01*
X12850Y564D01*
X12849Y563D01*
X12846Y560D01*
X12843Y558D01*
X12840Y556D01*
X12836Y553D01*
X12827Y548D01*
X12816Y544D01*
X12810Y542D01*
X12804Y541D01*
X12798Y540D01*
X12791Y540D01*
X12788D01*
X12784Y540D01*
X12779Y541D01*
X12773Y541D01*
X12767Y543D01*
X12760Y545D01*
X12753Y548D01*
X12752Y548D01*
X12750Y549D01*
X12746Y551D01*
X12741Y554D01*
X12736Y558D01*
X12729Y562D01*
X12722Y568D01*
X12714Y574D01*
X12713Y575D01*
X12710Y577D01*
X12708Y580D01*
X12706Y582D01*
X12703Y585D01*
X12699Y588D01*
X12696Y592D01*
X12692Y597D01*
X12687Y601D01*
X12682Y607D01*
X12677Y613D01*
X12671Y619D01*
X12665Y626D01*
X12659Y634D01*
X12658Y634D01*
X12657Y635D01*
X12656Y637D01*
X12654Y639D01*
X12651Y642D01*
X12648Y645D01*
X12642Y653D01*
X12636Y660D01*
X12629Y668D01*
X12623Y674D01*
X12620Y677D01*
X12618Y679D01*
X12618Y680D01*
X12616Y681D01*
X12614Y683D01*
X12612Y685D01*
X12608Y687D01*
X12605Y690D01*
X12597Y696D01*
Y539D01*
X12560D01*
Y750D01*
X12565D01*
X12569Y749D01*
D02*
G37*
G36*
X13468Y1148D02*
X13150D01*
Y1190D01*
X13468D01*
Y1148D01*
D02*
G37*
G36*
X13903Y1086D02*
X13908D01*
X13915Y1085D01*
X13923Y1084D01*
X13931Y1083D01*
X13941Y1081D01*
X13950Y1079D01*
X13960Y1076D01*
X13970Y1072D01*
X13981Y1068D01*
X13991Y1064D01*
X14001Y1058D01*
X14010Y1051D01*
X14019Y1044D01*
X14020Y1044D01*
X14021Y1042D01*
X14023Y1039D01*
X14026Y1036D01*
X14030Y1032D01*
X14033Y1027D01*
X14037Y1021D01*
X14042Y1014D01*
X14046Y1007D01*
X14050Y999D01*
X14054Y989D01*
X14057Y980D01*
X14060Y969D01*
X14062Y958D01*
X14064Y947D01*
X14064Y934D01*
Y934D01*
Y932D01*
Y930D01*
X14064Y927D01*
Y923D01*
X14063Y919D01*
X14062Y913D01*
X14061Y908D01*
X14059Y896D01*
X14055Y882D01*
X14050Y869D01*
X14047Y862D01*
X14043Y855D01*
X14043Y854D01*
X14042Y854D01*
X14041Y852D01*
X14039Y849D01*
X14037Y846D01*
X14034Y843D01*
X14028Y835D01*
X14020Y826D01*
X14009Y817D01*
X13998Y809D01*
X13984Y801D01*
X13984D01*
X13982Y800D01*
X13981Y799D01*
X13978Y798D01*
X13974Y797D01*
X13970Y795D01*
X13965Y793D01*
X13959Y792D01*
X13953Y790D01*
X13947Y788D01*
X13940Y787D01*
X13932Y785D01*
X13916Y783D01*
X13899Y782D01*
X13894D01*
X13891Y783D01*
X13886D01*
X13881Y783D01*
X13876Y784D01*
X13870Y785D01*
X13857Y787D01*
X13842Y791D01*
X13827Y796D01*
X13820Y798D01*
X13813Y802D01*
X13812D01*
X13811Y803D01*
X13809Y804D01*
X13806Y806D01*
X13803Y808D01*
X13800Y810D01*
X13791Y816D01*
X13782Y824D01*
X13772Y833D01*
X13763Y844D01*
X13755Y857D01*
Y858D01*
X13754Y859D01*
X13753Y861D01*
X13751Y864D01*
X13750Y867D01*
X13749Y871D01*
X13747Y875D01*
X13745Y880D01*
X13743Y886D01*
X13741Y892D01*
X13739Y905D01*
X13736Y919D01*
X13735Y934D01*
Y935D01*
Y936D01*
Y939D01*
X13736Y942D01*
Y946D01*
X13737Y950D01*
X13737Y955D01*
X13738Y961D01*
X13741Y974D01*
X13745Y987D01*
X13750Y1001D01*
X13753Y1008D01*
X13757Y1015D01*
X13757Y1015D01*
X13758Y1016D01*
X13759Y1018D01*
X13761Y1021D01*
X13763Y1023D01*
X13766Y1027D01*
X13773Y1034D01*
X13781Y1043D01*
X13791Y1052D01*
X13802Y1061D01*
X13816Y1068D01*
X13816D01*
X13818Y1069D01*
X13819Y1070D01*
X13822Y1071D01*
X13826Y1072D01*
X13830Y1074D01*
X13835Y1076D01*
X13840Y1077D01*
X13846Y1079D01*
X13852Y1081D01*
X13865Y1084D01*
X13880Y1085D01*
X13895Y1086D01*
X13899D01*
X13903Y1086D01*
D02*
G37*
G36*
X14418Y703D02*
X14416D01*
X14415Y703D01*
X14413Y703D01*
X14408Y701D01*
X14401Y699D01*
X14394Y697D01*
X14386Y693D01*
X14379Y688D01*
X14373Y683D01*
X14372Y682D01*
X14371Y680D01*
X14368Y676D01*
X14365Y671D01*
X14363Y666D01*
X14360Y659D01*
X14359Y651D01*
X14358Y642D01*
Y642D01*
Y641D01*
Y640D01*
X14359Y638D01*
X14359Y632D01*
X14361Y626D01*
X14363Y618D01*
X14367Y610D01*
X14372Y602D01*
X14376Y598D01*
X14379Y595D01*
X14380Y594D01*
X14380Y594D01*
X14382Y593D01*
X14383Y591D01*
X14388Y588D01*
X14394Y585D01*
X14402Y581D01*
X14412Y578D01*
X14423Y576D01*
X14429Y575D01*
X14439D01*
X14441Y575D01*
X14444D01*
X14447Y576D01*
X14455Y577D01*
X14463Y580D01*
X14472Y583D01*
X14480Y587D01*
X14488Y594D01*
X14488D01*
X14489Y595D01*
X14491Y597D01*
X14494Y601D01*
X14498Y607D01*
X14501Y614D01*
X14505Y622D01*
X14507Y632D01*
X14508Y637D01*
Y643D01*
Y644D01*
Y646D01*
X14507Y650D01*
X14507Y654D01*
X14505Y660D01*
X14504Y665D01*
X14502Y671D01*
X14499Y677D01*
X14499Y678D01*
X14498Y680D01*
X14495Y682D01*
X14493Y686D01*
X14490Y690D01*
X14486Y693D01*
X14482Y697D01*
X14477Y701D01*
X14482Y737D01*
X14645Y707D01*
Y549D01*
X14608D01*
Y676D01*
X14522Y693D01*
X14522Y692D01*
X14523Y692D01*
X14524Y690D01*
X14525Y688D01*
X14527Y685D01*
X14528Y682D01*
X14532Y675D01*
X14536Y665D01*
X14539Y655D01*
X14541Y644D01*
X14542Y639D01*
Y633D01*
Y632D01*
Y631D01*
Y629D01*
X14542Y626D01*
X14541Y622D01*
X14541Y618D01*
X14540Y613D01*
X14539Y608D01*
X14535Y597D01*
X14533Y591D01*
X14530Y586D01*
X14527Y580D01*
X14523Y574D01*
X14518Y568D01*
X14513Y563D01*
X14513Y562D01*
X14512Y561D01*
X14511Y560D01*
X14508Y558D01*
X14505Y556D01*
X14502Y553D01*
X14498Y551D01*
X14493Y548D01*
X14488Y546D01*
X14483Y543D01*
X14476Y541D01*
X14470Y538D01*
X14463Y536D01*
X14455Y535D01*
X14447Y534D01*
X14439Y534D01*
X14435D01*
X14432Y534D01*
X14428Y535D01*
X14424Y535D01*
X14419Y536D01*
X14414Y537D01*
X14402Y540D01*
X14389Y544D01*
X14383Y547D01*
X14377Y551D01*
X14371Y554D01*
X14365Y559D01*
X14364Y559D01*
X14363Y560D01*
X14361Y562D01*
X14359Y564D01*
X14356Y568D01*
X14352Y571D01*
X14349Y576D01*
X14345Y581D01*
X14342Y586D01*
X14338Y593D01*
X14335Y600D01*
X14332Y607D01*
X14330Y615D01*
X14328Y624D01*
X14326Y633D01*
X14326Y642D01*
Y643D01*
Y644D01*
Y647D01*
X14326Y650D01*
X14327Y653D01*
X14327Y658D01*
X14328Y663D01*
X14329Y668D01*
X14332Y679D01*
X14336Y691D01*
X14339Y697D01*
X14342Y703D01*
X14346Y708D01*
X14350Y714D01*
X14350Y714D01*
X14351Y715D01*
X14353Y716D01*
X14354Y718D01*
X14357Y720D01*
X14359Y722D01*
X14363Y725D01*
X14367Y727D01*
X14371Y730D01*
X14376Y733D01*
X14387Y738D01*
X14400Y742D01*
X14407Y743D01*
X14415Y744D01*
X14418Y703D01*
D02*
G37*
G36*
X15240Y1148D02*
X14922D01*
Y1190D01*
X15240D01*
Y1148D01*
D02*
G37*
G36*
X15084Y1086D02*
X15090D01*
X15096Y1085D01*
X15104Y1084D01*
X15113Y1083D01*
X15122Y1081D01*
X15131Y1079D01*
X15141Y1076D01*
X15152Y1072D01*
X15162Y1068D01*
X15172Y1064D01*
X15182Y1058D01*
X15191Y1051D01*
X15200Y1044D01*
X15201Y1044D01*
X15202Y1042D01*
X15204Y1039D01*
X15207Y1036D01*
X15211Y1032D01*
X15214Y1027D01*
X15219Y1021D01*
X15223Y1014D01*
X15227Y1007D01*
X15231Y999D01*
X15235Y989D01*
X15238Y980D01*
X15241Y969D01*
X15243Y958D01*
X15245Y947D01*
X15245Y934D01*
Y934D01*
Y932D01*
Y930D01*
X15245Y927D01*
Y923D01*
X15244Y919D01*
X15243Y913D01*
X15242Y908D01*
X15240Y896D01*
X15236Y882D01*
X15231Y869D01*
X15228Y862D01*
X15224Y855D01*
X15224Y854D01*
X15223Y854D01*
X15222Y852D01*
X15220Y849D01*
X15218Y846D01*
X15215Y843D01*
X15209Y835D01*
X15201Y826D01*
X15191Y817D01*
X15179Y809D01*
X15165Y801D01*
X15165D01*
X15163Y800D01*
X15162Y799D01*
X15159Y798D01*
X15155Y797D01*
X15151Y795D01*
X15146Y793D01*
X15141Y792D01*
X15135Y790D01*
X15128Y788D01*
X15121Y787D01*
X15113Y785D01*
X15097Y783D01*
X15080Y782D01*
X15075D01*
X15072Y783D01*
X15068D01*
X15063Y783D01*
X15057Y784D01*
X15051Y785D01*
X15038Y787D01*
X15023Y791D01*
X15008Y796D01*
X15001Y798D01*
X14994Y802D01*
X14993D01*
X14992Y803D01*
X14990Y804D01*
X14987Y806D01*
X14984Y808D01*
X14981Y810D01*
X14972Y816D01*
X14963Y824D01*
X14953Y833D01*
X14944Y844D01*
X14936Y857D01*
Y858D01*
X14935Y859D01*
X14934Y861D01*
X14933Y864D01*
X14931Y867D01*
X14930Y871D01*
X14928Y875D01*
X14926Y880D01*
X14924Y886D01*
X14923Y892D01*
X14920Y905D01*
X14917Y919D01*
X14917Y934D01*
Y935D01*
Y936D01*
Y939D01*
X14917Y942D01*
Y946D01*
X14918Y950D01*
X14918Y955D01*
X14919Y961D01*
X14922Y974D01*
X14926Y987D01*
X14931Y1001D01*
X14934Y1008D01*
X14938Y1015D01*
X14939Y1015D01*
X14939Y1016D01*
X14940Y1018D01*
X14942Y1021D01*
X14944Y1023D01*
X14947Y1027D01*
X14954Y1034D01*
X14962Y1043D01*
X14972Y1052D01*
X14984Y1061D01*
X14997Y1068D01*
X14997D01*
X14999Y1069D01*
X15001Y1070D01*
X15003Y1071D01*
X15007Y1072D01*
X15011Y1074D01*
X15016Y1076D01*
X15021Y1077D01*
X15027Y1079D01*
X15033Y1081D01*
X15046Y1084D01*
X15061Y1085D01*
X15076Y1086D01*
X15080D01*
X15084Y1086D01*
D02*
G37*
G36*
X14059Y612D02*
Y580D01*
X13853D01*
Y537D01*
X13817D01*
Y580D01*
X13741D01*
Y619D01*
X13817D01*
Y758D01*
X13853D01*
X14059Y612D01*
D02*
G37*
G36*
X14649Y1148D02*
X14332D01*
Y1190D01*
X14649D01*
Y1148D01*
D02*
G37*
G36*
X14494Y1086D02*
X14499D01*
X14505Y1085D01*
X14513Y1084D01*
X14522Y1083D01*
X14531Y1081D01*
X14541Y1079D01*
X14551Y1076D01*
X14561Y1072D01*
X14572Y1068D01*
X14582Y1064D01*
X14592Y1058D01*
X14601Y1051D01*
X14610Y1044D01*
X14610Y1044D01*
X14611Y1042D01*
X14614Y1039D01*
X14617Y1036D01*
X14620Y1032D01*
X14624Y1027D01*
X14628Y1021D01*
X14632Y1014D01*
X14636Y1007D01*
X14640Y999D01*
X14644Y989D01*
X14648Y980D01*
X14650Y969D01*
X14653Y958D01*
X14654Y947D01*
X14655Y934D01*
Y934D01*
Y932D01*
Y930D01*
X14654Y927D01*
Y923D01*
X14654Y919D01*
X14653Y913D01*
X14652Y908D01*
X14650Y896D01*
X14646Y882D01*
X14640Y869D01*
X14637Y862D01*
X14634Y855D01*
X14633Y854D01*
X14633Y854D01*
X14631Y852D01*
X14630Y849D01*
X14628Y846D01*
X14625Y843D01*
X14618Y835D01*
X14610Y826D01*
X14600Y817D01*
X14588Y809D01*
X14575Y801D01*
X14574D01*
X14573Y800D01*
X14571Y799D01*
X14568Y798D01*
X14565Y797D01*
X14561Y795D01*
X14555Y793D01*
X14550Y792D01*
X14544Y790D01*
X14538Y788D01*
X14530Y787D01*
X14523Y785D01*
X14507Y783D01*
X14489Y782D01*
X14485D01*
X14481Y783D01*
X14477D01*
X14472Y783D01*
X14466Y784D01*
X14460Y785D01*
X14447Y787D01*
X14432Y791D01*
X14418Y796D01*
X14410Y798D01*
X14403Y802D01*
X14403D01*
X14401Y803D01*
X14399Y804D01*
X14397Y806D01*
X14393Y808D01*
X14390Y810D01*
X14382Y816D01*
X14372Y824D01*
X14363Y833D01*
X14354Y844D01*
X14345Y857D01*
Y858D01*
X14344Y859D01*
X14343Y861D01*
X14342Y864D01*
X14341Y867D01*
X14339Y871D01*
X14337Y875D01*
X14336Y880D01*
X14334Y886D01*
X14332Y892D01*
X14329Y905D01*
X14327Y919D01*
X14326Y934D01*
Y935D01*
Y936D01*
Y939D01*
X14326Y942D01*
Y946D01*
X14327Y950D01*
X14328Y955D01*
X14329Y961D01*
X14332Y974D01*
X14335Y987D01*
X14341Y1001D01*
X14344Y1008D01*
X14348Y1015D01*
X14348Y1015D01*
X14348Y1016D01*
X14350Y1018D01*
X14352Y1021D01*
X14354Y1023D01*
X14356Y1027D01*
X14363Y1034D01*
X14371Y1043D01*
X14382Y1052D01*
X14393Y1061D01*
X14406Y1068D01*
X14407D01*
X14408Y1069D01*
X14410Y1070D01*
X14413Y1071D01*
X14416Y1072D01*
X14421Y1074D01*
X14425Y1076D01*
X14430Y1077D01*
X14436Y1079D01*
X14442Y1081D01*
X14456Y1084D01*
X14470Y1085D01*
X14486Y1086D01*
X14489D01*
X14494Y1086D01*
D02*
G37*
G36*
X12877Y1148D02*
X12560D01*
Y1190D01*
X12877D01*
Y1148D01*
D02*
G37*
G36*
X10623Y2097D02*
X10632Y2097D01*
X10642Y2096D01*
X10651Y2094D01*
X10659Y2093D01*
X10659D01*
X10660Y2093D01*
X10661D01*
X10663Y2092D01*
X10668Y2090D01*
X10675Y2088D01*
X10682Y2085D01*
X10690Y2081D01*
X10698Y2076D01*
X10705Y2070D01*
X10705Y2070D01*
X10706Y2069D01*
X10707Y2068D01*
X10709Y2066D01*
X10714Y2062D01*
X10719Y2055D01*
X10725Y2048D01*
X10732Y2038D01*
X10738Y2028D01*
X10743Y2016D01*
Y2015D01*
X10743Y2015D01*
X10744Y2013D01*
X10744Y2010D01*
X10746Y2007D01*
X10747Y2003D01*
X10748Y1999D01*
X10749Y1994D01*
X10750Y1989D01*
X10751Y1983D01*
X10754Y1970D01*
X10755Y1956D01*
X10755Y1940D01*
Y1940D01*
Y1939D01*
Y1937D01*
Y1934D01*
X10755Y1931D01*
Y1927D01*
X10755Y1919D01*
X10753Y1909D01*
X10752Y1898D01*
X10749Y1887D01*
X10747Y1876D01*
Y1875D01*
X10746Y1875D01*
X10746Y1873D01*
X10745Y1871D01*
X10744Y1866D01*
X10741Y1860D01*
X10738Y1853D01*
X10734Y1845D01*
X10730Y1837D01*
X10725Y1830D01*
X10725Y1829D01*
X10723Y1827D01*
X10720Y1824D01*
X10716Y1819D01*
X10712Y1815D01*
X10707Y1810D01*
X10702Y1805D01*
X10696Y1801D01*
X10695Y1801D01*
X10694Y1799D01*
X10690Y1797D01*
X10686Y1795D01*
X10680Y1792D01*
X10674Y1790D01*
X10666Y1787D01*
X10658Y1785D01*
X10657D01*
X10656Y1785D01*
X10654Y1784D01*
X10650Y1784D01*
X10643Y1783D01*
X10636Y1782D01*
X10627Y1781D01*
X10618Y1780D01*
X10607Y1780D01*
X10493D01*
Y2098D01*
X10615D01*
X10623Y2097D01*
D02*
G37*
G36*
X10487Y1398D02*
X10493Y1398D01*
X10498Y1397D01*
X10510Y1396D01*
X10517Y1395D01*
X10523Y1393D01*
X10523Y1393D01*
X10524Y1393D01*
X10525Y1392D01*
X10527Y1392D01*
X10529Y1391D01*
X10532Y1390D01*
X10538Y1388D01*
X10545Y1385D01*
X10552Y1382D01*
X10559Y1377D01*
X10566Y1373D01*
X10566Y1373D01*
X10567Y1372D01*
X10568Y1372D01*
X10569Y1370D01*
X10572Y1368D01*
X10576Y1364D01*
X10580Y1359D01*
X10584Y1354D01*
X10588Y1348D01*
X10591Y1342D01*
X10592Y1341D01*
X10593Y1338D01*
X10594Y1335D01*
X10595Y1330D01*
X10597Y1324D01*
X10598Y1316D01*
X10599Y1308D01*
X10599Y1299D01*
X10569Y1299D01*
X10569Y1300D01*
X10569Y1300D01*
X10569Y1301D01*
X10569Y1303D01*
X10569Y1306D01*
X10569Y1310D01*
X10568Y1316D01*
X10567Y1320D01*
X10566Y1326D01*
X10564Y1331D01*
X10564Y1331D01*
X10563Y1333D01*
X10561Y1335D01*
X10560Y1338D01*
X10557Y1341D01*
X10554Y1345D01*
X10551Y1349D01*
X10546Y1352D01*
X10546Y1353D01*
X10544Y1354D01*
X10541Y1356D01*
X10538Y1358D01*
X10533Y1360D01*
X10528Y1363D01*
X10523Y1365D01*
X10516Y1367D01*
X10516Y1367D01*
X10515Y1367D01*
X10514Y1368D01*
X10513Y1368D01*
X10511Y1368D01*
X10509Y1369D01*
X10504Y1370D01*
X10498Y1370D01*
X10491Y1371D01*
X10485Y1371D01*
X10478Y1370D01*
X10478Y1370D01*
X10475Y1370D01*
X10472Y1369D01*
X10469Y1368D01*
X10464Y1367D01*
X10459Y1365D01*
X10454Y1363D01*
X10449Y1360D01*
X10449Y1360D01*
X10447Y1359D01*
X10445Y1357D01*
X10442Y1355D01*
X10439Y1352D01*
X10436Y1349D01*
X10432Y1345D01*
X10429Y1341D01*
X10428Y1341D01*
X10428Y1340D01*
X10427Y1339D01*
X10426Y1338D01*
X10425Y1336D01*
X10424Y1334D01*
X10422Y1331D01*
X10421Y1329D01*
X10417Y1322D01*
X10414Y1315D01*
X10410Y1306D01*
X10407Y1297D01*
X10407Y1297D01*
X10407Y1296D01*
X10407Y1294D01*
X10406Y1292D01*
X10406Y1290D01*
X10405Y1286D01*
X10405Y1283D01*
X10404Y1279D01*
X10403Y1270D01*
X10402Y1261D01*
X10403Y1252D01*
X10404Y1243D01*
X10404Y1242D01*
X10404Y1241D01*
X10404Y1240D01*
X10405Y1239D01*
X10406Y1235D01*
X10409Y1229D01*
X10412Y1223D01*
X10416Y1216D01*
X10421Y1210D01*
X10427Y1204D01*
X10427Y1204D01*
X10428Y1203D01*
X10428Y1202D01*
X10430Y1201D01*
X10431Y1200D01*
X10433Y1199D01*
X10438Y1195D01*
X10444Y1192D01*
X10451Y1188D01*
X10459Y1185D01*
X10467Y1182D01*
X10467Y1182D01*
X10468Y1182D01*
X10469Y1182D01*
X10470Y1181D01*
X10473Y1181D01*
X10475Y1181D01*
X10480Y1180D01*
X10486Y1179D01*
X10493Y1179D01*
X10500Y1179D01*
X10508Y1179D01*
X10508Y1179D01*
X10509Y1179D01*
X10509Y1179D01*
X10511Y1180D01*
X10515Y1180D01*
X10520Y1181D01*
X10525Y1182D01*
X10531Y1184D01*
X10536Y1186D01*
X10541Y1188D01*
X10552Y1231D01*
X10485Y1249D01*
X10492Y1276D01*
X10590Y1250D01*
X10567Y1165D01*
X10566Y1165D01*
X10566Y1164D01*
X10564Y1164D01*
X10562Y1163D01*
X10560Y1162D01*
X10557Y1161D01*
X10553Y1160D01*
X10550Y1159D01*
X10542Y1156D01*
X10532Y1154D01*
X10523Y1152D01*
X10513Y1150D01*
X10513Y1150D01*
X10512Y1150D01*
X10511Y1150D01*
X10509Y1150D01*
X10506Y1150D01*
X10503Y1150D01*
X10500Y1150D01*
X10497Y1150D01*
X10489Y1150D01*
X10480Y1151D01*
X10471Y1152D01*
X10462Y1155D01*
X10461Y1155D01*
X10460Y1155D01*
X10459Y1155D01*
X10456Y1156D01*
X10453Y1157D01*
X10450Y1158D01*
X10446Y1160D01*
X10442Y1162D01*
X10433Y1166D01*
X10423Y1171D01*
X10413Y1178D01*
X10408Y1181D01*
X10404Y1185D01*
X10404Y1186D01*
X10403Y1186D01*
X10402Y1188D01*
X10400Y1189D01*
X10398Y1192D01*
X10396Y1194D01*
X10391Y1200D01*
X10386Y1208D01*
X10381Y1217D01*
X10377Y1227D01*
X10373Y1238D01*
X10373Y1239D01*
X10373Y1240D01*
X10373Y1241D01*
X10372Y1244D01*
X10372Y1247D01*
X10372Y1250D01*
X10371Y1254D01*
X10371Y1258D01*
X10371Y1263D01*
X10371Y1268D01*
X10371Y1274D01*
X10372Y1279D01*
X10373Y1291D01*
X10376Y1304D01*
X10376Y1304D01*
X10376Y1305D01*
X10377Y1307D01*
X10378Y1309D01*
X10378Y1312D01*
X10380Y1316D01*
X10381Y1319D01*
X10383Y1323D01*
X10385Y1328D01*
X10387Y1333D01*
X10393Y1343D01*
X10399Y1353D01*
X10406Y1362D01*
X10407Y1363D01*
X10407Y1364D01*
X10408Y1365D01*
X10410Y1366D01*
X10412Y1369D01*
X10415Y1371D01*
X10421Y1376D01*
X10429Y1382D01*
X10438Y1387D01*
X10447Y1392D01*
X10453Y1393D01*
X10458Y1395D01*
X10459Y1395D01*
X10460Y1395D01*
X10461Y1396D01*
X10464Y1396D01*
X10466Y1396D01*
X10470Y1397D01*
X10474Y1397D01*
X10478Y1398D01*
X10483Y1398D01*
X10487Y1398D01*
D02*
G37*
G36*
X10696Y1343D02*
X10768Y1129D01*
X10816Y1310D01*
X10845Y1302D01*
X10784Y1072D01*
X10752Y1081D01*
X10680Y1294D01*
X10632Y1113D01*
X10603Y1121D01*
X10664Y1351D01*
X10696Y1343D01*
D02*
G37*
G36*
X10913Y4837D02*
X10793D01*
Y4876D01*
X10913D01*
Y4837D01*
D02*
G37*
G36*
X10623Y5059D02*
X10632Y5058D01*
X10642Y5057D01*
X10651Y5056D01*
X10659Y5055D01*
X10659D01*
X10660Y5054D01*
X10661D01*
X10663Y5053D01*
X10668Y5052D01*
X10675Y5050D01*
X10682Y5046D01*
X10690Y5042D01*
X10698Y5038D01*
X10705Y5032D01*
X10705Y5031D01*
X10706Y5031D01*
X10707Y5029D01*
X10709Y5028D01*
X10714Y5023D01*
X10719Y5017D01*
X10725Y5009D01*
X10732Y5000D01*
X10738Y4990D01*
X10743Y4978D01*
Y4977D01*
X10743Y4976D01*
X10744Y4974D01*
X10744Y4972D01*
X10746Y4968D01*
X10747Y4965D01*
X10748Y4961D01*
X10749Y4956D01*
X10750Y4951D01*
X10751Y4945D01*
X10754Y4932D01*
X10755Y4917D01*
X10755Y4902D01*
Y4901D01*
Y4900D01*
Y4898D01*
Y4896D01*
X10755Y4893D01*
Y4889D01*
X10755Y4880D01*
X10753Y4870D01*
X10752Y4860D01*
X10749Y4849D01*
X10747Y4838D01*
Y4837D01*
X10746Y4836D01*
X10746Y4835D01*
X10745Y4833D01*
X10744Y4828D01*
X10741Y4822D01*
X10738Y4814D01*
X10734Y4807D01*
X10730Y4799D01*
X10725Y4792D01*
X10725Y4791D01*
X10723Y4788D01*
X10720Y4785D01*
X10716Y4781D01*
X10712Y4777D01*
X10707Y4772D01*
X10702Y4767D01*
X10696Y4763D01*
X10695Y4762D01*
X10694Y4761D01*
X10690Y4759D01*
X10686Y4757D01*
X10680Y4754D01*
X10674Y4752D01*
X10666Y4749D01*
X10658Y4747D01*
X10657D01*
X10656Y4746D01*
X10654Y4746D01*
X10650Y4745D01*
X10643Y4744D01*
X10636Y4743D01*
X10627Y4743D01*
X10618Y4742D01*
X10607Y4742D01*
X10493D01*
Y5059D01*
X10615D01*
X10623Y5059D01*
D02*
G37*
G36*
X10926Y1955D02*
X11013D01*
Y1919D01*
X10926D01*
Y1831D01*
X10889D01*
Y1919D01*
X10803D01*
Y1955D01*
X10889D01*
Y2041D01*
X10926D01*
Y1955D01*
D02*
G37*
G36*
X10976Y1268D02*
X10976Y1267D01*
X10977Y1267D01*
X10978Y1267D01*
X10980Y1266D01*
X10982Y1266D01*
X10985Y1265D01*
X10991Y1263D01*
X10998Y1261D01*
X11004Y1259D01*
X11010Y1256D01*
X11016Y1253D01*
X11016Y1253D01*
X11017Y1253D01*
X11018Y1252D01*
X11019Y1251D01*
X11022Y1249D01*
X11026Y1246D01*
X11031Y1243D01*
X11036Y1238D01*
X11041Y1233D01*
X11045Y1228D01*
X11045Y1227D01*
X11045Y1227D01*
X11046Y1226D01*
X11047Y1224D01*
X11050Y1220D01*
X11052Y1214D01*
X11055Y1207D01*
X11058Y1200D01*
X11060Y1191D01*
X11062Y1181D01*
X11061Y1181D01*
X11062Y1180D01*
X11062Y1179D01*
X11062Y1176D01*
X11062Y1174D01*
X11062Y1171D01*
X11062Y1168D01*
X11062Y1164D01*
X11062Y1160D01*
X11061Y1155D01*
X11061Y1146D01*
X11059Y1135D01*
X11056Y1124D01*
X11056Y1123D01*
X11056Y1123D01*
X11055Y1121D01*
X11055Y1119D01*
X11054Y1117D01*
X11053Y1115D01*
X11051Y1108D01*
X11048Y1101D01*
X11045Y1094D01*
X11042Y1086D01*
X11037Y1079D01*
X11037Y1079D01*
X11037Y1078D01*
X11036Y1077D01*
X11036Y1076D01*
X11033Y1073D01*
X11030Y1068D01*
X11027Y1064D01*
X11022Y1059D01*
X11018Y1054D01*
X11013Y1050D01*
X11012Y1049D01*
X11011Y1048D01*
X11008Y1046D01*
X11005Y1044D01*
X11001Y1041D01*
X10996Y1039D01*
X10991Y1036D01*
X10986Y1035D01*
X10986Y1034D01*
X10984Y1034D01*
X10981Y1033D01*
X10978Y1032D01*
X10973Y1031D01*
X10968Y1031D01*
X10962Y1030D01*
X10956Y1030D01*
X10955Y1030D01*
X10955Y1031D01*
X10954Y1030D01*
X10953Y1030D01*
X10949Y1031D01*
X10945Y1032D01*
X10939Y1032D01*
X10933Y1033D01*
X10926Y1035D01*
X10918Y1037D01*
X10835Y1059D01*
X10897Y1289D01*
X10976Y1268D01*
D02*
G37*
G36*
X12287Y1148D02*
X12007D01*
Y991D01*
X11969D01*
Y1190D01*
X12287D01*
Y1148D01*
D02*
G37*
G36*
Y711D02*
X12249D01*
Y899D01*
X12152D01*
Y723D01*
X12115D01*
Y899D01*
X12007D01*
Y703D01*
X11969D01*
Y941D01*
X12287D01*
Y711D01*
D02*
G37*
G36*
Y536D02*
Y535D01*
Y534D01*
Y532D01*
Y530D01*
Y527D01*
Y523D01*
X12286Y515D01*
X12286Y506D01*
X12285Y496D01*
X12284Y487D01*
X12282Y479D01*
Y479D01*
X12282Y478D01*
Y477D01*
X12281Y475D01*
X12280Y470D01*
X12277Y463D01*
X12274Y456D01*
X12270Y448D01*
X12265Y440D01*
X12259Y433D01*
X12259Y433D01*
X12258Y432D01*
X12257Y431D01*
X12256Y429D01*
X12251Y424D01*
X12245Y419D01*
X12237Y413D01*
X12228Y406D01*
X12217Y401D01*
X12205Y395D01*
X12205D01*
X12204Y395D01*
X12202Y394D01*
X12199Y394D01*
X12196Y392D01*
X12192Y391D01*
X12188Y390D01*
X12183Y389D01*
X12178Y388D01*
X12172Y387D01*
X12159Y384D01*
X12145Y383D01*
X12129Y383D01*
X12124D01*
X12120Y383D01*
X12117D01*
X12108Y384D01*
X12098Y385D01*
X12087Y386D01*
X12076Y389D01*
X12065Y391D01*
X12065D01*
X12064Y392D01*
X12062Y392D01*
X12061Y393D01*
X12056Y395D01*
X12049Y397D01*
X12042Y400D01*
X12034Y404D01*
X12027Y408D01*
X12019Y413D01*
X12018Y413D01*
X12016Y415D01*
X12013Y418D01*
X12009Y422D01*
X12004Y426D01*
X12000Y431D01*
X11995Y436D01*
X11990Y442D01*
X11990Y443D01*
X11989Y445D01*
X11987Y448D01*
X11984Y452D01*
X11982Y458D01*
X11979Y464D01*
X11977Y472D01*
X11974Y480D01*
Y480D01*
Y481D01*
X11974Y482D01*
X11973Y484D01*
X11973Y488D01*
X11972Y495D01*
X11971Y502D01*
X11970Y511D01*
X11970Y520D01*
X11969Y531D01*
Y645D01*
X12287D01*
Y536D01*
D02*
G37*
G36*
X11696Y1148D02*
X11538D01*
X11696Y991D01*
Y933D01*
X11567Y1067D01*
X11379Y927D01*
Y983D01*
X11539Y1096D01*
X11489Y1148D01*
X11379D01*
Y1190D01*
X11696D01*
Y1148D01*
D02*
G37*
G36*
Y662D02*
X11659D01*
Y849D01*
X11562D01*
Y674D01*
X11524D01*
Y849D01*
X11416D01*
Y654D01*
X11379D01*
Y892D01*
X11696D01*
Y662D01*
D02*
G37*
G36*
Y579D02*
X11600Y516D01*
X11600D01*
X11599Y515D01*
X11597Y514D01*
X11595Y513D01*
X11593Y512D01*
X11590Y510D01*
X11583Y506D01*
X11575Y501D01*
X11566Y495D01*
X11556Y489D01*
X11546Y484D01*
X11547D01*
X11548Y483D01*
X11549Y482D01*
X11551Y481D01*
X11553Y479D01*
X11556Y478D01*
X11563Y474D01*
X11571Y468D01*
X11581Y462D01*
X11591Y456D01*
X11603Y448D01*
X11696Y387D01*
Y338D01*
X11513Y465D01*
X11379D01*
Y507D01*
X11513D01*
X11696Y630D01*
Y579D01*
D02*
G37*
G36*
X18114Y467D02*
X18115Y466D01*
X18115Y464D01*
X18117Y462D01*
X18118Y459D01*
X18120Y456D01*
X18125Y448D01*
X18130Y439D01*
X18136Y430D01*
X18143Y420D01*
X18151Y411D01*
X18152Y410D01*
X18152Y410D01*
X18153Y408D01*
X18155Y406D01*
X18159Y402D01*
X18165Y397D01*
X18171Y391D01*
X18179Y385D01*
X18186Y380D01*
X18194Y376D01*
Y350D01*
X17875D01*
Y389D01*
X18123D01*
X18123Y390D01*
X18121Y392D01*
X18118Y395D01*
X18115Y400D01*
X18111Y405D01*
X18106Y411D01*
X18101Y418D01*
X18096Y427D01*
Y427D01*
X18096Y428D01*
X18094Y430D01*
X18091Y435D01*
X18089Y440D01*
X18085Y447D01*
X18082Y454D01*
X18079Y461D01*
X18076Y468D01*
X18114D01*
Y467D01*
D02*
G37*
G36*
X20370Y4378D02*
X20084D01*
Y4018D01*
X20370D01*
Y3926D01*
X19675D01*
Y4018D01*
X20002D01*
Y4378D01*
X19675D01*
Y4470D01*
X20370D01*
Y4378D01*
D02*
G37*
G36*
Y3638D02*
X19877Y3473D01*
X19876D01*
X19874Y3472D01*
X19871Y3471D01*
X19866Y3469D01*
X19854Y3465D01*
X19838Y3460D01*
X19821Y3455D01*
X19804Y3449D01*
X19788Y3444D01*
X19774Y3440D01*
X19776Y3439D01*
X19781Y3438D01*
X19790Y3435D01*
X19802Y3431D01*
X19818Y3426D01*
X19837Y3419D01*
X19860Y3412D01*
X19886Y3403D01*
X20370Y3236D01*
Y3113D01*
X19675D01*
Y3201D01*
X20256D01*
X19675Y3404D01*
Y3486D01*
X20266Y3687D01*
X19675D01*
Y3775D01*
X20370D01*
Y3638D01*
D02*
G37*
G36*
X18192Y1148D02*
X17875D01*
Y1190D01*
X18192D01*
Y1148D01*
D02*
G37*
G36*
X18037Y1086D02*
X18042D01*
X18049Y1085D01*
X18057Y1084D01*
X18065Y1083D01*
X18074Y1081D01*
X18084Y1079D01*
X18094Y1076D01*
X18104Y1072D01*
X18115Y1068D01*
X18125Y1064D01*
X18135Y1058D01*
X18144Y1051D01*
X18153Y1044D01*
X18153Y1044D01*
X18155Y1042D01*
X18157Y1039D01*
X18160Y1036D01*
X18164Y1032D01*
X18167Y1027D01*
X18171Y1021D01*
X18175Y1014D01*
X18180Y1007D01*
X18184Y999D01*
X18187Y989D01*
X18191Y980D01*
X18194Y969D01*
X18196Y958D01*
X18197Y947D01*
X18198Y934D01*
Y934D01*
Y932D01*
Y930D01*
X18197Y927D01*
Y923D01*
X18197Y919D01*
X18196Y913D01*
X18195Y908D01*
X18193Y896D01*
X18189Y882D01*
X18184Y869D01*
X18181Y862D01*
X18177Y855D01*
X18176Y854D01*
X18176Y854D01*
X18175Y852D01*
X18173Y849D01*
X18171Y846D01*
X18168Y843D01*
X18162Y835D01*
X18153Y826D01*
X18143Y817D01*
X18131Y809D01*
X18118Y801D01*
X18118D01*
X18116Y800D01*
X18114Y799D01*
X18112Y798D01*
X18108Y797D01*
X18104Y795D01*
X18099Y793D01*
X18093Y792D01*
X18087Y790D01*
X18081Y788D01*
X18074Y787D01*
X18066Y785D01*
X18050Y783D01*
X18033Y782D01*
X18028D01*
X18024Y783D01*
X18020D01*
X18015Y783D01*
X18010Y784D01*
X18004Y785D01*
X17990Y787D01*
X17976Y791D01*
X17961Y796D01*
X17954Y798D01*
X17946Y802D01*
X17946D01*
X17945Y803D01*
X17943Y804D01*
X17940Y806D01*
X17937Y808D01*
X17934Y810D01*
X17925Y816D01*
X17916Y824D01*
X17906Y833D01*
X17897Y844D01*
X17889Y857D01*
Y858D01*
X17888Y859D01*
X17887Y861D01*
X17885Y864D01*
X17884Y867D01*
X17883Y871D01*
X17881Y875D01*
X17879Y880D01*
X17877Y886D01*
X17875Y892D01*
X17873Y905D01*
X17870Y919D01*
X17869Y934D01*
Y935D01*
Y936D01*
Y939D01*
X17870Y942D01*
Y946D01*
X17871Y950D01*
X17871Y955D01*
X17872Y961D01*
X17875Y974D01*
X17878Y987D01*
X17884Y1001D01*
X17887Y1008D01*
X17891Y1015D01*
X17891Y1015D01*
X17892Y1016D01*
X17893Y1018D01*
X17895Y1021D01*
X17897Y1023D01*
X17900Y1027D01*
X17906Y1034D01*
X17915Y1043D01*
X17925Y1052D01*
X17936Y1061D01*
X17950Y1068D01*
X17950D01*
X17951Y1069D01*
X17953Y1070D01*
X17956Y1071D01*
X17960Y1072D01*
X17964Y1074D01*
X17968Y1076D01*
X17973Y1077D01*
X17979Y1079D01*
X17985Y1081D01*
X17999Y1084D01*
X18013Y1085D01*
X18029Y1086D01*
X18033D01*
X18037Y1086D01*
D02*
G37*
G36*
X18114Y714D02*
X18115Y713D01*
X18115Y711D01*
X18117Y709D01*
X18118Y706D01*
X18120Y703D01*
X18125Y695D01*
X18130Y686D01*
X18136Y677D01*
X18143Y667D01*
X18151Y658D01*
X18152Y657D01*
X18152Y657D01*
X18153Y655D01*
X18155Y653D01*
X18159Y649D01*
X18165Y644D01*
X18171Y638D01*
X18179Y632D01*
X18186Y627D01*
X18194Y623D01*
Y597D01*
X17875D01*
Y636D01*
X18123D01*
X18123Y637D01*
X18121Y639D01*
X18118Y642D01*
X18115Y647D01*
X18111Y652D01*
X18106Y658D01*
X18101Y665D01*
X18096Y674D01*
Y674D01*
X18096Y675D01*
X18094Y677D01*
X18091Y682D01*
X18089Y687D01*
X18085Y694D01*
X18082Y701D01*
X18079Y708D01*
X18076Y714D01*
X18114D01*
Y714D01*
D02*
G37*
G36*
X19969Y2744D02*
X19884D01*
Y3008D01*
X19969D01*
Y2744D01*
D02*
G37*
G36*
X11844Y2970D02*
X11781D01*
Y3385D01*
X11636Y2970D01*
X11577D01*
X11434Y3392D01*
Y2970D01*
X11371D01*
Y3466D01*
X11469D01*
X11587Y3114D01*
Y3113D01*
X11588Y3112D01*
X11588Y3110D01*
X11590Y3106D01*
X11593Y3098D01*
X11596Y3087D01*
X11600Y3075D01*
X11604Y3062D01*
X11608Y3051D01*
X11610Y3041D01*
X11611Y3042D01*
X11612Y3046D01*
X11614Y3052D01*
X11617Y3061D01*
X11620Y3073D01*
X11625Y3086D01*
X11631Y3102D01*
X11637Y3121D01*
X11756Y3466D01*
X11844D01*
Y2970D01*
D02*
G37*
G36*
X12155D02*
X12094D01*
Y3358D01*
X12094Y3357D01*
X12090Y3354D01*
X12086Y3350D01*
X12079Y3345D01*
X12071Y3339D01*
X12061Y3331D01*
X12049Y3323D01*
X12036Y3316D01*
X12036D01*
X12035Y3315D01*
X12031Y3312D01*
X12023Y3308D01*
X12015Y3304D01*
X12005Y3299D01*
X11994Y3294D01*
X11983Y3289D01*
X11973Y3285D01*
Y3344D01*
X11973D01*
X11975Y3345D01*
X11978Y3346D01*
X11981Y3348D01*
X11985Y3350D01*
X11990Y3353D01*
X12003Y3360D01*
X12017Y3368D01*
X12031Y3378D01*
X12046Y3389D01*
X12061Y3402D01*
X12062Y3402D01*
X12063Y3403D01*
X12065Y3405D01*
X12068Y3407D01*
X12074Y3415D01*
X12083Y3423D01*
X12092Y3433D01*
X12101Y3445D01*
X12109Y3456D01*
X12116Y3468D01*
X12155D01*
Y2970D01*
D02*
G37*
G36*
X12488Y3468D02*
X12497Y3466D01*
X12508Y3464D01*
X12520Y3461D01*
X12532Y3458D01*
X12543Y3452D01*
X12544D01*
X12545Y3451D01*
X12548Y3449D01*
X12554Y3445D01*
X12561Y3440D01*
X12569Y3433D01*
X12578Y3425D01*
X12586Y3416D01*
X12593Y3405D01*
X12594Y3404D01*
X12597Y3400D01*
X12600Y3394D01*
X12605Y3384D01*
X12609Y3374D01*
X12615Y3361D01*
X12620Y3347D01*
X12624Y3331D01*
Y3331D01*
X12625Y3329D01*
X12626Y3327D01*
X12626Y3323D01*
X12627Y3319D01*
X12628Y3314D01*
X12629Y3308D01*
X12630Y3301D01*
X12631Y3293D01*
X12632Y3284D01*
X12633Y3274D01*
X12634Y3264D01*
X12635Y3252D01*
Y3241D01*
X12636Y3228D01*
Y3214D01*
Y3214D01*
Y3211D01*
Y3206D01*
Y3200D01*
X12635Y3192D01*
Y3184D01*
X12634Y3174D01*
X12634Y3164D01*
X12631Y3141D01*
X12628Y3118D01*
X12624Y3095D01*
X12621Y3084D01*
X12617Y3073D01*
Y3073D01*
X12616Y3071D01*
X12615Y3068D01*
X12614Y3065D01*
X12612Y3060D01*
X12609Y3055D01*
X12603Y3042D01*
X12596Y3030D01*
X12587Y3015D01*
X12576Y3002D01*
X12563Y2990D01*
X12563D01*
X12562Y2989D01*
X12560Y2987D01*
X12557Y2986D01*
X12553Y2984D01*
X12550Y2981D01*
X12539Y2976D01*
X12526Y2971D01*
X12511Y2966D01*
X12493Y2963D01*
X12474Y2961D01*
X12467D01*
X12462Y2962D01*
X12456Y2963D01*
X12449Y2964D01*
X12441Y2966D01*
X12432Y2968D01*
X12424Y2971D01*
X12414Y2974D01*
X12405Y2978D01*
X12396Y2983D01*
X12386Y2989D01*
X12377Y2996D01*
X12368Y3004D01*
X12360Y3012D01*
X12360Y3013D01*
X12358Y3015D01*
X12356Y3019D01*
X12353Y3024D01*
X12349Y3031D01*
X12345Y3040D01*
X12340Y3050D01*
X12336Y3061D01*
X12332Y3074D01*
X12327Y3089D01*
X12323Y3106D01*
X12320Y3124D01*
X12316Y3144D01*
X12314Y3166D01*
X12312Y3189D01*
X12312Y3214D01*
Y3215D01*
Y3218D01*
Y3223D01*
Y3229D01*
X12312Y3237D01*
Y3245D01*
X12313Y3255D01*
X12314Y3265D01*
X12316Y3288D01*
X12320Y3311D01*
X12324Y3335D01*
X12327Y3346D01*
X12330Y3356D01*
Y3357D01*
X12330Y3359D01*
X12332Y3361D01*
X12333Y3365D01*
X12335Y3370D01*
X12337Y3375D01*
X12343Y3387D01*
X12350Y3400D01*
X12360Y3414D01*
X12370Y3427D01*
X12383Y3439D01*
X12384D01*
X12385Y3440D01*
X12387Y3442D01*
X12390Y3443D01*
X12393Y3446D01*
X12398Y3448D01*
X12408Y3454D01*
X12421Y3459D01*
X12436Y3464D01*
X12454Y3467D01*
X12474Y3468D01*
X12480D01*
X12488Y3468D01*
D02*
G37*
G36*
X20198Y2609D02*
X20200Y2607D01*
X20201Y2603D01*
X20204Y2598D01*
X20207Y2592D01*
X20211Y2584D01*
X20221Y2567D01*
X20232Y2547D01*
X20246Y2527D01*
X20262Y2506D01*
X20279Y2485D01*
X20280Y2484D01*
X20281Y2483D01*
X20284Y2480D01*
X20287Y2476D01*
X20297Y2467D01*
X20309Y2455D01*
X20323Y2443D01*
X20339Y2430D01*
X20356Y2419D01*
X20373Y2409D01*
Y2354D01*
X19675D01*
Y2439D01*
X20218D01*
X20217Y2440D01*
X20213Y2445D01*
X20207Y2451D01*
X20200Y2461D01*
X20191Y2472D01*
X20181Y2486D01*
X20170Y2502D01*
X20159Y2520D01*
Y2521D01*
X20158Y2522D01*
X20154Y2528D01*
X20149Y2538D01*
X20143Y2550D01*
X20136Y2564D01*
X20129Y2579D01*
X20122Y2595D01*
X20116Y2610D01*
X20198D01*
Y2609D01*
D02*
G37*
G36*
X20048Y2134D02*
X20060D01*
X20073Y2133D01*
X20088Y2132D01*
X20120Y2129D01*
X20153Y2124D01*
X20186Y2118D01*
X20201Y2114D01*
X20216Y2110D01*
X20217D01*
X20219Y2109D01*
X20223Y2107D01*
X20228Y2105D01*
X20235Y2103D01*
X20242Y2099D01*
X20259Y2091D01*
X20277Y2080D01*
X20296Y2067D01*
X20315Y2052D01*
X20331Y2034D01*
Y2033D01*
X20333Y2032D01*
X20335Y2029D01*
X20337Y2025D01*
X20341Y2020D01*
X20344Y2014D01*
X20352Y1999D01*
X20360Y1981D01*
X20367Y1960D01*
X20371Y1935D01*
X20373Y1908D01*
Y1907D01*
Y1906D01*
Y1903D01*
Y1899D01*
X20372Y1888D01*
X20370Y1875D01*
X20367Y1860D01*
X20363Y1844D01*
X20358Y1826D01*
X20349Y1810D01*
Y1809D01*
X20348Y1808D01*
X20345Y1803D01*
X20340Y1795D01*
X20333Y1785D01*
X20323Y1774D01*
X20312Y1762D01*
X20299Y1751D01*
X20284Y1740D01*
X20282Y1739D01*
X20277Y1735D01*
X20268Y1731D01*
X20255Y1724D01*
X20240Y1718D01*
X20223Y1710D01*
X20203Y1703D01*
X20181Y1697D01*
X20180D01*
X20178Y1696D01*
X20175Y1695D01*
X20170Y1694D01*
X20164Y1693D01*
X20157Y1692D01*
X20148Y1690D01*
X20138Y1689D01*
X20127Y1687D01*
X20115Y1686D01*
X20101Y1685D01*
X20086Y1683D01*
X20070Y1682D01*
X20054D01*
X20036Y1681D01*
X19997D01*
X19986Y1682D01*
X19974D01*
X19961Y1683D01*
X19947Y1684D01*
X19915Y1687D01*
X19882Y1692D01*
X19849Y1698D01*
X19834Y1702D01*
X19819Y1707D01*
X19818D01*
X19816Y1708D01*
X19812Y1710D01*
X19807Y1712D01*
X19800Y1714D01*
X19793Y1718D01*
X19776Y1726D01*
X19758Y1736D01*
X19738Y1749D01*
X19720Y1764D01*
X19703Y1782D01*
Y1783D01*
X19701Y1784D01*
X19699Y1787D01*
X19697Y1791D01*
X19694Y1796D01*
X19690Y1801D01*
X19683Y1816D01*
X19676Y1834D01*
X19669Y1856D01*
X19665Y1881D01*
X19663Y1908D01*
Y1909D01*
Y1912D01*
Y1918D01*
X19664Y1925D01*
X19665Y1933D01*
X19667Y1943D01*
X19669Y1954D01*
X19672Y1966D01*
X19676Y1978D01*
X19680Y1991D01*
X19686Y2004D01*
X19693Y2017D01*
X19701Y2030D01*
X19711Y2043D01*
X19722Y2055D01*
X19734Y2066D01*
X19735Y2067D01*
X19738Y2069D01*
X19743Y2072D01*
X19751Y2077D01*
X19760Y2082D01*
X19772Y2088D01*
X19786Y2095D01*
X19802Y2101D01*
X19820Y2107D01*
X19841Y2113D01*
X19865Y2119D01*
X19891Y2124D01*
X19919Y2129D01*
X19949Y2132D01*
X19982Y2134D01*
X20017Y2135D01*
X20037D01*
X20048Y2134D01*
D02*
G37*
G36*
X11263Y2970D02*
X11197D01*
Y3204D01*
X10941D01*
Y2970D01*
X10875D01*
Y3466D01*
X10941D01*
Y3263D01*
X11197D01*
Y3466D01*
X11263D01*
Y2970D01*
D02*
G37*
G36*
X17455Y497D02*
X17461D01*
X17466Y496D01*
X17473Y496D01*
X17488Y495D01*
X17503Y492D01*
X17518Y490D01*
X17525Y488D01*
X17532Y486D01*
X17532D01*
X17533Y485D01*
X17535Y485D01*
X17537Y484D01*
X17540Y483D01*
X17544Y481D01*
X17551Y477D01*
X17560Y473D01*
X17568Y467D01*
X17577Y460D01*
X17584Y451D01*
Y451D01*
X17585Y451D01*
X17586Y449D01*
X17587Y447D01*
X17589Y445D01*
X17590Y442D01*
X17594Y435D01*
X17597Y427D01*
X17601Y417D01*
X17602Y406D01*
X17603Y394D01*
Y393D01*
Y393D01*
Y391D01*
Y389D01*
X17603Y384D01*
X17602Y378D01*
X17601Y372D01*
X17599Y364D01*
X17596Y356D01*
X17593Y349D01*
Y349D01*
X17592Y348D01*
X17591Y346D01*
X17589Y342D01*
X17585Y338D01*
X17581Y333D01*
X17576Y327D01*
X17570Y322D01*
X17563Y317D01*
X17562Y317D01*
X17560Y315D01*
X17556Y313D01*
X17550Y310D01*
X17543Y307D01*
X17535Y303D01*
X17526Y300D01*
X17516Y297D01*
X17515D01*
X17514Y297D01*
X17513Y296D01*
X17511Y296D01*
X17508Y295D01*
X17505Y295D01*
X17500Y294D01*
X17496Y294D01*
X17491Y293D01*
X17485Y292D01*
X17479Y292D01*
X17472Y291D01*
X17465Y290D01*
X17458D01*
X17449Y290D01*
X17432D01*
X17427Y290D01*
X17421D01*
X17415Y291D01*
X17409Y291D01*
X17394Y293D01*
X17379Y295D01*
X17364Y298D01*
X17357Y300D01*
X17350Y302D01*
X17350D01*
X17349Y302D01*
X17347Y303D01*
X17345Y304D01*
X17342Y305D01*
X17338Y307D01*
X17331Y311D01*
X17322Y315D01*
X17313Y321D01*
X17305Y328D01*
X17297Y336D01*
Y337D01*
X17296Y337D01*
X17295Y339D01*
X17294Y340D01*
X17293Y343D01*
X17291Y345D01*
X17288Y352D01*
X17285Y360D01*
X17282Y370D01*
X17280Y381D01*
X17279Y394D01*
Y394D01*
Y395D01*
Y398D01*
X17279Y401D01*
X17280Y405D01*
X17281Y410D01*
X17282Y415D01*
X17283Y420D01*
X17285Y426D01*
X17287Y432D01*
X17289Y438D01*
X17293Y444D01*
X17296Y450D01*
X17301Y456D01*
X17306Y461D01*
X17311Y466D01*
X17312Y467D01*
X17313Y468D01*
X17315Y469D01*
X17319Y471D01*
X17323Y474D01*
X17329Y476D01*
X17335Y479D01*
X17343Y482D01*
X17351Y485D01*
X17360Y487D01*
X17371Y490D01*
X17383Y492D01*
X17396Y495D01*
X17410Y496D01*
X17425Y497D01*
X17441Y497D01*
X17450D01*
X17455Y497D01*
D02*
G37*
G36*
X15826Y536D02*
X15795D01*
X15795Y536D01*
X15794Y537D01*
X15792Y539D01*
X15789Y541D01*
X15786Y544D01*
X15782Y547D01*
X15778Y551D01*
X15772Y555D01*
X15767Y559D01*
X15760Y564D01*
X15753Y569D01*
X15746Y574D01*
X15738Y580D01*
X15729Y586D01*
X15719Y591D01*
X15710Y597D01*
X15709Y597D01*
X15707Y598D01*
X15704Y599D01*
X15700Y602D01*
X15695Y604D01*
X15690Y607D01*
X15683Y610D01*
X15676Y613D01*
X15668Y617D01*
X15659Y621D01*
X15650Y625D01*
X15641Y628D01*
X15621Y636D01*
X15600Y642D01*
X15599D01*
X15598Y643D01*
X15596Y643D01*
X15593Y644D01*
X15589Y645D01*
X15585Y646D01*
X15580Y647D01*
X15574Y648D01*
X15568Y650D01*
X15561Y651D01*
X15546Y653D01*
X15530Y656D01*
X15513Y657D01*
Y697D01*
X15516D01*
X15519Y697D01*
X15523D01*
X15527Y696D01*
X15532Y696D01*
X15538Y695D01*
X15544Y694D01*
X15551Y693D01*
X15559Y692D01*
X15566Y691D01*
X15575Y689D01*
X15584Y687D01*
X15603Y683D01*
X15603D01*
X15605Y682D01*
X15608Y681D01*
X15612Y680D01*
X15616Y679D01*
X15622Y677D01*
X15628Y675D01*
X15635Y672D01*
X15643Y669D01*
X15651Y667D01*
X15668Y660D01*
X15687Y652D01*
X15705Y642D01*
X15705Y642D01*
X15707Y641D01*
X15710Y640D01*
X15713Y638D01*
X15717Y636D01*
X15722Y632D01*
X15728Y629D01*
X15734Y625D01*
X15747Y617D01*
X15761Y608D01*
X15775Y597D01*
X15788Y586D01*
Y742D01*
X15826D01*
Y536D01*
D02*
G37*
G36*
X16421Y1148D02*
X16103D01*
Y1190D01*
X16421D01*
Y1148D01*
D02*
G37*
G36*
X16265Y1086D02*
X16271D01*
X16277Y1085D01*
X16285Y1084D01*
X16294Y1083D01*
X16303Y1081D01*
X16312Y1079D01*
X16323Y1076D01*
X16333Y1072D01*
X16343Y1068D01*
X16353Y1064D01*
X16363Y1058D01*
X16373Y1051D01*
X16381Y1044D01*
X16382Y1044D01*
X16383Y1042D01*
X16385Y1039D01*
X16388Y1036D01*
X16392Y1032D01*
X16396Y1027D01*
X16400Y1021D01*
X16404Y1014D01*
X16408Y1007D01*
X16412Y999D01*
X16416Y989D01*
X16419Y980D01*
X16422Y969D01*
X16424Y958D01*
X16426Y947D01*
X16426Y934D01*
Y934D01*
Y932D01*
Y930D01*
X16426Y927D01*
Y923D01*
X16425Y919D01*
X16424Y913D01*
X16424Y908D01*
X16421Y896D01*
X16418Y882D01*
X16412Y869D01*
X16409Y862D01*
X16405Y855D01*
X16405Y854D01*
X16404Y854D01*
X16403Y852D01*
X16401Y849D01*
X16399Y846D01*
X16396Y843D01*
X16390Y835D01*
X16382Y826D01*
X16372Y817D01*
X16360Y809D01*
X16346Y801D01*
X16346D01*
X16345Y800D01*
X16343Y799D01*
X16340Y798D01*
X16336Y797D01*
X16332Y795D01*
X16327Y793D01*
X16322Y792D01*
X16316Y790D01*
X16309Y788D01*
X16302Y787D01*
X16295Y785D01*
X16278Y783D01*
X16261Y782D01*
X16256D01*
X16253Y783D01*
X16249D01*
X16244Y783D01*
X16238Y784D01*
X16232Y785D01*
X16219Y787D01*
X16204Y791D01*
X16189Y796D01*
X16182Y798D01*
X16175Y802D01*
X16174D01*
X16173Y803D01*
X16171Y804D01*
X16168Y806D01*
X16165Y808D01*
X16162Y810D01*
X16153Y816D01*
X16144Y824D01*
X16134Y833D01*
X16125Y844D01*
X16117Y857D01*
Y858D01*
X16116Y859D01*
X16115Y861D01*
X16114Y864D01*
X16112Y867D01*
X16111Y871D01*
X16109Y875D01*
X16107Y880D01*
X16105Y886D01*
X16104Y892D01*
X16101Y905D01*
X16099Y919D01*
X16098Y934D01*
Y935D01*
Y936D01*
Y939D01*
X16098Y942D01*
Y946D01*
X16099Y950D01*
X16099Y955D01*
X16100Y961D01*
X16103Y974D01*
X16107Y987D01*
X16112Y1001D01*
X16116Y1008D01*
X16119Y1015D01*
X16120Y1015D01*
X16120Y1016D01*
X16122Y1018D01*
X16123Y1021D01*
X16125Y1023D01*
X16128Y1027D01*
X16135Y1034D01*
X16143Y1043D01*
X16153Y1052D01*
X16165Y1061D01*
X16178Y1068D01*
X16178D01*
X16180Y1069D01*
X16182Y1070D01*
X16184Y1071D01*
X16188Y1072D01*
X16192Y1074D01*
X16197Y1076D01*
X16202Y1077D01*
X16208Y1079D01*
X16214Y1081D01*
X16228Y1084D01*
X16242Y1085D01*
X16257Y1086D01*
X16261D01*
X16265Y1086D01*
D02*
G37*
G36*
X15079Y746D02*
X15085D01*
X15093Y745D01*
X15102Y744D01*
X15111Y743D01*
X15122Y742D01*
X15132Y740D01*
X15144Y738D01*
X15155Y735D01*
X15166Y732D01*
X15176Y728D01*
X15186Y723D01*
X15196Y718D01*
X15204Y712D01*
X15205Y712D01*
X15206Y711D01*
X15208Y709D01*
X15210Y707D01*
X15213Y704D01*
X15216Y700D01*
X15219Y696D01*
X15223Y691D01*
X15226Y686D01*
X15230Y680D01*
X15232Y673D01*
X15236Y666D01*
X15238Y658D01*
X15240Y650D01*
X15241Y641D01*
X15241Y632D01*
Y631D01*
Y630D01*
Y628D01*
X15241Y625D01*
Y622D01*
X15240Y619D01*
X15238Y610D01*
X15236Y600D01*
X15232Y590D01*
X15227Y580D01*
X15224Y575D01*
X15220Y570D01*
X15219Y570D01*
X15219Y569D01*
X15218Y568D01*
X15216Y567D01*
X15214Y564D01*
X15211Y563D01*
X15205Y558D01*
X15197Y552D01*
X15186Y548D01*
X15175Y544D01*
X15162Y541D01*
X15159Y580D01*
X15159D01*
X15160Y580D01*
X15163Y581D01*
X15167Y582D01*
X15172Y584D01*
X15177Y586D01*
X15183Y589D01*
X15188Y592D01*
X15192Y595D01*
X15193Y596D01*
X15195Y598D01*
X15197Y601D01*
X15201Y606D01*
X15203Y612D01*
X15206Y618D01*
X15208Y626D01*
X15209Y634D01*
Y635D01*
Y637D01*
X15208Y641D01*
X15208Y645D01*
X15206Y651D01*
X15204Y656D01*
X15202Y662D01*
X15198Y667D01*
X15198Y668D01*
X15196Y670D01*
X15193Y674D01*
X15188Y678D01*
X15183Y682D01*
X15176Y687D01*
X15168Y692D01*
X15159Y697D01*
X15158D01*
X15158Y697D01*
X15156Y697D01*
X15154Y698D01*
X15152Y699D01*
X15148Y700D01*
X15145Y701D01*
X15140Y702D01*
X15135Y703D01*
X15130Y704D01*
X15124Y705D01*
X15117Y705D01*
X15110Y706D01*
X15102Y707D01*
X15094Y707D01*
X15086D01*
X15086Y707D01*
X15089Y705D01*
X15093Y702D01*
X15097Y697D01*
X15103Y693D01*
X15108Y687D01*
X15113Y681D01*
X15118Y673D01*
Y673D01*
X15118Y672D01*
X15119Y669D01*
X15121Y665D01*
X15123Y660D01*
X15125Y653D01*
X15126Y646D01*
X15128Y638D01*
X15128Y630D01*
Y630D01*
Y628D01*
Y626D01*
X15128Y624D01*
X15127Y620D01*
X15127Y616D01*
X15126Y612D01*
X15124Y607D01*
X15121Y597D01*
X15119Y591D01*
X15116Y586D01*
X15113Y580D01*
X15109Y574D01*
X15104Y569D01*
X15099Y563D01*
X15099Y563D01*
X15098Y562D01*
X15096Y561D01*
X15094Y559D01*
X15091Y557D01*
X15088Y555D01*
X15084Y552D01*
X15079Y550D01*
X15074Y547D01*
X15068Y545D01*
X15062Y542D01*
X15056Y540D01*
X15049Y539D01*
X15041Y537D01*
X15033Y536D01*
X15025Y536D01*
X15020D01*
X15017Y536D01*
X15014D01*
X15007Y538D01*
X14998Y539D01*
X14989Y541D01*
X14979Y545D01*
X14969Y549D01*
X14969D01*
X14968Y550D01*
X14967Y551D01*
X14965Y552D01*
X14961Y554D01*
X14955Y558D01*
X14948Y563D01*
X14942Y569D01*
X14935Y577D01*
X14930Y585D01*
Y585D01*
X14929Y586D01*
X14928Y587D01*
X14928Y589D01*
X14926Y593D01*
X14923Y599D01*
X14921Y607D01*
X14919Y616D01*
X14917Y625D01*
X14917Y636D01*
Y636D01*
Y638D01*
X14917Y641D01*
Y644D01*
X14917Y648D01*
X14918Y653D01*
X14920Y658D01*
X14921Y664D01*
X14923Y670D01*
X14925Y677D01*
X14928Y683D01*
X14932Y690D01*
X14936Y697D01*
X14940Y703D01*
X14946Y709D01*
X14952Y715D01*
X14953Y716D01*
X14954Y717D01*
X14956Y718D01*
X14959Y720D01*
X14963Y723D01*
X14968Y725D01*
X14974Y728D01*
X14980Y731D01*
X14988Y734D01*
X14997Y737D01*
X15007Y739D01*
X15017Y741D01*
X15029Y743D01*
X15042Y745D01*
X15056Y746D01*
X15070Y746D01*
X15074D01*
X15079Y746D01*
D02*
G37*
G36*
X15830Y1148D02*
X15513D01*
Y1190D01*
X15830D01*
Y1148D01*
D02*
G37*
G36*
X15675Y1086D02*
X15680D01*
X15687Y1085D01*
X15694Y1084D01*
X15703Y1083D01*
X15712Y1081D01*
X15722Y1079D01*
X15732Y1076D01*
X15742Y1072D01*
X15753Y1068D01*
X15763Y1064D01*
X15773Y1058D01*
X15782Y1051D01*
X15791Y1044D01*
X15791Y1044D01*
X15793Y1042D01*
X15795Y1039D01*
X15798Y1036D01*
X15801Y1032D01*
X15805Y1027D01*
X15809Y1021D01*
X15813Y1014D01*
X15817Y1007D01*
X15821Y999D01*
X15825Y989D01*
X15829Y980D01*
X15832Y969D01*
X15834Y958D01*
X15835Y947D01*
X15836Y934D01*
Y934D01*
Y932D01*
Y930D01*
X15835Y927D01*
Y923D01*
X15835Y919D01*
X15834Y913D01*
X15833Y908D01*
X15831Y896D01*
X15827Y882D01*
X15821Y869D01*
X15818Y862D01*
X15815Y855D01*
X15814Y854D01*
X15814Y854D01*
X15812Y852D01*
X15811Y849D01*
X15809Y846D01*
X15806Y843D01*
X15799Y835D01*
X15791Y826D01*
X15781Y817D01*
X15769Y809D01*
X15756Y801D01*
X15755D01*
X15754Y800D01*
X15752Y799D01*
X15749Y798D01*
X15746Y797D01*
X15742Y795D01*
X15737Y793D01*
X15731Y792D01*
X15725Y790D01*
X15719Y788D01*
X15711Y787D01*
X15704Y785D01*
X15688Y783D01*
X15670Y782D01*
X15666D01*
X15662Y783D01*
X15658D01*
X15653Y783D01*
X15648Y784D01*
X15642Y785D01*
X15628Y787D01*
X15614Y791D01*
X15599Y796D01*
X15592Y798D01*
X15584Y802D01*
X15584D01*
X15582Y803D01*
X15581Y804D01*
X15578Y806D01*
X15575Y808D01*
X15571Y810D01*
X15563Y816D01*
X15553Y824D01*
X15544Y833D01*
X15535Y844D01*
X15526Y857D01*
Y858D01*
X15525Y859D01*
X15525Y861D01*
X15523Y864D01*
X15522Y867D01*
X15520Y871D01*
X15519Y875D01*
X15517Y880D01*
X15515Y886D01*
X15513Y892D01*
X15510Y905D01*
X15508Y919D01*
X15507Y934D01*
Y935D01*
Y936D01*
Y939D01*
X15508Y942D01*
Y946D01*
X15508Y950D01*
X15509Y955D01*
X15510Y961D01*
X15513Y974D01*
X15516Y987D01*
X15522Y1001D01*
X15525Y1008D01*
X15529Y1015D01*
X15529Y1015D01*
X15530Y1016D01*
X15531Y1018D01*
X15533Y1021D01*
X15535Y1023D01*
X15537Y1027D01*
X15544Y1034D01*
X15553Y1043D01*
X15563Y1052D01*
X15574Y1061D01*
X15587Y1068D01*
X15588D01*
X15589Y1069D01*
X15591Y1070D01*
X15594Y1071D01*
X15598Y1072D01*
X15602Y1074D01*
X15606Y1076D01*
X15611Y1077D01*
X15617Y1079D01*
X15623Y1081D01*
X15637Y1084D01*
X15651Y1085D01*
X15667Y1086D01*
X15670D01*
X15675Y1086D01*
D02*
G37*
G36*
X16200Y744D02*
X16202D01*
X16206Y744D01*
X16213Y743D01*
X16221Y741D01*
X16229Y738D01*
X16238Y734D01*
X16246Y729D01*
X16247D01*
X16247Y728D01*
X16250Y726D01*
X16253Y723D01*
X16258Y718D01*
X16262Y711D01*
X16267Y703D01*
X16272Y695D01*
X16275Y684D01*
Y685D01*
X16275Y685D01*
X16276Y686D01*
X16277Y688D01*
X16278Y692D01*
X16281Y698D01*
X16285Y704D01*
X16289Y710D01*
X16295Y715D01*
X16300Y720D01*
X16301Y721D01*
X16303Y722D01*
X16306Y724D01*
X16311Y726D01*
X16317Y728D01*
X16324Y730D01*
X16332Y731D01*
X16340Y732D01*
X16343D01*
X16346Y731D01*
X16349Y731D01*
X16352Y731D01*
X16360Y729D01*
X16369Y726D01*
X16379Y721D01*
X16384Y719D01*
X16389Y715D01*
X16394Y711D01*
X16398Y707D01*
X16399Y707D01*
X16399Y706D01*
X16401Y704D01*
X16402Y703D01*
X16404Y700D01*
X16406Y697D01*
X16408Y693D01*
X16410Y690D01*
X16413Y685D01*
X16415Y680D01*
X16417Y675D01*
X16418Y669D01*
X16421Y656D01*
X16422Y648D01*
X16422Y641D01*
Y641D01*
Y639D01*
Y637D01*
X16422Y634D01*
X16421Y630D01*
X16421Y626D01*
X16420Y622D01*
X16419Y617D01*
X16416Y606D01*
X16412Y595D01*
X16409Y590D01*
X16406Y584D01*
X16402Y579D01*
X16398Y574D01*
X16397Y574D01*
X16397Y573D01*
X16396Y572D01*
X16394Y570D01*
X16391Y568D01*
X16388Y566D01*
X16381Y561D01*
X16373Y557D01*
X16362Y552D01*
X16351Y549D01*
X16345Y549D01*
X16339Y548D01*
X16335D01*
X16331Y549D01*
X16326Y550D01*
X16319Y551D01*
X16313Y553D01*
X16306Y556D01*
X16300Y560D01*
X16299Y561D01*
X16297Y563D01*
X16295Y565D01*
X16291Y569D01*
X16287Y574D01*
X16283Y580D01*
X16278Y587D01*
X16275Y595D01*
Y595D01*
X16274Y594D01*
X16274Y592D01*
X16273Y591D01*
X16271Y585D01*
X16267Y579D01*
X16263Y572D01*
X16258Y564D01*
X16251Y558D01*
X16244Y551D01*
X16244D01*
X16243Y551D01*
X16240Y549D01*
X16236Y546D01*
X16230Y543D01*
X16222Y541D01*
X16214Y538D01*
X16204Y536D01*
X16194Y535D01*
X16189D01*
X16187Y536D01*
X16183Y536D01*
X16179Y537D01*
X16175Y538D01*
X16170Y539D01*
X16159Y542D01*
X16153Y545D01*
X16148Y548D01*
X16142Y551D01*
X16136Y555D01*
X16131Y559D01*
X16125Y564D01*
X16125Y565D01*
X16124Y566D01*
X16122Y567D01*
X16121Y569D01*
X16119Y573D01*
X16116Y576D01*
X16114Y580D01*
X16111Y585D01*
X16109Y590D01*
X16106Y596D01*
X16104Y602D01*
X16102Y608D01*
X16100Y616D01*
X16099Y624D01*
X16098Y631D01*
X16098Y640D01*
Y641D01*
Y642D01*
Y645D01*
X16098Y648D01*
X16099Y652D01*
X16099Y657D01*
X16100Y662D01*
X16101Y667D01*
X16105Y680D01*
X16107Y686D01*
X16109Y692D01*
X16112Y698D01*
X16116Y705D01*
X16120Y711D01*
X16125Y716D01*
X16126Y717D01*
X16127Y718D01*
X16128Y719D01*
X16130Y721D01*
X16133Y723D01*
X16136Y725D01*
X16140Y728D01*
X16144Y731D01*
X16149Y733D01*
X16155Y736D01*
X16166Y740D01*
X16173Y742D01*
X16180Y743D01*
X16187Y744D01*
X16194Y745D01*
X16198D01*
X16200Y744D01*
D02*
G37*
G36*
X17602Y1148D02*
X17284D01*
Y1190D01*
X17602D01*
Y1148D01*
D02*
G37*
G36*
X17446Y1086D02*
X17452D01*
X17458Y1085D01*
X17466Y1084D01*
X17475Y1083D01*
X17484Y1081D01*
X17494Y1079D01*
X17504Y1076D01*
X17514Y1072D01*
X17524Y1068D01*
X17534Y1064D01*
X17544Y1058D01*
X17554Y1051D01*
X17562Y1044D01*
X17563Y1044D01*
X17564Y1042D01*
X17567Y1039D01*
X17569Y1036D01*
X17573Y1032D01*
X17577Y1027D01*
X17581Y1021D01*
X17585Y1014D01*
X17589Y1007D01*
X17593Y999D01*
X17597Y989D01*
X17601Y980D01*
X17603Y969D01*
X17606Y958D01*
X17607Y947D01*
X17607Y934D01*
Y934D01*
Y932D01*
Y930D01*
X17607Y927D01*
Y923D01*
X17606Y919D01*
X17606Y913D01*
X17605Y908D01*
X17602Y896D01*
X17599Y882D01*
X17593Y869D01*
X17590Y862D01*
X17586Y855D01*
X17586Y854D01*
X17585Y854D01*
X17584Y852D01*
X17583Y849D01*
X17580Y846D01*
X17578Y843D01*
X17571Y835D01*
X17563Y826D01*
X17553Y817D01*
X17541Y809D01*
X17528Y801D01*
X17527D01*
X17526Y800D01*
X17524Y799D01*
X17521Y798D01*
X17517Y797D01*
X17513Y795D01*
X17508Y793D01*
X17503Y792D01*
X17497Y790D01*
X17490Y788D01*
X17483Y787D01*
X17476Y785D01*
X17460Y783D01*
X17442Y782D01*
X17438D01*
X17434Y783D01*
X17430D01*
X17425Y783D01*
X17419Y784D01*
X17413Y785D01*
X17400Y787D01*
X17385Y791D01*
X17371Y796D01*
X17363Y798D01*
X17356Y802D01*
X17355D01*
X17354Y803D01*
X17352Y804D01*
X17349Y806D01*
X17346Y808D01*
X17343Y810D01*
X17334Y816D01*
X17325Y824D01*
X17315Y833D01*
X17306Y844D01*
X17298Y857D01*
Y858D01*
X17297Y859D01*
X17296Y861D01*
X17295Y864D01*
X17293Y867D01*
X17292Y871D01*
X17290Y875D01*
X17288Y880D01*
X17287Y886D01*
X17285Y892D01*
X17282Y905D01*
X17280Y919D01*
X17279Y934D01*
Y935D01*
Y936D01*
Y939D01*
X17279Y942D01*
Y946D01*
X17280Y950D01*
X17281Y955D01*
X17282Y961D01*
X17284Y974D01*
X17288Y987D01*
X17293Y1001D01*
X17297Y1008D01*
X17300Y1015D01*
X17301Y1015D01*
X17301Y1016D01*
X17303Y1018D01*
X17304Y1021D01*
X17306Y1023D01*
X17309Y1027D01*
X17316Y1034D01*
X17324Y1043D01*
X17334Y1052D01*
X17346Y1061D01*
X17359Y1068D01*
X17360D01*
X17361Y1069D01*
X17363Y1070D01*
X17365Y1071D01*
X17369Y1072D01*
X17373Y1074D01*
X17378Y1076D01*
X17383Y1077D01*
X17389Y1079D01*
X17395Y1081D01*
X17409Y1084D01*
X17423Y1085D01*
X17438Y1086D01*
X17442D01*
X17446Y1086D01*
D02*
G37*
G36*
X17523Y714D02*
X17524Y713D01*
X17525Y711D01*
X17526Y709D01*
X17528Y706D01*
X17529Y703D01*
X17534Y695D01*
X17539Y686D01*
X17545Y677D01*
X17553Y667D01*
X17561Y658D01*
X17561Y657D01*
X17561Y657D01*
X17563Y655D01*
X17564Y653D01*
X17569Y649D01*
X17574Y644D01*
X17581Y638D01*
X17588Y632D01*
X17595Y627D01*
X17603Y623D01*
Y597D01*
X17284D01*
Y636D01*
X17533D01*
X17532Y637D01*
X17530Y639D01*
X17528Y642D01*
X17524Y647D01*
X17520Y652D01*
X17516Y658D01*
X17511Y665D01*
X17505Y674D01*
Y674D01*
X17505Y675D01*
X17503Y677D01*
X17501Y682D01*
X17498Y687D01*
X17495Y694D01*
X17492Y701D01*
X17489Y708D01*
X17486Y714D01*
X17523D01*
Y714D01*
D02*
G37*
G36*
X17011Y1148D02*
X16694D01*
Y1190D01*
X17011D01*
Y1148D01*
D02*
G37*
G36*
X16856Y1086D02*
X16861D01*
X16868Y1085D01*
X16875Y1084D01*
X16884Y1083D01*
X16893Y1081D01*
X16903Y1079D01*
X16913Y1076D01*
X16923Y1072D01*
X16934Y1068D01*
X16944Y1064D01*
X16954Y1058D01*
X16963Y1051D01*
X16972Y1044D01*
X16972Y1044D01*
X16974Y1042D01*
X16976Y1039D01*
X16979Y1036D01*
X16982Y1032D01*
X16986Y1027D01*
X16990Y1021D01*
X16994Y1014D01*
X16998Y1007D01*
X17003Y999D01*
X17006Y989D01*
X17010Y980D01*
X17013Y969D01*
X17015Y958D01*
X17016Y947D01*
X17017Y934D01*
Y934D01*
Y932D01*
Y930D01*
X17016Y927D01*
Y923D01*
X17016Y919D01*
X17015Y913D01*
X17014Y908D01*
X17012Y896D01*
X17008Y882D01*
X17003Y869D01*
X16999Y862D01*
X16996Y855D01*
X16995Y854D01*
X16995Y854D01*
X16993Y852D01*
X16992Y849D01*
X16990Y846D01*
X16987Y843D01*
X16981Y835D01*
X16972Y826D01*
X16962Y817D01*
X16950Y809D01*
X16937Y801D01*
X16937D01*
X16935Y800D01*
X16933Y799D01*
X16931Y798D01*
X16927Y797D01*
X16923Y795D01*
X16918Y793D01*
X16912Y792D01*
X16906Y790D01*
X16900Y788D01*
X16892Y787D01*
X16885Y785D01*
X16869Y783D01*
X16852Y782D01*
X16847D01*
X16843Y783D01*
X16839D01*
X16834Y783D01*
X16829Y784D01*
X16823Y785D01*
X16809Y787D01*
X16795Y791D01*
X16780Y796D01*
X16773Y798D01*
X16765Y802D01*
X16765D01*
X16763Y803D01*
X16762Y804D01*
X16759Y806D01*
X16756Y808D01*
X16752Y810D01*
X16744Y816D01*
X16735Y824D01*
X16725Y833D01*
X16716Y844D01*
X16707Y857D01*
Y858D01*
X16707Y859D01*
X16706Y861D01*
X16704Y864D01*
X16703Y867D01*
X16702Y871D01*
X16700Y875D01*
X16698Y880D01*
X16696Y886D01*
X16694Y892D01*
X16691Y905D01*
X16689Y919D01*
X16688Y934D01*
Y935D01*
Y936D01*
Y939D01*
X16689Y942D01*
Y946D01*
X16690Y950D01*
X16690Y955D01*
X16691Y961D01*
X16694Y974D01*
X16697Y987D01*
X16703Y1001D01*
X16706Y1008D01*
X16710Y1015D01*
X16710Y1015D01*
X16711Y1016D01*
X16712Y1018D01*
X16714Y1021D01*
X16716Y1023D01*
X16718Y1027D01*
X16725Y1034D01*
X16734Y1043D01*
X16744Y1052D01*
X16755Y1061D01*
X16769Y1068D01*
X16769D01*
X16770Y1069D01*
X16772Y1070D01*
X16775Y1071D01*
X16779Y1072D01*
X16783Y1074D01*
X16787Y1076D01*
X16792Y1077D01*
X16798Y1079D01*
X16804Y1081D01*
X16818Y1084D01*
X16832Y1085D01*
X16848Y1086D01*
X16852D01*
X16856Y1086D01*
D02*
G37*
G36*
X16913Y744D02*
X16917Y743D01*
X16922Y743D01*
X16927Y742D01*
X16933Y741D01*
X16945Y737D01*
X16952Y735D01*
X16959Y732D01*
X16965Y729D01*
X16971Y725D01*
X16977Y721D01*
X16983Y716D01*
X16983Y715D01*
X16984Y714D01*
X16986Y713D01*
X16987Y711D01*
X16990Y708D01*
X16993Y704D01*
X16995Y701D01*
X16998Y696D01*
X17001Y692D01*
X17003Y686D01*
X17008Y674D01*
X17010Y667D01*
X17011Y660D01*
X17012Y653D01*
X17013Y645D01*
Y644D01*
Y643D01*
Y641D01*
X17012Y639D01*
Y637D01*
X17012Y634D01*
X17010Y626D01*
X17009Y617D01*
X17005Y608D01*
X17001Y598D01*
X16996Y588D01*
Y588D01*
X16995Y587D01*
X16994Y586D01*
X16993Y584D01*
X16989Y580D01*
X16984Y574D01*
X16977Y568D01*
X16969Y561D01*
X16959Y555D01*
X16948Y549D01*
X16948D01*
X16947Y549D01*
X16945Y548D01*
X16942Y547D01*
X16939Y546D01*
X16935Y545D01*
X16931Y544D01*
X16925Y542D01*
X16920Y541D01*
X16913Y540D01*
X16905Y539D01*
X16897Y538D01*
X16889Y537D01*
X16880Y536D01*
X16869Y535D01*
X16849D01*
X16844Y536D01*
X16838D01*
X16831Y536D01*
X16824Y537D01*
X16808Y539D01*
X16792Y541D01*
X16776Y544D01*
X16769Y546D01*
X16762Y549D01*
X16761D01*
X16760Y549D01*
X16758Y550D01*
X16756Y551D01*
X16753Y552D01*
X16749Y554D01*
X16741Y559D01*
X16733Y564D01*
X16724Y571D01*
X16715Y579D01*
X16707Y588D01*
Y589D01*
X16706Y590D01*
X16705Y591D01*
X16704Y593D01*
X16703Y596D01*
X16701Y598D01*
X16699Y602D01*
X16698Y606D01*
X16694Y614D01*
X16691Y625D01*
X16689Y636D01*
X16688Y649D01*
Y650D01*
Y651D01*
Y653D01*
X16689Y655D01*
Y658D01*
X16689Y662D01*
X16691Y671D01*
X16693Y681D01*
X16697Y691D01*
X16702Y701D01*
X16705Y706D01*
X16709Y710D01*
X16709Y711D01*
X16710Y711D01*
X16711Y713D01*
X16713Y714D01*
X16715Y716D01*
X16718Y718D01*
X16724Y723D01*
X16732Y727D01*
X16742Y732D01*
X16754Y736D01*
X16767Y738D01*
X16770Y701D01*
X16770D01*
X16769Y700D01*
X16768D01*
X16766Y700D01*
X16761Y698D01*
X16756Y697D01*
X16749Y694D01*
X16743Y691D01*
X16737Y687D01*
X16732Y683D01*
X16731Y682D01*
X16730Y681D01*
X16728Y677D01*
X16726Y674D01*
X16724Y669D01*
X16722Y663D01*
X16721Y656D01*
X16720Y648D01*
Y647D01*
Y645D01*
X16721Y642D01*
X16721Y638D01*
X16722Y633D01*
X16724Y628D01*
X16725Y622D01*
X16728Y617D01*
X16729Y617D01*
X16730Y615D01*
X16731Y612D01*
X16734Y609D01*
X16737Y606D01*
X16741Y602D01*
X16745Y598D01*
X16750Y595D01*
X16751Y594D01*
X16753Y593D01*
X16756Y591D01*
X16760Y590D01*
X16766Y587D01*
X16772Y585D01*
X16780Y583D01*
X16788Y580D01*
X16788D01*
X16789Y580D01*
X16790D01*
X16792Y580D01*
X16797Y579D01*
X16802Y577D01*
X16810Y576D01*
X16818Y575D01*
X16826Y575D01*
X16836Y574D01*
X16843D01*
X16842Y575D01*
X16840Y577D01*
X16837Y580D01*
X16832Y583D01*
X16828Y587D01*
X16823Y593D01*
X16818Y599D01*
X16813Y607D01*
X16813Y608D01*
X16811Y610D01*
X16809Y614D01*
X16808Y619D01*
X16805Y626D01*
X16803Y634D01*
X16802Y642D01*
X16802Y651D01*
Y651D01*
Y653D01*
Y654D01*
X16802Y657D01*
X16802Y661D01*
X16803Y664D01*
X16804Y669D01*
X16805Y674D01*
X16808Y684D01*
X16811Y690D01*
X16813Y695D01*
X16817Y701D01*
X16821Y707D01*
X16825Y712D01*
X16830Y717D01*
X16830Y718D01*
X16831Y719D01*
X16833Y720D01*
X16835Y721D01*
X16838Y724D01*
X16841Y726D01*
X16846Y728D01*
X16850Y731D01*
X16855Y733D01*
X16861Y736D01*
X16867Y738D01*
X16874Y740D01*
X16881Y742D01*
X16889Y743D01*
X16897Y744D01*
X16905Y744D01*
X16910D01*
X16913Y744D01*
D02*
G37*
G36*
X18192Y5081D02*
X18155D01*
Y5185D01*
X17875D01*
Y5228D01*
X18155D01*
Y5332D01*
X18192D01*
Y5081D01*
D02*
G37*
G36*
X18039Y4947D02*
X18192Y5055D01*
Y5005D01*
X18111Y4948D01*
X18110D01*
X18110Y4947D01*
X18108Y4946D01*
X18107Y4944D01*
X18102Y4942D01*
X18096Y4937D01*
X18090Y4933D01*
X18084Y4929D01*
X18078Y4926D01*
X18072Y4922D01*
X18073Y4922D01*
X18075Y4920D01*
X18079Y4918D01*
X18083Y4915D01*
X18088Y4911D01*
X18095Y4907D01*
X18101Y4902D01*
X18108Y4897D01*
X18192Y4833D01*
Y4787D01*
X18041Y4898D01*
X17875Y4779D01*
Y4831D01*
X17988Y4911D01*
X17988Y4911D01*
X17990Y4912D01*
X17991Y4913D01*
X17994Y4915D01*
X18000Y4919D01*
X18007Y4924D01*
X18007Y4924D01*
X18005Y4926D01*
X18002Y4927D01*
X17998Y4930D01*
X17991Y4935D01*
X17988Y4937D01*
X17985Y4939D01*
X17875Y5019D01*
Y5070D01*
X18039Y4947D01*
D02*
G37*
G36*
X19197Y3988D02*
X19098Y3960D01*
X19061Y3951D01*
X19061D01*
X19062Y3950D01*
X19063Y3950D01*
X19064Y3950D01*
X19066Y3949D01*
X19068Y3949D01*
X19071Y3948D01*
X19073Y3948D01*
X19077Y3947D01*
X19081Y3945D01*
X19085Y3944D01*
X19090Y3943D01*
X19096Y3942D01*
X19197Y3914D01*
Y3884D01*
X19097Y3858D01*
X19064Y3850D01*
X19097Y3840D01*
X19197Y3810D01*
Y3782D01*
X19025Y3836D01*
Y3866D01*
X19128Y3894D01*
X19158Y3900D01*
X19025Y3935D01*
Y3966D01*
X19197Y4018D01*
Y3988D01*
D02*
G37*
G36*
Y1677D02*
X19173D01*
X19173Y1677D01*
X19174Y1676D01*
X19175Y1675D01*
X19177Y1674D01*
X19179Y1672D01*
X19182Y1670D01*
X19184Y1667D01*
X19187Y1663D01*
X19190Y1660D01*
X19192Y1656D01*
X19195Y1651D01*
X19197Y1647D01*
X19199Y1641D01*
X19200Y1636D01*
X19201Y1629D01*
X19201Y1623D01*
Y1622D01*
Y1622D01*
Y1620D01*
X19201Y1617D01*
X19201Y1613D01*
X19200Y1609D01*
X19199Y1604D01*
X19197Y1599D01*
X19195Y1594D01*
X19195Y1594D01*
X19194Y1592D01*
X19193Y1590D01*
X19192Y1587D01*
X19190Y1584D01*
X19187Y1580D01*
X19184Y1577D01*
X19181Y1575D01*
X19180Y1574D01*
X19179Y1574D01*
X19177Y1573D01*
X19175Y1571D01*
X19171Y1569D01*
X19168Y1568D01*
X19164Y1566D01*
X19159Y1565D01*
X19159D01*
X19158Y1565D01*
X19156Y1565D01*
X19153Y1564D01*
X19149D01*
X19144Y1564D01*
X19138Y1564D01*
X19025D01*
Y1593D01*
X19136D01*
X19139Y1593D01*
X19144Y1594D01*
X19148Y1594D01*
X19152Y1595D01*
X19156Y1596D01*
X19157D01*
X19158Y1597D01*
X19159Y1598D01*
X19161Y1599D01*
X19163Y1601D01*
X19166Y1603D01*
X19168Y1606D01*
X19170Y1609D01*
X19171Y1609D01*
X19171Y1610D01*
X19172Y1612D01*
X19173Y1615D01*
X19174Y1617D01*
X19175Y1621D01*
X19175Y1625D01*
X19176Y1629D01*
Y1629D01*
Y1630D01*
Y1631D01*
X19175Y1632D01*
X19175Y1636D01*
X19174Y1640D01*
X19173Y1645D01*
X19171Y1650D01*
X19168Y1656D01*
X19164Y1661D01*
X19163Y1662D01*
X19161Y1663D01*
X19160Y1664D01*
X19158Y1665D01*
X19156Y1666D01*
X19154Y1667D01*
X19151Y1669D01*
X19148Y1670D01*
X19144Y1671D01*
X19140Y1672D01*
X19135Y1673D01*
X19130Y1674D01*
X19125Y1674D01*
X19025D01*
Y1704D01*
X19197D01*
Y1677D01*
D02*
G37*
G36*
Y3748D02*
X19098Y3720D01*
X19061Y3711D01*
X19061D01*
X19062Y3710D01*
X19063Y3710D01*
X19064Y3709D01*
X19066Y3709D01*
X19068Y3709D01*
X19071Y3708D01*
X19073Y3707D01*
X19077Y3706D01*
X19081Y3705D01*
X19085Y3704D01*
X19090Y3703D01*
X19096Y3702D01*
X19197Y3674D01*
Y3644D01*
X19097Y3618D01*
X19064Y3610D01*
X19097Y3600D01*
X19197Y3570D01*
Y3542D01*
X19025Y3596D01*
Y3626D01*
X19128Y3653D01*
X19158Y3660D01*
X19025Y3695D01*
Y3726D01*
X19197Y3778D01*
Y3748D01*
D02*
G37*
G36*
X19267Y1471D02*
Y1448D01*
X19021Y1517D01*
Y1541D01*
X19267Y1471D01*
D02*
G37*
G36*
X17449Y4922D02*
X17602Y5031D01*
Y4981D01*
X17520Y4923D01*
X17520D01*
X17519Y4922D01*
X17518Y4921D01*
X17516Y4920D01*
X17511Y4917D01*
X17506Y4913D01*
X17500Y4909D01*
X17493Y4904D01*
X17487Y4901D01*
X17482Y4898D01*
X17483Y4897D01*
X17484Y4896D01*
X17488Y4893D01*
X17493Y4890D01*
X17498Y4887D01*
X17504Y4882D01*
X17511Y4877D01*
X17517Y4872D01*
X17602Y4808D01*
Y4763D01*
X17451Y4873D01*
X17284Y4754D01*
Y4806D01*
X17397Y4886D01*
X17398Y4887D01*
X17399Y4887D01*
X17401Y4888D01*
X17403Y4890D01*
X17410Y4894D01*
X17416Y4899D01*
X17416Y4899D01*
X17414Y4901D01*
X17411Y4903D01*
X17408Y4905D01*
X17400Y4910D01*
X17397Y4912D01*
X17394Y4914D01*
X17284Y4994D01*
Y5045D01*
X17449Y4922D01*
D02*
G37*
G36*
X19267Y4375D02*
Y4352D01*
X19021Y4421D01*
Y4444D01*
X19267Y4375D01*
D02*
G37*
G36*
X16863Y5332D02*
X16868D01*
X16872Y5331D01*
X16878Y5331D01*
X16884Y5330D01*
X16897Y5328D01*
X16912Y5324D01*
X16927Y5320D01*
X16941Y5313D01*
X16942Y5313D01*
X16943Y5312D01*
X16945Y5312D01*
X16947Y5310D01*
X16950Y5308D01*
X16954Y5306D01*
X16962Y5300D01*
X16971Y5292D01*
X16981Y5283D01*
X16990Y5272D01*
X16998Y5260D01*
X16998Y5259D01*
X16998Y5258D01*
X16999Y5256D01*
X17001Y5254D01*
X17002Y5250D01*
X17004Y5246D01*
X17005Y5242D01*
X17007Y5237D01*
X17009Y5231D01*
X17011Y5225D01*
X17014Y5212D01*
X17016Y5198D01*
X17017Y5183D01*
Y5182D01*
Y5180D01*
Y5178D01*
X17016Y5175D01*
X17016Y5171D01*
X17015Y5166D01*
X17015Y5161D01*
X17014Y5155D01*
X17011Y5142D01*
X17007Y5128D01*
X17004Y5122D01*
X17001Y5115D01*
X16997Y5109D01*
X16993Y5102D01*
X16992Y5102D01*
X16992Y5101D01*
X16990Y5099D01*
X16988Y5097D01*
X16986Y5094D01*
X16982Y5091D01*
X16979Y5088D01*
X16975Y5084D01*
X16970Y5081D01*
X16965Y5077D01*
X16959Y5073D01*
X16954Y5069D01*
X16947Y5066D01*
X16940Y5062D01*
X16932Y5060D01*
X16924Y5057D01*
X16914Y5098D01*
X16915D01*
X16916Y5099D01*
X16918Y5099D01*
X16920Y5100D01*
X16923Y5101D01*
X16926Y5103D01*
X16934Y5106D01*
X16942Y5111D01*
X16950Y5116D01*
X16958Y5123D01*
X16965Y5131D01*
X16966Y5132D01*
X16968Y5134D01*
X16970Y5139D01*
X16973Y5145D01*
X16976Y5153D01*
X16979Y5161D01*
X16981Y5172D01*
X16981Y5183D01*
Y5184D01*
Y5185D01*
Y5187D01*
X16981Y5189D01*
Y5193D01*
X16980Y5196D01*
X16979Y5205D01*
X16977Y5215D01*
X16974Y5225D01*
X16969Y5235D01*
X16963Y5245D01*
Y5245D01*
X16962Y5246D01*
X16960Y5249D01*
X16956Y5253D01*
X16951Y5258D01*
X16944Y5264D01*
X16936Y5270D01*
X16926Y5275D01*
X16916Y5279D01*
X16915D01*
X16914Y5280D01*
X16913Y5280D01*
X16911Y5281D01*
X16908Y5282D01*
X16905Y5283D01*
X16897Y5284D01*
X16888Y5286D01*
X16878Y5288D01*
X16867Y5289D01*
X16855Y5289D01*
X16848D01*
X16845Y5289D01*
X16841D01*
X16836Y5288D01*
X16831Y5288D01*
X16820Y5286D01*
X16808Y5284D01*
X16796Y5281D01*
X16784Y5278D01*
X16784D01*
X16783Y5277D01*
X16781Y5276D01*
X16779Y5275D01*
X16774Y5273D01*
X16767Y5268D01*
X16760Y5263D01*
X16752Y5257D01*
X16745Y5250D01*
X16739Y5241D01*
Y5240D01*
X16738Y5239D01*
X16737Y5238D01*
X16736Y5236D01*
X16735Y5234D01*
X16734Y5231D01*
X16731Y5225D01*
X16729Y5217D01*
X16726Y5207D01*
X16724Y5197D01*
X16724Y5187D01*
Y5186D01*
Y5185D01*
Y5183D01*
X16724Y5181D01*
Y5178D01*
X16725Y5174D01*
X16727Y5166D01*
X16729Y5156D01*
X16733Y5147D01*
X16738Y5137D01*
X16741Y5132D01*
X16744Y5127D01*
X16745Y5127D01*
X16745Y5126D01*
X16746Y5125D01*
X16748Y5123D01*
X16750Y5121D01*
X16753Y5119D01*
X16756Y5116D01*
X16759Y5114D01*
X16763Y5111D01*
X16768Y5108D01*
X16773Y5105D01*
X16778Y5102D01*
X16784Y5100D01*
X16791Y5098D01*
X16797Y5095D01*
X16805Y5094D01*
X16794Y5051D01*
X16794D01*
X16792Y5052D01*
X16789Y5053D01*
X16786Y5054D01*
X16781Y5055D01*
X16776Y5057D01*
X16771Y5060D01*
X16765Y5062D01*
X16752Y5069D01*
X16739Y5077D01*
X16733Y5082D01*
X16726Y5087D01*
X16721Y5093D01*
X16715Y5099D01*
X16715Y5099D01*
X16714Y5100D01*
X16713Y5103D01*
X16711Y5105D01*
X16709Y5109D01*
X16707Y5112D01*
X16704Y5117D01*
X16702Y5122D01*
X16699Y5128D01*
X16697Y5135D01*
X16695Y5142D01*
X16692Y5149D01*
X16690Y5157D01*
X16690Y5165D01*
X16689Y5174D01*
X16688Y5183D01*
Y5183D01*
Y5185D01*
Y5188D01*
X16689Y5192D01*
Y5196D01*
X16689Y5201D01*
X16690Y5206D01*
X16691Y5213D01*
X16693Y5226D01*
X16697Y5240D01*
X16702Y5254D01*
X16705Y5260D01*
X16709Y5267D01*
X16709Y5267D01*
X16710Y5268D01*
X16711Y5270D01*
X16713Y5272D01*
X16715Y5274D01*
X16718Y5278D01*
X16721Y5281D01*
X16724Y5285D01*
X16729Y5289D01*
X16733Y5293D01*
X16743Y5301D01*
X16756Y5309D01*
X16769Y5316D01*
X16770D01*
X16771Y5317D01*
X16774Y5317D01*
X16776Y5318D01*
X16780Y5319D01*
X16785Y5321D01*
X16790Y5323D01*
X16795Y5324D01*
X16801Y5325D01*
X16808Y5327D01*
X16822Y5329D01*
X16838Y5331D01*
X16855Y5332D01*
X16860D01*
X16863Y5332D01*
D02*
G37*
G36*
X19197Y4228D02*
X19098Y4200D01*
X19061Y4191D01*
X19061D01*
X19062Y4190D01*
X19063Y4190D01*
X19064Y4190D01*
X19066Y4189D01*
X19068Y4189D01*
X19071Y4188D01*
X19073Y4188D01*
X19077Y4187D01*
X19081Y4186D01*
X19085Y4185D01*
X19090Y4183D01*
X19096Y4182D01*
X19197Y4154D01*
Y4124D01*
X19097Y4099D01*
X19064Y4090D01*
X19097Y4080D01*
X19197Y4050D01*
Y4022D01*
X19025Y4076D01*
Y4106D01*
X19128Y4134D01*
X19158Y4141D01*
X19025Y4175D01*
Y4206D01*
X19197Y4259D01*
Y4228D01*
D02*
G37*
G36*
X17602Y5192D02*
Y5191D01*
Y5190D01*
Y5188D01*
Y5185D01*
X17601Y5181D01*
Y5177D01*
X17601Y5167D01*
X17600Y5157D01*
X17598Y5146D01*
X17596Y5136D01*
X17595Y5131D01*
X17593Y5127D01*
Y5127D01*
X17593Y5126D01*
X17591Y5123D01*
X17589Y5119D01*
X17586Y5114D01*
X17582Y5109D01*
X17577Y5103D01*
X17570Y5097D01*
X17563Y5092D01*
X17562D01*
X17562Y5091D01*
X17559Y5089D01*
X17555Y5088D01*
X17549Y5085D01*
X17542Y5083D01*
X17533Y5080D01*
X17525Y5079D01*
X17515Y5078D01*
X17512D01*
X17510Y5079D01*
X17506D01*
X17503Y5079D01*
X17495Y5081D01*
X17486Y5084D01*
X17477Y5088D01*
X17467Y5093D01*
X17462Y5097D01*
X17458Y5100D01*
X17457Y5101D01*
X17457Y5101D01*
X17455Y5103D01*
X17454Y5105D01*
X17452Y5107D01*
X17450Y5110D01*
X17448Y5113D01*
X17445Y5117D01*
X17443Y5122D01*
X17441Y5127D01*
X17438Y5132D01*
X17436Y5138D01*
X17434Y5145D01*
X17432Y5152D01*
X17430Y5160D01*
X17429Y5168D01*
X17428Y5167D01*
X17427Y5165D01*
X17426Y5162D01*
X17424Y5159D01*
X17419Y5150D01*
X17416Y5146D01*
X17413Y5143D01*
X17412Y5142D01*
X17410Y5139D01*
X17406Y5136D01*
X17401Y5131D01*
X17395Y5126D01*
X17388Y5120D01*
X17380Y5114D01*
X17371Y5108D01*
X17284Y5053D01*
Y5105D01*
X17350Y5147D01*
X17351D01*
X17352Y5148D01*
X17353Y5149D01*
X17355Y5150D01*
X17360Y5154D01*
X17366Y5158D01*
X17373Y5163D01*
X17381Y5168D01*
X17388Y5173D01*
X17394Y5178D01*
X17394Y5178D01*
X17396Y5179D01*
X17399Y5182D01*
X17402Y5185D01*
X17409Y5192D01*
X17412Y5195D01*
X17415Y5199D01*
X17416Y5200D01*
X17416Y5200D01*
X17417Y5202D01*
X17418Y5205D01*
X17420Y5208D01*
X17421Y5211D01*
X17423Y5218D01*
Y5219D01*
X17424Y5220D01*
Y5222D01*
X17424Y5224D01*
X17425Y5227D01*
Y5231D01*
X17425Y5236D01*
Y5241D01*
Y5290D01*
X17284D01*
Y5332D01*
X17602D01*
Y5192D01*
D02*
G37*
G36*
X19267Y4283D02*
Y4259D01*
X19021Y4328D01*
Y4352D01*
X19267Y4283D01*
D02*
G37*
G36*
X19197Y2584D02*
X19173D01*
X19173Y2584D01*
X19175Y2583D01*
X19177Y2581D01*
X19180Y2578D01*
X19183Y2575D01*
X19187Y2572D01*
X19190Y2567D01*
X19193Y2563D01*
X19194Y2562D01*
X19195Y2560D01*
X19196Y2557D01*
X19197Y2554D01*
X19199Y2549D01*
X19200Y2544D01*
X19201Y2538D01*
X19201Y2532D01*
Y2532D01*
Y2531D01*
Y2530D01*
Y2529D01*
X19201Y2525D01*
X19200Y2521D01*
X19199Y2516D01*
X19198Y2511D01*
X19196Y2505D01*
X19193Y2501D01*
X19193Y2500D01*
X19192Y2499D01*
X19190Y2497D01*
X19187Y2494D01*
X19184Y2491D01*
X19180Y2488D01*
X19176Y2485D01*
X19171Y2483D01*
X19171Y2483D01*
X19172Y2482D01*
X19173Y2481D01*
X19175Y2479D01*
X19178Y2477D01*
X19180Y2475D01*
X19183Y2472D01*
X19186Y2469D01*
X19189Y2465D01*
X19192Y2461D01*
X19194Y2457D01*
X19196Y2452D01*
X19199Y2447D01*
X19200Y2441D01*
X19201Y2436D01*
X19201Y2429D01*
Y2429D01*
Y2428D01*
Y2427D01*
X19201Y2425D01*
Y2423D01*
X19201Y2421D01*
X19200Y2415D01*
X19198Y2408D01*
X19195Y2402D01*
X19192Y2395D01*
X19187Y2390D01*
X19186Y2389D01*
X19184Y2388D01*
X19181Y2385D01*
X19179Y2384D01*
X19176Y2383D01*
X19173Y2382D01*
X19170Y2381D01*
X19167Y2379D01*
X19162Y2378D01*
X19158Y2378D01*
X19153Y2377D01*
X19149Y2376D01*
X19025D01*
Y2405D01*
X19139D01*
X19143Y2406D01*
X19147Y2406D01*
X19151Y2406D01*
X19155Y2407D01*
X19158Y2408D01*
X19159D01*
X19160Y2409D01*
X19161Y2410D01*
X19163Y2411D01*
X19165Y2412D01*
X19167Y2414D01*
X19169Y2416D01*
X19171Y2418D01*
X19171Y2419D01*
X19172Y2420D01*
X19172Y2421D01*
X19173Y2424D01*
X19174Y2426D01*
X19175Y2429D01*
X19175Y2432D01*
X19176Y2436D01*
Y2436D01*
Y2437D01*
Y2438D01*
X19175Y2439D01*
X19175Y2443D01*
X19174Y2447D01*
X19173Y2451D01*
X19171Y2457D01*
X19168Y2462D01*
X19163Y2467D01*
X19163Y2467D01*
X19161Y2468D01*
X19158Y2470D01*
X19154Y2472D01*
X19149Y2475D01*
X19142Y2477D01*
X19134Y2478D01*
X19125Y2479D01*
X19025D01*
Y2508D01*
X19140D01*
X19143Y2508D01*
X19148Y2509D01*
X19152Y2510D01*
X19157Y2511D01*
X19162Y2513D01*
X19166Y2515D01*
X19166Y2515D01*
X19168Y2516D01*
X19169Y2518D01*
X19171Y2521D01*
X19173Y2524D01*
X19174Y2528D01*
X19175Y2533D01*
X19176Y2539D01*
Y2539D01*
Y2541D01*
X19175Y2543D01*
X19175Y2546D01*
X19174Y2549D01*
X19173Y2553D01*
X19171Y2557D01*
X19169Y2561D01*
X19169Y2562D01*
X19168Y2563D01*
X19167Y2565D01*
X19164Y2567D01*
X19162Y2569D01*
X19158Y2572D01*
X19154Y2574D01*
X19150Y2576D01*
X19149Y2577D01*
X19148Y2577D01*
X19145Y2578D01*
X19141Y2579D01*
X19136Y2580D01*
X19130Y2580D01*
X19123Y2581D01*
X19114Y2581D01*
X19025D01*
Y2610D01*
X19197D01*
Y2584D01*
D02*
G37*
G36*
Y3324D02*
X19173D01*
X19173Y3324D01*
X19174Y3323D01*
X19175Y3322D01*
X19177Y3321D01*
X19179Y3319D01*
X19182Y3316D01*
X19184Y3314D01*
X19187Y3310D01*
X19190Y3307D01*
X19192Y3303D01*
X19195Y3298D01*
X19197Y3293D01*
X19199Y3288D01*
X19200Y3282D01*
X19201Y3276D01*
X19201Y3270D01*
Y3269D01*
Y3269D01*
Y3267D01*
X19201Y3264D01*
X19201Y3260D01*
X19200Y3256D01*
X19199Y3251D01*
X19197Y3246D01*
X19195Y3241D01*
X19195Y3240D01*
X19194Y3239D01*
X19193Y3236D01*
X19192Y3234D01*
X19190Y3230D01*
X19187Y3227D01*
X19184Y3224D01*
X19181Y3221D01*
X19180Y3221D01*
X19179Y3220D01*
X19177Y3219D01*
X19175Y3218D01*
X19171Y3216D01*
X19168Y3215D01*
X19164Y3213D01*
X19159Y3212D01*
X19159D01*
X19158Y3212D01*
X19156Y3211D01*
X19153Y3211D01*
X19149D01*
X19144Y3211D01*
X19138Y3210D01*
X19025D01*
Y3240D01*
X19136D01*
X19139Y3240D01*
X19144Y3240D01*
X19148Y3241D01*
X19152Y3242D01*
X19156Y3243D01*
X19157D01*
X19158Y3244D01*
X19159Y3245D01*
X19161Y3246D01*
X19163Y3247D01*
X19166Y3250D01*
X19168Y3252D01*
X19170Y3255D01*
X19171Y3256D01*
X19171Y3257D01*
X19172Y3259D01*
X19173Y3261D01*
X19174Y3264D01*
X19175Y3267D01*
X19175Y3272D01*
X19176Y3276D01*
Y3276D01*
Y3276D01*
Y3277D01*
X19175Y3279D01*
X19175Y3282D01*
X19174Y3287D01*
X19173Y3292D01*
X19171Y3297D01*
X19168Y3303D01*
X19164Y3308D01*
X19163Y3308D01*
X19161Y3310D01*
X19160Y3311D01*
X19158Y3312D01*
X19156Y3313D01*
X19154Y3314D01*
X19151Y3316D01*
X19148Y3317D01*
X19144Y3318D01*
X19140Y3319D01*
X19135Y3320D01*
X19130Y3320D01*
X19125Y3321D01*
X19025D01*
Y3350D01*
X19197D01*
Y3324D01*
D02*
G37*
G36*
X18983Y3456D02*
Y3456D01*
X18983Y3455D01*
X18982Y3453D01*
X18982Y3451D01*
X18981Y3447D01*
X18981Y3445D01*
Y3443D01*
Y3442D01*
Y3441D01*
X18981Y3439D01*
X18981Y3437D01*
X18982Y3435D01*
X18984Y3433D01*
X18985Y3431D01*
X18987Y3429D01*
X18987Y3429D01*
X18988Y3428D01*
X18990Y3428D01*
X18993Y3427D01*
X18997Y3426D01*
X18999Y3426D01*
X19002Y3425D01*
X19005Y3425D01*
X19009D01*
X19012Y3425D01*
X19197D01*
Y3395D01*
X19011D01*
X19008Y3396D01*
X19005D01*
X18998Y3396D01*
X18991Y3397D01*
X18984Y3399D01*
X18977Y3401D01*
X18974Y3402D01*
X18971Y3404D01*
X18971D01*
X18971Y3404D01*
X18969Y3406D01*
X18966Y3408D01*
X18963Y3412D01*
X18960Y3417D01*
X18958Y3423D01*
X18956Y3430D01*
X18955Y3434D01*
X18955Y3439D01*
Y3439D01*
Y3441D01*
X18955Y3443D01*
Y3446D01*
X18956Y3449D01*
X18956Y3453D01*
X18958Y3461D01*
X18983Y3456D01*
D02*
G37*
G36*
X19197Y2952D02*
X19094D01*
X19089Y2951D01*
X19084D01*
X19079Y2951D01*
X19074Y2951D01*
X19071Y2950D01*
X19070D01*
X19069Y2949D01*
X19067Y2949D01*
X19064Y2948D01*
X19061Y2946D01*
X19058Y2944D01*
X19055Y2941D01*
X19053Y2938D01*
X19052Y2938D01*
X19052Y2937D01*
X19051Y2935D01*
X19050Y2932D01*
X19048Y2929D01*
X19047Y2925D01*
X19046Y2921D01*
X19046Y2916D01*
Y2916D01*
Y2914D01*
X19046Y2911D01*
X19047Y2908D01*
X19048Y2905D01*
X19049Y2900D01*
X19051Y2896D01*
X19053Y2891D01*
X19053Y2891D01*
X19054Y2889D01*
X19055Y2887D01*
X19057Y2885D01*
X19060Y2882D01*
X19063Y2879D01*
X19067Y2877D01*
X19071Y2875D01*
X19072Y2875D01*
X19073Y2874D01*
X19076Y2874D01*
X19080Y2873D01*
X19084Y2871D01*
X19090Y2871D01*
X19097Y2870D01*
X19105Y2870D01*
X19197D01*
Y2841D01*
X19025D01*
Y2867D01*
X19050D01*
X19050Y2867D01*
X19049Y2868D01*
X19047Y2869D01*
X19045Y2871D01*
X19043Y2873D01*
X19041Y2875D01*
X19038Y2878D01*
X19035Y2881D01*
X19033Y2885D01*
X19030Y2889D01*
X19028Y2894D01*
X19025Y2899D01*
X19024Y2904D01*
X19022Y2910D01*
X19021Y2916D01*
X19021Y2922D01*
Y2923D01*
Y2924D01*
X19021Y2928D01*
X19022Y2931D01*
X19022Y2936D01*
X19023Y2941D01*
X19025Y2945D01*
X19027Y2951D01*
X19027Y2951D01*
X19028Y2953D01*
X19029Y2955D01*
X19031Y2958D01*
X19033Y2961D01*
X19035Y2964D01*
X19038Y2967D01*
X19041Y2970D01*
X19042Y2971D01*
X19043Y2971D01*
X19045Y2972D01*
X19048Y2974D01*
X19051Y2975D01*
X19054Y2977D01*
X19059Y2978D01*
X19063Y2979D01*
X19063D01*
X19065Y2980D01*
X19067Y2980D01*
X19070D01*
X19074Y2980D01*
X19078Y2981D01*
X19084Y2981D01*
X19197D01*
Y2952D01*
D02*
G37*
G36*
X19263Y3136D02*
X19178D01*
X19178Y3136D01*
X19179Y3135D01*
X19180Y3134D01*
X19181Y3132D01*
X19183Y3131D01*
X19185Y3128D01*
X19187Y3125D01*
X19190Y3122D01*
X19192Y3118D01*
X19194Y3115D01*
X19197Y3106D01*
X19199Y3101D01*
X19200Y3096D01*
X19201Y3090D01*
X19201Y3085D01*
Y3084D01*
Y3084D01*
Y3083D01*
Y3082D01*
X19201Y3078D01*
X19200Y3073D01*
X19200Y3068D01*
X19198Y3063D01*
X19196Y3057D01*
X19194Y3052D01*
X19193Y3051D01*
X19192Y3049D01*
X19191Y3047D01*
X19188Y3044D01*
X19185Y3041D01*
X19182Y3037D01*
X19178Y3034D01*
X19173Y3031D01*
X19172Y3031D01*
X19170Y3030D01*
X19167Y3029D01*
X19163Y3028D01*
X19157Y3027D01*
X19151Y3026D01*
X19143Y3026D01*
X19134Y3025D01*
X19025D01*
Y3054D01*
X19138D01*
X19141Y3055D01*
X19146Y3056D01*
X19151Y3057D01*
X19157Y3059D01*
X19162Y3061D01*
X19166Y3064D01*
X19166Y3064D01*
X19168Y3066D01*
X19169Y3068D01*
X19171Y3071D01*
X19173Y3075D01*
X19174Y3079D01*
X19176Y3085D01*
X19176Y3091D01*
Y3092D01*
Y3093D01*
X19176Y3095D01*
X19175Y3099D01*
X19174Y3102D01*
X19173Y3106D01*
X19172Y3111D01*
X19169Y3115D01*
X19169Y3115D01*
X19168Y3117D01*
X19167Y3119D01*
X19164Y3121D01*
X19162Y3124D01*
X19159Y3127D01*
X19155Y3129D01*
X19151Y3131D01*
X19150Y3132D01*
X19149Y3132D01*
X19146Y3133D01*
X19142Y3134D01*
X19138Y3135D01*
X19132Y3135D01*
X19126Y3136D01*
X19119Y3136D01*
X19025D01*
Y3165D01*
X19263D01*
Y3136D01*
D02*
G37*
G36*
X19075Y2805D02*
X19078Y2804D01*
X19082Y2804D01*
X19085Y2803D01*
X19089Y2801D01*
X19093Y2800D01*
X19094Y2799D01*
X19095Y2799D01*
X19097Y2797D01*
X19099Y2795D01*
X19102Y2793D01*
X19105Y2791D01*
X19108Y2788D01*
X19110Y2784D01*
X19110Y2784D01*
X19111Y2783D01*
X19113Y2781D01*
X19114Y2778D01*
X19115Y2775D01*
X19117Y2771D01*
X19118Y2768D01*
X19120Y2763D01*
Y2763D01*
X19120Y2761D01*
X19121Y2759D01*
X19121Y2757D01*
X19122Y2753D01*
X19123Y2749D01*
X19124Y2744D01*
X19124Y2737D01*
Y2737D01*
X19125Y2736D01*
Y2734D01*
X19125Y2731D01*
X19125Y2729D01*
X19126Y2725D01*
X19126Y2722D01*
X19127Y2717D01*
X19129Y2709D01*
X19130Y2700D01*
X19132Y2692D01*
X19134Y2688D01*
X19135Y2685D01*
X19136D01*
X19138Y2685D01*
X19145D01*
X19148Y2685D01*
X19152Y2686D01*
X19156Y2687D01*
X19160Y2688D01*
X19164Y2691D01*
X19167Y2693D01*
X19168Y2694D01*
X19169Y2695D01*
X19170Y2698D01*
X19172Y2702D01*
X19174Y2706D01*
X19176Y2712D01*
X19177Y2719D01*
X19177Y2727D01*
Y2727D01*
Y2728D01*
Y2729D01*
Y2730D01*
X19177Y2734D01*
X19176Y2738D01*
X19175Y2743D01*
X19174Y2748D01*
X19172Y2753D01*
X19170Y2757D01*
X19170Y2758D01*
X19169Y2759D01*
X19167Y2761D01*
X19164Y2763D01*
X19161Y2765D01*
X19156Y2767D01*
X19151Y2769D01*
X19145Y2771D01*
X19148Y2800D01*
X19149D01*
X19149Y2800D01*
X19150D01*
X19151Y2799D01*
X19154Y2798D01*
X19159Y2797D01*
X19163Y2795D01*
X19168Y2793D01*
X19173Y2790D01*
X19178Y2787D01*
X19178Y2787D01*
X19179Y2785D01*
X19181Y2783D01*
X19184Y2781D01*
X19187Y2777D01*
X19190Y2772D01*
X19193Y2767D01*
X19195Y2761D01*
Y2761D01*
X19195Y2761D01*
X19196Y2760D01*
X19196Y2758D01*
X19197Y2755D01*
X19198Y2750D01*
X19199Y2745D01*
X19200Y2738D01*
X19201Y2730D01*
X19201Y2722D01*
Y2722D01*
Y2721D01*
Y2720D01*
Y2718D01*
X19201Y2715D01*
X19201Y2709D01*
X19200Y2704D01*
X19199Y2698D01*
X19197Y2692D01*
X19196Y2686D01*
X19195Y2686D01*
X19195Y2684D01*
X19194Y2682D01*
X19192Y2679D01*
X19190Y2675D01*
X19188Y2672D01*
X19185Y2669D01*
X19183Y2666D01*
X19182Y2665D01*
X19181Y2665D01*
X19180Y2664D01*
X19178Y2662D01*
X19174Y2661D01*
X19171Y2659D01*
X19168Y2658D01*
X19163Y2657D01*
X19163D01*
X19162Y2657D01*
X19160Y2656D01*
X19157Y2656D01*
X19153D01*
X19149Y2655D01*
X19143Y2655D01*
X19084D01*
X19075Y2655D01*
X19067D01*
X19058Y2654D01*
X19054Y2654D01*
X19051D01*
X19048Y2654D01*
X19045Y2653D01*
X19045D01*
X19044Y2653D01*
X19042Y2653D01*
X19039Y2652D01*
X19036Y2651D01*
X19032Y2650D01*
X19029Y2648D01*
X19025Y2646D01*
Y2677D01*
X19025Y2677D01*
X19027Y2677D01*
X19028Y2678D01*
X19031Y2679D01*
X19034Y2680D01*
X19038Y2681D01*
X19042Y2682D01*
X19046Y2682D01*
Y2683D01*
X19046Y2683D01*
X19044Y2685D01*
X19042Y2688D01*
X19039Y2692D01*
X19035Y2697D01*
X19032Y2703D01*
X19029Y2708D01*
X19027Y2714D01*
X19026Y2715D01*
X19026Y2717D01*
X19025Y2720D01*
X19024Y2724D01*
X19023Y2728D01*
X19022Y2734D01*
X19021Y2740D01*
X19021Y2746D01*
Y2747D01*
Y2748D01*
Y2749D01*
X19021Y2751D01*
Y2754D01*
X19022Y2756D01*
X19023Y2762D01*
X19024Y2769D01*
X19027Y2777D01*
X19030Y2784D01*
X19035Y2790D01*
X19035Y2791D01*
X19037Y2792D01*
X19040Y2795D01*
X19044Y2798D01*
X19050Y2800D01*
X19055Y2803D01*
X19063Y2804D01*
X19066Y2805D01*
X19070Y2805D01*
X19072D01*
X19075Y2805D01*
D02*
G37*
G36*
X19058Y3475D02*
X19025D01*
Y3509D01*
X19058D01*
Y3475D01*
D02*
G37*
G36*
Y1921D02*
X19025D01*
Y1954D01*
X19058D01*
Y1921D01*
D02*
G37*
G36*
X19118Y1878D02*
X19120D01*
X19124Y1878D01*
X19127Y1878D01*
X19135Y1877D01*
X19143Y1875D01*
X19151Y1873D01*
X19159Y1870D01*
X19160D01*
X19160Y1869D01*
X19161Y1869D01*
X19163Y1868D01*
X19167Y1866D01*
X19171Y1863D01*
X19176Y1859D01*
X19181Y1854D01*
X19186Y1848D01*
X19191Y1842D01*
Y1841D01*
X19191Y1841D01*
X19192Y1840D01*
X19192Y1838D01*
X19193Y1836D01*
X19194Y1834D01*
X19196Y1829D01*
X19198Y1823D01*
X19200Y1816D01*
X19201Y1809D01*
X19201Y1800D01*
Y1800D01*
Y1799D01*
Y1798D01*
X19201Y1795D01*
Y1793D01*
X19201Y1791D01*
X19200Y1784D01*
X19198Y1777D01*
X19195Y1769D01*
X19192Y1762D01*
X19187Y1755D01*
Y1754D01*
X19186Y1754D01*
X19184Y1752D01*
X19181Y1749D01*
X19177Y1745D01*
X19171Y1741D01*
X19164Y1737D01*
X19156Y1734D01*
X19147Y1731D01*
X19142Y1760D01*
X19143D01*
X19143Y1760D01*
X19145Y1761D01*
X19148Y1762D01*
X19152Y1763D01*
X19156Y1765D01*
X19161Y1768D01*
X19165Y1771D01*
X19168Y1774D01*
X19169Y1775D01*
X19170Y1776D01*
X19171Y1779D01*
X19173Y1781D01*
X19174Y1785D01*
X19176Y1789D01*
X19177Y1794D01*
X19177Y1799D01*
Y1800D01*
Y1800D01*
Y1801D01*
X19177Y1803D01*
X19177Y1807D01*
X19175Y1812D01*
X19173Y1817D01*
X19171Y1824D01*
X19167Y1830D01*
X19164Y1832D01*
X19161Y1835D01*
X19161D01*
X19161Y1836D01*
X19160Y1836D01*
X19158Y1837D01*
X19157Y1838D01*
X19154Y1840D01*
X19152Y1841D01*
X19149Y1842D01*
X19146Y1843D01*
X19142Y1844D01*
X19138Y1846D01*
X19134Y1847D01*
X19129Y1847D01*
X19123Y1848D01*
X19117Y1849D01*
X19108D01*
X19106Y1848D01*
X19103D01*
X19099Y1848D01*
X19092Y1847D01*
X19084Y1846D01*
X19075Y1843D01*
X19067Y1840D01*
X19064Y1838D01*
X19061Y1836D01*
X19060Y1835D01*
X19058Y1833D01*
X19056Y1830D01*
X19053Y1826D01*
X19050Y1821D01*
X19048Y1815D01*
X19046Y1809D01*
X19045Y1805D01*
X19045Y1801D01*
Y1801D01*
Y1800D01*
X19045Y1798D01*
X19046Y1795D01*
X19046Y1791D01*
X19048Y1787D01*
X19050Y1782D01*
X19052Y1777D01*
X19055Y1772D01*
X19056Y1772D01*
X19057Y1771D01*
X19060Y1769D01*
X19064Y1766D01*
X19068Y1764D01*
X19074Y1761D01*
X19081Y1759D01*
X19088Y1758D01*
X19084Y1729D01*
X19084D01*
X19083Y1729D01*
X19082Y1729D01*
X19080Y1730D01*
X19077Y1730D01*
X19074Y1731D01*
X19067Y1734D01*
X19060Y1737D01*
X19052Y1741D01*
X19044Y1747D01*
X19041Y1750D01*
X19038Y1753D01*
X19037Y1753D01*
X19037Y1754D01*
X19036Y1755D01*
X19035Y1757D01*
X19034Y1758D01*
X19032Y1761D01*
X19031Y1763D01*
X19029Y1766D01*
X19026Y1773D01*
X19024Y1781D01*
X19022Y1790D01*
X19021Y1795D01*
X19021Y1801D01*
Y1801D01*
Y1802D01*
Y1804D01*
X19021Y1806D01*
X19022Y1810D01*
X19022Y1813D01*
X19023Y1817D01*
X19024Y1821D01*
X19027Y1830D01*
X19029Y1835D01*
X19031Y1840D01*
X19033Y1844D01*
X19037Y1849D01*
X19040Y1853D01*
X19044Y1857D01*
X19044Y1858D01*
X19045Y1858D01*
X19046Y1859D01*
X19048Y1861D01*
X19051Y1862D01*
X19054Y1864D01*
X19057Y1866D01*
X19061Y1868D01*
X19065Y1870D01*
X19071Y1872D01*
X19076Y1874D01*
X19082Y1875D01*
X19088Y1877D01*
X19095Y1878D01*
X19103Y1878D01*
X19110Y1879D01*
X19115D01*
X19118Y1878D01*
D02*
G37*
G36*
X19075Y2342D02*
X19078Y2342D01*
X19082Y2341D01*
X19085Y2340D01*
X19089Y2339D01*
X19093Y2337D01*
X19094Y2337D01*
X19095Y2336D01*
X19097Y2335D01*
X19099Y2333D01*
X19102Y2331D01*
X19105Y2328D01*
X19108Y2326D01*
X19110Y2322D01*
X19110Y2322D01*
X19111Y2320D01*
X19113Y2319D01*
X19114Y2316D01*
X19115Y2313D01*
X19117Y2309D01*
X19118Y2305D01*
X19120Y2301D01*
Y2300D01*
X19120Y2299D01*
X19121Y2297D01*
X19121Y2294D01*
X19122Y2291D01*
X19123Y2286D01*
X19124Y2281D01*
X19124Y2275D01*
Y2275D01*
X19125Y2273D01*
Y2272D01*
X19125Y2269D01*
X19125Y2266D01*
X19126Y2263D01*
X19126Y2259D01*
X19127Y2255D01*
X19129Y2247D01*
X19130Y2238D01*
X19132Y2230D01*
X19134Y2226D01*
X19135Y2223D01*
X19136D01*
X19138Y2222D01*
X19145D01*
X19148Y2223D01*
X19152Y2223D01*
X19156Y2224D01*
X19160Y2226D01*
X19164Y2228D01*
X19167Y2231D01*
X19168Y2231D01*
X19169Y2233D01*
X19170Y2236D01*
X19172Y2239D01*
X19174Y2244D01*
X19176Y2250D01*
X19177Y2256D01*
X19177Y2264D01*
Y2265D01*
Y2265D01*
Y2266D01*
Y2268D01*
X19177Y2271D01*
X19176Y2276D01*
X19175Y2281D01*
X19174Y2286D01*
X19172Y2291D01*
X19170Y2295D01*
X19170Y2295D01*
X19169Y2297D01*
X19167Y2298D01*
X19164Y2300D01*
X19161Y2303D01*
X19156Y2305D01*
X19151Y2307D01*
X19145Y2309D01*
X19148Y2338D01*
X19149D01*
X19149Y2337D01*
X19150D01*
X19151Y2337D01*
X19154Y2336D01*
X19159Y2335D01*
X19163Y2333D01*
X19168Y2331D01*
X19173Y2328D01*
X19178Y2325D01*
X19178Y2325D01*
X19179Y2323D01*
X19181Y2321D01*
X19184Y2318D01*
X19187Y2315D01*
X19190Y2310D01*
X19193Y2305D01*
X19195Y2299D01*
Y2299D01*
X19195Y2298D01*
X19196Y2297D01*
X19196Y2296D01*
X19197Y2293D01*
X19198Y2288D01*
X19199Y2282D01*
X19200Y2275D01*
X19201Y2268D01*
X19201Y2260D01*
Y2260D01*
Y2259D01*
Y2258D01*
Y2256D01*
X19201Y2252D01*
X19201Y2247D01*
X19200Y2241D01*
X19199Y2235D01*
X19197Y2230D01*
X19196Y2224D01*
X19195Y2223D01*
X19195Y2222D01*
X19194Y2219D01*
X19192Y2216D01*
X19190Y2213D01*
X19188Y2209D01*
X19185Y2206D01*
X19183Y2203D01*
X19182Y2203D01*
X19181Y2202D01*
X19180Y2201D01*
X19178Y2200D01*
X19174Y2198D01*
X19171Y2197D01*
X19168Y2196D01*
X19163Y2194D01*
X19163D01*
X19162Y2194D01*
X19160Y2194D01*
X19157Y2193D01*
X19153D01*
X19149Y2193D01*
X19143Y2193D01*
X19084D01*
X19075Y2192D01*
X19067D01*
X19058Y2192D01*
X19054Y2192D01*
X19051D01*
X19048Y2191D01*
X19045Y2191D01*
X19045D01*
X19044Y2191D01*
X19042Y2190D01*
X19039Y2189D01*
X19036Y2189D01*
X19032Y2187D01*
X19029Y2186D01*
X19025Y2184D01*
Y2214D01*
X19025Y2215D01*
X19027Y2215D01*
X19028Y2216D01*
X19031Y2217D01*
X19034Y2218D01*
X19038Y2219D01*
X19042Y2219D01*
X19046Y2220D01*
Y2220D01*
X19046Y2221D01*
X19044Y2223D01*
X19042Y2226D01*
X19039Y2230D01*
X19035Y2235D01*
X19032Y2240D01*
X19029Y2246D01*
X19027Y2252D01*
X19026Y2252D01*
X19026Y2254D01*
X19025Y2257D01*
X19024Y2261D01*
X19023Y2266D01*
X19022Y2272D01*
X19021Y2278D01*
X19021Y2284D01*
Y2284D01*
Y2285D01*
Y2287D01*
X19021Y2289D01*
Y2291D01*
X19022Y2294D01*
X19023Y2300D01*
X19024Y2307D01*
X19027Y2315D01*
X19030Y2321D01*
X19035Y2328D01*
X19035Y2328D01*
X19037Y2330D01*
X19040Y2332D01*
X19044Y2335D01*
X19050Y2338D01*
X19055Y2340D01*
X19063Y2342D01*
X19066Y2342D01*
X19070Y2343D01*
X19072D01*
X19075Y2342D01*
D02*
G37*
G36*
X19263Y3395D02*
X19229D01*
Y3425D01*
X19263D01*
Y3395D01*
D02*
G37*
G36*
X19116Y2158D02*
X19119D01*
X19123Y2158D01*
X19128Y2157D01*
X19132Y2157D01*
X19138Y2155D01*
X19143Y2154D01*
X19149Y2152D01*
X19156Y2150D01*
X19161Y2147D01*
X19167Y2145D01*
X19172Y2141D01*
X19178Y2137D01*
X19182Y2132D01*
X19182Y2132D01*
X19183Y2131D01*
X19184Y2130D01*
X19185Y2128D01*
X19186Y2126D01*
X19188Y2123D01*
X19190Y2121D01*
X19192Y2117D01*
X19193Y2113D01*
X19195Y2109D01*
X19198Y2100D01*
X19201Y2089D01*
X19201Y2084D01*
X19201Y2078D01*
Y2078D01*
Y2076D01*
Y2074D01*
X19201Y2072D01*
X19201Y2069D01*
X19200Y2066D01*
X19199Y2062D01*
X19199Y2057D01*
X19195Y2048D01*
X19194Y2043D01*
X19191Y2038D01*
X19189Y2034D01*
X19185Y2029D01*
X19182Y2024D01*
X19178Y2020D01*
X19178Y2019D01*
X19177Y2019D01*
X19175Y2018D01*
X19174Y2016D01*
X19171Y2015D01*
X19168Y2013D01*
X19165Y2010D01*
X19161Y2008D01*
X19157Y2006D01*
X19152Y2004D01*
X19147Y2002D01*
X19141Y2000D01*
X19135Y1999D01*
X19128Y1998D01*
X19121Y1997D01*
X19114Y1997D01*
X19108D01*
X19105Y1997D01*
X19102Y1998D01*
X19098D01*
X19095Y1998D01*
X19086Y1999D01*
X19077Y2002D01*
X19069Y2004D01*
X19061Y2007D01*
X19061D01*
X19060Y2008D01*
X19059Y2008D01*
X19058Y2009D01*
X19054Y2012D01*
X19050Y2015D01*
X19045Y2019D01*
X19041Y2024D01*
X19036Y2030D01*
X19031Y2037D01*
Y2037D01*
X19031Y2037D01*
X19030Y2038D01*
X19030Y2040D01*
X19029Y2042D01*
X19028Y2044D01*
X19026Y2049D01*
X19024Y2055D01*
X19023Y2062D01*
X19021Y2070D01*
X19021Y2078D01*
Y2078D01*
Y2080D01*
Y2081D01*
X19021Y2084D01*
X19022Y2087D01*
X19022Y2091D01*
X19023Y2095D01*
X19024Y2099D01*
X19027Y2108D01*
X19029Y2113D01*
X19031Y2118D01*
X19033Y2123D01*
X19037Y2128D01*
X19040Y2132D01*
X19044Y2137D01*
X19044Y2137D01*
X19045Y2138D01*
X19046Y2139D01*
X19049Y2140D01*
X19051Y2142D01*
X19054Y2144D01*
X19057Y2146D01*
X19061Y2148D01*
X19066Y2150D01*
X19071Y2152D01*
X19076Y2154D01*
X19082Y2155D01*
X19089Y2157D01*
X19096Y2158D01*
X19103Y2158D01*
X19111Y2159D01*
X19113D01*
X19116Y2158D01*
D02*
G37*
G36*
X17011Y4772D02*
X16974D01*
Y4876D01*
X16694D01*
Y4919D01*
X16974D01*
Y5023D01*
X17011D01*
Y4772D01*
D02*
G37*
G36*
X19197Y4788D02*
X19240D01*
X19258Y4758D01*
X19197D01*
Y4729D01*
X19175D01*
Y4758D01*
X19069D01*
X19067Y4758D01*
X19061Y4758D01*
X19059Y4757D01*
X19057Y4757D01*
X19056Y4757D01*
X19055Y4756D01*
X19053Y4754D01*
X19052Y4752D01*
X19051Y4751D01*
X19051Y4749D01*
X19050Y4746D01*
X19050Y4742D01*
Y4741D01*
Y4741D01*
Y4740D01*
Y4738D01*
X19050Y4737D01*
Y4734D01*
X19050Y4732D01*
X19051Y4729D01*
X19025Y4725D01*
Y4726D01*
X19024Y4727D01*
X19024Y4729D01*
X19024Y4733D01*
X19023Y4736D01*
X19023Y4740D01*
X19022Y4747D01*
Y4748D01*
Y4750D01*
X19023Y4753D01*
X19023Y4756D01*
X19023Y4760D01*
X19024Y4765D01*
X19025Y4768D01*
X19027Y4772D01*
X19028Y4772D01*
X19028Y4773D01*
X19029Y4775D01*
X19031Y4777D01*
X19033Y4779D01*
X19035Y4781D01*
X19038Y4783D01*
X19041Y4784D01*
X19041D01*
X19042Y4785D01*
X19045Y4785D01*
X19048Y4786D01*
X19053Y4787D01*
X19055Y4787D01*
X19059D01*
X19062Y4787D01*
X19066Y4788D01*
X19175D01*
Y4809D01*
X19197D01*
Y4788D01*
D02*
G37*
G36*
X11468Y4669D02*
X11467D01*
X11466Y4668D01*
X11465Y4668D01*
X11462Y4668D01*
X11460Y4667D01*
X11456Y4666D01*
X11449Y4664D01*
X11441Y4661D01*
X11433Y4657D01*
X11426Y4652D01*
X11420Y4646D01*
X11419Y4646D01*
X11417Y4644D01*
X11415Y4640D01*
X11413Y4635D01*
X11410Y4630D01*
X11408Y4623D01*
X11406Y4615D01*
X11405Y4607D01*
Y4607D01*
Y4606D01*
Y4604D01*
X11406Y4602D01*
X11406Y4597D01*
X11408Y4591D01*
X11410Y4584D01*
X11413Y4576D01*
X11418Y4568D01*
X11424Y4561D01*
X11425Y4560D01*
X11428Y4557D01*
X11432Y4555D01*
X11437Y4551D01*
X11444Y4547D01*
X11452Y4545D01*
X11461Y4542D01*
X11471Y4541D01*
X11474D01*
X11476Y4542D01*
X11481Y4542D01*
X11487Y4544D01*
X11494Y4545D01*
X11502Y4549D01*
X11509Y4553D01*
X11516Y4559D01*
X11517Y4560D01*
X11519Y4562D01*
X11521Y4566D01*
X11525Y4571D01*
X11528Y4578D01*
X11531Y4585D01*
X11533Y4594D01*
X11533Y4604D01*
Y4604D01*
Y4606D01*
Y4608D01*
X11533Y4611D01*
X11533Y4615D01*
X11532Y4620D01*
X11531Y4625D01*
X11529Y4631D01*
X11564Y4627D01*
Y4626D01*
Y4624D01*
X11563Y4623D01*
Y4621D01*
Y4620D01*
Y4620D01*
Y4618D01*
Y4617D01*
X11564Y4612D01*
X11565Y4606D01*
X11566Y4599D01*
X11569Y4591D01*
X11572Y4584D01*
X11576Y4576D01*
Y4575D01*
X11577Y4575D01*
X11578Y4573D01*
X11582Y4569D01*
X11586Y4566D01*
X11592Y4562D01*
X11599Y4559D01*
X11606Y4556D01*
X11611Y4556D01*
X11620D01*
X11623Y4556D01*
X11628Y4557D01*
X11634Y4559D01*
X11640Y4562D01*
X11646Y4565D01*
X11651Y4570D01*
X11652Y4571D01*
X11654Y4573D01*
X11656Y4576D01*
X11659Y4580D01*
X11661Y4586D01*
X11663Y4592D01*
X11665Y4600D01*
X11666Y4608D01*
Y4608D01*
Y4609D01*
Y4612D01*
X11665Y4616D01*
X11664Y4621D01*
X11662Y4627D01*
X11660Y4633D01*
X11656Y4640D01*
X11651Y4646D01*
X11651Y4646D01*
X11649Y4648D01*
X11645Y4651D01*
X11641Y4654D01*
X11635Y4657D01*
X11628Y4660D01*
X11619Y4663D01*
X11609Y4665D01*
X11616Y4704D01*
X11616D01*
X11617Y4703D01*
X11619Y4703D01*
X11622Y4702D01*
X11625Y4702D01*
X11629Y4700D01*
X11638Y4697D01*
X11648Y4693D01*
X11658Y4687D01*
X11667Y4680D01*
X11676Y4672D01*
X11677Y4671D01*
X11677Y4670D01*
X11678Y4669D01*
X11679Y4667D01*
X11681Y4665D01*
X11683Y4662D01*
X11685Y4658D01*
X11687Y4654D01*
X11691Y4645D01*
X11695Y4635D01*
X11697Y4622D01*
X11698Y4616D01*
Y4609D01*
Y4608D01*
Y4607D01*
Y4606D01*
Y4604D01*
X11697Y4599D01*
X11696Y4593D01*
X11695Y4586D01*
X11693Y4578D01*
X11690Y4569D01*
X11686Y4561D01*
Y4561D01*
X11686Y4560D01*
X11684Y4557D01*
X11682Y4553D01*
X11678Y4549D01*
X11674Y4543D01*
X11669Y4538D01*
X11663Y4532D01*
X11656Y4528D01*
X11655Y4527D01*
X11653Y4526D01*
X11649Y4524D01*
X11644Y4522D01*
X11638Y4519D01*
X11631Y4517D01*
X11623Y4516D01*
X11615Y4516D01*
X11611D01*
X11608Y4516D01*
X11603Y4517D01*
X11597Y4518D01*
X11590Y4521D01*
X11584Y4523D01*
X11577Y4527D01*
X11577Y4528D01*
X11575Y4529D01*
X11572Y4532D01*
X11568Y4535D01*
X11564Y4540D01*
X11559Y4545D01*
X11555Y4552D01*
X11551Y4560D01*
Y4559D01*
X11550Y4558D01*
X11550Y4557D01*
X11549Y4555D01*
X11548Y4550D01*
X11545Y4544D01*
X11541Y4536D01*
X11537Y4529D01*
X11531Y4522D01*
X11524Y4516D01*
X11523Y4515D01*
X11520Y4513D01*
X11516Y4511D01*
X11510Y4508D01*
X11502Y4505D01*
X11493Y4502D01*
X11483Y4500D01*
X11472Y4500D01*
X11468D01*
X11465Y4500D01*
X11462Y4501D01*
X11458Y4502D01*
X11453Y4503D01*
X11448Y4504D01*
X11437Y4507D01*
X11431Y4510D01*
X11426Y4513D01*
X11420Y4517D01*
X11414Y4521D01*
X11408Y4525D01*
X11402Y4531D01*
X11402Y4531D01*
X11401Y4532D01*
X11399Y4534D01*
X11398Y4536D01*
X11395Y4539D01*
X11393Y4543D01*
X11390Y4547D01*
X11388Y4552D01*
X11385Y4557D01*
X11382Y4563D01*
X11380Y4569D01*
X11378Y4576D01*
X11376Y4583D01*
X11375Y4591D01*
X11374Y4599D01*
X11373Y4607D01*
Y4608D01*
Y4609D01*
Y4612D01*
X11374Y4614D01*
X11374Y4618D01*
X11375Y4622D01*
X11376Y4627D01*
X11376Y4632D01*
X11379Y4643D01*
X11384Y4654D01*
X11387Y4660D01*
X11390Y4666D01*
X11394Y4671D01*
X11398Y4677D01*
X11398Y4677D01*
X11399Y4678D01*
X11401Y4680D01*
X11403Y4681D01*
X11405Y4683D01*
X11408Y4685D01*
X11411Y4688D01*
X11415Y4691D01*
X11420Y4694D01*
X11425Y4696D01*
X11436Y4702D01*
X11449Y4706D01*
X11455Y4707D01*
X11463Y4708D01*
X11468Y4669D01*
D02*
G37*
G36*
X11423Y4765D02*
X11379D01*
Y4810D01*
X11423D01*
Y4765D01*
D02*
G37*
G36*
X11554Y5246D02*
X11640D01*
Y5209D01*
X11554D01*
Y5123D01*
X11517D01*
Y5209D01*
X11430D01*
Y5246D01*
X11517D01*
Y5332D01*
X11554D01*
Y5246D01*
D02*
G37*
G36*
X11468Y5039D02*
X11467D01*
X11466Y5039D01*
X11465Y5038D01*
X11462Y5038D01*
X11460Y5038D01*
X11456Y5037D01*
X11449Y5034D01*
X11441Y5031D01*
X11433Y5027D01*
X11426Y5022D01*
X11420Y5017D01*
X11419Y5016D01*
X11417Y5014D01*
X11415Y5010D01*
X11413Y5006D01*
X11410Y5000D01*
X11408Y4993D01*
X11406Y4986D01*
X11405Y4977D01*
Y4977D01*
Y4976D01*
Y4975D01*
X11406Y4973D01*
X11406Y4968D01*
X11408Y4961D01*
X11410Y4954D01*
X11413Y4946D01*
X11418Y4938D01*
X11424Y4931D01*
X11425Y4930D01*
X11428Y4928D01*
X11432Y4925D01*
X11437Y4921D01*
X11444Y4918D01*
X11452Y4915D01*
X11461Y4913D01*
X11471Y4912D01*
X11474D01*
X11476Y4912D01*
X11481Y4913D01*
X11487Y4914D01*
X11494Y4916D01*
X11502Y4919D01*
X11509Y4924D01*
X11516Y4930D01*
X11517Y4931D01*
X11519Y4933D01*
X11521Y4937D01*
X11525Y4942D01*
X11528Y4948D01*
X11531Y4956D01*
X11533Y4965D01*
X11533Y4974D01*
Y4975D01*
Y4976D01*
Y4978D01*
X11533Y4982D01*
X11533Y4986D01*
X11532Y4990D01*
X11531Y4996D01*
X11529Y5002D01*
X11564Y4997D01*
Y4997D01*
Y4995D01*
X11563Y4993D01*
Y4991D01*
Y4991D01*
Y4990D01*
Y4989D01*
Y4987D01*
X11564Y4982D01*
X11565Y4976D01*
X11566Y4969D01*
X11569Y4961D01*
X11572Y4954D01*
X11576Y4946D01*
Y4946D01*
X11577Y4945D01*
X11578Y4943D01*
X11582Y4940D01*
X11586Y4936D01*
X11592Y4932D01*
X11599Y4929D01*
X11606Y4927D01*
X11611Y4926D01*
X11620D01*
X11623Y4927D01*
X11628Y4928D01*
X11634Y4930D01*
X11640Y4932D01*
X11646Y4936D01*
X11651Y4941D01*
X11652Y4941D01*
X11654Y4943D01*
X11656Y4947D01*
X11659Y4951D01*
X11661Y4956D01*
X11663Y4963D01*
X11665Y4970D01*
X11666Y4978D01*
Y4979D01*
Y4979D01*
Y4982D01*
X11665Y4986D01*
X11664Y4992D01*
X11662Y4998D01*
X11660Y5004D01*
X11656Y5010D01*
X11651Y5016D01*
X11651Y5016D01*
X11649Y5018D01*
X11645Y5021D01*
X11641Y5024D01*
X11635Y5027D01*
X11628Y5031D01*
X11619Y5033D01*
X11609Y5035D01*
X11616Y5074D01*
X11616D01*
X11617Y5074D01*
X11619Y5073D01*
X11622Y5073D01*
X11625Y5072D01*
X11629Y5071D01*
X11638Y5068D01*
X11648Y5063D01*
X11658Y5058D01*
X11667Y5051D01*
X11676Y5042D01*
X11677Y5042D01*
X11677Y5041D01*
X11678Y5039D01*
X11679Y5038D01*
X11681Y5035D01*
X11683Y5032D01*
X11685Y5029D01*
X11687Y5025D01*
X11691Y5016D01*
X11695Y5005D01*
X11697Y4993D01*
X11698Y4986D01*
Y4979D01*
Y4979D01*
Y4978D01*
Y4976D01*
Y4975D01*
X11697Y4970D01*
X11696Y4964D01*
X11695Y4956D01*
X11693Y4948D01*
X11690Y4940D01*
X11686Y4931D01*
Y4931D01*
X11686Y4931D01*
X11684Y4928D01*
X11682Y4924D01*
X11678Y4919D01*
X11674Y4914D01*
X11669Y4908D01*
X11663Y4903D01*
X11656Y4898D01*
X11655Y4898D01*
X11653Y4896D01*
X11649Y4894D01*
X11644Y4892D01*
X11638Y4890D01*
X11631Y4888D01*
X11623Y4887D01*
X11615Y4886D01*
X11611D01*
X11608Y4887D01*
X11603Y4887D01*
X11597Y4889D01*
X11590Y4891D01*
X11584Y4894D01*
X11577Y4898D01*
X11577Y4898D01*
X11575Y4899D01*
X11572Y4902D01*
X11568Y4906D01*
X11564Y4910D01*
X11559Y4916D01*
X11555Y4922D01*
X11551Y4930D01*
Y4930D01*
X11550Y4929D01*
X11550Y4927D01*
X11549Y4926D01*
X11548Y4920D01*
X11545Y4914D01*
X11541Y4907D01*
X11537Y4899D01*
X11531Y4892D01*
X11524Y4886D01*
X11523Y4886D01*
X11520Y4884D01*
X11516Y4881D01*
X11510Y4878D01*
X11502Y4875D01*
X11493Y4873D01*
X11483Y4871D01*
X11472Y4870D01*
X11468D01*
X11465Y4871D01*
X11462Y4871D01*
X11458Y4872D01*
X11453Y4873D01*
X11448Y4874D01*
X11437Y4878D01*
X11431Y4881D01*
X11426Y4883D01*
X11420Y4887D01*
X11414Y4891D01*
X11408Y4896D01*
X11402Y4901D01*
X11402Y4902D01*
X11401Y4903D01*
X11399Y4904D01*
X11398Y4907D01*
X11395Y4909D01*
X11393Y4913D01*
X11390Y4917D01*
X11388Y4922D01*
X11385Y4927D01*
X11382Y4933D01*
X11380Y4939D01*
X11378Y4946D01*
X11376Y4954D01*
X11375Y4961D01*
X11374Y4969D01*
X11373Y4978D01*
Y4978D01*
Y4980D01*
Y4982D01*
X11374Y4985D01*
X11374Y4988D01*
X11375Y4993D01*
X11376Y4997D01*
X11376Y5002D01*
X11379Y5013D01*
X11384Y5025D01*
X11387Y5031D01*
X11390Y5036D01*
X11394Y5042D01*
X11398Y5047D01*
X11398Y5048D01*
X11399Y5049D01*
X11401Y5050D01*
X11403Y5051D01*
X11405Y5054D01*
X11408Y5056D01*
X11411Y5059D01*
X11415Y5061D01*
X11420Y5064D01*
X11425Y5067D01*
X11436Y5072D01*
X11449Y5076D01*
X11455Y5077D01*
X11463Y5078D01*
X11468Y5039D01*
D02*
G37*
G36*
X11696Y4433D02*
X11465Y4350D01*
X11465D01*
X11464Y4349D01*
X11463Y4349D01*
X11461Y4348D01*
X11458Y4348D01*
X11455Y4347D01*
X11449Y4344D01*
X11441Y4342D01*
X11432Y4339D01*
X11414Y4333D01*
X11414D01*
X11415Y4333D01*
X11416Y4333D01*
X11418Y4332D01*
X11423Y4331D01*
X11430Y4328D01*
X11438Y4326D01*
X11447Y4323D01*
X11456Y4320D01*
X11465Y4316D01*
X11696Y4230D01*
Y4187D01*
X11379Y4311D01*
Y4355D01*
X11696Y4478D01*
Y4433D01*
D02*
G37*
G36*
X19263Y5041D02*
X19178D01*
X19178Y5040D01*
X19179Y5040D01*
X19180Y5039D01*
X19181Y5037D01*
X19183Y5035D01*
X19185Y5033D01*
X19187Y5030D01*
X19190Y5027D01*
X19192Y5023D01*
X19194Y5019D01*
X19197Y5010D01*
X19199Y5006D01*
X19200Y5001D01*
X19201Y4995D01*
X19201Y4990D01*
Y4989D01*
Y4989D01*
Y4988D01*
Y4986D01*
X19201Y4983D01*
X19200Y4978D01*
X19200Y4973D01*
X19198Y4967D01*
X19196Y4962D01*
X19194Y4956D01*
X19193Y4956D01*
X19192Y4954D01*
X19191Y4952D01*
X19188Y4949D01*
X19185Y4945D01*
X19182Y4942D01*
X19178Y4939D01*
X19173Y4936D01*
X19172Y4936D01*
X19170Y4935D01*
X19167Y4934D01*
X19163Y4933D01*
X19157Y4932D01*
X19151Y4931D01*
X19143Y4930D01*
X19134Y4930D01*
X19025D01*
Y4959D01*
X19138D01*
X19141Y4960D01*
X19146Y4960D01*
X19151Y4962D01*
X19157Y4963D01*
X19162Y4966D01*
X19166Y4969D01*
X19166Y4969D01*
X19168Y4971D01*
X19169Y4973D01*
X19171Y4976D01*
X19173Y4980D01*
X19174Y4984D01*
X19176Y4990D01*
X19176Y4996D01*
Y4996D01*
Y4998D01*
X19176Y5000D01*
X19175Y5004D01*
X19174Y5007D01*
X19173Y5011D01*
X19172Y5015D01*
X19169Y5020D01*
X19169Y5020D01*
X19168Y5021D01*
X19167Y5024D01*
X19164Y5026D01*
X19162Y5029D01*
X19159Y5031D01*
X19155Y5034D01*
X19151Y5036D01*
X19150Y5036D01*
X19149Y5037D01*
X19146Y5037D01*
X19142Y5038D01*
X19138Y5039D01*
X19132Y5040D01*
X19126Y5040D01*
X19119Y5041D01*
X19025D01*
Y5070D01*
X19263D01*
Y5041D01*
D02*
G37*
G36*
X10784Y5450D02*
X10752Y5441D01*
X10584Y5589D01*
X10632Y5409D01*
X10603Y5401D01*
X10541Y5631D01*
X10572Y5640D01*
X10741Y5491D01*
X10693Y5672D01*
X10722Y5680D01*
X10784Y5450D01*
D02*
G37*
G36*
X19197Y4880D02*
X19240D01*
X19258Y4851D01*
X19197D01*
Y4821D01*
X19175D01*
Y4851D01*
X19069D01*
X19067Y4851D01*
X19061Y4850D01*
X19059Y4850D01*
X19057Y4850D01*
X19056Y4849D01*
X19055Y4848D01*
X19053Y4847D01*
X19052Y4844D01*
X19051Y4844D01*
X19051Y4842D01*
X19050Y4839D01*
X19050Y4834D01*
Y4834D01*
Y4833D01*
Y4832D01*
Y4831D01*
X19050Y4829D01*
Y4827D01*
X19050Y4824D01*
X19051Y4821D01*
X19025Y4818D01*
Y4818D01*
X19024Y4820D01*
X19024Y4822D01*
X19024Y4825D01*
X19023Y4829D01*
X19023Y4832D01*
X19022Y4840D01*
Y4841D01*
Y4843D01*
X19023Y4845D01*
X19023Y4849D01*
X19023Y4853D01*
X19024Y4857D01*
X19025Y4861D01*
X19027Y4865D01*
X19028Y4865D01*
X19028Y4866D01*
X19029Y4867D01*
X19031Y4869D01*
X19033Y4871D01*
X19035Y4873D01*
X19038Y4875D01*
X19041Y4877D01*
X19041D01*
X19042Y4877D01*
X19045Y4878D01*
X19048Y4878D01*
X19053Y4879D01*
X19055Y4879D01*
X19059D01*
X19062Y4880D01*
X19066Y4880D01*
X19175D01*
Y4902D01*
X19197D01*
Y4880D01*
D02*
G37*
G36*
X10898Y5722D02*
X10902Y5722D01*
X10907Y5722D01*
X10913Y5721D01*
X10919Y5719D01*
X10926Y5717D01*
X10932Y5715D01*
X10933Y5714D01*
X10933Y5714D01*
X10934Y5713D01*
X10936Y5713D01*
X10940Y5710D01*
X10945Y5707D01*
X10951Y5702D01*
X10958Y5697D01*
X10964Y5690D01*
X10970Y5683D01*
X10970Y5682D01*
X10971Y5682D01*
X10972Y5681D01*
X10973Y5679D01*
X10974Y5677D01*
X10976Y5674D01*
X10977Y5671D01*
X10979Y5668D01*
X10981Y5665D01*
X10983Y5660D01*
X10987Y5652D01*
X10991Y5642D01*
X10994Y5630D01*
X10994Y5630D01*
X10994Y5629D01*
X10995Y5628D01*
X10995Y5626D01*
X10995Y5624D01*
X10996Y5621D01*
X10998Y5615D01*
X10999Y5607D01*
X11000Y5599D01*
X11000Y5591D01*
X11000Y5582D01*
X11000Y5582D01*
X11000Y5581D01*
X11000Y5580D01*
X11000Y5579D01*
X11000Y5575D01*
X10999Y5569D01*
X10998Y5563D01*
X10997Y5557D01*
X10995Y5551D01*
X10993Y5545D01*
X10993Y5544D01*
X10992Y5542D01*
X10991Y5539D01*
X10989Y5535D01*
X10987Y5531D01*
X10984Y5527D01*
X10982Y5522D01*
X10978Y5518D01*
X10978Y5518D01*
X10977Y5516D01*
X10975Y5514D01*
X10972Y5512D01*
X10968Y5509D01*
X10964Y5506D01*
X10959Y5502D01*
X10954Y5499D01*
X10953Y5499D01*
X10953Y5499D01*
X10952Y5498D01*
X10951Y5498D01*
X10948Y5497D01*
X10944Y5495D01*
X10938Y5493D01*
X10932Y5490D01*
X10925Y5488D01*
X10918Y5486D01*
X10835Y5463D01*
X10773Y5693D01*
X10853Y5715D01*
X10853Y5715D01*
X10854Y5715D01*
X10855Y5715D01*
X10857Y5716D01*
X10859Y5716D01*
X10862Y5717D01*
X10868Y5718D01*
X10875Y5720D01*
X10881Y5721D01*
X10888Y5722D01*
X10894Y5722D01*
X10895Y5722D01*
X10895Y5722D01*
X10896Y5722D01*
X10898Y5722D01*
D02*
G37*
G36*
X10445Y5601D02*
X10445Y5601D01*
X10446Y5601D01*
X10447Y5601D01*
X10449Y5600D01*
X10453Y5599D01*
X10458Y5598D01*
X10464Y5596D01*
X10470Y5594D01*
X10477Y5591D01*
X10483Y5587D01*
X10483Y5586D01*
X10485Y5584D01*
X10488Y5582D01*
X10492Y5578D01*
X10496Y5574D01*
X10501Y5568D01*
X10506Y5561D01*
X10510Y5554D01*
X10485Y5539D01*
X10485Y5539D01*
X10484Y5540D01*
X10484Y5541D01*
X10483Y5542D01*
X10481Y5545D01*
X10479Y5548D01*
X10475Y5552D01*
X10472Y5556D01*
X10468Y5560D01*
X10464Y5563D01*
X10464Y5563D01*
X10463Y5564D01*
X10460Y5566D01*
X10457Y5567D01*
X10453Y5569D01*
X10449Y5571D01*
X10444Y5572D01*
X10438Y5573D01*
X10437Y5573D01*
X10436Y5574D01*
X10432Y5574D01*
X10428Y5574D01*
X10423Y5574D01*
X10417Y5573D01*
X10411Y5572D01*
X10405Y5571D01*
X10405Y5571D01*
X10404Y5571D01*
X10403Y5571D01*
X10401Y5570D01*
X10400Y5569D01*
X10398Y5569D01*
X10393Y5567D01*
X10387Y5565D01*
X10381Y5562D01*
X10376Y5559D01*
X10370Y5555D01*
X10370Y5554D01*
X10368Y5553D01*
X10366Y5551D01*
X10363Y5548D01*
X10360Y5544D01*
X10356Y5541D01*
X10353Y5536D01*
X10350Y5532D01*
X10350Y5531D01*
X10349Y5529D01*
X10348Y5527D01*
X10347Y5523D01*
X10345Y5520D01*
X10344Y5515D01*
X10343Y5510D01*
X10342Y5505D01*
X10342Y5504D01*
X10342Y5504D01*
X10342Y5503D01*
X10341Y5501D01*
X10341Y5499D01*
X10341Y5496D01*
X10341Y5493D01*
X10341Y5490D01*
X10341Y5483D01*
X10342Y5474D01*
X10343Y5466D01*
X10346Y5456D01*
X10346Y5456D01*
X10346Y5455D01*
X10346Y5453D01*
X10347Y5451D01*
X10348Y5449D01*
X10349Y5445D01*
X10350Y5442D01*
X10352Y5439D01*
X10355Y5431D01*
X10359Y5422D01*
X10364Y5415D01*
X10370Y5407D01*
X10370Y5407D01*
X10371Y5406D01*
X10371Y5405D01*
X10373Y5404D01*
X10376Y5401D01*
X10381Y5398D01*
X10386Y5394D01*
X10393Y5390D01*
X10401Y5387D01*
X10409Y5385D01*
X10409Y5385D01*
X10410Y5385D01*
X10411Y5384D01*
X10413Y5384D01*
X10415Y5384D01*
X10417Y5384D01*
X10423Y5383D01*
X10430Y5383D01*
X10438Y5384D01*
X10446Y5385D01*
X10455Y5386D01*
X10455Y5387D01*
X10456Y5387D01*
X10457Y5387D01*
X10458Y5387D01*
X10460Y5388D01*
X10462Y5389D01*
X10467Y5391D01*
X10473Y5393D01*
X10478Y5396D01*
X10485Y5400D01*
X10491Y5404D01*
X10492Y5404D01*
X10492Y5405D01*
X10493Y5405D01*
X10494Y5406D01*
X10497Y5409D01*
X10501Y5412D01*
X10505Y5415D01*
X10509Y5419D01*
X10513Y5424D01*
X10516Y5428D01*
X10504Y5471D01*
X10436Y5453D01*
X10429Y5480D01*
X10527Y5507D01*
X10550Y5421D01*
X10549Y5421D01*
X10549Y5420D01*
X10548Y5419D01*
X10547Y5417D01*
X10545Y5415D01*
X10543Y5413D01*
X10541Y5410D01*
X10538Y5407D01*
X10532Y5401D01*
X10526Y5394D01*
X10518Y5388D01*
X10510Y5382D01*
X10510Y5382D01*
X10510Y5381D01*
X10508Y5381D01*
X10507Y5379D01*
X10505Y5378D01*
X10502Y5376D01*
X10499Y5375D01*
X10497Y5373D01*
X10490Y5370D01*
X10482Y5366D01*
X10473Y5363D01*
X10464Y5360D01*
X10464Y5360D01*
X10462Y5359D01*
X10461Y5359D01*
X10458Y5359D01*
X10455Y5358D01*
X10452Y5357D01*
X10447Y5357D01*
X10443Y5356D01*
X10433Y5355D01*
X10422Y5355D01*
X10410Y5356D01*
X10404Y5356D01*
X10398Y5357D01*
X10398Y5358D01*
X10397Y5358D01*
X10395Y5358D01*
X10393Y5359D01*
X10390Y5360D01*
X10387Y5361D01*
X10380Y5364D01*
X10372Y5368D01*
X10363Y5374D01*
X10354Y5380D01*
X10345Y5388D01*
X10345Y5388D01*
X10344Y5389D01*
X10343Y5390D01*
X10342Y5392D01*
X10340Y5395D01*
X10338Y5398D01*
X10336Y5401D01*
X10333Y5404D01*
X10331Y5408D01*
X10328Y5413D01*
X10326Y5417D01*
X10324Y5423D01*
X10319Y5434D01*
X10315Y5446D01*
X10315Y5446D01*
X10314Y5448D01*
X10314Y5449D01*
X10314Y5452D01*
X10313Y5455D01*
X10312Y5458D01*
X10312Y5462D01*
X10311Y5467D01*
X10311Y5471D01*
X10310Y5477D01*
X10310Y5488D01*
X10310Y5500D01*
X10312Y5512D01*
X10312Y5512D01*
X10312Y5514D01*
X10313Y5515D01*
X10313Y5517D01*
X10314Y5520D01*
X10315Y5524D01*
X10318Y5531D01*
X10322Y5540D01*
X10327Y5549D01*
X10333Y5558D01*
X10337Y5562D01*
X10341Y5566D01*
X10341Y5567D01*
X10342Y5567D01*
X10343Y5568D01*
X10345Y5570D01*
X10347Y5572D01*
X10350Y5574D01*
X10353Y5576D01*
X10356Y5578D01*
X10360Y5581D01*
X10365Y5583D01*
X10369Y5586D01*
X10374Y5588D01*
X10385Y5593D01*
X10391Y5595D01*
X10398Y5597D01*
X10398Y5597D01*
X10399Y5597D01*
X10400Y5598D01*
X10402Y5598D01*
X10404Y5598D01*
X10407Y5599D01*
X10413Y5600D01*
X10420Y5601D01*
X10428Y5601D01*
X10437Y5601D01*
X10445Y5601D01*
D02*
G37*
G36*
X12287Y4489D02*
X12249D01*
Y4593D01*
X11969D01*
Y4635D01*
X12249D01*
Y4740D01*
X12287D01*
Y4489D01*
D02*
G37*
G36*
X19197Y4473D02*
X19164D01*
Y4507D01*
X19197D01*
Y4473D01*
D02*
G37*
G36*
X16209Y4716D02*
X16208D01*
X16206Y4715D01*
X16205D01*
X16200Y4714D01*
X16194Y4713D01*
X16189Y4711D01*
X16182Y4709D01*
X16175Y4706D01*
X16169Y4703D01*
X16169Y4702D01*
X16167Y4701D01*
X16164Y4699D01*
X16161Y4695D01*
X16156Y4691D01*
X16152Y4685D01*
X16148Y4679D01*
X16144Y4671D01*
Y4671D01*
X16144Y4670D01*
X16144Y4669D01*
X16143Y4668D01*
X16142Y4663D01*
X16140Y4657D01*
X16138Y4650D01*
X16137Y4641D01*
X16136Y4632D01*
X16135Y4622D01*
Y4622D01*
Y4621D01*
Y4620D01*
Y4618D01*
X16136Y4613D01*
X16136Y4608D01*
X16137Y4601D01*
X16138Y4594D01*
X16140Y4587D01*
X16142Y4580D01*
X16143Y4579D01*
X16144Y4577D01*
X16145Y4573D01*
X16147Y4569D01*
X16150Y4565D01*
X16154Y4561D01*
X16157Y4556D01*
X16162Y4552D01*
X16162Y4552D01*
X16164Y4551D01*
X16166Y4550D01*
X16170Y4548D01*
X16174Y4546D01*
X16178Y4545D01*
X16183Y4544D01*
X16189Y4543D01*
X16192D01*
X16194Y4544D01*
X16198Y4544D01*
X16202Y4545D01*
X16206Y4547D01*
X16211Y4549D01*
X16215Y4552D01*
X16216Y4553D01*
X16217Y4554D01*
X16219Y4556D01*
X16222Y4559D01*
X16224Y4563D01*
X16228Y4568D01*
X16231Y4574D01*
X16234Y4581D01*
X16234Y4581D01*
X16234Y4584D01*
X16236Y4587D01*
X16236Y4590D01*
X16237Y4593D01*
X16239Y4596D01*
X16239Y4600D01*
X16241Y4605D01*
X16242Y4610D01*
X16244Y4616D01*
X16245Y4622D01*
X16247Y4629D01*
X16249Y4637D01*
Y4638D01*
X16250Y4639D01*
X16250Y4641D01*
X16251Y4644D01*
X16252Y4648D01*
X16253Y4652D01*
X16256Y4661D01*
X16259Y4671D01*
X16262Y4682D01*
X16265Y4691D01*
X16267Y4695D01*
X16269Y4699D01*
Y4699D01*
X16269Y4700D01*
X16271Y4702D01*
X16273Y4707D01*
X16277Y4711D01*
X16281Y4717D01*
X16286Y4722D01*
X16292Y4728D01*
X16299Y4732D01*
X16300Y4733D01*
X16302Y4734D01*
X16306Y4736D01*
X16310Y4738D01*
X16316Y4740D01*
X16323Y4741D01*
X16330Y4743D01*
X16338Y4743D01*
X16342D01*
X16347Y4742D01*
X16353Y4741D01*
X16360Y4740D01*
X16368Y4738D01*
X16375Y4735D01*
X16383Y4730D01*
X16384D01*
X16384Y4730D01*
X16387Y4727D01*
X16390Y4724D01*
X16395Y4720D01*
X16400Y4714D01*
X16406Y4708D01*
X16411Y4699D01*
X16415Y4690D01*
Y4690D01*
X16416Y4689D01*
X16416Y4687D01*
X16417Y4685D01*
X16418Y4683D01*
X16419Y4680D01*
X16421Y4673D01*
X16423Y4664D01*
X16424Y4654D01*
X16426Y4644D01*
X16426Y4632D01*
Y4631D01*
Y4630D01*
Y4628D01*
Y4626D01*
X16426Y4623D01*
Y4619D01*
X16425Y4611D01*
X16424Y4601D01*
X16421Y4591D01*
X16418Y4580D01*
X16415Y4570D01*
Y4569D01*
X16414Y4568D01*
X16413Y4567D01*
X16413Y4565D01*
X16410Y4561D01*
X16406Y4555D01*
X16401Y4548D01*
X16396Y4541D01*
X16389Y4534D01*
X16381Y4529D01*
X16380D01*
X16380Y4528D01*
X16379Y4527D01*
X16377Y4526D01*
X16373Y4524D01*
X16367Y4521D01*
X16359Y4518D01*
X16351Y4516D01*
X16341Y4513D01*
X16331Y4512D01*
X16328Y4553D01*
X16329D01*
X16331Y4553D01*
X16333Y4554D01*
X16338Y4555D01*
X16345Y4557D01*
X16352Y4560D01*
X16360Y4564D01*
X16367Y4569D01*
X16373Y4575D01*
X16373Y4576D01*
X16375Y4579D01*
X16378Y4583D01*
X16381Y4589D01*
X16384Y4597D01*
X16386Y4606D01*
X16388Y4618D01*
X16389Y4630D01*
Y4631D01*
Y4632D01*
Y4634D01*
Y4637D01*
X16388Y4640D01*
X16388Y4643D01*
X16387Y4652D01*
X16385Y4661D01*
X16383Y4670D01*
X16379Y4679D01*
X16377Y4682D01*
X16374Y4686D01*
X16374Y4687D01*
X16372Y4689D01*
X16369Y4691D01*
X16365Y4694D01*
X16360Y4697D01*
X16355Y4700D01*
X16348Y4702D01*
X16341Y4703D01*
X16338D01*
X16335Y4702D01*
X16331Y4702D01*
X16327Y4700D01*
X16322Y4698D01*
X16317Y4695D01*
X16313Y4691D01*
X16312Y4691D01*
X16311Y4688D01*
X16310Y4686D01*
X16309Y4685D01*
X16307Y4682D01*
X16306Y4679D01*
X16304Y4674D01*
X16302Y4670D01*
X16301Y4665D01*
X16298Y4659D01*
X16296Y4652D01*
X16294Y4645D01*
X16292Y4637D01*
X16290Y4628D01*
Y4627D01*
X16289Y4625D01*
X16289Y4623D01*
X16288Y4619D01*
X16287Y4615D01*
X16286Y4610D01*
X16284Y4605D01*
X16283Y4600D01*
X16280Y4588D01*
X16277Y4576D01*
X16275Y4571D01*
X16273Y4566D01*
X16272Y4561D01*
X16270Y4557D01*
Y4557D01*
X16269Y4556D01*
X16268Y4555D01*
X16267Y4553D01*
X16265Y4548D01*
X16261Y4542D01*
X16256Y4535D01*
X16250Y4528D01*
X16244Y4522D01*
X16237Y4516D01*
X16236Y4516D01*
X16234Y4514D01*
X16230Y4512D01*
X16224Y4509D01*
X16218Y4507D01*
X16210Y4505D01*
X16201Y4503D01*
X16192Y4503D01*
X16188D01*
X16183Y4504D01*
X16177Y4505D01*
X16169Y4506D01*
X16161Y4509D01*
X16153Y4512D01*
X16144Y4517D01*
X16144D01*
X16144Y4518D01*
X16141Y4520D01*
X16137Y4523D01*
X16132Y4528D01*
X16127Y4534D01*
X16121Y4541D01*
X16115Y4550D01*
X16110Y4559D01*
Y4560D01*
X16110Y4561D01*
X16109Y4562D01*
X16108Y4564D01*
X16107Y4567D01*
X16106Y4570D01*
X16104Y4577D01*
X16102Y4586D01*
X16099Y4596D01*
X16098Y4608D01*
X16098Y4620D01*
Y4621D01*
Y4622D01*
Y4624D01*
Y4628D01*
X16098Y4631D01*
Y4635D01*
X16099Y4640D01*
X16099Y4646D01*
X16101Y4657D01*
X16103Y4669D01*
X16106Y4681D01*
X16110Y4692D01*
Y4693D01*
X16110Y4694D01*
X16111Y4695D01*
X16112Y4697D01*
X16115Y4702D01*
X16119Y4709D01*
X16125Y4716D01*
X16131Y4724D01*
X16139Y4731D01*
X16148Y4738D01*
X16148D01*
X16149Y4739D01*
X16150Y4740D01*
X16152Y4741D01*
X16155Y4742D01*
X16157Y4743D01*
X16164Y4747D01*
X16173Y4750D01*
X16183Y4752D01*
X16194Y4754D01*
X16205Y4755D01*
X16209Y4716D01*
D02*
G37*
G36*
X16421Y4785D02*
X16383D01*
Y4889D01*
X16103D01*
Y4931D01*
X16383D01*
Y5036D01*
X16421D01*
Y4785D01*
D02*
G37*
G36*
Y5192D02*
Y5191D01*
Y5190D01*
Y5188D01*
Y5185D01*
X16420Y5181D01*
Y5177D01*
X16420Y5167D01*
X16418Y5157D01*
X16417Y5146D01*
X16415Y5136D01*
X16413Y5131D01*
X16412Y5127D01*
Y5127D01*
X16412Y5126D01*
X16410Y5123D01*
X16408Y5119D01*
X16405Y5114D01*
X16401Y5109D01*
X16396Y5103D01*
X16389Y5097D01*
X16382Y5092D01*
X16381D01*
X16381Y5091D01*
X16378Y5089D01*
X16373Y5088D01*
X16368Y5085D01*
X16361Y5083D01*
X16352Y5080D01*
X16344Y5079D01*
X16334Y5078D01*
X16331D01*
X16329Y5079D01*
X16325D01*
X16322Y5079D01*
X16314Y5081D01*
X16305Y5084D01*
X16295Y5088D01*
X16286Y5093D01*
X16281Y5097D01*
X16277Y5100D01*
X16276Y5101D01*
X16276Y5101D01*
X16274Y5103D01*
X16273Y5105D01*
X16271Y5107D01*
X16269Y5110D01*
X16267Y5113D01*
X16264Y5117D01*
X16262Y5122D01*
X16260Y5127D01*
X16257Y5132D01*
X16255Y5138D01*
X16253Y5145D01*
X16250Y5152D01*
X16249Y5160D01*
X16248Y5168D01*
X16247Y5167D01*
X16246Y5165D01*
X16245Y5162D01*
X16243Y5159D01*
X16238Y5150D01*
X16234Y5146D01*
X16232Y5143D01*
X16231Y5142D01*
X16228Y5139D01*
X16225Y5136D01*
X16220Y5131D01*
X16214Y5126D01*
X16207Y5120D01*
X16199Y5114D01*
X16189Y5108D01*
X16103Y5053D01*
Y5105D01*
X16169Y5147D01*
X16170D01*
X16171Y5148D01*
X16172Y5149D01*
X16174Y5150D01*
X16179Y5154D01*
X16185Y5158D01*
X16192Y5163D01*
X16200Y5168D01*
X16206Y5173D01*
X16213Y5178D01*
X16213Y5178D01*
X16215Y5179D01*
X16218Y5182D01*
X16221Y5185D01*
X16228Y5192D01*
X16231Y5195D01*
X16234Y5199D01*
X16234Y5200D01*
X16235Y5200D01*
X16236Y5202D01*
X16237Y5205D01*
X16239Y5208D01*
X16240Y5211D01*
X16242Y5218D01*
Y5219D01*
X16243Y5220D01*
Y5222D01*
X16243Y5224D01*
X16244Y5227D01*
Y5231D01*
X16244Y5236D01*
Y5241D01*
Y5290D01*
X16103D01*
Y5332D01*
X16421D01*
Y5192D01*
D02*
G37*
G36*
X19197Y4673D02*
X19175D01*
X19175Y4673D01*
X19177Y4672D01*
X19179Y4670D01*
X19182Y4667D01*
X19185Y4664D01*
X19189Y4661D01*
X19192Y4657D01*
X19194Y4652D01*
X19195Y4652D01*
X19195Y4650D01*
X19196Y4648D01*
X19198Y4644D01*
X19199Y4640D01*
X19200Y4635D01*
X19201Y4630D01*
X19201Y4623D01*
Y4623D01*
Y4622D01*
Y4621D01*
Y4620D01*
X19201Y4618D01*
X19201Y4616D01*
X19200Y4610D01*
X19199Y4604D01*
X19196Y4598D01*
X19193Y4591D01*
X19190Y4585D01*
Y4584D01*
X19189Y4584D01*
X19188Y4582D01*
X19185Y4579D01*
X19181Y4575D01*
X19177Y4571D01*
X19171Y4567D01*
X19165Y4563D01*
X19158Y4559D01*
X19157D01*
X19157Y4559D01*
X19156Y4558D01*
X19154Y4558D01*
X19152Y4557D01*
X19150Y4556D01*
X19144Y4555D01*
X19137Y4553D01*
X19130Y4552D01*
X19121Y4551D01*
X19112Y4550D01*
X19108D01*
X19105Y4551D01*
X19103D01*
X19096Y4551D01*
X19089Y4553D01*
X19081Y4554D01*
X19073Y4557D01*
X19064Y4560D01*
X19064D01*
X19063Y4560D01*
X19062Y4561D01*
X19061Y4562D01*
X19057Y4564D01*
X19052Y4567D01*
X19047Y4571D01*
X19042Y4576D01*
X19037Y4581D01*
X19032Y4588D01*
Y4588D01*
X19032Y4588D01*
X19031Y4589D01*
X19030Y4591D01*
X19029Y4594D01*
X19027Y4599D01*
X19024Y4605D01*
X19023Y4611D01*
X19021Y4618D01*
X19021Y4626D01*
Y4626D01*
Y4628D01*
X19021Y4631D01*
X19022Y4634D01*
X19022Y4638D01*
X19023Y4643D01*
X19025Y4647D01*
X19027Y4652D01*
X19027Y4652D01*
X19028Y4654D01*
X19029Y4656D01*
X19031Y4659D01*
X19033Y4661D01*
X19036Y4665D01*
X19039Y4668D01*
X19043Y4671D01*
X18959D01*
Y4700D01*
X19197D01*
Y4673D01*
D02*
G37*
G36*
X12075Y4987D02*
X12074D01*
X12073Y4987D01*
X12071D01*
X12067Y4986D01*
X12061Y4984D01*
X12055Y4982D01*
X12048Y4981D01*
X12041Y4977D01*
X12035Y4974D01*
X12035Y4974D01*
X12033Y4972D01*
X12030Y4970D01*
X12027Y4966D01*
X12023Y4962D01*
X12018Y4957D01*
X12014Y4950D01*
X12011Y4943D01*
Y4942D01*
X12010Y4942D01*
X12010Y4940D01*
X12009Y4939D01*
X12008Y4934D01*
X12006Y4928D01*
X12004Y4921D01*
X12003Y4913D01*
X12002Y4904D01*
X12001Y4893D01*
Y4893D01*
Y4892D01*
Y4891D01*
Y4889D01*
X12002Y4885D01*
X12002Y4879D01*
X12003Y4873D01*
X12004Y4865D01*
X12006Y4858D01*
X12008Y4851D01*
X12009Y4850D01*
X12010Y4848D01*
X12012Y4845D01*
X12013Y4841D01*
X12017Y4836D01*
X12020Y4832D01*
X12023Y4827D01*
X12028Y4824D01*
X12028Y4823D01*
X12030Y4822D01*
X12033Y4821D01*
X12036Y4819D01*
X12040Y4817D01*
X12045Y4816D01*
X12050Y4815D01*
X12055Y4814D01*
X12058D01*
X12061Y4815D01*
X12064Y4815D01*
X12068Y4817D01*
X12073Y4818D01*
X12077Y4820D01*
X12081Y4824D01*
X12082Y4824D01*
X12083Y4825D01*
X12085Y4827D01*
X12088Y4831D01*
X12090Y4834D01*
X12094Y4839D01*
X12097Y4845D01*
X12100Y4852D01*
X12100Y4853D01*
X12101Y4855D01*
X12102Y4859D01*
X12102Y4861D01*
X12103Y4864D01*
X12105Y4867D01*
X12106Y4871D01*
X12107Y4876D01*
X12108Y4881D01*
X12110Y4887D01*
X12112Y4893D01*
X12113Y4901D01*
X12115Y4909D01*
Y4909D01*
X12116Y4910D01*
X12116Y4913D01*
X12117Y4915D01*
X12118Y4919D01*
X12119Y4923D01*
X12122Y4932D01*
X12125Y4943D01*
X12128Y4953D01*
X12131Y4962D01*
X12133Y4966D01*
X12135Y4970D01*
Y4971D01*
X12135Y4971D01*
X12137Y4974D01*
X12140Y4978D01*
X12143Y4982D01*
X12147Y4988D01*
X12152Y4993D01*
X12158Y4999D01*
X12165Y5004D01*
X12166Y5004D01*
X12168Y5005D01*
X12172Y5007D01*
X12176Y5009D01*
X12182Y5011D01*
X12189Y5013D01*
X12197Y5014D01*
X12204Y5015D01*
X12208D01*
X12213Y5014D01*
X12219Y5013D01*
X12226Y5011D01*
X12234Y5009D01*
X12241Y5006D01*
X12249Y5001D01*
X12250D01*
X12250Y5001D01*
X12253Y4999D01*
X12257Y4995D01*
X12261Y4991D01*
X12266Y4986D01*
X12272Y4979D01*
X12277Y4971D01*
X12281Y4961D01*
Y4961D01*
X12282Y4960D01*
X12282Y4959D01*
X12283Y4957D01*
X12284Y4954D01*
X12285Y4951D01*
X12287Y4944D01*
X12289Y4936D01*
X12291Y4926D01*
X12292Y4915D01*
X12292Y4903D01*
Y4903D01*
Y4902D01*
Y4899D01*
Y4897D01*
X12292Y4894D01*
Y4891D01*
X12291Y4882D01*
X12290Y4872D01*
X12287Y4862D01*
X12285Y4851D01*
X12281Y4841D01*
Y4841D01*
X12280Y4840D01*
X12280Y4838D01*
X12279Y4836D01*
X12276Y4832D01*
X12272Y4826D01*
X12268Y4819D01*
X12262Y4812D01*
X12255Y4806D01*
X12247Y4800D01*
X12247D01*
X12246Y4799D01*
X12245Y4798D01*
X12243Y4797D01*
X12239Y4795D01*
X12233Y4792D01*
X12225Y4789D01*
X12217Y4787D01*
X12208Y4785D01*
X12197Y4784D01*
X12194Y4824D01*
X12196D01*
X12197Y4825D01*
X12199Y4825D01*
X12204Y4826D01*
X12211Y4828D01*
X12219Y4831D01*
X12226Y4835D01*
X12233Y4840D01*
X12239Y4847D01*
X12240Y4848D01*
X12241Y4850D01*
X12244Y4854D01*
X12247Y4860D01*
X12250Y4868D01*
X12252Y4877D01*
X12254Y4889D01*
X12255Y4902D01*
Y4902D01*
Y4904D01*
Y4905D01*
Y4908D01*
X12254Y4911D01*
X12254Y4915D01*
X12253Y4923D01*
X12251Y4932D01*
X12249Y4941D01*
X12245Y4950D01*
X12243Y4954D01*
X12241Y4957D01*
X12240Y4958D01*
X12238Y4960D01*
X12235Y4963D01*
X12231Y4965D01*
X12226Y4969D01*
X12221Y4971D01*
X12214Y4973D01*
X12207Y4974D01*
X12204D01*
X12201Y4974D01*
X12197Y4973D01*
X12193Y4971D01*
X12188Y4969D01*
X12184Y4966D01*
X12179Y4962D01*
X12179Y4962D01*
X12177Y4960D01*
X12176Y4958D01*
X12175Y4956D01*
X12174Y4953D01*
X12172Y4950D01*
X12170Y4946D01*
X12169Y4941D01*
X12167Y4936D01*
X12164Y4930D01*
X12163Y4924D01*
X12160Y4916D01*
X12158Y4908D01*
X12156Y4899D01*
Y4898D01*
X12156Y4897D01*
X12155Y4894D01*
X12154Y4891D01*
X12153Y4887D01*
X12152Y4881D01*
X12151Y4876D01*
X12149Y4871D01*
X12146Y4859D01*
X12143Y4848D01*
X12141Y4842D01*
X12139Y4837D01*
X12138Y4832D01*
X12136Y4829D01*
Y4828D01*
X12135Y4827D01*
X12135Y4826D01*
X12134Y4824D01*
X12131Y4819D01*
X12127Y4813D01*
X12122Y4806D01*
X12117Y4799D01*
X12110Y4793D01*
X12103Y4787D01*
X12102Y4787D01*
X12100Y4785D01*
X12096Y4783D01*
X12090Y4780D01*
X12084Y4778D01*
X12076Y4776D01*
X12068Y4775D01*
X12058Y4774D01*
X12054D01*
X12049Y4775D01*
X12043Y4776D01*
X12035Y4778D01*
X12028Y4780D01*
X12019Y4784D01*
X12011Y4789D01*
X12010D01*
X12010Y4789D01*
X12007Y4791D01*
X12003Y4795D01*
X11998Y4799D01*
X11993Y4805D01*
X11987Y4813D01*
X11981Y4821D01*
X11976Y4831D01*
Y4831D01*
X11976Y4832D01*
X11975Y4833D01*
X11974Y4835D01*
X11973Y4838D01*
X11972Y4841D01*
X11970Y4848D01*
X11968Y4857D01*
X11966Y4868D01*
X11964Y4879D01*
X11964Y4892D01*
Y4892D01*
Y4893D01*
Y4896D01*
Y4899D01*
X11964Y4903D01*
Y4907D01*
X11965Y4911D01*
X11965Y4917D01*
X11967Y4928D01*
X11969Y4940D01*
X11972Y4952D01*
X11976Y4964D01*
Y4964D01*
X11977Y4965D01*
X11978Y4966D01*
X11978Y4968D01*
X11981Y4974D01*
X11985Y4980D01*
X11991Y4988D01*
X11997Y4995D01*
X12005Y5003D01*
X12014Y5010D01*
X12014D01*
X12015Y5010D01*
X12017Y5011D01*
X12018Y5012D01*
X12021Y5013D01*
X12023Y5015D01*
X12030Y5018D01*
X12039Y5021D01*
X12049Y5024D01*
X12060Y5026D01*
X12071Y5027D01*
X12075Y4987D01*
D02*
G37*
G36*
X16799Y4703D02*
X16798D01*
X16797Y4702D01*
X16795D01*
X16791Y4702D01*
X16785Y4700D01*
X16779Y4698D01*
X16772Y4696D01*
X16766Y4693D01*
X16760Y4690D01*
X16759Y4690D01*
X16758Y4688D01*
X16754Y4686D01*
X16751Y4682D01*
X16747Y4678D01*
X16743Y4673D01*
X16739Y4666D01*
X16735Y4658D01*
Y4658D01*
X16735Y4657D01*
X16734Y4656D01*
X16734Y4655D01*
X16732Y4650D01*
X16730Y4644D01*
X16729Y4637D01*
X16727Y4629D01*
X16726Y4619D01*
X16726Y4609D01*
Y4609D01*
Y4608D01*
Y4607D01*
Y4605D01*
X16726Y4601D01*
X16727Y4595D01*
X16728Y4589D01*
X16729Y4581D01*
X16730Y4574D01*
X16733Y4567D01*
X16733Y4566D01*
X16734Y4564D01*
X16736Y4561D01*
X16738Y4556D01*
X16741Y4552D01*
X16744Y4548D01*
X16748Y4543D01*
X16752Y4540D01*
X16753Y4539D01*
X16755Y4538D01*
X16757Y4537D01*
X16761Y4535D01*
X16764Y4533D01*
X16769Y4532D01*
X16774Y4531D01*
X16780Y4530D01*
X16782D01*
X16785Y4531D01*
X16789Y4531D01*
X16792Y4533D01*
X16797Y4534D01*
X16802Y4536D01*
X16806Y4540D01*
X16806Y4540D01*
X16808Y4541D01*
X16809Y4543D01*
X16812Y4546D01*
X16815Y4550D01*
X16818Y4555D01*
X16821Y4561D01*
X16824Y4568D01*
X16825Y4568D01*
X16825Y4571D01*
X16826Y4574D01*
X16827Y4577D01*
X16828Y4580D01*
X16829Y4583D01*
X16830Y4587D01*
X16831Y4592D01*
X16833Y4597D01*
X16834Y4603D01*
X16836Y4609D01*
X16838Y4617D01*
X16840Y4624D01*
Y4625D01*
X16840Y4626D01*
X16841Y4629D01*
X16841Y4631D01*
X16842Y4635D01*
X16843Y4639D01*
X16846Y4648D01*
X16849Y4658D01*
X16853Y4669D01*
X16856Y4678D01*
X16858Y4682D01*
X16859Y4686D01*
Y4686D01*
X16860Y4687D01*
X16862Y4690D01*
X16864Y4694D01*
X16868Y4698D01*
X16872Y4704D01*
X16877Y4709D01*
X16883Y4715D01*
X16889Y4719D01*
X16890Y4720D01*
X16892Y4721D01*
X16896Y4723D01*
X16901Y4725D01*
X16907Y4727D01*
X16914Y4729D01*
X16921Y4730D01*
X16929Y4730D01*
X16933D01*
X16937Y4730D01*
X16943Y4729D01*
X16950Y4727D01*
X16958Y4725D01*
X16966Y4722D01*
X16974Y4717D01*
X16974D01*
X16975Y4717D01*
X16977Y4714D01*
X16981Y4711D01*
X16986Y4707D01*
X16991Y4702D01*
X16996Y4695D01*
X17001Y4686D01*
X17006Y4677D01*
Y4677D01*
X17006Y4676D01*
X17007Y4674D01*
X17008Y4673D01*
X17009Y4670D01*
X17009Y4667D01*
X17011Y4660D01*
X17013Y4652D01*
X17015Y4641D01*
X17016Y4631D01*
X17017Y4619D01*
Y4618D01*
Y4618D01*
Y4615D01*
Y4613D01*
X17016Y4610D01*
Y4607D01*
X17015Y4598D01*
X17014Y4588D01*
X17012Y4578D01*
X17009Y4567D01*
X17005Y4557D01*
Y4556D01*
X17005Y4556D01*
X17004Y4554D01*
X17003Y4552D01*
X17001Y4548D01*
X16997Y4542D01*
X16992Y4535D01*
X16986Y4528D01*
X16979Y4522D01*
X16971Y4516D01*
X16971D01*
X16970Y4515D01*
X16969Y4514D01*
X16968Y4513D01*
X16963Y4511D01*
X16957Y4508D01*
X16950Y4505D01*
X16941Y4503D01*
X16932Y4500D01*
X16922Y4500D01*
X16919Y4540D01*
X16920D01*
X16921Y4540D01*
X16924Y4541D01*
X16929Y4542D01*
X16936Y4544D01*
X16943Y4547D01*
X16950Y4551D01*
X16957Y4556D01*
X16964Y4562D01*
X16964Y4563D01*
X16966Y4566D01*
X16969Y4570D01*
X16971Y4576D01*
X16974Y4584D01*
X16977Y4593D01*
X16979Y4605D01*
X16979Y4618D01*
Y4618D01*
Y4619D01*
Y4621D01*
Y4624D01*
X16979Y4627D01*
X16978Y4630D01*
X16977Y4639D01*
X16976Y4648D01*
X16973Y4657D01*
X16970Y4666D01*
X16967Y4669D01*
X16965Y4673D01*
X16965Y4674D01*
X16963Y4676D01*
X16959Y4679D01*
X16956Y4681D01*
X16951Y4685D01*
X16945Y4687D01*
X16939Y4689D01*
X16931Y4690D01*
X16929D01*
X16925Y4690D01*
X16922Y4689D01*
X16917Y4687D01*
X16913Y4685D01*
X16908Y4682D01*
X16903Y4678D01*
X16903Y4678D01*
X16902Y4675D01*
X16900Y4674D01*
X16899Y4672D01*
X16898Y4669D01*
X16896Y4666D01*
X16895Y4662D01*
X16893Y4657D01*
X16891Y4652D01*
X16889Y4646D01*
X16887Y4640D01*
X16885Y4632D01*
X16883Y4624D01*
X16881Y4615D01*
Y4614D01*
X16880Y4612D01*
X16880Y4610D01*
X16879Y4607D01*
X16878Y4602D01*
X16876Y4597D01*
X16875Y4592D01*
X16874Y4587D01*
X16870Y4575D01*
X16867Y4563D01*
X16865Y4558D01*
X16864Y4553D01*
X16862Y4548D01*
X16860Y4545D01*
Y4544D01*
X16860Y4543D01*
X16859Y4542D01*
X16858Y4540D01*
X16855Y4535D01*
X16852Y4529D01*
X16847Y4522D01*
X16841Y4515D01*
X16835Y4509D01*
X16828Y4503D01*
X16827Y4503D01*
X16825Y4501D01*
X16820Y4499D01*
X16815Y4496D01*
X16808Y4494D01*
X16801Y4492D01*
X16792Y4490D01*
X16783Y4490D01*
X16779D01*
X16774Y4491D01*
X16767Y4492D01*
X16760Y4494D01*
X16752Y4496D01*
X16744Y4500D01*
X16735Y4505D01*
X16735D01*
X16734Y4505D01*
X16731Y4507D01*
X16727Y4511D01*
X16723Y4515D01*
X16717Y4521D01*
X16711Y4529D01*
X16706Y4537D01*
X16701Y4546D01*
Y4547D01*
X16700Y4548D01*
X16700Y4549D01*
X16699Y4551D01*
X16698Y4554D01*
X16696Y4557D01*
X16695Y4564D01*
X16692Y4573D01*
X16690Y4584D01*
X16689Y4595D01*
X16688Y4607D01*
Y4608D01*
Y4609D01*
Y4612D01*
Y4615D01*
X16689Y4618D01*
Y4623D01*
X16689Y4627D01*
X16690Y4633D01*
X16691Y4644D01*
X16693Y4656D01*
X16696Y4668D01*
X16701Y4680D01*
Y4680D01*
X16701Y4681D01*
X16702Y4682D01*
X16703Y4684D01*
X16706Y4690D01*
X16710Y4696D01*
X16715Y4703D01*
X16722Y4711D01*
X16730Y4719D01*
X16738Y4725D01*
X16739D01*
X16740Y4726D01*
X16741Y4727D01*
X16743Y4728D01*
X16745Y4729D01*
X16748Y4730D01*
X16755Y4734D01*
X16763Y4737D01*
X16773Y4740D01*
X16784Y4741D01*
X16796Y4742D01*
X16799Y4703D01*
D02*
G37*
G36*
X19058Y4473D02*
X19025D01*
Y4507D01*
X19058D01*
Y4473D01*
D02*
G37*
G36*
X12287Y5192D02*
Y5191D01*
Y5190D01*
Y5188D01*
Y5185D01*
X12286Y5181D01*
Y5177D01*
X12286Y5167D01*
X12285Y5157D01*
X12283Y5146D01*
X12281Y5136D01*
X12280Y5131D01*
X12278Y5127D01*
Y5127D01*
X12278Y5126D01*
X12276Y5123D01*
X12275Y5119D01*
X12271Y5114D01*
X12267Y5109D01*
X12262Y5103D01*
X12255Y5097D01*
X12248Y5092D01*
X12247D01*
X12247Y5091D01*
X12244Y5089D01*
X12240Y5088D01*
X12234Y5085D01*
X12227Y5083D01*
X12219Y5080D01*
X12210Y5079D01*
X12200Y5078D01*
X12197D01*
X12195Y5079D01*
X12191D01*
X12188Y5079D01*
X12180Y5081D01*
X12171Y5084D01*
X12162Y5088D01*
X12152Y5093D01*
X12147Y5097D01*
X12143Y5100D01*
X12142Y5101D01*
X12142Y5101D01*
X12141Y5103D01*
X12139Y5105D01*
X12137Y5107D01*
X12135Y5110D01*
X12133Y5113D01*
X12130Y5117D01*
X12128Y5122D01*
X12126Y5127D01*
X12123Y5132D01*
X12121Y5138D01*
X12119Y5145D01*
X12117Y5152D01*
X12115Y5160D01*
X12114Y5168D01*
X12113Y5167D01*
X12112Y5165D01*
X12111Y5162D01*
X12109Y5159D01*
X12104Y5150D01*
X12101Y5146D01*
X12098Y5143D01*
X12097Y5142D01*
X12095Y5139D01*
X12091Y5136D01*
X12086Y5131D01*
X12080Y5126D01*
X12073Y5120D01*
X12065Y5114D01*
X12056Y5108D01*
X11969Y5053D01*
Y5105D01*
X12035Y5147D01*
X12036D01*
X12037Y5148D01*
X12038Y5149D01*
X12040Y5150D01*
X12045Y5154D01*
X12051Y5158D01*
X12058Y5163D01*
X12066Y5168D01*
X12073Y5173D01*
X12079Y5178D01*
X12079Y5178D01*
X12081Y5179D01*
X12084Y5182D01*
X12087Y5185D01*
X12094Y5192D01*
X12097Y5195D01*
X12100Y5199D01*
X12101Y5200D01*
X12101Y5200D01*
X12102Y5202D01*
X12103Y5205D01*
X12105Y5208D01*
X12106Y5211D01*
X12108Y5218D01*
Y5219D01*
X12109Y5220D01*
Y5222D01*
X12109Y5224D01*
X12110Y5227D01*
Y5231D01*
X12110Y5236D01*
Y5241D01*
Y5290D01*
X11969D01*
Y5332D01*
X12287D01*
Y5192D01*
D02*
G37*
%LPC*%
G36*
X17438Y1043D02*
X17433D01*
X17428Y1043D01*
X17424Y1042D01*
X17418Y1041D01*
X17412Y1040D01*
X17405Y1039D01*
X17391Y1036D01*
X17383Y1033D01*
X17376Y1030D01*
X17368Y1027D01*
X17361Y1022D01*
X17354Y1018D01*
X17348Y1012D01*
X17347Y1012D01*
X17346Y1011D01*
X17344Y1009D01*
X17343Y1007D01*
X17340Y1004D01*
X17337Y1000D01*
X17334Y996D01*
X17331Y991D01*
X17328Y986D01*
X17325Y980D01*
X17322Y973D01*
X17320Y966D01*
X17318Y959D01*
X17316Y952D01*
X17315Y944D01*
X17315Y935D01*
Y934D01*
Y932D01*
X17315Y930D01*
Y927D01*
X17315Y923D01*
X17316Y918D01*
X17317Y913D01*
X17319Y907D01*
X17321Y901D01*
X17323Y895D01*
X17325Y888D01*
X17328Y882D01*
X17332Y875D01*
X17337Y869D01*
X17342Y862D01*
X17348Y856D01*
X17348Y856D01*
X17349Y855D01*
X17351Y854D01*
X17354Y851D01*
X17357Y849D01*
X17361Y847D01*
X17366Y844D01*
X17372Y841D01*
X17378Y838D01*
X17386Y835D01*
X17393Y833D01*
X17402Y830D01*
X17411Y828D01*
X17421Y827D01*
X17432Y826D01*
X17443Y826D01*
X17449D01*
X17452Y826D01*
X17456D01*
X17461Y826D01*
X17466Y827D01*
X17476Y829D01*
X17487Y831D01*
X17499Y834D01*
X17510Y839D01*
X17511D01*
X17511Y839D01*
X17513Y840D01*
X17515Y841D01*
X17520Y844D01*
X17527Y848D01*
X17534Y854D01*
X17541Y861D01*
X17549Y869D01*
X17555Y877D01*
Y878D01*
X17556Y878D01*
X17556Y880D01*
X17558Y882D01*
X17559Y884D01*
X17560Y887D01*
X17563Y894D01*
X17566Y902D01*
X17569Y912D01*
X17571Y923D01*
X17571Y934D01*
Y935D01*
Y936D01*
Y938D01*
X17571Y942D01*
X17570Y946D01*
X17569Y950D01*
X17568Y955D01*
X17567Y961D01*
X17564Y972D01*
X17561Y979D01*
X17558Y985D01*
X17555Y992D01*
X17550Y999D01*
X17546Y1005D01*
X17540Y1011D01*
X17540Y1011D01*
X17539Y1012D01*
X17537Y1014D01*
X17534Y1016D01*
X17531Y1018D01*
X17527Y1021D01*
X17522Y1024D01*
X17516Y1027D01*
X17510Y1030D01*
X17502Y1033D01*
X17494Y1036D01*
X17484Y1038D01*
X17474Y1040D01*
X17463Y1042D01*
X17451Y1043D01*
X17438Y1043D01*
D02*
G37*
G36*
X19116Y4673D02*
X19107D01*
X19105Y4673D01*
X19102D01*
X19099Y4673D01*
X19092Y4672D01*
X19083Y4670D01*
X19075Y4668D01*
X19067Y4664D01*
X19064Y4662D01*
X19061Y4660D01*
X19060Y4659D01*
X19059Y4658D01*
X19056Y4655D01*
X19053Y4651D01*
X19050Y4646D01*
X19048Y4641D01*
X19046Y4635D01*
X19045Y4631D01*
X19045Y4628D01*
Y4627D01*
Y4627D01*
Y4626D01*
X19045Y4624D01*
X19046Y4621D01*
X19047Y4616D01*
X19049Y4611D01*
X19052Y4605D01*
X19056Y4600D01*
X19059Y4597D01*
X19061Y4594D01*
X19062D01*
X19062Y4594D01*
X19063Y4593D01*
X19064Y4592D01*
X19066Y4591D01*
X19068Y4590D01*
X19071Y4588D01*
X19074Y4587D01*
X19077Y4586D01*
X19081Y4585D01*
X19085Y4583D01*
X19090Y4582D01*
X19095Y4582D01*
X19100Y4581D01*
X19106Y4580D01*
X19116D01*
X19118Y4580D01*
X19121D01*
X19124Y4581D01*
X19131Y4582D01*
X19139Y4584D01*
X19147Y4586D01*
X19155Y4589D01*
X19159Y4591D01*
X19162Y4594D01*
X19162D01*
X19162Y4595D01*
X19164Y4596D01*
X19167Y4599D01*
X19170Y4603D01*
X19173Y4608D01*
X19176Y4613D01*
X19178Y4619D01*
X19178Y4623D01*
X19178Y4626D01*
Y4627D01*
Y4627D01*
Y4628D01*
X19178Y4629D01*
X19177Y4633D01*
X19176Y4637D01*
X19174Y4642D01*
X19171Y4648D01*
X19169Y4651D01*
X19167Y4654D01*
X19164Y4657D01*
X19161Y4659D01*
X19160D01*
X19160Y4660D01*
X19159Y4661D01*
X19158Y4661D01*
X19156Y4662D01*
X19153Y4664D01*
X19151Y4665D01*
X19148Y4666D01*
X19145Y4668D01*
X19141Y4669D01*
X19137Y4670D01*
X19132Y4671D01*
X19127Y4672D01*
X19122Y4673D01*
X19116Y4673D01*
D02*
G37*
G36*
X18029Y1043D02*
X18023D01*
X18019Y1043D01*
X18014Y1042D01*
X18009Y1041D01*
X18002Y1040D01*
X17996Y1039D01*
X17981Y1036D01*
X17974Y1033D01*
X17966Y1030D01*
X17959Y1027D01*
X17951Y1022D01*
X17945Y1018D01*
X17938Y1012D01*
X17938Y1012D01*
X17937Y1011D01*
X17935Y1009D01*
X17933Y1007D01*
X17930Y1004D01*
X17928Y1000D01*
X17925Y996D01*
X17922Y991D01*
X17918Y986D01*
X17916Y980D01*
X17913Y973D01*
X17910Y966D01*
X17908Y959D01*
X17906Y952D01*
X17906Y944D01*
X17905Y935D01*
Y934D01*
Y932D01*
X17906Y930D01*
Y927D01*
X17906Y923D01*
X17907Y918D01*
X17908Y913D01*
X17909Y907D01*
X17911Y901D01*
X17913Y895D01*
X17916Y888D01*
X17919Y882D01*
X17923Y875D01*
X17927Y869D01*
X17932Y862D01*
X17938Y856D01*
X17939Y856D01*
X17940Y855D01*
X17942Y854D01*
X17945Y851D01*
X17948Y849D01*
X17952Y847D01*
X17957Y844D01*
X17962Y841D01*
X17969Y838D01*
X17976Y835D01*
X17984Y833D01*
X17992Y830D01*
X18001Y828D01*
X18012Y827D01*
X18022Y826D01*
X18033Y826D01*
X18040D01*
X18043Y826D01*
X18047D01*
X18051Y826D01*
X18056Y827D01*
X18067Y829D01*
X18078Y831D01*
X18090Y834D01*
X18101Y839D01*
X18101D01*
X18102Y839D01*
X18103Y840D01*
X18105Y841D01*
X18111Y844D01*
X18117Y848D01*
X18125Y854D01*
X18132Y861D01*
X18139Y869D01*
X18146Y877D01*
Y878D01*
X18147Y878D01*
X18147Y880D01*
X18148Y882D01*
X18149Y884D01*
X18151Y887D01*
X18154Y894D01*
X18157Y902D01*
X18159Y912D01*
X18161Y923D01*
X18162Y934D01*
Y935D01*
Y936D01*
Y938D01*
X18161Y942D01*
X18161Y946D01*
X18160Y950D01*
X18159Y955D01*
X18158Y961D01*
X18154Y972D01*
X18152Y979D01*
X18149Y985D01*
X18145Y992D01*
X18141Y999D01*
X18136Y1005D01*
X18131Y1011D01*
X18130Y1011D01*
X18130Y1012D01*
X18128Y1014D01*
X18125Y1016D01*
X18122Y1018D01*
X18118Y1021D01*
X18113Y1024D01*
X18107Y1027D01*
X18100Y1030D01*
X18092Y1033D01*
X18084Y1036D01*
X18075Y1038D01*
X18065Y1040D01*
X18053Y1042D01*
X18041Y1043D01*
X18029Y1043D01*
D02*
G37*
G36*
X20017Y2047D02*
X20001D01*
X19989Y2046D01*
X19976D01*
X19960Y2045D01*
X19943Y2044D01*
X19925Y2042D01*
X19886Y2037D01*
X19867Y2034D01*
X19849Y2030D01*
X19831Y2026D01*
X19815Y2020D01*
X19801Y2014D01*
X19789Y2007D01*
X19788D01*
X19787Y2005D01*
X19780Y2000D01*
X19771Y1991D01*
X19761Y1980D01*
X19751Y1965D01*
X19742Y1948D01*
X19735Y1929D01*
X19734Y1919D01*
X19733Y1908D01*
Y1907D01*
Y1905D01*
Y1902D01*
X19734Y1898D01*
X19736Y1888D01*
X19740Y1874D01*
X19747Y1859D01*
X19757Y1842D01*
X19763Y1833D01*
X19771Y1825D01*
X19779Y1817D01*
X19789Y1809D01*
X19790D01*
X19792Y1807D01*
X19795Y1805D01*
X19800Y1803D01*
X19807Y1799D01*
X19816Y1796D01*
X19826Y1792D01*
X19838Y1788D01*
X19854Y1785D01*
X19870Y1781D01*
X19889Y1777D01*
X19909Y1774D01*
X19933Y1772D01*
X19958Y1770D01*
X19986Y1768D01*
X20033D01*
X20045Y1769D01*
X20058D01*
X20074Y1770D01*
X20091Y1771D01*
X20111Y1773D01*
X20149Y1778D01*
X20168Y1781D01*
X20186Y1785D01*
X20203Y1789D01*
X20219Y1795D01*
X20233Y1801D01*
X20245Y1808D01*
X20246D01*
X20247Y1810D01*
X20250Y1812D01*
X20254Y1815D01*
X20263Y1824D01*
X20274Y1836D01*
X20284Y1851D01*
X20293Y1868D01*
X20297Y1877D01*
X20300Y1887D01*
X20301Y1898D01*
X20302Y1909D01*
Y1910D01*
Y1912D01*
Y1915D01*
X20301Y1919D01*
X20299Y1930D01*
X20296Y1943D01*
X20290Y1958D01*
X20281Y1974D01*
X20275Y1982D01*
X20269Y1990D01*
X20261Y1997D01*
X20252Y2004D01*
X20251D01*
X20249Y2006D01*
X20245Y2008D01*
X20240Y2011D01*
X20232Y2014D01*
X20223Y2018D01*
X20212Y2021D01*
X20199Y2025D01*
X20184Y2029D01*
X20167Y2033D01*
X20148Y2037D01*
X20127Y2040D01*
X20103Y2043D01*
X20076Y2045D01*
X20048Y2046D01*
X20017Y2047D01*
D02*
G37*
G36*
X12473Y3418D02*
X12469D01*
X12466Y3417D01*
X12458Y3416D01*
X12449Y3414D01*
X12438Y3410D01*
X12426Y3403D01*
X12421Y3399D01*
X12415Y3394D01*
X12410Y3389D01*
X12405Y3382D01*
Y3382D01*
X12403Y3380D01*
X12402Y3377D01*
X12400Y3374D01*
X12398Y3368D01*
X12395Y3361D01*
X12393Y3354D01*
X12390Y3344D01*
X12387Y3334D01*
X12384Y3321D01*
X12381Y3308D01*
X12379Y3293D01*
X12377Y3275D01*
X12375Y3257D01*
X12375Y3237D01*
X12374Y3214D01*
Y3213D01*
Y3209D01*
Y3203D01*
X12375Y3194D01*
Y3185D01*
X12375Y3174D01*
X12376Y3161D01*
X12378Y3149D01*
X12381Y3121D01*
X12383Y3107D01*
X12386Y3094D01*
X12389Y3082D01*
X12393Y3070D01*
X12398Y3060D01*
X12403Y3052D01*
Y3051D01*
X12404Y3050D01*
X12408Y3045D01*
X12414Y3039D01*
X12422Y3032D01*
X12433Y3024D01*
X12445Y3018D01*
X12459Y3013D01*
X12466Y3012D01*
X12474Y3012D01*
X12478D01*
X12481Y3012D01*
X12488Y3014D01*
X12498Y3017D01*
X12509Y3022D01*
X12521Y3029D01*
X12527Y3033D01*
X12533Y3039D01*
X12538Y3045D01*
X12544Y3052D01*
Y3052D01*
X12545Y3054D01*
X12547Y3056D01*
X12548Y3060D01*
X12551Y3065D01*
X12553Y3071D01*
X12556Y3078D01*
X12559Y3087D01*
X12561Y3098D01*
X12564Y3109D01*
X12567Y3123D01*
X12569Y3137D01*
X12571Y3154D01*
X12572Y3172D01*
X12573Y3192D01*
Y3214D01*
Y3215D01*
Y3216D01*
Y3220D01*
Y3226D01*
X12573Y3235D01*
Y3244D01*
X12572Y3255D01*
X12571Y3268D01*
X12570Y3281D01*
X12566Y3308D01*
X12564Y3322D01*
X12561Y3335D01*
X12558Y3347D01*
X12554Y3359D01*
X12550Y3369D01*
X12545Y3377D01*
Y3378D01*
X12543Y3379D01*
X12542Y3381D01*
X12540Y3384D01*
X12533Y3390D01*
X12525Y3398D01*
X12515Y3405D01*
X12502Y3412D01*
X12496Y3415D01*
X12489Y3417D01*
X12481Y3417D01*
X12473Y3418D01*
D02*
G37*
G36*
X17441Y457D02*
X17433D01*
X17428Y457D01*
X17422D01*
X17415Y457D01*
X17407Y456D01*
X17399Y455D01*
X17381Y453D01*
X17372Y451D01*
X17364Y450D01*
X17356Y448D01*
X17349Y445D01*
X17342Y442D01*
X17337Y439D01*
X17336D01*
X17336Y438D01*
X17332Y436D01*
X17328Y432D01*
X17324Y427D01*
X17319Y420D01*
X17315Y412D01*
X17312Y403D01*
X17311Y399D01*
X17311Y394D01*
Y393D01*
Y392D01*
Y391D01*
X17311Y389D01*
X17312Y384D01*
X17314Y378D01*
X17317Y371D01*
X17322Y363D01*
X17325Y360D01*
X17328Y356D01*
X17332Y352D01*
X17337Y349D01*
X17337D01*
X17338Y348D01*
X17339Y347D01*
X17342Y346D01*
X17345Y344D01*
X17349Y343D01*
X17354Y341D01*
X17359Y339D01*
X17366Y338D01*
X17373Y336D01*
X17382Y334D01*
X17391Y333D01*
X17402Y332D01*
X17414Y331D01*
X17427Y330D01*
X17448D01*
X17454Y330D01*
X17460D01*
X17467Y331D01*
X17475Y331D01*
X17483Y332D01*
X17501Y334D01*
X17510Y336D01*
X17518Y338D01*
X17526Y339D01*
X17533Y342D01*
X17539Y345D01*
X17545Y348D01*
X17545D01*
X17546Y349D01*
X17547Y350D01*
X17549Y351D01*
X17553Y356D01*
X17558Y361D01*
X17563Y367D01*
X17567Y375D01*
X17569Y379D01*
X17570Y384D01*
X17571Y389D01*
X17571Y394D01*
Y395D01*
Y395D01*
Y397D01*
X17571Y399D01*
X17570Y404D01*
X17568Y410D01*
X17566Y417D01*
X17561Y424D01*
X17559Y428D01*
X17556Y431D01*
X17552Y434D01*
X17548Y438D01*
X17548D01*
X17547Y439D01*
X17545Y440D01*
X17543Y441D01*
X17539Y442D01*
X17535Y444D01*
X17530Y446D01*
X17524Y447D01*
X17517Y449D01*
X17509Y451D01*
X17500Y453D01*
X17491Y454D01*
X17480Y456D01*
X17468Y457D01*
X17455Y457D01*
X17441Y457D01*
D02*
G37*
G36*
X16904Y704D02*
X16901D01*
X16899Y704D01*
X16896D01*
X16893Y703D01*
X16886Y702D01*
X16879Y700D01*
X16870Y697D01*
X16862Y692D01*
X16855Y686D01*
X16854Y686D01*
X16852Y683D01*
X16849Y679D01*
X16846Y674D01*
X16842Y667D01*
X16839Y659D01*
X16837Y651D01*
X16836Y641D01*
Y641D01*
Y640D01*
Y638D01*
X16836Y636D01*
X16837Y631D01*
X16838Y625D01*
X16841Y618D01*
X16844Y611D01*
X16848Y603D01*
X16855Y597D01*
X16856Y596D01*
X16858Y594D01*
X16863Y591D01*
X16869Y587D01*
X16876Y584D01*
X16885Y581D01*
X16895Y580D01*
X16907Y579D01*
X16910D01*
X16913Y579D01*
X16916D01*
X16919Y580D01*
X16926Y581D01*
X16935Y583D01*
X16944Y586D01*
X16953Y591D01*
X16961Y597D01*
X16961D01*
X16962Y597D01*
X16964Y600D01*
X16967Y603D01*
X16971Y608D01*
X16974Y615D01*
X16977Y622D01*
X16980Y630D01*
X16981Y635D01*
Y640D01*
Y640D01*
Y641D01*
Y642D01*
X16980Y644D01*
X16980Y649D01*
X16978Y655D01*
X16976Y663D01*
X16971Y670D01*
X16966Y678D01*
X16963Y682D01*
X16959Y686D01*
X16959D01*
X16958Y686D01*
X16957Y687D01*
X16955Y688D01*
X16951Y692D01*
X16944Y695D01*
X16937Y698D01*
X16927Y702D01*
X16916Y703D01*
X16904Y704D01*
D02*
G37*
G36*
X16385Y5290D02*
X16280D01*
Y5200D01*
Y5200D01*
Y5199D01*
Y5197D01*
Y5195D01*
X16281Y5190D01*
X16281Y5183D01*
X16282Y5176D01*
X16283Y5169D01*
X16284Y5161D01*
X16286Y5155D01*
X16286Y5154D01*
X16287Y5152D01*
X16289Y5150D01*
X16290Y5146D01*
X16293Y5142D01*
X16296Y5138D01*
X16301Y5133D01*
X16305Y5130D01*
X16306Y5130D01*
X16307Y5129D01*
X16310Y5127D01*
X16314Y5126D01*
X16318Y5124D01*
X16323Y5123D01*
X16328Y5122D01*
X16334Y5122D01*
X16334D01*
X16337Y5122D01*
X16341Y5122D01*
X16347Y5123D01*
X16352Y5126D01*
X16359Y5128D01*
X16365Y5133D01*
X16371Y5138D01*
X16371Y5139D01*
X16373Y5141D01*
X16375Y5145D01*
X16378Y5151D01*
X16381Y5158D01*
X16383Y5167D01*
X16385Y5178D01*
X16385Y5190D01*
Y5290D01*
D02*
G37*
G36*
X12714Y1043D02*
X12708D01*
X12704Y1043D01*
X12699Y1042D01*
X12694Y1041D01*
X12687Y1040D01*
X12681Y1039D01*
X12666Y1036D01*
X12659Y1033D01*
X12651Y1030D01*
X12644Y1027D01*
X12636Y1022D01*
X12630Y1018D01*
X12623Y1012D01*
X12623Y1012D01*
X12622Y1011D01*
X12620Y1009D01*
X12618Y1007D01*
X12615Y1004D01*
X12613Y1000D01*
X12610Y996D01*
X12607Y991D01*
X12603Y986D01*
X12601Y980D01*
X12598Y973D01*
X12595Y966D01*
X12593Y959D01*
X12592Y952D01*
X12591Y944D01*
X12590Y935D01*
Y934D01*
Y932D01*
X12591Y930D01*
Y927D01*
X12591Y923D01*
X12592Y918D01*
X12593Y913D01*
X12594Y907D01*
X12596Y901D01*
X12598Y895D01*
X12601Y888D01*
X12604Y882D01*
X12608Y875D01*
X12612Y869D01*
X12617Y862D01*
X12623Y856D01*
X12624Y856D01*
X12625Y855D01*
X12627Y854D01*
X12630Y851D01*
X12633Y849D01*
X12637Y847D01*
X12642Y844D01*
X12648Y841D01*
X12654Y838D01*
X12661Y835D01*
X12669Y833D01*
X12677Y830D01*
X12687Y828D01*
X12697Y827D01*
X12707Y826D01*
X12718Y826D01*
X12725D01*
X12728Y826D01*
X12732D01*
X12736Y826D01*
X12741Y827D01*
X12752Y829D01*
X12763Y831D01*
X12775Y834D01*
X12786Y839D01*
X12786D01*
X12787Y839D01*
X12788Y840D01*
X12790Y841D01*
X12796Y844D01*
X12802Y848D01*
X12810Y854D01*
X12817Y861D01*
X12824Y869D01*
X12831Y877D01*
Y878D01*
X12832Y878D01*
X12832Y880D01*
X12833Y882D01*
X12834Y884D01*
X12836Y887D01*
X12839Y894D01*
X12842Y902D01*
X12844Y912D01*
X12846Y923D01*
X12847Y934D01*
Y935D01*
Y936D01*
Y938D01*
X12846Y942D01*
X12846Y946D01*
X12845Y950D01*
X12844Y955D01*
X12843Y961D01*
X12839Y972D01*
X12837Y979D01*
X12834Y985D01*
X12830Y992D01*
X12826Y999D01*
X12821Y1005D01*
X12816Y1011D01*
X12816Y1011D01*
X12815Y1012D01*
X12813Y1014D01*
X12810Y1016D01*
X12807Y1018D01*
X12803Y1021D01*
X12798Y1024D01*
X12792Y1027D01*
X12785Y1030D01*
X12777Y1033D01*
X12769Y1036D01*
X12760Y1038D01*
X12750Y1040D01*
X12738Y1042D01*
X12726Y1043D01*
X12714Y1043D01*
D02*
G37*
G36*
X13304D02*
X13299D01*
X13295Y1043D01*
X13290Y1042D01*
X13284Y1041D01*
X13278Y1040D01*
X13272Y1039D01*
X13257Y1036D01*
X13250Y1033D01*
X13242Y1030D01*
X13234Y1027D01*
X13227Y1022D01*
X13220Y1018D01*
X13214Y1012D01*
X13213Y1012D01*
X13212Y1011D01*
X13211Y1009D01*
X13209Y1007D01*
X13206Y1004D01*
X13203Y1000D01*
X13200Y996D01*
X13197Y991D01*
X13194Y986D01*
X13191Y980D01*
X13188Y973D01*
X13186Y966D01*
X13184Y959D01*
X13182Y952D01*
X13181Y944D01*
X13181Y935D01*
Y934D01*
Y932D01*
X13181Y930D01*
Y927D01*
X13182Y923D01*
X13183Y918D01*
X13183Y913D01*
X13185Y907D01*
X13187Y901D01*
X13189Y895D01*
X13191Y888D01*
X13194Y882D01*
X13199Y875D01*
X13203Y869D01*
X13208Y862D01*
X13214Y856D01*
X13214Y856D01*
X13215Y855D01*
X13217Y854D01*
X13220Y851D01*
X13223Y849D01*
X13228Y847D01*
X13233Y844D01*
X13238Y841D01*
X13244Y838D01*
X13252Y835D01*
X13260Y833D01*
X13268Y830D01*
X13277Y828D01*
X13287Y827D01*
X13298Y826D01*
X13309Y826D01*
X13315D01*
X13318Y826D01*
X13323D01*
X13327Y826D01*
X13332Y827D01*
X13342Y829D01*
X13353Y831D01*
X13365Y834D01*
X13376Y839D01*
X13377D01*
X13378Y839D01*
X13379Y840D01*
X13381Y841D01*
X13386Y844D01*
X13393Y848D01*
X13400Y854D01*
X13407Y861D01*
X13415Y869D01*
X13421Y877D01*
Y878D01*
X13422Y878D01*
X13423Y880D01*
X13424Y882D01*
X13425Y884D01*
X13426Y887D01*
X13429Y894D01*
X13432Y902D01*
X13435Y912D01*
X13437Y923D01*
X13437Y934D01*
Y935D01*
Y936D01*
Y938D01*
X13437Y942D01*
X13436Y946D01*
X13435Y950D01*
X13435Y955D01*
X13434Y961D01*
X13430Y972D01*
X13427Y979D01*
X13424Y985D01*
X13421Y992D01*
X13417Y999D01*
X13412Y1005D01*
X13407Y1011D01*
X13406Y1011D01*
X13405Y1012D01*
X13403Y1014D01*
X13401Y1016D01*
X13397Y1018D01*
X13393Y1021D01*
X13388Y1024D01*
X13382Y1027D01*
X13376Y1030D01*
X13368Y1033D01*
X13360Y1036D01*
X13351Y1038D01*
X13340Y1040D01*
X13329Y1042D01*
X13317Y1043D01*
X13304Y1043D01*
D02*
G37*
G36*
X13853Y720D02*
Y619D01*
X13995D01*
X13853Y720D01*
D02*
G37*
G36*
X13895Y1043D02*
X13889D01*
X13885Y1043D01*
X13880Y1042D01*
X13875Y1041D01*
X13869Y1040D01*
X13862Y1039D01*
X13847Y1036D01*
X13840Y1033D01*
X13832Y1030D01*
X13825Y1027D01*
X13818Y1022D01*
X13811Y1018D01*
X13804Y1012D01*
X13804Y1012D01*
X13803Y1011D01*
X13801Y1009D01*
X13799Y1007D01*
X13796Y1004D01*
X13794Y1000D01*
X13791Y996D01*
X13788Y991D01*
X13785Y986D01*
X13782Y980D01*
X13779Y973D01*
X13776Y966D01*
X13774Y959D01*
X13773Y952D01*
X13772Y944D01*
X13771Y935D01*
Y934D01*
Y932D01*
X13772Y930D01*
Y927D01*
X13772Y923D01*
X13773Y918D01*
X13774Y913D01*
X13775Y907D01*
X13777Y901D01*
X13779Y895D01*
X13782Y888D01*
X13785Y882D01*
X13789Y875D01*
X13793Y869D01*
X13798Y862D01*
X13804Y856D01*
X13805Y856D01*
X13806Y855D01*
X13808Y854D01*
X13811Y851D01*
X13814Y849D01*
X13818Y847D01*
X13823Y844D01*
X13829Y841D01*
X13835Y838D01*
X13842Y835D01*
X13850Y833D01*
X13858Y830D01*
X13868Y828D01*
X13878Y827D01*
X13888Y826D01*
X13899Y826D01*
X13906D01*
X13909Y826D01*
X13913D01*
X13917Y826D01*
X13922Y827D01*
X13933Y829D01*
X13944Y831D01*
X13956Y834D01*
X13967Y839D01*
X13967D01*
X13968Y839D01*
X13970Y840D01*
X13971Y841D01*
X13977Y844D01*
X13983Y848D01*
X13991Y854D01*
X13998Y861D01*
X14005Y869D01*
X14012Y877D01*
Y878D01*
X14013Y878D01*
X14013Y880D01*
X14015Y882D01*
X14015Y884D01*
X14017Y887D01*
X14020Y894D01*
X14023Y902D01*
X14026Y912D01*
X14027Y923D01*
X14028Y934D01*
Y935D01*
Y936D01*
Y938D01*
X14027Y942D01*
X14027Y946D01*
X14026Y950D01*
X14025Y955D01*
X14024Y961D01*
X14020Y972D01*
X14018Y979D01*
X14015Y985D01*
X14011Y992D01*
X14007Y999D01*
X14003Y1005D01*
X13997Y1011D01*
X13997Y1011D01*
X13996Y1012D01*
X13994Y1014D01*
X13991Y1016D01*
X13988Y1018D01*
X13984Y1021D01*
X13979Y1024D01*
X13973Y1027D01*
X13966Y1030D01*
X13959Y1033D01*
X13950Y1036D01*
X13941Y1038D01*
X13931Y1040D01*
X13920Y1042D01*
X13908Y1043D01*
X13895Y1043D01*
D02*
G37*
G36*
X12252Y5290D02*
X12146D01*
Y5200D01*
Y5200D01*
Y5199D01*
Y5197D01*
Y5195D01*
X12147Y5190D01*
X12147Y5183D01*
X12148Y5176D01*
X12149Y5169D01*
X12150Y5161D01*
X12152Y5155D01*
X12152Y5154D01*
X12153Y5152D01*
X12155Y5150D01*
X12157Y5146D01*
X12159Y5142D01*
X12163Y5138D01*
X12167Y5133D01*
X12171Y5130D01*
X12172Y5130D01*
X12174Y5129D01*
X12176Y5127D01*
X12180Y5126D01*
X12184Y5124D01*
X12189Y5123D01*
X12194Y5122D01*
X12200Y5122D01*
X12201D01*
X12203Y5122D01*
X12208Y5122D01*
X12213Y5123D01*
X12219Y5126D01*
X12225Y5128D01*
X12231Y5133D01*
X12237Y5138D01*
X12237Y5139D01*
X12239Y5141D01*
X12241Y5145D01*
X12244Y5151D01*
X12247Y5158D01*
X12249Y5167D01*
X12251Y5178D01*
X12252Y5190D01*
Y5290D01*
D02*
G37*
G36*
X10894Y5693D02*
X10890Y5693D01*
X10884Y5692D01*
X10877Y5691D01*
X10873Y5691D01*
X10869Y5689D01*
X10864Y5689D01*
X10859Y5687D01*
X10811Y5674D01*
X10858Y5499D01*
X10907Y5512D01*
X10907Y5512D01*
X10908Y5512D01*
X10909Y5513D01*
X10911Y5513D01*
X10913Y5513D01*
X10915Y5514D01*
X10920Y5516D01*
X10926Y5518D01*
X10931Y5520D01*
X10937Y5523D01*
X10942Y5525D01*
X10942Y5526D01*
X10944Y5527D01*
X10946Y5528D01*
X10948Y5531D01*
X10951Y5533D01*
X10954Y5536D01*
X10957Y5540D01*
X10959Y5543D01*
X10960Y5544D01*
X10961Y5545D01*
X10962Y5548D01*
X10963Y5552D01*
X10965Y5557D01*
X10966Y5563D01*
X10968Y5569D01*
X10968Y5576D01*
X10968Y5577D01*
X10968Y5577D01*
X10968Y5579D01*
X10968Y5580D01*
X10968Y5582D01*
X10968Y5584D01*
X10968Y5587D01*
X10968Y5590D01*
X10967Y5597D01*
X10966Y5604D01*
X10965Y5613D01*
X10963Y5623D01*
X10963Y5623D01*
X10962Y5624D01*
X10962Y5626D01*
X10961Y5629D01*
X10960Y5632D01*
X10959Y5635D01*
X10957Y5639D01*
X10956Y5643D01*
X10952Y5651D01*
X10947Y5660D01*
X10942Y5668D01*
X10939Y5671D01*
X10936Y5675D01*
X10936Y5675D01*
X10935Y5675D01*
X10934Y5676D01*
X10933Y5677D01*
X10929Y5680D01*
X10925Y5683D01*
X10920Y5686D01*
X10913Y5689D01*
X10907Y5691D01*
X10900Y5693D01*
X10899Y5693D01*
X10898Y5693D01*
X10894Y5693D01*
D02*
G37*
G36*
X10609Y5022D02*
X10535D01*
Y4779D01*
X10610D01*
X10614Y4780D01*
X10621Y4780D01*
X10628Y4781D01*
X10637Y4782D01*
X10645Y4783D01*
X10652Y4785D01*
X10653Y4785D01*
X10655Y4786D01*
X10658Y4787D01*
X10662Y4789D01*
X10667Y4792D01*
X10671Y4794D01*
X10676Y4798D01*
X10681Y4801D01*
X10681Y4802D01*
X10683Y4804D01*
X10686Y4807D01*
X10689Y4812D01*
X10693Y4818D01*
X10697Y4825D01*
X10700Y4833D01*
X10704Y4841D01*
Y4842D01*
X10704Y4843D01*
X10705Y4844D01*
X10705Y4846D01*
X10705Y4848D01*
X10706Y4851D01*
X10707Y4855D01*
X10708Y4858D01*
X10710Y4867D01*
X10711Y4878D01*
X10712Y4890D01*
X10712Y4903D01*
Y4903D01*
Y4905D01*
Y4907D01*
X10712Y4911D01*
Y4915D01*
X10711Y4920D01*
X10711Y4925D01*
X10710Y4931D01*
X10708Y4943D01*
X10705Y4956D01*
X10701Y4968D01*
X10699Y4974D01*
X10696Y4979D01*
Y4979D01*
X10695Y4980D01*
X10694Y4982D01*
X10693Y4984D01*
X10689Y4988D01*
X10685Y4994D01*
X10679Y5000D01*
X10672Y5006D01*
X10664Y5011D01*
X10656Y5015D01*
X10655Y5015D01*
X10653Y5016D01*
X10649Y5017D01*
X10643Y5018D01*
X10635Y5019D01*
X10626Y5021D01*
X10621Y5021D01*
X10615D01*
X10609Y5022D01*
D02*
G37*
G36*
Y2060D02*
X10535D01*
Y1818D01*
X10610D01*
X10614Y1818D01*
X10621Y1819D01*
X10628Y1819D01*
X10637Y1820D01*
X10645Y1821D01*
X10652Y1823D01*
X10653Y1824D01*
X10655Y1824D01*
X10658Y1825D01*
X10662Y1827D01*
X10667Y1830D01*
X10671Y1833D01*
X10676Y1836D01*
X10681Y1840D01*
X10681Y1841D01*
X10683Y1842D01*
X10686Y1846D01*
X10689Y1850D01*
X10693Y1856D01*
X10697Y1863D01*
X10700Y1871D01*
X10704Y1880D01*
Y1880D01*
X10704Y1881D01*
X10705Y1882D01*
X10705Y1884D01*
X10705Y1886D01*
X10706Y1890D01*
X10707Y1893D01*
X10708Y1897D01*
X10710Y1906D01*
X10711Y1916D01*
X10712Y1928D01*
X10712Y1941D01*
Y1942D01*
Y1943D01*
Y1946D01*
X10712Y1949D01*
Y1954D01*
X10711Y1958D01*
X10711Y1964D01*
X10710Y1969D01*
X10708Y1981D01*
X10705Y1994D01*
X10701Y2006D01*
X10699Y2012D01*
X10696Y2017D01*
Y2018D01*
X10695Y2019D01*
X10694Y2020D01*
X10693Y2022D01*
X10689Y2026D01*
X10685Y2032D01*
X10679Y2038D01*
X10672Y2044D01*
X10664Y2049D01*
X10656Y2053D01*
X10655Y2054D01*
X10653Y2054D01*
X10649Y2055D01*
X10643Y2057D01*
X10635Y2058D01*
X10626Y2059D01*
X10621Y2060D01*
X10615D01*
X10609Y2060D01*
D02*
G37*
G36*
X12249Y603D02*
X12007D01*
Y535D01*
Y535D01*
Y534D01*
Y532D01*
Y530D01*
Y528D01*
X12007Y524D01*
X12008Y518D01*
X12008Y510D01*
X12009Y501D01*
X12011Y493D01*
X12012Y486D01*
X12013Y485D01*
X12013Y483D01*
X12015Y480D01*
X12017Y476D01*
X12019Y471D01*
X12022Y467D01*
X12025Y462D01*
X12029Y457D01*
X12030Y457D01*
X12032Y455D01*
X12035Y452D01*
X12040Y449D01*
X12045Y446D01*
X12052Y441D01*
X12060Y438D01*
X12069Y434D01*
X12069D01*
X12070Y434D01*
X12072Y434D01*
X12073Y433D01*
X12076Y433D01*
X12079Y432D01*
X12082Y431D01*
X12086Y430D01*
X12095Y429D01*
X12106Y427D01*
X12118Y426D01*
X12130Y426D01*
X12135D01*
X12139Y426D01*
X12143D01*
X12147Y427D01*
X12153Y427D01*
X12158Y428D01*
X12171Y430D01*
X12184Y433D01*
X12196Y437D01*
X12202Y440D01*
X12207Y442D01*
X12207D01*
X12208Y443D01*
X12209Y444D01*
X12211Y445D01*
X12216Y449D01*
X12221Y453D01*
X12227Y459D01*
X12233Y466D01*
X12238Y474D01*
X12242Y482D01*
X12243Y483D01*
X12243Y485D01*
X12245Y490D01*
X12246Y496D01*
X12247Y503D01*
X12248Y512D01*
X12249Y518D01*
Y524D01*
X12249Y529D01*
Y536D01*
Y603D01*
D02*
G37*
G36*
X10920Y1253D02*
X10873Y1078D01*
X10922Y1065D01*
X10922Y1065D01*
X10923Y1064D01*
X10924Y1064D01*
X10925Y1064D01*
X10927Y1063D01*
X10930Y1063D01*
X10935Y1062D01*
X10941Y1061D01*
X10947Y1060D01*
X10953Y1059D01*
X10958Y1059D01*
X10959Y1059D01*
X10961Y1059D01*
X10963Y1060D01*
X10967Y1060D01*
X10971Y1061D01*
X10975Y1062D01*
X10978Y1064D01*
X10983Y1066D01*
X10983Y1066D01*
X10985Y1067D01*
X10987Y1069D01*
X10991Y1072D01*
X10994Y1075D01*
X10999Y1079D01*
X11003Y1084D01*
X11007Y1090D01*
X11007Y1090D01*
X11007Y1091D01*
X11008Y1092D01*
X11009Y1093D01*
X11010Y1095D01*
X11011Y1097D01*
X11012Y1099D01*
X11014Y1101D01*
X11016Y1108D01*
X11019Y1115D01*
X11022Y1124D01*
X11025Y1133D01*
X11025Y1133D01*
X11026Y1134D01*
X11026Y1136D01*
X11026Y1139D01*
X11027Y1142D01*
X11028Y1145D01*
X11028Y1149D01*
X11029Y1153D01*
X11030Y1163D01*
X11030Y1173D01*
X11030Y1182D01*
X11029Y1187D01*
X11028Y1191D01*
X11028Y1192D01*
X11028Y1192D01*
X11027Y1194D01*
X11027Y1195D01*
X11025Y1199D01*
X11023Y1204D01*
X11020Y1209D01*
X11016Y1215D01*
X11011Y1220D01*
X11006Y1225D01*
X11005Y1225D01*
X11004Y1226D01*
X11001Y1228D01*
X10997Y1230D01*
X10992Y1232D01*
X10986Y1235D01*
X10982Y1236D01*
X10977Y1238D01*
X10973Y1239D01*
X10968Y1240D01*
X10920Y1253D01*
D02*
G37*
G36*
X17567Y5290D02*
X17461D01*
Y5200D01*
Y5200D01*
Y5199D01*
Y5197D01*
Y5195D01*
X17462Y5190D01*
X17462Y5183D01*
X17463Y5176D01*
X17464Y5169D01*
X17465Y5161D01*
X17467Y5155D01*
X17467Y5154D01*
X17468Y5152D01*
X17470Y5150D01*
X17472Y5146D01*
X17474Y5142D01*
X17477Y5138D01*
X17482Y5133D01*
X17486Y5130D01*
X17487Y5130D01*
X17489Y5129D01*
X17491Y5127D01*
X17495Y5126D01*
X17499Y5124D01*
X17504Y5123D01*
X17509Y5122D01*
X17515Y5122D01*
X17516D01*
X17518Y5122D01*
X17522Y5122D01*
X17528Y5123D01*
X17533Y5126D01*
X17540Y5128D01*
X17546Y5133D01*
X17552Y5138D01*
X17552Y5139D01*
X17554Y5141D01*
X17556Y5145D01*
X17559Y5151D01*
X17562Y5158D01*
X17564Y5167D01*
X17566Y5178D01*
X17567Y5190D01*
Y5290D01*
D02*
G37*
G36*
X16341Y692D02*
X16340D01*
X16337Y692D01*
X16333Y691D01*
X16328Y690D01*
X16322Y688D01*
X16316Y686D01*
X16310Y682D01*
X16304Y678D01*
X16304Y677D01*
X16302Y675D01*
X16300Y672D01*
X16297Y668D01*
X16295Y662D01*
X16292Y656D01*
X16290Y648D01*
X16290Y640D01*
Y640D01*
Y639D01*
X16290Y636D01*
X16291Y632D01*
X16292Y627D01*
X16294Y621D01*
X16296Y615D01*
X16300Y608D01*
X16304Y603D01*
X16305Y602D01*
X16307Y601D01*
X16310Y598D01*
X16314Y596D01*
X16319Y593D01*
X16325Y591D01*
X16332Y589D01*
X16339Y588D01*
X16343D01*
X16347Y589D01*
X16352Y590D01*
X16357Y592D01*
X16363Y595D01*
X16369Y598D01*
X16375Y603D01*
X16376Y604D01*
X16378Y606D01*
X16380Y609D01*
X16383Y613D01*
X16385Y619D01*
X16388Y625D01*
X16390Y632D01*
X16390Y640D01*
Y641D01*
Y641D01*
Y644D01*
X16389Y648D01*
X16388Y653D01*
X16386Y659D01*
X16384Y666D01*
X16380Y672D01*
X16375Y678D01*
X16375Y678D01*
X16373Y680D01*
X16370Y682D01*
X16366Y685D01*
X16361Y687D01*
X16355Y690D01*
X16348Y692D01*
X16341Y692D01*
D02*
G37*
G36*
X19071Y2311D02*
X19069D01*
X19067Y2311D01*
X19064Y2310D01*
X19061Y2309D01*
X19058Y2308D01*
X19055Y2306D01*
X19052Y2303D01*
X19051Y2303D01*
X19051Y2301D01*
X19049Y2299D01*
X19048Y2296D01*
X19046Y2293D01*
X19045Y2288D01*
X19044Y2283D01*
X19044Y2277D01*
Y2276D01*
Y2276D01*
Y2274D01*
X19044Y2271D01*
X19045Y2267D01*
X19046Y2262D01*
X19047Y2257D01*
X19049Y2252D01*
X19051Y2247D01*
X19052Y2246D01*
X19053Y2245D01*
X19054Y2242D01*
X19057Y2240D01*
X19060Y2236D01*
X19063Y2233D01*
X19067Y2230D01*
X19072Y2228D01*
X19072Y2227D01*
X19073Y2227D01*
X19076Y2226D01*
X19079Y2225D01*
X19083Y2224D01*
X19088Y2223D01*
X19094Y2223D01*
X19100Y2223D01*
X19111Y2222D01*
Y2223D01*
X19111Y2223D01*
X19111Y2224D01*
X19110Y2225D01*
X19110Y2227D01*
X19109Y2229D01*
X19108Y2232D01*
X19108Y2234D01*
X19107Y2237D01*
X19106Y2241D01*
X19105Y2245D01*
X19104Y2250D01*
X19103Y2254D01*
X19102Y2259D01*
X19101Y2265D01*
X19100Y2271D01*
Y2271D01*
Y2271D01*
X19100Y2273D01*
X19099Y2277D01*
X19098Y2280D01*
X19098Y2285D01*
X19097Y2289D01*
X19096Y2293D01*
X19094Y2296D01*
Y2296D01*
X19094Y2297D01*
X19093Y2299D01*
X19092Y2300D01*
X19089Y2304D01*
X19085Y2308D01*
X19085D01*
X19084Y2308D01*
X19083Y2309D01*
X19081Y2309D01*
X19079Y2310D01*
X19077Y2311D01*
X19074Y2311D01*
X19071Y2311D01*
D02*
G37*
G36*
X16194Y705D02*
X16192D01*
X16189Y704D01*
X16184Y704D01*
X16179Y703D01*
X16174Y702D01*
X16168Y700D01*
X16162Y697D01*
X16162Y697D01*
X16160Y696D01*
X16157Y694D01*
X16154Y692D01*
X16150Y688D01*
X16145Y684D01*
X16142Y680D01*
X16138Y674D01*
X16138Y673D01*
X16137Y671D01*
X16135Y668D01*
X16134Y664D01*
X16133Y659D01*
X16131Y653D01*
X16130Y647D01*
X16130Y640D01*
Y640D01*
Y639D01*
Y637D01*
X16130Y636D01*
X16131Y630D01*
X16132Y624D01*
X16134Y616D01*
X16137Y608D01*
X16142Y601D01*
X16148Y594D01*
X16149Y593D01*
X16151Y591D01*
X16155Y588D01*
X16160Y585D01*
X16166Y581D01*
X16174Y578D01*
X16183Y576D01*
X16193Y575D01*
X16196D01*
X16198Y576D01*
X16203Y576D01*
X16210Y578D01*
X16217Y580D01*
X16224Y583D01*
X16232Y588D01*
X16239Y594D01*
X16240Y595D01*
X16242Y597D01*
X16245Y602D01*
X16249Y607D01*
X16252Y614D01*
X16256Y622D01*
X16257Y631D01*
X16258Y641D01*
Y642D01*
Y643D01*
Y644D01*
X16258Y646D01*
X16257Y651D01*
X16256Y658D01*
X16254Y665D01*
X16250Y672D01*
X16246Y680D01*
X16240Y687D01*
X16239Y688D01*
X16237Y690D01*
X16233Y692D01*
X16228Y696D01*
X16221Y699D01*
X16213Y702D01*
X16204Y704D01*
X16194Y705D01*
D02*
G37*
G36*
X19071Y2774D02*
X19069D01*
X19067Y2773D01*
X19064Y2773D01*
X19061Y2772D01*
X19058Y2770D01*
X19055Y2768D01*
X19052Y2765D01*
X19051Y2765D01*
X19051Y2763D01*
X19049Y2761D01*
X19048Y2759D01*
X19046Y2755D01*
X19045Y2750D01*
X19044Y2745D01*
X19044Y2739D01*
Y2739D01*
Y2738D01*
Y2736D01*
X19044Y2733D01*
X19045Y2729D01*
X19046Y2724D01*
X19047Y2719D01*
X19049Y2714D01*
X19051Y2709D01*
X19052Y2708D01*
X19053Y2707D01*
X19054Y2705D01*
X19057Y2702D01*
X19060Y2699D01*
X19063Y2695D01*
X19067Y2693D01*
X19072Y2690D01*
X19072Y2690D01*
X19073Y2689D01*
X19076Y2688D01*
X19079Y2687D01*
X19083Y2686D01*
X19088Y2686D01*
X19094Y2685D01*
X19100Y2685D01*
X19111Y2685D01*
Y2685D01*
X19111Y2685D01*
X19111Y2686D01*
X19110Y2688D01*
X19110Y2690D01*
X19109Y2692D01*
X19108Y2694D01*
X19108Y2697D01*
X19107Y2700D01*
X19106Y2704D01*
X19105Y2707D01*
X19104Y2712D01*
X19103Y2717D01*
X19102Y2722D01*
X19101Y2727D01*
X19100Y2733D01*
Y2733D01*
Y2734D01*
X19100Y2736D01*
X19099Y2739D01*
X19098Y2743D01*
X19098Y2747D01*
X19097Y2751D01*
X19096Y2755D01*
X19094Y2758D01*
Y2759D01*
X19094Y2760D01*
X19093Y2761D01*
X19092Y2762D01*
X19089Y2767D01*
X19085Y2770D01*
X19085D01*
X19084Y2771D01*
X19083Y2771D01*
X19081Y2772D01*
X19079Y2772D01*
X19077Y2773D01*
X19074Y2773D01*
X19071Y2774D01*
D02*
G37*
G36*
X16847Y1043D02*
X16842D01*
X16838Y1043D01*
X16833Y1042D01*
X16828Y1041D01*
X16821Y1040D01*
X16815Y1039D01*
X16800Y1036D01*
X16793Y1033D01*
X16785Y1030D01*
X16778Y1027D01*
X16770Y1022D01*
X16763Y1018D01*
X16757Y1012D01*
X16757Y1012D01*
X16756Y1011D01*
X16754Y1009D01*
X16752Y1007D01*
X16749Y1004D01*
X16746Y1000D01*
X16744Y996D01*
X16741Y991D01*
X16737Y986D01*
X16735Y980D01*
X16732Y973D01*
X16729Y966D01*
X16727Y959D01*
X16725Y952D01*
X16724Y944D01*
X16724Y935D01*
Y934D01*
Y932D01*
X16724Y930D01*
Y927D01*
X16725Y923D01*
X16726Y918D01*
X16727Y913D01*
X16728Y907D01*
X16730Y901D01*
X16732Y895D01*
X16735Y888D01*
X16738Y882D01*
X16742Y875D01*
X16746Y869D01*
X16751Y862D01*
X16757Y856D01*
X16758Y856D01*
X16758Y855D01*
X16761Y854D01*
X16763Y851D01*
X16767Y849D01*
X16771Y847D01*
X16776Y844D01*
X16781Y841D01*
X16788Y838D01*
X16795Y835D01*
X16803Y833D01*
X16811Y830D01*
X16820Y828D01*
X16830Y827D01*
X16841Y826D01*
X16852Y826D01*
X16858D01*
X16862Y826D01*
X16866D01*
X16870Y826D01*
X16875Y827D01*
X16886Y829D01*
X16897Y831D01*
X16909Y834D01*
X16920Y839D01*
X16920D01*
X16921Y839D01*
X16922Y840D01*
X16924Y841D01*
X16930Y844D01*
X16936Y848D01*
X16943Y854D01*
X16951Y861D01*
X16958Y869D01*
X16965Y877D01*
Y878D01*
X16965Y878D01*
X16966Y880D01*
X16967Y882D01*
X16968Y884D01*
X16970Y887D01*
X16973Y894D01*
X16976Y902D01*
X16978Y912D01*
X16980Y923D01*
X16981Y934D01*
Y935D01*
Y936D01*
Y938D01*
X16980Y942D01*
X16980Y946D01*
X16979Y950D01*
X16978Y955D01*
X16977Y961D01*
X16973Y972D01*
X16970Y979D01*
X16968Y985D01*
X16964Y992D01*
X16960Y999D01*
X16955Y1005D01*
X16950Y1011D01*
X16949Y1011D01*
X16948Y1012D01*
X16947Y1014D01*
X16944Y1016D01*
X16941Y1018D01*
X16937Y1021D01*
X16931Y1024D01*
X16925Y1027D01*
X16919Y1030D01*
X16911Y1033D01*
X16903Y1036D01*
X16894Y1038D01*
X16884Y1040D01*
X16872Y1042D01*
X16860Y1043D01*
X16847Y1043D01*
D02*
G37*
G36*
X16257D02*
X16251D01*
X16247Y1043D01*
X16243Y1042D01*
X16237Y1041D01*
X16231Y1040D01*
X16224Y1039D01*
X16210Y1036D01*
X16202Y1033D01*
X16194Y1030D01*
X16187Y1027D01*
X16180Y1022D01*
X16173Y1018D01*
X16166Y1012D01*
X16166Y1012D01*
X16165Y1011D01*
X16163Y1009D01*
X16161Y1007D01*
X16159Y1004D01*
X16156Y1000D01*
X16153Y996D01*
X16150Y991D01*
X16147Y986D01*
X16144Y980D01*
X16141Y973D01*
X16138Y966D01*
X16137Y959D01*
X16135Y952D01*
X16134Y944D01*
X16133Y935D01*
Y934D01*
Y932D01*
X16134Y930D01*
Y927D01*
X16134Y923D01*
X16135Y918D01*
X16136Y913D01*
X16138Y907D01*
X16139Y901D01*
X16142Y895D01*
X16144Y888D01*
X16147Y882D01*
X16151Y875D01*
X16155Y869D01*
X16161Y862D01*
X16166Y856D01*
X16167Y856D01*
X16168Y855D01*
X16170Y854D01*
X16173Y851D01*
X16176Y849D01*
X16180Y847D01*
X16185Y844D01*
X16191Y841D01*
X16197Y838D01*
X16205Y835D01*
X16212Y833D01*
X16221Y830D01*
X16230Y828D01*
X16240Y827D01*
X16250Y826D01*
X16262Y826D01*
X16268D01*
X16271Y826D01*
X16275D01*
X16279Y826D01*
X16284Y827D01*
X16295Y829D01*
X16306Y831D01*
X16318Y834D01*
X16329Y839D01*
X16329D01*
X16330Y839D01*
X16332Y840D01*
X16334Y841D01*
X16339Y844D01*
X16345Y848D01*
X16353Y854D01*
X16360Y861D01*
X16368Y869D01*
X16374Y877D01*
Y878D01*
X16375Y878D01*
X16375Y880D01*
X16377Y882D01*
X16378Y884D01*
X16379Y887D01*
X16382Y894D01*
X16385Y902D01*
X16388Y912D01*
X16390Y923D01*
X16390Y934D01*
Y935D01*
Y936D01*
Y938D01*
X16390Y942D01*
X16389Y946D01*
X16388Y950D01*
X16387Y955D01*
X16386Y961D01*
X16383Y972D01*
X16380Y979D01*
X16377Y985D01*
X16373Y992D01*
X16369Y999D01*
X16365Y1005D01*
X16359Y1011D01*
X16359Y1011D01*
X16358Y1012D01*
X16356Y1014D01*
X16353Y1016D01*
X16350Y1018D01*
X16346Y1021D01*
X16341Y1024D01*
X16335Y1027D01*
X16329Y1030D01*
X16321Y1033D01*
X16312Y1036D01*
X16303Y1038D01*
X16293Y1040D01*
X16282Y1042D01*
X16270Y1043D01*
X16257Y1043D01*
D02*
G37*
G36*
X15076D02*
X15070D01*
X15066Y1043D01*
X15062Y1042D01*
X15056Y1041D01*
X15050Y1040D01*
X15043Y1039D01*
X15029Y1036D01*
X15021Y1033D01*
X15013Y1030D01*
X15006Y1027D01*
X14999Y1022D01*
X14992Y1018D01*
X14985Y1012D01*
X14985Y1012D01*
X14984Y1011D01*
X14982Y1009D01*
X14980Y1007D01*
X14978Y1004D01*
X14975Y1000D01*
X14972Y996D01*
X14969Y991D01*
X14966Y986D01*
X14963Y980D01*
X14960Y973D01*
X14957Y966D01*
X14956Y959D01*
X14954Y952D01*
X14953Y944D01*
X14952Y935D01*
Y934D01*
Y932D01*
X14953Y930D01*
Y927D01*
X14953Y923D01*
X14954Y918D01*
X14955Y913D01*
X14956Y907D01*
X14958Y901D01*
X14961Y895D01*
X14963Y888D01*
X14966Y882D01*
X14970Y875D01*
X14974Y869D01*
X14979Y862D01*
X14985Y856D01*
X14986Y856D01*
X14987Y855D01*
X14989Y854D01*
X14992Y851D01*
X14995Y849D01*
X14999Y847D01*
X15004Y844D01*
X15010Y841D01*
X15016Y838D01*
X15023Y835D01*
X15031Y833D01*
X15040Y830D01*
X15049Y828D01*
X15059Y827D01*
X15069Y826D01*
X15080Y826D01*
X15087D01*
X15090Y826D01*
X15094D01*
X15098Y826D01*
X15103Y827D01*
X15114Y829D01*
X15125Y831D01*
X15137Y834D01*
X15148Y839D01*
X15148D01*
X15149Y839D01*
X15151Y840D01*
X15152Y841D01*
X15158Y844D01*
X15164Y848D01*
X15172Y854D01*
X15179Y861D01*
X15186Y869D01*
X15193Y877D01*
Y878D01*
X15194Y878D01*
X15194Y880D01*
X15196Y882D01*
X15197Y884D01*
X15198Y887D01*
X15201Y894D01*
X15204Y902D01*
X15207Y912D01*
X15208Y923D01*
X15209Y934D01*
Y935D01*
Y936D01*
Y938D01*
X15208Y942D01*
X15208Y946D01*
X15207Y950D01*
X15206Y955D01*
X15205Y961D01*
X15202Y972D01*
X15199Y979D01*
X15196Y985D01*
X15192Y992D01*
X15188Y999D01*
X15184Y1005D01*
X15178Y1011D01*
X15178Y1011D01*
X15177Y1012D01*
X15175Y1014D01*
X15172Y1016D01*
X15169Y1018D01*
X15165Y1021D01*
X15160Y1024D01*
X15154Y1027D01*
X15147Y1030D01*
X15140Y1033D01*
X15131Y1036D01*
X15122Y1038D01*
X15112Y1040D01*
X15101Y1042D01*
X15089Y1043D01*
X15076Y1043D01*
D02*
G37*
G36*
X14485D02*
X14480D01*
X14476Y1043D01*
X14471Y1042D01*
X14466Y1041D01*
X14459Y1040D01*
X14453Y1039D01*
X14438Y1036D01*
X14431Y1033D01*
X14423Y1030D01*
X14415Y1027D01*
X14408Y1022D01*
X14401Y1018D01*
X14395Y1012D01*
X14394Y1012D01*
X14393Y1011D01*
X14392Y1009D01*
X14390Y1007D01*
X14387Y1004D01*
X14384Y1000D01*
X14382Y996D01*
X14378Y991D01*
X14375Y986D01*
X14372Y980D01*
X14370Y973D01*
X14367Y966D01*
X14365Y959D01*
X14363Y952D01*
X14362Y944D01*
X14362Y935D01*
Y934D01*
Y932D01*
X14362Y930D01*
Y927D01*
X14363Y923D01*
X14364Y918D01*
X14365Y913D01*
X14366Y907D01*
X14368Y901D01*
X14370Y895D01*
X14372Y888D01*
X14376Y882D01*
X14380Y875D01*
X14384Y869D01*
X14389Y862D01*
X14395Y856D01*
X14395Y856D01*
X14396Y855D01*
X14399Y854D01*
X14401Y851D01*
X14404Y849D01*
X14409Y847D01*
X14414Y844D01*
X14419Y841D01*
X14426Y838D01*
X14433Y835D01*
X14441Y833D01*
X14449Y830D01*
X14458Y828D01*
X14468Y827D01*
X14479Y826D01*
X14490Y826D01*
X14496D01*
X14499Y826D01*
X14504D01*
X14508Y826D01*
X14513Y827D01*
X14523Y829D01*
X14534Y831D01*
X14546Y834D01*
X14557Y839D01*
X14558D01*
X14559Y839D01*
X14560Y840D01*
X14562Y841D01*
X14567Y844D01*
X14574Y848D01*
X14581Y854D01*
X14589Y861D01*
X14596Y869D01*
X14602Y877D01*
Y878D01*
X14603Y878D01*
X14604Y880D01*
X14605Y882D01*
X14606Y884D01*
X14607Y887D01*
X14611Y894D01*
X14613Y902D01*
X14616Y912D01*
X14618Y923D01*
X14618Y934D01*
Y935D01*
Y936D01*
Y938D01*
X14618Y942D01*
X14617Y946D01*
X14617Y950D01*
X14616Y955D01*
X14615Y961D01*
X14611Y972D01*
X14608Y979D01*
X14606Y985D01*
X14602Y992D01*
X14598Y999D01*
X14593Y1005D01*
X14588Y1011D01*
X14587Y1011D01*
X14586Y1012D01*
X14584Y1014D01*
X14582Y1016D01*
X14578Y1018D01*
X14574Y1021D01*
X14569Y1024D01*
X14563Y1027D01*
X14557Y1030D01*
X14549Y1033D01*
X14541Y1036D01*
X14532Y1038D01*
X14522Y1040D01*
X14510Y1042D01*
X14498Y1043D01*
X14485Y1043D01*
D02*
G37*
G36*
X15025Y701D02*
X15022D01*
X15018Y701D01*
X15012Y700D01*
X15007Y699D01*
X15000Y697D01*
X14993Y696D01*
X14986Y693D01*
X14985Y692D01*
X14983Y691D01*
X14980Y689D01*
X14976Y686D01*
X14972Y683D01*
X14967Y679D01*
X14962Y675D01*
X14958Y669D01*
X14958Y668D01*
X14957Y666D01*
X14955Y663D01*
X14954Y659D01*
X14952Y654D01*
X14950Y649D01*
X14949Y643D01*
X14949Y636D01*
Y636D01*
Y636D01*
Y634D01*
X14949Y632D01*
X14950Y628D01*
X14951Y622D01*
X14954Y615D01*
X14957Y608D01*
X14962Y601D01*
X14965Y597D01*
X14968Y594D01*
X14969D01*
X14969Y593D01*
X14972Y591D01*
X14977Y588D01*
X14983Y585D01*
X14990Y581D01*
X15000Y579D01*
X15010Y577D01*
X15023Y576D01*
X15026D01*
X15028Y576D01*
X15031D01*
X15034Y577D01*
X15041Y578D01*
X15050Y580D01*
X15058Y583D01*
X15067Y588D01*
X15074Y594D01*
X15075Y595D01*
X15078Y597D01*
X15080Y601D01*
X15084Y606D01*
X15088Y612D01*
X15091Y619D01*
X15093Y628D01*
X15094Y638D01*
Y638D01*
Y639D01*
Y641D01*
X15093Y642D01*
X15093Y647D01*
X15091Y653D01*
X15089Y660D01*
X15085Y668D01*
X15081Y675D01*
X15074Y683D01*
X15074Y684D01*
X15071Y686D01*
X15067Y689D01*
X15061Y692D01*
X15054Y695D01*
X15046Y698D01*
X15036Y700D01*
X15025Y701D01*
D02*
G37*
G36*
X19111Y2129D02*
X19108D01*
X19106Y2128D01*
X19103D01*
X19100Y2128D01*
X19093Y2127D01*
X19084Y2125D01*
X19076Y2123D01*
X19068Y2119D01*
X19065Y2117D01*
X19061Y2114D01*
Y2114D01*
X19061Y2114D01*
X19059Y2112D01*
X19056Y2109D01*
X19053Y2104D01*
X19050Y2099D01*
X19048Y2093D01*
X19046Y2086D01*
X19045Y2082D01*
X19045Y2078D01*
Y2078D01*
Y2077D01*
Y2076D01*
X19045Y2074D01*
X19046Y2070D01*
X19047Y2065D01*
X19049Y2060D01*
X19052Y2053D01*
X19056Y2048D01*
X19059Y2045D01*
X19062Y2042D01*
X19062Y2041D01*
X19062Y2041D01*
X19063Y2040D01*
X19065Y2039D01*
X19066Y2038D01*
X19068Y2037D01*
X19071Y2036D01*
X19074Y2034D01*
X19077Y2033D01*
X19081Y2032D01*
X19085Y2030D01*
X19090Y2029D01*
X19095Y2028D01*
X19100Y2028D01*
X19106Y2027D01*
X19115D01*
X19117Y2027D01*
X19120D01*
X19123Y2028D01*
X19130Y2029D01*
X19138Y2030D01*
X19146Y2033D01*
X19154Y2037D01*
X19158Y2039D01*
X19161Y2042D01*
X19161D01*
X19161Y2042D01*
X19163Y2045D01*
X19166Y2048D01*
X19169Y2052D01*
X19172Y2057D01*
X19175Y2063D01*
X19177Y2070D01*
X19177Y2074D01*
X19177Y2078D01*
Y2078D01*
Y2079D01*
Y2080D01*
X19177Y2082D01*
X19177Y2085D01*
X19175Y2091D01*
X19173Y2096D01*
X19170Y2103D01*
X19166Y2109D01*
X19163Y2112D01*
X19161Y2114D01*
X19160D01*
X19160Y2115D01*
X19159Y2116D01*
X19158Y2117D01*
X19156Y2118D01*
X19154Y2119D01*
X19151Y2120D01*
X19148Y2122D01*
X19145Y2123D01*
X19141Y2124D01*
X19137Y2125D01*
X19133Y2126D01*
X19128Y2127D01*
X19123Y2128D01*
X19117Y2128D01*
X19111Y2129D01*
D02*
G37*
G36*
X15666Y1043D02*
X15661D01*
X15657Y1043D01*
X15652Y1042D01*
X15647Y1041D01*
X15640Y1040D01*
X15634Y1039D01*
X15619Y1036D01*
X15612Y1033D01*
X15604Y1030D01*
X15597Y1027D01*
X15589Y1022D01*
X15582Y1018D01*
X15576Y1012D01*
X15575Y1012D01*
X15575Y1011D01*
X15573Y1009D01*
X15571Y1007D01*
X15568Y1004D01*
X15565Y1000D01*
X15563Y996D01*
X15559Y991D01*
X15556Y986D01*
X15553Y980D01*
X15551Y973D01*
X15548Y966D01*
X15546Y959D01*
X15544Y952D01*
X15543Y944D01*
X15543Y935D01*
Y934D01*
Y932D01*
X15543Y930D01*
Y927D01*
X15544Y923D01*
X15545Y918D01*
X15546Y913D01*
X15547Y907D01*
X15549Y901D01*
X15551Y895D01*
X15553Y888D01*
X15557Y882D01*
X15561Y875D01*
X15565Y869D01*
X15570Y862D01*
X15576Y856D01*
X15576Y856D01*
X15577Y855D01*
X15580Y854D01*
X15582Y851D01*
X15586Y849D01*
X15590Y847D01*
X15595Y844D01*
X15600Y841D01*
X15607Y838D01*
X15614Y835D01*
X15622Y833D01*
X15630Y830D01*
X15639Y828D01*
X15649Y827D01*
X15660Y826D01*
X15671Y826D01*
X15677D01*
X15681Y826D01*
X15685D01*
X15689Y826D01*
X15694Y827D01*
X15704Y829D01*
X15715Y831D01*
X15727Y834D01*
X15738Y839D01*
X15739D01*
X15740Y839D01*
X15741Y840D01*
X15743Y841D01*
X15749Y844D01*
X15755Y848D01*
X15762Y854D01*
X15770Y861D01*
X15777Y869D01*
X15783Y877D01*
Y878D01*
X15784Y878D01*
X15785Y880D01*
X15786Y882D01*
X15787Y884D01*
X15788Y887D01*
X15792Y894D01*
X15794Y902D01*
X15797Y912D01*
X15799Y923D01*
X15799Y934D01*
Y935D01*
Y936D01*
Y938D01*
X15799Y942D01*
X15799Y946D01*
X15798Y950D01*
X15797Y955D01*
X15796Y961D01*
X15792Y972D01*
X15789Y979D01*
X15787Y985D01*
X15783Y992D01*
X15779Y999D01*
X15774Y1005D01*
X15769Y1011D01*
X15768Y1011D01*
X15767Y1012D01*
X15766Y1014D01*
X15763Y1016D01*
X15760Y1018D01*
X15755Y1021D01*
X15750Y1024D01*
X15744Y1027D01*
X15738Y1030D01*
X15730Y1033D01*
X15722Y1036D01*
X15713Y1038D01*
X15703Y1040D01*
X15691Y1042D01*
X15679Y1043D01*
X15666Y1043D01*
D02*
G37*
%LPD*%
D18*
X-1969Y16740D02*
X8266D01*
Y2984D02*
Y17717D01*
X-1969Y2960D02*
Y16740D01*
X-0Y860D02*
Y2960D01*
X8266Y17717D02*
X22050D01*
X18307Y0D02*
Y6300D01*
X18332D02*
X22050D01*
Y17717D01*
X-0Y0D02*
X18307D01*
X-0D02*
Y860D01*
X-1969Y2953D02*
X8242D01*
Y2960D02*
X8266Y2984D01*
X-0Y2960D02*
X8242D01*
X18100Y7850D02*
X17714Y8309D01*
X17944Y8502D01*
X18085Y8490D01*
X18214Y8337D01*
X18201Y8196D01*
X17971Y8003D01*
X18125Y8132D02*
X18406Y8107D01*
X18238Y8618D02*
X18251Y8759D01*
X18404Y8888D01*
X18545Y8875D01*
X18609Y8799D01*
X18596Y8658D01*
X18737Y8646D01*
X18802Y8569D01*
X18789Y8428D01*
X18636Y8300D01*
X18495Y8312D01*
X18431Y8389D01*
X18443Y8530D01*
X18302Y8542D01*
X18238Y8618D01*
X18443Y8530D02*
X18596Y8658D01*
X18250Y10400D02*
X17650D01*
Y10700D01*
X17750Y10800D01*
X17950D01*
X18050Y10700D01*
Y10400D01*
Y10600D02*
X18250Y10800D01*
X17650Y11000D02*
Y11400D01*
X17750D01*
X18150Y11000D01*
X18250D01*
X21000Y14100D02*
X20900Y14000D01*
Y13800D01*
X21000Y13700D01*
X21400D01*
X21500Y13800D01*
Y14000D01*
X21400Y14100D01*
X20900Y14600D02*
Y14400D01*
X21000Y14300D01*
X21400D01*
X21500Y14400D01*
Y14600D01*
X21400Y14700D01*
X21000D01*
X20900Y14600D01*
X21500Y14900D02*
X20900D01*
X21500Y15299D01*
X20900D01*
X21500Y15499D02*
X20900D01*
X21500Y15899D01*
X20900D01*
X21000Y16099D02*
X20900Y16199D01*
Y16399D01*
X21000Y16499D01*
X21100D01*
X21200Y16399D01*
Y16299D01*
Y16399D01*
X21300Y16499D01*
X21400D01*
X21500Y16399D01*
Y16199D01*
X21400Y16099D01*
X17500Y17050D02*
Y17650D01*
X17800D01*
X17900Y17550D01*
Y17350D01*
X17800Y17250D01*
X17500D01*
X17700D02*
X17900Y17050D01*
X18400D02*
Y17650D01*
X18100Y17350D01*
X18500D01*
X14598Y13198D02*
X14641Y12700D01*
X14750Y12609D01*
X14949Y12626D01*
X15040Y12734D01*
X14996Y13232D01*
X15248Y12652D02*
X15447Y12670D01*
X15347Y12661D01*
X15295Y13259D01*
X15204Y13150D01*
X13300Y14750D02*
X13200Y14650D01*
Y14450D01*
X13300Y14350D01*
X13700D01*
X13800Y14450D01*
Y14650D01*
X13700Y14750D01*
X13200Y15250D02*
Y15050D01*
X13300Y14950D01*
X13700D01*
X13800Y15050D01*
Y15250D01*
X13700Y15350D01*
X13300D01*
X13200Y15250D01*
X13800Y15550D02*
X13200D01*
X13800Y15949D01*
X13200D01*
X13800Y16149D02*
X13200D01*
X13800Y16549D01*
X13200D01*
X13800Y17149D02*
Y16749D01*
X13400Y17149D01*
X13300D01*
X13200Y17049D01*
Y16849D01*
X13300Y16749D01*
X17850Y6950D02*
X17750Y7050D01*
X17550D01*
X17450Y6950D01*
Y6550D01*
X17550Y6450D01*
X17750D01*
X17850Y6550D01*
X18350Y7050D02*
X18150D01*
X18050Y6950D01*
Y6550D01*
X18150Y6450D01*
X18350D01*
X18450Y6550D01*
Y6950D01*
X18350Y7050D01*
X18650Y6450D02*
Y7050D01*
X19049Y6450D01*
Y7050D01*
X19249Y6450D02*
Y7050D01*
X19649Y6450D01*
Y7050D01*
X19849Y6450D02*
X20049D01*
X19949D01*
Y7050D01*
X19849Y6950D01*
X16600Y12400D02*
X16500Y12500D01*
X16300D01*
X16200Y12400D01*
Y12000D01*
X16300Y11900D01*
X16500D01*
X16600Y12000D01*
X17100Y11900D02*
Y12500D01*
X16800Y12200D01*
X17200D01*
X16550Y13250D02*
X16450Y13350D01*
X16250D01*
X16150Y13250D01*
Y12850D01*
X16250Y12750D01*
X16450D01*
X16550Y12850D01*
X17150Y13350D02*
X16750D01*
Y13050D01*
X16950Y13150D01*
X17050D01*
X17150Y13050D01*
Y12850D01*
X17050Y12750D01*
X16850D01*
X16750Y12850D01*
X12050Y12650D02*
Y13250D01*
X12350D01*
X12450Y13150D01*
Y12950D01*
X12350Y12850D01*
X12050D01*
X12650Y12650D02*
X12850D01*
X12750D01*
Y13250D01*
X12650Y13150D01*
X9750Y12600D02*
Y13200D01*
X10050D01*
X10150Y13100D01*
Y12900D01*
X10050Y12800D01*
X9750D01*
X10350Y13200D02*
Y12600D01*
X10650D01*
X10750Y12700D01*
Y12800D01*
X10650Y12900D01*
X10350D01*
X10650D01*
X10750Y13000D01*
Y13100D01*
X10650Y13200D01*
X10350D01*
X10950Y12600D02*
X11150D01*
X11050D01*
Y13200D01*
X10950Y13100D01*
X17350Y15850D02*
X17750Y15250D01*
Y15850D02*
X17350Y15250D01*
X17950D02*
X18150D01*
X18050D01*
Y15850D01*
X17950Y15750D01*
X9400Y2750D02*
X9000D01*
Y2150D01*
X9400D01*
X9000Y2450D02*
X9200D01*
X9600Y2150D02*
X9800D01*
X9700D01*
Y2750D01*
X9600Y2650D01*
X4550Y2200D02*
Y2800D01*
X4850D01*
X4950Y2700D01*
Y2500D01*
X4850Y2400D01*
X4550D01*
X4750D02*
X4950Y2200D01*
X5550Y2800D02*
X5150D01*
Y2500D01*
X5350Y2600D01*
X5450D01*
X5550Y2500D01*
Y2300D01*
X5450Y2200D01*
X5250D01*
X5150Y2300D01*
X4450Y200D02*
Y800D01*
X4750D01*
X4850Y700D01*
Y500D01*
X4750Y400D01*
X4450D01*
X4650D02*
X4850Y200D01*
X5450Y800D02*
X5250Y700D01*
X5050Y500D01*
Y300D01*
X5150Y200D01*
X5350D01*
X5450Y300D01*
Y400D01*
X5350Y500D01*
X5050D01*
X12350Y14800D02*
X12250Y14700D01*
Y14500D01*
X12350Y14400D01*
X12750D01*
X12850Y14500D01*
Y14700D01*
X12750Y14800D01*
X12250Y15300D02*
Y15100D01*
X12350Y15000D01*
X12750D01*
X12850Y15100D01*
Y15300D01*
X12750Y15400D01*
X12350D01*
X12250Y15300D01*
X12850Y15600D02*
X12250D01*
X12850Y15999D01*
X12250D01*
X12850Y16199D02*
X12250D01*
X12850Y16599D01*
X12250D01*
Y17199D02*
X12350Y16999D01*
X12550Y16799D01*
X12750D01*
X12850Y16899D01*
Y17099D01*
X12750Y17199D01*
X12650D01*
X12550Y17099D01*
Y16799D01*
X8900Y15900D02*
X8800Y16000D01*
X8600D01*
X8500Y15900D01*
Y15500D01*
X8600Y15400D01*
X8800D01*
X8900Y15500D01*
X9400Y16000D02*
X9200D01*
X9100Y15900D01*
Y15500D01*
X9200Y15400D01*
X9400D01*
X9500Y15500D01*
Y15900D01*
X9400Y16000D01*
X9700Y15400D02*
Y16000D01*
X10099Y15400D01*
Y16000D01*
X10299Y15400D02*
Y16000D01*
X10699Y15400D01*
Y16000D01*
X10899D02*
X11299D01*
Y15900D01*
X10899Y15500D01*
Y15400D01*
X3832Y4200D02*
Y3600D01*
X4131D01*
X4231Y3700D01*
Y3800D01*
X4131Y3900D01*
X3832D01*
X4131D01*
X4231Y4000D01*
Y4100D01*
X4131Y4200D01*
X3832D01*
X4431Y3600D02*
Y4000D01*
X4631Y4200D01*
X4831Y4000D01*
Y3600D01*
Y3900D01*
X4431D01*
X5031Y4200D02*
X5431D01*
X5231D01*
Y3600D01*
X6031Y4200D02*
X5631D01*
Y3600D01*
X6031D01*
X5631Y3900D02*
X5831D01*
X6231Y3600D02*
Y4200D01*
X6531D01*
X6631Y4100D01*
Y3900D01*
X6531Y3800D01*
X6231D01*
X6431D02*
X6631Y3600D01*
X6831Y4200D02*
X7030D01*
X6930D01*
Y3600D01*
X6831D01*
X7030D01*
X7330D02*
Y4000D01*
X7530Y4200D01*
X7730Y4000D01*
Y3600D01*
Y3900D01*
X7330D01*
X3882Y6600D02*
Y6000D01*
X4181D01*
X4281Y6100D01*
Y6200D01*
X4181Y6300D01*
X3882D01*
X4181D01*
X4281Y6400D01*
Y6500D01*
X4181Y6600D01*
X3882D01*
X4481Y6000D02*
Y6400D01*
X4681Y6600D01*
X4881Y6400D01*
Y6000D01*
Y6300D01*
X4481D01*
X5081Y6600D02*
X5481D01*
X5281D01*
Y6000D01*
X6081Y6600D02*
X5681D01*
Y6000D01*
X6081D01*
X5681Y6300D02*
X5881D01*
X6281Y6000D02*
Y6600D01*
X6581D01*
X6681Y6500D01*
Y6300D01*
X6581Y6200D01*
X6281D01*
X6481D02*
X6681Y6000D01*
X6881Y6600D02*
X7080D01*
X6980D01*
Y6000D01*
X6881D01*
X7080D01*
X7380D02*
Y6400D01*
X7580Y6600D01*
X7780Y6400D01*
Y6000D01*
Y6300D01*
X7380D01*
X3932Y9050D02*
Y8450D01*
X4231D01*
X4331Y8550D01*
Y8650D01*
X4231Y8750D01*
X3932D01*
X4231D01*
X4331Y8850D01*
Y8950D01*
X4231Y9050D01*
X3932D01*
X4531Y8450D02*
Y8850D01*
X4731Y9050D01*
X4931Y8850D01*
Y8450D01*
Y8750D01*
X4531D01*
X5131Y9050D02*
X5531D01*
X5331D01*
Y8450D01*
X6131Y9050D02*
X5731D01*
Y8450D01*
X6131D01*
X5731Y8750D02*
X5931D01*
X6331Y8450D02*
Y9050D01*
X6631D01*
X6731Y8950D01*
Y8750D01*
X6631Y8650D01*
X6331D01*
X6531D02*
X6731Y8450D01*
X6931Y9050D02*
X7130D01*
X7030D01*
Y8450D01*
X6931D01*
X7130D01*
X7430D02*
Y8850D01*
X7630Y9050D01*
X7830Y8850D01*
Y8450D01*
Y8750D01*
X7430D01*
X3932Y11550D02*
Y10950D01*
X4231D01*
X4331Y11050D01*
Y11150D01*
X4231Y11250D01*
X3932D01*
X4231D01*
X4331Y11350D01*
Y11450D01*
X4231Y11550D01*
X3932D01*
X4531Y10950D02*
Y11350D01*
X4731Y11550D01*
X4931Y11350D01*
Y10950D01*
Y11250D01*
X4531D01*
X5131Y11550D02*
X5531D01*
X5331D01*
Y10950D01*
X6131Y11550D02*
X5731D01*
Y10950D01*
X6131D01*
X5731Y11250D02*
X5931D01*
X6331Y10950D02*
Y11550D01*
X6631D01*
X6731Y11450D01*
Y11250D01*
X6631Y11150D01*
X6331D01*
X6531D02*
X6731Y10950D01*
X6931Y11550D02*
X7130D01*
X7030D01*
Y10950D01*
X6931D01*
X7130D01*
X7430D02*
Y11350D01*
X7630Y11550D01*
X7830Y11350D01*
Y10950D01*
Y11250D01*
X7430D01*
X3882Y14200D02*
Y13600D01*
X4181D01*
X4281Y13700D01*
Y13800D01*
X4181Y13900D01*
X3882D01*
X4181D01*
X4281Y14000D01*
Y14100D01*
X4181Y14200D01*
X3882D01*
X4481Y13600D02*
Y14000D01*
X4681Y14200D01*
X4881Y14000D01*
Y13600D01*
Y13900D01*
X4481D01*
X5081Y14200D02*
X5481D01*
X5281D01*
Y13600D01*
X6081Y14200D02*
X5681D01*
Y13600D01*
X6081D01*
X5681Y13900D02*
X5881D01*
X6281Y13600D02*
Y14200D01*
X6581D01*
X6681Y14100D01*
Y13900D01*
X6581Y13800D01*
X6281D01*
X6481D02*
X6681Y13600D01*
X6881Y14200D02*
X7080D01*
X6980D01*
Y13600D01*
X6881D01*
X7080D01*
X7380D02*
Y14000D01*
X7580Y14200D01*
X7780Y14000D01*
Y13600D01*
Y13900D01*
X7380D01*
X-1119Y5550D02*
Y4950D01*
X-819D01*
X-719Y5050D01*
Y5150D01*
X-819Y5250D01*
X-1119D01*
X-819D01*
X-719Y5350D01*
Y5450D01*
X-819Y5550D01*
X-1119D01*
X-519Y4950D02*
Y5350D01*
X-319Y5550D01*
X-119Y5350D01*
Y4950D01*
Y5250D01*
X-519D01*
X81Y5550D02*
X481D01*
X281D01*
Y4950D01*
X1081Y5550D02*
X681D01*
Y4950D01*
X1081D01*
X681Y5250D02*
X881D01*
X1281Y4950D02*
Y5550D01*
X1581D01*
X1681Y5450D01*
Y5250D01*
X1581Y5150D01*
X1281D01*
X1481D02*
X1681Y4950D01*
X1881Y5550D02*
X2080D01*
X1980D01*
Y4950D01*
X1881D01*
X2080D01*
X2380D02*
Y5350D01*
X2580Y5550D01*
X2780Y5350D01*
Y4950D01*
Y5250D01*
X2380D01*
X-1119Y7950D02*
Y7350D01*
X-819D01*
X-719Y7450D01*
Y7550D01*
X-819Y7650D01*
X-1119D01*
X-819D01*
X-719Y7750D01*
Y7850D01*
X-819Y7950D01*
X-1119D01*
X-519Y7350D02*
Y7750D01*
X-319Y7950D01*
X-119Y7750D01*
Y7350D01*
Y7650D01*
X-519D01*
X81Y7950D02*
X481D01*
X281D01*
Y7350D01*
X1081Y7950D02*
X681D01*
Y7350D01*
X1081D01*
X681Y7650D02*
X881D01*
X1281Y7350D02*
Y7950D01*
X1581D01*
X1681Y7850D01*
Y7650D01*
X1581Y7550D01*
X1281D01*
X1481D02*
X1681Y7350D01*
X1881Y7950D02*
X2080D01*
X1980D01*
Y7350D01*
X1881D01*
X2080D01*
X2380D02*
Y7750D01*
X2580Y7950D01*
X2780Y7750D01*
Y7350D01*
Y7650D01*
X2380D01*
X-1119Y10400D02*
Y9800D01*
X-819D01*
X-719Y9900D01*
Y10000D01*
X-819Y10100D01*
X-1119D01*
X-819D01*
X-719Y10200D01*
Y10300D01*
X-819Y10400D01*
X-1119D01*
X-519Y9800D02*
Y10200D01*
X-319Y10400D01*
X-119Y10200D01*
Y9800D01*
Y10100D01*
X-519D01*
X81Y10400D02*
X481D01*
X281D01*
Y9800D01*
X1081Y10400D02*
X681D01*
Y9800D01*
X1081D01*
X681Y10100D02*
X881D01*
X1281Y9800D02*
Y10400D01*
X1581D01*
X1681Y10300D01*
Y10100D01*
X1581Y10000D01*
X1281D01*
X1481D02*
X1681Y9800D01*
X1881Y10400D02*
X2080D01*
X1980D01*
Y9800D01*
X1881D01*
X2080D01*
X2380D02*
Y10200D01*
X2580Y10400D01*
X2780Y10200D01*
Y9800D01*
Y10100D01*
X2380D01*
X-1169Y12950D02*
Y12350D01*
X-869D01*
X-769Y12450D01*
Y12550D01*
X-869Y12650D01*
X-1169D01*
X-869D01*
X-769Y12750D01*
Y12850D01*
X-869Y12950D01*
X-1169D01*
X-569Y12350D02*
Y12750D01*
X-369Y12950D01*
X-169Y12750D01*
Y12350D01*
Y12650D01*
X-569D01*
X31Y12950D02*
X431D01*
X231D01*
Y12350D01*
X1031Y12950D02*
X631D01*
Y12350D01*
X1031D01*
X631Y12650D02*
X831D01*
X1231Y12350D02*
Y12950D01*
X1531D01*
X1631Y12850D01*
Y12650D01*
X1531Y12550D01*
X1231D01*
X1431D02*
X1631Y12350D01*
X1831Y12950D02*
X2030D01*
X1930D01*
Y12350D01*
X1831D01*
X2030D01*
X2330D02*
Y12750D01*
X2530Y12950D01*
X2730Y12750D01*
Y12350D01*
Y12650D01*
X2330D01*
X-1169Y15600D02*
Y15000D01*
X-869D01*
X-769Y15100D01*
Y15200D01*
X-869Y15300D01*
X-1169D01*
X-869D01*
X-769Y15400D01*
Y15500D01*
X-869Y15600D01*
X-1169D01*
X-569Y15000D02*
Y15400D01*
X-369Y15600D01*
X-169Y15400D01*
Y15000D01*
Y15300D01*
X-569D01*
X31Y15600D02*
X431D01*
X231D01*
Y15000D01*
X1031Y15600D02*
X631D01*
Y15000D01*
X1031D01*
X631Y15300D02*
X831D01*
X1231Y15000D02*
Y15600D01*
X1531D01*
X1631Y15500D01*
Y15300D01*
X1531Y15200D01*
X1231D01*
X1431D02*
X1631Y15000D01*
X1831Y15600D02*
X2030D01*
X1930D01*
Y15000D01*
X1831D01*
X2030D01*
X2330D02*
Y15400D01*
X2530Y15600D01*
X2730Y15400D01*
Y15000D01*
Y15300D01*
X2330D01*
D36*
X15020Y11815D02*
G03*
X15020Y11815I-118J0D01*
G01*
D37*
X14867Y12849D02*
G03*
X14867Y12849I-49J0D01*
G01*
D38*
X11000Y16200D02*
Y17300D01*
X12100D01*
Y16200D02*
Y17300D01*
X11000Y16200D02*
X12100D01*
X13081Y10800D02*
X14650Y8931D01*
X16519Y10500D01*
X13081Y10800D02*
X14950Y12369D01*
X16519Y10500D01*
X2420Y1601D02*
X2577D01*
X1908D02*
X2420D01*
X3128D02*
X3955D01*
Y499D02*
Y971D01*
X1908Y499D02*
X3955D01*
X1908D02*
Y1601D01*
X2577D02*
X3128D01*
X3955Y971D02*
Y1601D01*
X8600Y17300D02*
X10700D01*
Y16200D02*
Y17300D01*
X8600Y16200D02*
X10700D01*
X8600D02*
Y17300D01*
X2420Y2901D02*
X2577D01*
X1908D02*
X2420D01*
X3128D02*
X3955D01*
Y1799D02*
Y2271D01*
X1908Y1799D02*
X3955D01*
X1908D02*
Y2901D01*
X2577D02*
X3128D01*
X3955Y2271D02*
Y2901D01*
X13150Y6500D02*
Y7600D01*
Y6500D02*
X17250D01*
Y7600D01*
X13150D02*
X17250D01*
X15820Y17318D02*
X15978D01*
X15308D02*
X15820D01*
X16529D02*
X17356D01*
Y16215D02*
Y16688D01*
X15308Y16215D02*
X17356D01*
X15308D02*
Y17318D01*
X15978D02*
X16529D01*
X17356Y16688D02*
Y17318D01*
X19474Y12021D02*
X19474Y12651D01*
X18096D02*
X18647D01*
X17426Y11549D02*
X17426Y12651D01*
X17426Y11549D02*
X19474Y11549D01*
Y12021D01*
X18647Y12651D02*
X19474D01*
X17426D02*
X17938D01*
X18096D01*
X15970Y13766D02*
X16049D01*
X15970Y15734D02*
X15970Y13766D01*
X15970Y15734D02*
X16049Y15734D01*
X17151Y13766D02*
X17230Y13766D01*
Y15734D01*
X17151D02*
X17230D01*
X19474Y13371D02*
Y14001D01*
X18096D02*
X18647Y14001D01*
X17426Y12899D02*
Y14001D01*
Y12899D02*
X19474D01*
X19474Y13371D02*
X19474Y12899D01*
X18647Y14001D02*
X19474Y14001D01*
X17426D02*
X17938D01*
X18096D01*
X18349Y11274D02*
X18979D01*
X18349Y9896D02*
X18349Y10447D01*
Y9226D02*
X19451D01*
Y11274D01*
X18979D02*
X19451D01*
X18349D02*
X18349Y10447D01*
X18349Y9738D02*
X18349Y9226D01*
X18349Y9738D02*
Y9896D01*
X16265Y8402D02*
X16670Y7920D01*
X17304Y8451D02*
X17726Y8806D01*
X17530Y10080D02*
X18238Y9236D01*
X15962Y8764D02*
X17530Y10080D01*
X15962Y8764D02*
X16265Y8402D01*
X16670Y7920D02*
X17304Y8451D01*
X17846Y8907D02*
X18238Y9236D01*
X17726Y8806D02*
X17846Y8907D01*
X20800Y13350D02*
X21900D01*
X20800Y8250D02*
Y13350D01*
Y8250D02*
X21900D01*
Y13350D01*
X14000Y14200D02*
X15100D01*
Y17300D01*
X14000D02*
X15100D01*
X14000Y14200D02*
Y17300D01*
X9000Y10500D02*
X10917D01*
X9000D02*
X12000D01*
X9000Y8500D02*
X12000D01*
Y10500D01*
X9000Y8500D02*
Y10500D01*
X11828Y10978D02*
Y14522D01*
X9072Y10978D02*
X11828Y10978D01*
X9072Y10978D02*
Y14522D01*
X11828D01*
D39*
X20675Y700D02*
Y5824D01*
X10080Y700D02*
X20675D01*
X10080D02*
Y5824D01*
X20675D01*
D40*
X12250Y9850D02*
X12417D01*
X12333D01*
Y10350D01*
X12250Y10267D01*
X12483Y8350D02*
X12150D01*
X12483Y8683D01*
Y8767D01*
X12400Y8850D01*
X12233D01*
X12150Y8767D01*
X8833Y10150D02*
X8500D01*
Y9900D01*
X8667Y9983D01*
X8750D01*
X8833Y9900D01*
Y9733D01*
X8750Y9650D01*
X8583D01*
X8500Y9733D01*
X8741Y9100D02*
X8592Y8989D01*
X8457Y8796D01*
X8486Y8632D01*
X8582Y8564D01*
X8746Y8593D01*
X8814Y8690D01*
X8799Y8772D01*
X8703Y8840D01*
X8457Y8796D01*
M02*
