G04 Layer_Physical_Order=2*
G04 Layer_Color=16711680*
%FSLAX24Y24*%
%MOIN*%
G70*
G01*
G75*
%ADD11R,0.0787X0.0591*%
%ADD12R,0.0591X0.0787*%
%ADD16C,0.0100*%
%ADD17C,0.0079*%
%ADD18C,0.0039*%
%ADD19C,0.0050*%
%ADD20R,0.0709X0.0709*%
%ADD21C,0.0709*%
%ADD22C,0.1220*%
%ADD23C,0.0543*%
%ADD24R,0.0543X0.0543*%
%ADD25C,0.0787*%
%ADD26R,0.0591X0.0591*%
%ADD27C,0.0591*%
%ADD28R,0.0709X0.0709*%
%ADD29O,0.0394X0.0787*%
%ADD30R,0.0394X0.0787*%
%ADD31C,0.0500*%
D11*
X7434Y3991D02*
D03*
Y2809D02*
D03*
D12*
X1594Y7450D02*
D03*
X2775D02*
D03*
X5425Y8200D02*
D03*
X4244D02*
D03*
X12125Y1150D02*
D03*
X10944D02*
D03*
D16*
X7434Y2587D02*
X10924D01*
X7316D02*
X7434D01*
X7216Y1182D02*
X7350D01*
X11321Y1834D02*
X11376Y2330D01*
X11246Y1150D02*
X11321Y1834D01*
X7434Y2587D02*
Y2809D01*
Y2397D02*
Y2587D01*
X7098Y2180D02*
Y2370D01*
Y1299D02*
Y2180D01*
X8880Y1373D02*
X8906Y1830D01*
X8833Y550D02*
X8880Y1373D01*
X8906Y1350D01*
X8343Y1840D02*
X8880Y1373D01*
X7434Y3991D02*
Y4381D01*
X7246Y4570D02*
X7434Y4381D01*
X6316Y6170D02*
X7783D01*
X8953Y5000D01*
X12326D01*
X12576Y4750D01*
Y650D02*
Y4750D01*
X12476Y550D02*
X12576Y650D01*
X10596Y550D02*
X12476D01*
X10196Y950D02*
X10596Y550D01*
X10196Y950D02*
Y1750D01*
X9727Y2219D02*
X10196Y1750D01*
X7416Y2219D02*
X9727D01*
X7277Y2080D02*
X7416Y2219D01*
X7277Y1599D02*
Y2080D01*
Y1599D02*
X7833Y1043D01*
Y550D02*
Y1043D01*
X7600Y317D02*
X7833Y550D01*
X6350Y317D02*
X7600D01*
X6350D02*
Y800D01*
X11316Y8500D02*
X12084D01*
X9386Y6570D02*
X11316Y8500D01*
X6156Y6570D02*
X9386D01*
X5936Y6350D02*
X6156Y6570D01*
X5936Y5610D02*
Y6350D01*
X10406Y3126D02*
X10924D01*
X10292Y3240D02*
X10406Y3126D01*
X6448Y3240D02*
X10292D01*
X5938Y3750D02*
X6448Y3240D01*
X5938Y3750D02*
Y3849D01*
X4377Y5410D02*
X5938Y3849D01*
X3356Y5410D02*
X4377D01*
X10944Y1150D02*
X11246D01*
X11376Y2330D02*
X11741Y2695D01*
X12116D01*
X12326Y2905D01*
Y3350D01*
X12116Y3560D02*
X12326Y3350D01*
X6707Y3560D02*
X12116D01*
X5556Y4711D02*
X6707Y3560D01*
X5556Y4711D02*
Y4850D01*
X11446Y1350D02*
Y1820D01*
X11246Y1150D02*
X11446Y1350D01*
X9146Y5800D02*
X9224D01*
X9374Y5650D01*
Y5550D02*
Y5650D01*
Y5550D02*
X9703Y5221D01*
X10006D01*
X11284Y6500D01*
X12084D01*
X9756Y5800D02*
X11456Y7500D01*
X12084D01*
X11016Y4280D02*
X11356Y3940D01*
X8356Y4280D02*
X11016D01*
X7686Y4950D02*
X8356Y4280D01*
X5496Y9450D02*
X6284D01*
X4996Y8950D02*
X5496Y9450D01*
X4996Y6224D02*
Y8950D01*
Y6224D02*
X5029D01*
X5503Y5750D01*
Y5444D02*
Y5750D01*
Y5444D02*
X5716Y5231D01*
X7087D01*
X8626Y7060D02*
Y9940D01*
X8116Y10450D02*
X8626Y9940D01*
X6284Y10450D02*
X8116D01*
X5760Y2010D02*
Y3756D01*
X5316Y4200D02*
X5760Y3756D01*
X2384Y4200D02*
X5316D01*
X2234Y4350D02*
X2384Y4200D01*
X2234Y4350D02*
Y4700D01*
X3915Y8200D02*
X4244D01*
X3386Y8730D02*
X3915Y8200D01*
X3070Y8730D02*
X3386D01*
X1234Y4700D02*
Y5128D01*
X2276Y6170D01*
X3070D01*
Y8235D02*
Y8730D01*
X2775Y7940D02*
X3070Y8235D01*
X2775Y7450D02*
Y7940D01*
Y6955D02*
Y7450D01*
Y6955D02*
X3070Y6660D01*
Y6170D02*
Y6660D01*
X5635Y7540D02*
X8066D01*
X5425Y7750D02*
X5635Y7540D01*
X5425Y7750D02*
Y8200D01*
X11836Y3126D02*
X11924D01*
X11006Y2295D02*
X11836Y3126D01*
X10924Y2295D02*
X11006D01*
X7316Y2397D02*
X7434D01*
X7098Y2180D02*
X7316Y2397D01*
X7350Y800D02*
Y1182D01*
X10924Y2295D02*
Y2587D01*
X7098Y2370D02*
X7316Y2587D01*
X7098Y1299D02*
X7216Y1182D01*
X9634Y9400D02*
Y10950D01*
X9134Y11450D02*
X9634Y10950D01*
X6284Y11450D02*
X9134D01*
X5046D02*
X6284D01*
X4516Y11980D02*
X5046Y11450D01*
X2846Y11980D02*
X4516D01*
X2316Y11450D02*
X2846Y11980D01*
X1884Y11450D02*
X2316D01*
X1298Y8730D02*
Y9213D01*
X4116Y9330D01*
X4676Y8770D01*
Y5930D02*
Y8770D01*
Y5930D02*
X5116Y5490D01*
X3234Y3700D02*
X3716D01*
X884Y10158D02*
Y11450D01*
X736Y10010D02*
X884Y10158D01*
X736Y8518D02*
Y10010D01*
Y8518D02*
X1594Y7660D01*
Y7450D02*
Y7660D01*
X3234Y3388D02*
Y3700D01*
X3116Y3270D02*
X3234Y3388D01*
X1056Y3270D02*
X3116D01*
X776Y3550D02*
X1056Y3270D01*
X776Y3550D02*
Y6550D01*
X1176Y6950D01*
X1494D01*
X1594Y7050D01*
Y7450D01*
X3716Y3700D02*
X4468Y2948D01*
Y550D02*
Y2948D01*
Y550D02*
X4879Y138D01*
X8421D01*
X8833Y550D01*
X8906Y1350D01*
X7656Y1840D02*
X8343D01*
X11924Y1821D02*
Y2295D01*
Y1821D02*
X12125Y1620D01*
Y1150D02*
Y1620D01*
X3284Y10372D02*
Y11450D01*
Y10372D02*
X3716Y9940D01*
X6916D01*
X7196Y9660D01*
Y8220D02*
Y9660D01*
D17*
X10633Y3824D02*
G03*
X10633Y3824I-39J0D01*
G01*
D02*
G03*
X10633Y3824I-39J0D01*
G01*
D18*
X6857Y6792D02*
G03*
X6857Y6792I-197J0D01*
G01*
X9328Y10030D02*
G03*
X10941Y10030I807J-630D01*
G01*
X4593Y5520D02*
X6704Y7291D01*
X6364Y3409D02*
X8476Y5180D01*
X6704Y7291D02*
X8476Y5180D01*
X4593Y5520D02*
X6364Y3409D01*
X9328Y10030D02*
X10941D01*
D19*
X10223Y1846D02*
X12624D01*
X10223D02*
Y3575D01*
X12624D01*
Y1846D02*
Y3575D01*
X10223Y1846D02*
X12624D01*
X10223D02*
Y3575D01*
X12624D01*
Y1846D02*
Y3575D01*
D20*
X6284Y9450D02*
D03*
X12084Y8500D02*
D03*
X3284Y11450D02*
D03*
D21*
X6284D02*
D03*
Y10450D02*
D03*
X12084Y4500D02*
D03*
Y5500D02*
D03*
Y6500D02*
D03*
Y7500D02*
D03*
X8350Y800D02*
D03*
X7350D02*
D03*
X6350D02*
D03*
X1884Y11450D02*
D03*
D22*
X1181Y1181D02*
D03*
X11811Y11220D02*
D03*
D23*
X1984Y2400D02*
D03*
X984D02*
D03*
X10924Y2295D02*
D03*
X11924D02*
D03*
Y3126D02*
D03*
D24*
X2984Y2400D02*
D03*
X10924Y3126D02*
D03*
D25*
X1298Y6170D02*
D03*
Y8730D02*
D03*
X3070Y6170D02*
D03*
Y8730D02*
D03*
D26*
X3234Y4700D02*
D03*
D27*
Y3700D02*
D03*
X2234Y4700D02*
D03*
Y3700D02*
D03*
X1234Y4700D02*
D03*
Y3700D02*
D03*
D28*
X5350Y800D02*
D03*
X884Y11450D02*
D03*
D29*
X10634Y9400D02*
D03*
X10134D02*
D03*
D30*
X9634D02*
D03*
D31*
X7246Y4570D02*
D03*
X6316Y6170D02*
D03*
X5936Y5610D02*
D03*
X3356Y5410D02*
D03*
X5556Y4850D02*
D03*
X11446Y1820D02*
D03*
X9146Y5800D02*
D03*
X9756D02*
D03*
X11356Y3940D02*
D03*
X7686Y4950D02*
D03*
X7087Y5231D02*
D03*
X8626Y7060D02*
D03*
X5760Y2010D02*
D03*
X8066Y7540D02*
D03*
X5116Y5490D02*
D03*
X8906Y1830D02*
D03*
X7656Y1840D02*
D03*
X7196Y8220D02*
D03*
M02*
