G04 Layer_Color=16711935*
%FSLAX24Y24*%
%MOIN*%
G70*
G01*
G75*
%ADD17C,0.0079*%
%ADD18C,0.0039*%
%ADD19C,0.0050*%
%ADD36R,0.0867X0.0671*%
%ADD37R,0.0671X0.0867*%
%ADD41R,0.0789X0.0789*%
%ADD42C,0.0789*%
%ADD43C,0.1300*%
%ADD44C,0.0623*%
%ADD45R,0.0623X0.0623*%
%ADD46C,0.0867*%
%ADD47R,0.0671X0.0671*%
%ADD48C,0.0671*%
%ADD49R,0.0789X0.0789*%
%ADD50O,0.0474X0.0867*%
%ADD51R,0.0474X0.0867*%
%ADD52C,0.0580*%
D17*
X10633Y3824D02*
G03*
X10633Y3824I-39J0D01*
G01*
D02*
G03*
X10633Y3824I-39J0D01*
G01*
D18*
X6857Y6792D02*
G03*
X6857Y6792I-197J0D01*
G01*
X9328Y10030D02*
G03*
X10941Y10030I807J-630D01*
G01*
X4593Y5520D02*
X6704Y7291D01*
X6364Y3409D02*
X8476Y5180D01*
X6704Y7291D02*
X8476Y5180D01*
X4593Y5520D02*
X6364Y3409D01*
X9328Y10030D02*
X10941D01*
D19*
X10223Y1846D02*
X12624D01*
X10223D02*
Y3575D01*
X12624D01*
Y1846D02*
Y3575D01*
X10223Y1846D02*
X12624D01*
X10223D02*
Y3575D01*
X12624D01*
Y1846D02*
Y3575D01*
D36*
X7434Y3991D02*
D03*
Y2809D02*
D03*
D37*
X1594Y7450D02*
D03*
X2775D02*
D03*
X5425Y8200D02*
D03*
X4244D02*
D03*
X12125Y1150D02*
D03*
X10944D02*
D03*
D41*
X6284Y9450D02*
D03*
X12084Y8500D02*
D03*
X3284Y11450D02*
D03*
D42*
X6284D02*
D03*
Y10450D02*
D03*
X12084Y4500D02*
D03*
Y5500D02*
D03*
Y6500D02*
D03*
Y7500D02*
D03*
X8350Y800D02*
D03*
X7350D02*
D03*
X6350D02*
D03*
X1884Y11450D02*
D03*
D43*
X1181Y1181D02*
D03*
X11811Y11220D02*
D03*
D44*
X1984Y2400D02*
D03*
X984D02*
D03*
X10924Y2295D02*
D03*
X11924D02*
D03*
Y3126D02*
D03*
D45*
X2984Y2400D02*
D03*
X10924Y3126D02*
D03*
D46*
X1298Y6170D02*
D03*
Y8730D02*
D03*
X3070Y6170D02*
D03*
Y8730D02*
D03*
D47*
X3234Y4700D02*
D03*
D48*
Y3700D02*
D03*
X2234Y4700D02*
D03*
Y3700D02*
D03*
X1234Y4700D02*
D03*
Y3700D02*
D03*
D49*
X5350Y800D02*
D03*
X884Y11450D02*
D03*
D50*
X10634Y9400D02*
D03*
X10134D02*
D03*
D51*
X9634D02*
D03*
D52*
X7246Y4570D02*
D03*
X6316Y6170D02*
D03*
X5936Y5610D02*
D03*
X3356Y5410D02*
D03*
X5556Y4850D02*
D03*
X11446Y1820D02*
D03*
X9146Y5800D02*
D03*
X9756D02*
D03*
X11356Y3940D02*
D03*
X7686Y4950D02*
D03*
X7087Y5231D02*
D03*
X8626Y7060D02*
D03*
X5760Y2010D02*
D03*
X8066Y7540D02*
D03*
X5116Y5490D02*
D03*
X8906Y1830D02*
D03*
X7656Y1840D02*
D03*
X7196Y8220D02*
D03*
M02*
