G04 Layer_Color=65535*
%FSLAX24Y24*%
%MOIN*%
G70*
G01*
G75*
%ADD16C,0.0100*%
%ADD17C,0.0079*%
%ADD18C,0.0039*%
%ADD19C,0.0050*%
%ADD32C,0.0098*%
%ADD33C,0.0236*%
%ADD34C,0.0080*%
D16*
X5034Y9450D02*
X4934Y9350D01*
Y9150D01*
X5034Y9050D01*
X5434D01*
X5534Y9150D01*
Y9350D01*
X5434Y9450D01*
X4934Y9950D02*
Y9750D01*
X5034Y9650D01*
X5434D01*
X5534Y9750D01*
Y9950D01*
X5434Y10050D01*
X5034D01*
X4934Y9950D01*
X5534Y10250D02*
X4934D01*
X5534Y10649D01*
X4934D01*
X5534Y10849D02*
X4934D01*
X5534Y11249D01*
X4934D01*
X5534Y11849D02*
Y11449D01*
X5134Y11849D01*
X5034D01*
X4934Y11749D01*
Y11549D01*
X5034Y11449D01*
X634Y10600D02*
X534Y10700D01*
X334D01*
X234Y10600D01*
Y10200D01*
X334Y10100D01*
X534D01*
X634Y10200D01*
X1134Y10700D02*
X934D01*
X834Y10600D01*
Y10200D01*
X934Y10100D01*
X1134D01*
X1234Y10200D01*
Y10600D01*
X1134Y10700D01*
X1434Y10100D02*
Y10700D01*
X1834Y10100D01*
Y10700D01*
X2034Y10100D02*
Y10700D01*
X2434Y10100D01*
Y10700D01*
X2633D02*
X3033D01*
Y10600D01*
X2633Y10200D01*
Y10100D01*
X4084Y9500D02*
X3984Y9400D01*
Y9200D01*
X4084Y9100D01*
X4484D01*
X4584Y9200D01*
Y9400D01*
X4484Y9500D01*
X3984Y10000D02*
Y9800D01*
X4084Y9700D01*
X4484D01*
X4584Y9800D01*
Y10000D01*
X4484Y10100D01*
X4084D01*
X3984Y10000D01*
X4584Y10300D02*
X3984D01*
X4584Y10699D01*
X3984D01*
X4584Y10899D02*
X3984D01*
X4584Y11299D01*
X3984D01*
Y11899D02*
X4084Y11699D01*
X4284Y11499D01*
X4484D01*
X4584Y11599D01*
Y11799D01*
X4484Y11899D01*
X4384D01*
X4284Y11799D01*
Y11499D01*
X9134Y1900D02*
Y2500D01*
X9434D01*
X9534Y2400D01*
Y2200D01*
X9434Y2100D01*
X9134D01*
X9334D02*
X9534Y1900D01*
X10134Y2500D02*
X9734D01*
Y2200D01*
X9934Y2300D01*
X10034D01*
X10134Y2200D01*
Y2000D01*
X10034Y1900D01*
X9834D01*
X9734Y2000D01*
X7000Y9200D02*
X7600Y9600D01*
X7000D02*
X7600Y9200D01*
Y9800D02*
Y10000D01*
Y9900D01*
X7000D01*
X7100Y9800D01*
X1484Y7300D02*
Y7900D01*
X1784D01*
X1884Y7800D01*
Y7600D01*
X1784Y7500D01*
X1484D01*
X2084Y7900D02*
Y7300D01*
X2384D01*
X2484Y7400D01*
Y7500D01*
X2384Y7600D01*
X2084D01*
X2384D01*
X2484Y7700D01*
Y7800D01*
X2384Y7900D01*
X2084D01*
X2684Y7300D02*
X2884D01*
X2784D01*
Y7900D01*
X2684Y7800D01*
X3784Y7350D02*
Y7950D01*
X4084D01*
X4184Y7850D01*
Y7650D01*
X4084Y7550D01*
X3784D01*
X4384Y7350D02*
X4584D01*
X4484D01*
Y7950D01*
X4384Y7850D01*
X8284Y7950D02*
X8184Y8050D01*
X7984D01*
X7884Y7950D01*
Y7550D01*
X7984Y7450D01*
X8184D01*
X8284Y7550D01*
X8884Y8050D02*
X8484D01*
Y7750D01*
X8684Y7850D01*
X8784D01*
X8884Y7750D01*
Y7550D01*
X8784Y7450D01*
X8584D01*
X8484Y7550D01*
X8450Y7100D02*
X8350Y7200D01*
X8150D01*
X8050Y7100D01*
Y6700D01*
X8150Y6600D01*
X8350D01*
X8450Y6700D01*
X8950Y6600D02*
Y7200D01*
X8650Y6900D01*
X9050D01*
X5400Y2000D02*
X5300Y2100D01*
X5100D01*
X5000Y2000D01*
Y1600D01*
X5100Y1500D01*
X5300D01*
X5400Y1600D01*
X5900Y2100D02*
X5700D01*
X5600Y2000D01*
Y1600D01*
X5700Y1500D01*
X5900D01*
X6000Y1600D01*
Y2000D01*
X5900Y2100D01*
X6200Y1500D02*
Y2100D01*
X6599Y1500D01*
Y2100D01*
X6799Y1500D02*
Y2100D01*
X7199Y1500D01*
Y2100D01*
X7399Y1500D02*
X7599D01*
X7499D01*
Y2100D01*
X7399Y2000D01*
X6248Y8436D02*
X6291Y7938D01*
X6400Y7847D01*
X6599Y7865D01*
X6690Y7973D01*
X6646Y8471D01*
X6898Y7891D02*
X7097Y7908D01*
X6997Y7900D01*
X6945Y8497D01*
X6854Y8389D01*
X9300Y11300D02*
Y11900D01*
X9600D01*
X9700Y11800D01*
Y11600D01*
X9600Y11500D01*
X9300D01*
X9500D02*
X9700Y11300D01*
X10200D02*
Y11900D01*
X9900Y11600D01*
X10300D01*
X12400Y9550D02*
X12300Y9450D01*
Y9250D01*
X12400Y9150D01*
X12800D01*
X12900Y9250D01*
Y9450D01*
X12800Y9550D01*
X12300Y10050D02*
Y9850D01*
X12400Y9750D01*
X12800D01*
X12900Y9850D01*
Y10050D01*
X12800Y10150D01*
X12400D01*
X12300Y10050D01*
X12900Y10350D02*
X12300D01*
X12900Y10749D01*
X12300D01*
X12900Y10949D02*
X12300D01*
X12900Y11349D01*
X12300D01*
X12400Y11549D02*
X12300Y11649D01*
Y11849D01*
X12400Y11949D01*
X12500D01*
X12600Y11849D01*
Y11749D01*
Y11849D01*
X12700Y11949D01*
X12800D01*
X12900Y11849D01*
Y11649D01*
X12800Y11549D01*
X9984Y5100D02*
X9384D01*
Y5400D01*
X9484Y5500D01*
X9684D01*
X9784Y5400D01*
Y5100D01*
Y5300D02*
X9984Y5500D01*
X9384Y5700D02*
Y6100D01*
X9484D01*
X9884Y5700D01*
X9984D01*
X9734Y2750D02*
X9349Y3209D01*
X9578Y3402D01*
X9719Y3390D01*
X9848Y3237D01*
X9835Y3096D01*
X9606Y2903D01*
X9759Y3032D02*
X10041Y3007D01*
X9872Y3518D02*
X9885Y3659D01*
X10038Y3788D01*
X10179Y3775D01*
X10243Y3699D01*
X10231Y3558D01*
X10372Y3546D01*
X10436Y3469D01*
X10423Y3328D01*
X10270Y3200D01*
X10129Y3212D01*
X10065Y3289D01*
X10078Y3430D01*
X9937Y3442D01*
X9872Y3518D01*
X10078Y3430D02*
X10231Y3558D01*
X12450Y5700D02*
X12850D01*
X12450Y5300D01*
X12850D01*
X12400Y6750D02*
Y6450D01*
X12500Y6350D01*
X12800D01*
Y6250D01*
X12700Y6150D01*
X12600D01*
X12800Y6350D02*
Y6750D01*
X12350Y7700D02*
X12750Y7300D01*
X12550Y7500D01*
X12750Y7700D01*
X12350Y7300D01*
X6050Y7550D02*
X6250D01*
X6150D01*
Y8150D01*
X6050Y8050D01*
X200Y6250D02*
X600D01*
X12500Y4500D02*
X12900D01*
X12350Y3100D02*
X12750D01*
X7150Y1250D02*
X7550D01*
X9350Y9930D02*
X9750D01*
X10650Y10150D02*
X11050D01*
X10850Y10350D02*
Y9950D01*
X10000Y9950D02*
X10300D01*
X10400Y10050D01*
X10300Y10150D01*
X10100D01*
X10000Y10250D01*
X10100Y10350D01*
X10400D01*
X10650Y6850D02*
X10250D01*
X10700Y7900D02*
X10300D01*
X6350Y12150D02*
X5950D01*
X2050Y11850D02*
X1650D01*
X600Y8700D02*
X200D01*
X2000Y6450D02*
X1600D01*
X550Y3950D02*
X150D01*
X3750Y2400D02*
X3350D01*
X8700Y3050D02*
X8300D01*
D17*
X5734Y8900D02*
Y12000D01*
X6834D01*
Y8900D02*
Y12000D01*
X5734Y8900D02*
X6834D01*
X806Y9222D02*
X3562D01*
X806Y5678D02*
Y9222D01*
Y5678D02*
X3562Y5678D01*
Y9222D01*
X734Y3200D02*
Y5200D01*
X3734Y3200D02*
Y5200D01*
X734Y3200D02*
X3734D01*
X734Y5200D02*
X3734D01*
X734D02*
X2651D01*
X12634Y3950D02*
Y9050D01*
X11534Y3950D02*
X12634D01*
X11534D02*
Y9050D01*
X12634D01*
X9460Y3506D02*
X9581Y3607D01*
X9973Y3936D01*
X8404Y2620D02*
X9038Y3151D01*
X7696Y3464D02*
X8000Y3102D01*
X7696Y3464D02*
X9264Y4780D01*
X9973Y3936D01*
X9038Y3151D02*
X9460Y3506D01*
X8000Y3102D02*
X8404Y2620D01*
X10083Y4438D02*
Y4596D01*
Y4438D02*
X10083Y3926D01*
X10083Y5974D02*
X10083Y5147D01*
X10713Y5974D02*
X11185D01*
Y3926D02*
Y5974D01*
X10083Y3926D02*
X11185D01*
X10083Y4596D02*
X10083Y5147D01*
X10083Y5974D02*
X10713D01*
X9672Y8701D02*
X9830D01*
X9161D02*
X9672D01*
X10381Y8701D02*
X11208Y8701D01*
Y8071D02*
X11208Y7599D01*
X9161D02*
X11208D01*
X9161D02*
Y8701D01*
X9830D02*
X10381Y8701D01*
X11208Y8071D02*
Y8701D01*
X8885Y10434D02*
X8964D01*
Y8466D02*
Y10434D01*
X8885Y8466D02*
X8964Y8466D01*
X7704Y10434D02*
X7783Y10434D01*
X7704Y10434D02*
X7704Y8466D01*
X7783D01*
X9672Y7351D02*
X9830D01*
X9161D02*
X9672D01*
X10381D02*
X11208D01*
X11208Y6249D02*
Y6721D01*
X9161Y6249D02*
X11208Y6249D01*
X9161Y6249D02*
X9161Y7351D01*
X9830D02*
X10381D01*
X11208Y6721D02*
X11208Y7351D01*
X9090Y11388D02*
Y12018D01*
X7712D02*
X8263D01*
X7043Y10915D02*
Y12018D01*
Y10915D02*
X9090D01*
Y11388D01*
X8263Y12018D02*
X9090D01*
X7043D02*
X7554D01*
X7712D01*
X4800Y1350D02*
X8900D01*
Y250D02*
Y1350D01*
X4800Y250D02*
X8900D01*
X4800D02*
Y1350D01*
X9261Y599D02*
Y1229D01*
X10087Y599D02*
X10639D01*
X11308D02*
Y1701D01*
X9261D02*
X11308D01*
X9261Y1229D02*
Y1701D01*
Y599D02*
X10087D01*
X10796D02*
X11308D01*
X10639D02*
X10796D01*
X334Y10900D02*
Y12000D01*
Y10900D02*
X2434D01*
Y12000D01*
X334D02*
X2434D01*
X6685Y7069D02*
X8254Y5200D01*
X4815Y5500D02*
X6685Y7069D01*
X6384Y3631D02*
X8254Y5200D01*
X4815Y5500D02*
X6384Y3631D01*
X2734Y10900D02*
X3834D01*
Y12000D01*
X2734D02*
X3834D01*
X2734Y10900D02*
Y12000D01*
X10633Y3824D02*
G03*
X10633Y3824I-39J0D01*
G01*
D02*
G03*
X10633Y3824I-39J0D01*
G01*
D18*
X6857Y6792D02*
G03*
X6857Y6792I-197J0D01*
G01*
X9328Y10030D02*
G03*
X10941Y10030I807J-630D01*
G01*
X4593Y5520D02*
X6704Y7291D01*
X6364Y3409D02*
X8476Y5180D01*
X6704Y7291D02*
X8476Y5180D01*
X4593Y5520D02*
X6364Y3409D01*
X9328Y10030D02*
X10941D01*
D19*
X10223Y1846D02*
X12624D01*
X10223D02*
Y3575D01*
X12624D01*
Y1846D02*
Y3575D01*
X10223Y1846D02*
X12624D01*
X10223D02*
Y3575D01*
X12624D01*
Y1846D02*
Y3575D01*
D32*
X6601Y7549D02*
G03*
X6601Y7549I-49J0D01*
G01*
D33*
X6754Y6515D02*
G03*
X6754Y6515I-118J0D01*
G01*
D34*
X476Y3800D02*
X326Y3689D01*
X191Y3496D01*
X220Y3332D01*
X316Y3264D01*
X480Y3293D01*
X548Y3390D01*
X533Y3472D01*
X437Y3540D01*
X191Y3496D01*
X567Y4850D02*
X234D01*
Y4600D01*
X401Y4683D01*
X484D01*
X567Y4600D01*
Y4433D01*
X484Y4350D01*
X318D01*
X234Y4433D01*
X4217Y3050D02*
X3884D01*
X4217Y3383D01*
Y3467D01*
X4134Y3550D01*
X3968D01*
X3884Y3467D01*
X3984Y4550D02*
X4151D01*
X4068D01*
Y5050D01*
X3984Y4967D01*
M02*
