G04 Layer_Color=8421504*
%FSLAX44Y44*%
%MOMM*%
%TF.FileFunction,Paste,Top*%
%TF.Part,Single*%
G01*
G75*
%TA.AperFunction,SMDPad*%
G04:AMPARAMS|DCode=10|XSize=0.55mm|YSize=1.5mm|CornerRadius=0mm|HoleSize=0mm|Usage=FLASHONLY|Rotation=310.000|XOffset=0mm|YOffset=0mm|HoleType=Round|Shape=Round|*
%AMOVALD10*
21,1,0.9500,0.5500,0.0000,0.0000,40.0*
1,1,0.5500,-0.3639,-0.3053*
1,1,0.5500,0.3639,0.3053*
%
%ADD10OVALD10*%

%TA.AperFunction,SMDPad*%
G04:AMPARAMS|DCode=11|XSize=0.55mm|YSize=1.5mm|CornerRadius=0mm|HoleSize=0mm|Usage=FLASHONLY|Rotation=40.000|XOffset=0mm|YOffset=0mm|HoleType=Round|Shape=Round|*
%AMOVALD11*
21,1,0.9500,0.5500,0.0000,0.0000,130.0*
1,1,0.5500,0.3053,-0.3639*
1,1,0.5500,-0.3053,0.3639*
%
%ADD11OVALD11*%

%TA.AperFunction,SMDPad*%
%ADD12R,1.5000X2.0000*%
%TA.AperFunction,SMDPad*%
%ADD13R,2.4000X1.9000*%
%TA.AperFunction,SMDPad*%
%ADD14R,2.0000X1.5000*%
%TA.AperFunction,SMDPad*%
G04:AMPARAMS|DCode=15|XSize=1.5mm|YSize=2mm|CornerRadius=0mm|HoleSize=0mm|Usage=FLASHONLY|Rotation=40.000|XOffset=0mm|YOffset=0mm|HoleType=Round|Shape=Rectangle|*
%AMROTATEDRECTD15*
4,1,4,0.0683,-1.2481,-1.2173,0.2839,-0.0683,1.2481,1.2173,-0.2839,0.0683,-1.2481,0.0*
%
%ADD15ROTATEDRECTD15*%

%TA.AperFunction,SMDPad*%
%ADD16R,0.6350X1.5240*%
%TA.AperFunction,SMDPad*%
%ADD17R,1.5240X0.6350*%
D10*
X390479Y319278D02*
D03*
X395621Y313149D02*
D03*
X400764Y307021D02*
D03*
X405906Y300893D02*
D03*
X411048Y294764D02*
D03*
X416191Y288636D02*
D03*
X421333Y282508D02*
D03*
X426475Y276379D02*
D03*
X361361Y221742D02*
D03*
X356219Y227871D02*
D03*
X351077Y233999D02*
D03*
X345934Y240128D02*
D03*
X340792Y246255D02*
D03*
X335650Y252384D02*
D03*
X330507Y258512D02*
D03*
X325365Y264641D02*
D03*
D11*
X424688Y255951D02*
D03*
X418559Y250809D02*
D03*
X412431Y245667D02*
D03*
X406302Y240524D02*
D03*
X399941Y235956D02*
D03*
X394046Y230240D02*
D03*
X387917Y225098D02*
D03*
X381789Y219955D02*
D03*
X327152Y285069D02*
D03*
X333280Y290211D02*
D03*
X339409Y295353D02*
D03*
X345537Y300496D02*
D03*
X351665Y305638D02*
D03*
X357794Y310781D02*
D03*
X363923Y315922D02*
D03*
X370051Y321065D02*
D03*
D12*
X59460Y26670D02*
D03*
X89460D02*
D03*
X59460Y59690D02*
D03*
X89460D02*
D03*
X399830Y425870D02*
D03*
X429830D02*
D03*
X483630Y307340D02*
D03*
X453630D02*
D03*
X483630Y341630D02*
D03*
X453630D02*
D03*
D13*
X421640Y395150D02*
D03*
Y354150D02*
D03*
D14*
X480060Y275350D02*
D03*
Y245350D02*
D03*
D15*
X422849Y218958D02*
D03*
X445831Y238242D02*
D03*
D16*
X454020Y150438D02*
D03*
X439020D02*
D03*
X424020D02*
D03*
X409020D02*
D03*
X394020D02*
D03*
X379020D02*
D03*
X364020D02*
D03*
X349020D02*
D03*
X334020D02*
D03*
X319020D02*
D03*
X304020D02*
D03*
X289020D02*
D03*
X274020D02*
D03*
Y15240D02*
D03*
X289020D02*
D03*
X304020D02*
D03*
X319020D02*
D03*
X334020D02*
D03*
X349020D02*
D03*
X364020D02*
D03*
X379020D02*
D03*
X394020D02*
D03*
X409020D02*
D03*
X424020D02*
D03*
X439020D02*
D03*
X454020D02*
D03*
D17*
X255270Y135438D02*
D03*
Y120438D02*
D03*
Y105438D02*
D03*
Y90438D02*
D03*
Y75438D02*
D03*
Y60198D02*
D03*
Y45212D02*
D03*
Y30226D02*
D03*
%TF.MD5,198E8CA75303949659C9BBB6163A9473*%
M02*
