G04 Layer_Color=16711935*
%FSLAX44Y44*%
%MOMM*%
%TF.FileFunction,Mechanical*%
%TF.Part,Single*%
G01*
G75*
%ADD38C,0.2000*%
%ADD39C,0.1270*%
%ADD67C,0.1000*%
%ADD68C,0.1524*%
D38*
X107438Y70452D02*
G03*
X107438Y70452I-1000J0D01*
G01*
D02*
G03*
X107438Y70452I-1000J0D01*
G01*
D39*
X324514Y247761D02*
G03*
X324514Y247761I-1270J0D01*
G01*
X326836D02*
G03*
X326836Y247761I-3592J0D01*
G01*
X324514D02*
G03*
X324514Y247761I-1270J0D01*
G01*
X326836D02*
G03*
X326836Y247761I-3592J0D01*
G01*
X158030Y20230D02*
Y64130D01*
X97030D02*
X158030D01*
X97030Y20230D02*
Y64130D01*
Y20230D02*
X158030D01*
Y64130D01*
X97030D02*
X158030D01*
X97030Y20230D02*
Y64130D01*
Y20230D02*
X158030D01*
X347254Y264591D02*
X356982Y272755D01*
X321198Y275886D02*
X329361Y266156D01*
X347254Y264591D02*
X356982Y272755D01*
X321198Y275886D02*
X329361Y266156D01*
D67*
X446872Y389387D02*
G03*
X487848Y389387I20488J-16007D01*
G01*
X384125Y307140D02*
G03*
X384125Y307140I-5000J0D01*
G01*
X446872Y389380D02*
X487849D01*
X326611Y274824D02*
X371606Y221201D01*
X380234Y319819D02*
X425229Y266196D01*
X371606Y221201D02*
X425229Y266196D01*
X326611Y274824D02*
X380234Y319819D01*
D68*
X329361Y266156D02*
X333443Y261292D01*
X342389Y260509D02*
X356982Y272755D01*
X340656Y292212D02*
X356982Y272755D01*
X321198Y275886D02*
X340656Y292212D01*
%TF.MD5,2C80D74CA464770D4CAA762AAE2DAF87*%
M02*
