G04 Layer_Color=32896*
%FSLAX44Y44*%
%MOMM*%
%TF.FileFunction,Legend,Bot*%
%TF.Part,Single*%
G01*
G75*
%ADD18C,0.2540*%
%ADD37C,0.2500*%
%ADD38C,0.2000*%
%ADD39C,0.1270*%
%ADD40C,0.2032*%
%ADD61C,0.1600*%
D18*
X321407Y175237D02*
G03*
X200286Y175898I-59995J103926D01*
G01*
X411150Y250190D02*
G03*
X411150Y250190I-150000J0D01*
G01*
X461150D02*
G03*
X461150Y250190I-200000J0D01*
G01*
X200660Y115260D02*
Y175260D01*
Y115260D02*
X320660D01*
Y175260D01*
X360210Y97790D02*
X353028Y104972D01*
Y112154D01*
X360210Y112154D01*
X367392Y104972D01*
X362006Y110358D01*
X354824Y103176D01*
X370983Y108563D02*
X360210Y119336D01*
X378165Y115745D01*
X367392Y126517D01*
X370983Y130108D02*
X378165Y137290D01*
X374574Y133699D01*
X385347Y122927D01*
X388937Y148063D02*
X381756Y140881D01*
X392528Y130108D01*
X399710Y137290D01*
X387142Y135495D02*
X390733Y139086D01*
X403301Y140881D02*
X392528Y151654D01*
X410483Y148063D01*
X399710Y158836D01*
X414074Y151654D02*
X406892Y158836D01*
Y166018D01*
X414074D01*
X421256Y158836D01*
X415870Y164222D01*
X408688Y157041D01*
X525780Y378455D02*
Y365759D01*
X523241Y363220D01*
X518162D01*
X515623Y365759D01*
Y378455D01*
X500388Y363220D02*
X510545D01*
X500388Y373377D01*
Y375916D01*
X502927Y378455D01*
X508006D01*
X510545Y375916D01*
X288286Y245107D02*
X290825Y242568D01*
Y237489D01*
X288286Y234950D01*
X278129D01*
X275590Y237489D01*
Y242568D01*
X278129Y245107D01*
X290825Y257803D02*
Y252724D01*
X288286Y250185D01*
X278129D01*
X275590Y252724D01*
Y257803D01*
X278129Y260342D01*
X288286D01*
X290825Y257803D01*
X275590Y265420D02*
X290825D01*
X275590Y275577D01*
X290825D01*
X275590Y280655D02*
X290825D01*
X275590Y290812D01*
X290825D01*
Y306047D02*
Y295890D01*
X283207D01*
X285747Y300969D01*
Y303508D01*
X283207Y306047D01*
X278129D01*
X275590Y303508D01*
Y298430D01*
X278129Y295890D01*
X525784Y234953D02*
X523245Y237493D01*
Y242571D01*
X525784Y245110D01*
X535941D01*
X538480Y242571D01*
Y237493D01*
X535941Y234953D01*
X523245Y229875D02*
Y219718D01*
X525784D01*
X535941Y229875D01*
X538480D01*
X393700Y2540D02*
Y17775D01*
X386082D01*
X383543Y15236D01*
Y10158D01*
X386082Y7618D01*
X393700D01*
X388622D02*
X383543Y2540D01*
X378465Y15236D02*
X375926Y17775D01*
X370847D01*
X368308Y15236D01*
Y12697D01*
X370847Y10158D01*
X373387D01*
X370847D01*
X368308Y7618D01*
Y5079D01*
X370847Y2540D01*
X375926D01*
X378465Y5079D01*
X441960Y68575D02*
Y53340D01*
X431803D01*
X416568Y68575D02*
X426725D01*
Y53340D01*
X416568D01*
X426725Y60957D02*
X421647D01*
X411490Y68575D02*
Y53340D01*
X403872D01*
X401333Y55879D01*
Y66036D01*
X403872Y68575D01*
X411490D01*
X396255Y53340D02*
X391176D01*
X393716D01*
Y68575D01*
X396255Y66036D01*
X525784Y262893D02*
X523245Y265432D01*
Y270511D01*
X525784Y273050D01*
X535941D01*
X538480Y270511D01*
Y265432D01*
X535941Y262893D01*
X538480Y257815D02*
Y252737D01*
Y255276D01*
X523245D01*
X525784Y257815D01*
Y295913D02*
X523245Y298452D01*
Y303531D01*
X525784Y306070D01*
X535941D01*
X538480Y303531D01*
Y298452D01*
X535941Y295913D01*
X538480Y280678D02*
Y290835D01*
X528323Y280678D01*
X525784D01*
X523245Y283217D01*
Y288296D01*
X525784Y290835D01*
Y330203D02*
X523245Y332743D01*
Y337821D01*
X525784Y340360D01*
X535941D01*
X538480Y337821D01*
Y332743D01*
X535941Y330203D01*
X525784Y325125D02*
X523245Y322586D01*
Y317507D01*
X525784Y314968D01*
X528323D01*
X530863Y317507D01*
Y320047D01*
Y317507D01*
X533402Y314968D01*
X535941D01*
X538480Y317507D01*
Y322586D01*
X535941Y325125D01*
X274320Y345440D02*
Y360675D01*
X266702D01*
X264163Y358136D01*
Y353058D01*
X266702Y350518D01*
X274320D01*
X269242D02*
X264163Y345440D01*
X259085D02*
X254007D01*
X256546D01*
Y360675D01*
X259085Y358136D01*
X312420Y365760D02*
Y380995D01*
X304802D01*
X302263Y378456D01*
Y373377D01*
X304802Y370838D01*
X312420D01*
X307342D02*
X302263Y365760D01*
X287028D02*
X297185D01*
X287028Y375917D01*
Y378456D01*
X289567Y380995D01*
X294646D01*
X297185Y378456D01*
X373380Y316225D02*
Y303529D01*
X370841Y300990D01*
X365762D01*
X363223Y303529D01*
Y316225D01*
X358145Y313686D02*
X355606Y316225D01*
X350527D01*
X347988Y313686D01*
Y311147D01*
X350527Y308608D01*
X353067D01*
X350527D01*
X347988Y306068D01*
Y303529D01*
X350527Y300990D01*
X355606D01*
X358145Y303529D01*
X91440Y35555D02*
Y22859D01*
X88901Y20320D01*
X83822D01*
X81283Y22859D01*
Y35555D01*
X68587Y20320D02*
Y35555D01*
X76205Y27938D01*
X66048D01*
X422440Y341630D02*
X415258Y334448D01*
X408076D01*
X408076Y341630D01*
X415258Y348812D01*
X409872Y343425D01*
X417054Y336244D01*
X411667Y352403D02*
X400894Y341630D01*
X404485Y359585D01*
X393713Y348812D01*
X390121Y352403D02*
X382940Y359585D01*
X386531Y355994D01*
X397303Y366767D01*
X372167Y370358D02*
X379349Y363176D01*
X390121Y373949D01*
X382940Y381130D01*
X384735Y368562D02*
X381144Y372153D01*
X379349Y384721D02*
X368576Y373949D01*
X372167Y391903D01*
X361394Y381130D01*
X368576Y395494D02*
X361394Y388312D01*
X354212D01*
Y395494D01*
X361394Y402676D01*
X356008Y397290D01*
X363190Y390108D01*
X108750Y147320D02*
X115932Y154502D01*
X123114D01*
X123114Y147320D01*
X115932Y140138D01*
X121318Y145525D01*
X114136Y152706D01*
X119523Y136547D02*
X130296Y147320D01*
X126705Y129365D01*
X137478Y140138D01*
X141068Y136547D02*
X148250Y129365D01*
X144659Y132956D01*
X133887Y122183D01*
X159023Y118593D02*
X151841Y125774D01*
X141068Y115001D01*
X148250Y107820D01*
X146455Y120388D02*
X150046Y116797D01*
X151841Y104229D02*
X162614Y115001D01*
X159023Y97047D01*
X169796Y107820D01*
X162614Y93456D02*
X169796Y100638D01*
X176978D01*
Y93456D01*
X169796Y86274D01*
X175182Y91660D01*
X168001Y98842D01*
X163360Y403860D02*
X170542Y396678D01*
Y389496D01*
X163360Y389496D01*
X156178Y396678D01*
X161565Y391292D01*
X168746Y398474D01*
X152587Y393087D02*
X163360Y382314D01*
X145405Y385905D01*
X156178Y375132D01*
X152587Y371541D02*
X145405Y364360D01*
X148996Y367951D01*
X138223Y378723D01*
X134633Y353587D02*
X141814Y360769D01*
X131041Y371541D01*
X123860Y364360D01*
X136428Y366155D02*
X132837Y362564D01*
X120269Y360769D02*
X131041Y349996D01*
X113087Y353587D01*
X123860Y342814D01*
X109496Y349996D02*
X116678Y342814D01*
Y335632D01*
X109496D01*
X102314Y342814D01*
X107700Y337428D01*
X114882Y344609D01*
X83350Y293370D02*
X93507D01*
X98585Y288292D01*
X93507Y283213D01*
X83350D01*
X90968D01*
Y293370D01*
X83350Y278135D02*
X98585D01*
X83350Y267978D01*
X98585D01*
Y262900D02*
Y252743D01*
Y257822D01*
X83350D01*
X98585Y237508D02*
Y247665D01*
X83350D01*
Y237508D01*
X90968Y247665D02*
Y242586D01*
X83350Y232430D02*
X98585D01*
X83350Y222273D01*
X98585D01*
X83350Y217195D02*
X93507D01*
X98585Y212116D01*
X93507Y207038D01*
X83350D01*
X90968D01*
Y217195D01*
X441490Y208280D02*
X431333D01*
X426255Y213358D01*
X431333Y218437D01*
X441490D01*
X433872D01*
Y208280D01*
X441490Y223515D02*
X426255D01*
X441490Y233672D01*
X426255D01*
Y238750D02*
Y248907D01*
Y243829D01*
X441490D01*
X426255Y264142D02*
Y253985D01*
X441490D01*
Y264142D01*
X433872Y253985D02*
Y259064D01*
X441490Y269220D02*
X426255D01*
X441490Y279377D01*
X426255D01*
X441490Y284455D02*
X431333D01*
X426255Y289534D01*
X431333Y294612D01*
X441490D01*
X433872D01*
Y284455D01*
X217970Y66040D02*
Y76197D01*
X223048Y81275D01*
X228127Y76197D01*
Y66040D01*
Y73657D01*
X217970D01*
X233205Y66040D02*
Y81275D01*
X243362Y66040D01*
Y81275D01*
X248440D02*
X258597D01*
X253519D01*
Y66040D01*
X273832Y81275D02*
X263675D01*
Y66040D01*
X273832D01*
X263675Y73657D02*
X268754D01*
X278910Y66040D02*
Y81275D01*
X289067Y66040D01*
Y81275D01*
X294145Y66040D02*
Y76197D01*
X299224Y81275D01*
X304302Y76197D01*
Y66040D01*
Y73657D01*
X294145D01*
X311950Y429260D02*
Y419103D01*
X306872Y414025D01*
X301793Y419103D01*
Y429260D01*
Y421642D01*
X311950D01*
X296715Y429260D02*
Y414025D01*
X286558Y429260D01*
Y414025D01*
X281480D02*
X271323D01*
X276402D01*
Y429260D01*
X256088Y414025D02*
X266245D01*
Y429260D01*
X256088D01*
X266245Y421642D02*
X261166D01*
X251010Y429260D02*
Y414025D01*
X240853Y429260D01*
Y414025D01*
X235775Y429260D02*
Y419103D01*
X230696Y414025D01*
X225618Y419103D01*
Y429260D01*
Y421642D01*
X235775D01*
D37*
X439610Y388180D02*
G03*
X439610Y388180I-1250J0D01*
G01*
D38*
X446872Y389387D02*
G03*
X487848Y389387I20488J-16007D01*
G01*
X107438Y70452D02*
G03*
X107438Y70452I-1000J0D01*
G01*
X446872Y389380D02*
X487849D01*
X262324Y38482D02*
X265102Y22725D01*
X283005Y42129D02*
X296792Y44560D01*
X313534Y47512D02*
X318396Y19937D01*
X267186Y10908D02*
X318396Y19937D01*
X265102Y22725D02*
X267186Y10908D01*
X262324Y38482D02*
X283005Y42129D01*
X300731Y45255D02*
X313534Y47512D01*
X296792Y44560D02*
X300731Y45255D01*
X360240Y26370D02*
Y30370D01*
Y13370D02*
Y26370D01*
Y44370D02*
Y65370D01*
X332240D02*
X344240D01*
X332240Y13370D02*
Y65370D01*
Y13370D02*
X360240D01*
Y30370D02*
Y44370D01*
X344240Y65370D02*
X360240D01*
X319740Y328900D02*
X323740D01*
X306740D02*
X319740D01*
X337740D02*
X358740D01*
Y344900D02*
Y356900D01*
X306740D02*
X358740D01*
X306740Y328900D02*
Y356900D01*
X323740Y328900D02*
X337740D01*
X358740D02*
Y344900D01*
X274431Y337849D02*
X278431D01*
X291430D01*
X239431D02*
X260431Y337850D01*
X239431Y309849D02*
Y321849D01*
Y309849D02*
X291430D01*
Y337849D01*
X260431Y337850D02*
X274431Y337849D01*
X239431Y321849D02*
Y337849D01*
X481030Y212060D02*
X485030D01*
X468030D02*
X481030D01*
X499030D02*
X520030D01*
Y228060D02*
Y240060D01*
X468030D02*
X520030D01*
X468030Y212060D02*
Y240060D01*
X485030Y212060D02*
X499030D01*
X520030D02*
Y228060D01*
X468060Y259620D02*
Y275620D01*
X489060D02*
X503060D01*
X520060Y247620D02*
Y275620D01*
X468060Y247620D02*
X520060D01*
X468060D02*
Y259620D01*
Y275620D02*
X489060D01*
X507060D02*
X520060D01*
X503060D02*
X507060D01*
X468630Y291340D02*
Y307340D01*
X489630D02*
X503630D01*
X520630Y279340D02*
Y307340D01*
X468630Y279340D02*
X520630D01*
X468630D02*
Y291340D01*
Y307340D02*
X489630D01*
X507630D02*
X520630D01*
X503630D02*
X507630D01*
X468030Y324390D02*
Y340390D01*
X489030D02*
X503030D01*
X520030Y312390D02*
Y340390D01*
X468030Y312390D02*
X520030D01*
X468030D02*
Y324390D01*
Y340390D02*
X489030D01*
X507030D02*
X520030D01*
X503030D02*
X507030D01*
D39*
X97030Y64130D02*
X158030D01*
X97030Y20230D02*
Y64130D01*
Y20230D02*
X158030D01*
Y64130D01*
D40*
X310914Y276785D02*
X314127Y272955D01*
X310914Y276785D02*
X314744Y279999D01*
X337725Y299283D02*
X341555Y302497D01*
X344769Y298666D01*
X364053Y275685D02*
X367267Y271855D01*
X363437Y268641D02*
X367267Y271855D01*
D61*
X368310Y64828D02*
X383310D01*
%TF.MD5,160F17740F01754B779B48283D125D15*%
M02*
