G04 Layer_Physical_Order=1*
G04 Layer_Color=255*
%FSLAX44Y44*%
%MOMM*%
%TF.FileFunction,Copper,L1,Top,Signal*%
%TF.Part,Single*%
G01*
G75*
%TA.AperFunction,SMDPad*%
G04:AMPARAMS|DCode=10|XSize=0.55mm|YSize=1.5mm|CornerRadius=0mm|HoleSize=0mm|Usage=FLASHONLY|Rotation=310.000|XOffset=0mm|YOffset=0mm|HoleType=Round|Shape=Round|*
%AMOVALD10*
21,1,0.9500,0.5500,0.0000,0.0000,40.0*
1,1,0.5500,-0.3639,-0.3053*
1,1,0.5500,0.3639,0.3053*
%
%ADD10OVALD10*%

%TA.AperFunction,SMDPad*%
G04:AMPARAMS|DCode=11|XSize=0.55mm|YSize=1.5mm|CornerRadius=0mm|HoleSize=0mm|Usage=FLASHONLY|Rotation=40.000|XOffset=0mm|YOffset=0mm|HoleType=Round|Shape=Round|*
%AMOVALD11*
21,1,0.9500,0.5500,0.0000,0.0000,130.0*
1,1,0.5500,0.3053,-0.3639*
1,1,0.5500,-0.3053,0.3639*
%
%ADD11OVALD11*%

%TA.AperFunction,SMDPad*%
%ADD12R,1.5000X2.0000*%
%TA.AperFunction,SMDPad*%
%ADD13R,2.4000X1.9000*%
%TA.AperFunction,SMDPad*%
%ADD14R,2.0000X1.5000*%
%TA.AperFunction,SMDPad*%
G04:AMPARAMS|DCode=15|XSize=1.5mm|YSize=2mm|CornerRadius=0mm|HoleSize=0mm|Usage=FLASHONLY|Rotation=40.000|XOffset=0mm|YOffset=0mm|HoleType=Round|Shape=Rectangle|*
%AMROTATEDRECTD15*
4,1,4,0.0683,-1.2481,-1.2173,0.2839,-0.0683,1.2481,1.2173,-0.2839,0.0683,-1.2481,0.0*
%
%ADD15ROTATEDRECTD15*%

%TA.AperFunction,SMDPad*%
%ADD16R,0.6350X1.5240*%
%TA.AperFunction,SMDPad*%
%ADD17R,1.5240X0.6350*%
%ADD18C,0.2540*%
%TA.AperFunction,ViaPad*%
%ADD19R,1.0000X2.0000*%
%TA.AperFunction,ViaPad*%
%ADD20O,1.0000X2.0000*%
%TA.AperFunction,ViaPad*%
%ADD21C,1.3780*%
%TA.AperFunction,ViaPad*%
%ADD22R,1.3780X1.3780*%
%TA.AperFunction,ViaPad*%
%ADD23R,1.8000X1.8000*%
%TA.AperFunction,ViaPad*%
%ADD24R,1.8000X1.8000*%
%TA.AperFunction,ViaPad*%
%ADD25C,1.8000*%
%TA.AperFunction,ConnectorPad*%
%ADD26C,3.1000*%
%TA.AperFunction,ViaPad*%
%ADD27C,1.5000*%
%TA.AperFunction,ViaPad*%
%ADD28R,1.5000X1.5000*%
%TA.AperFunction,ViaPad*%
%ADD29C,2.0000*%
%TA.AperFunction,ViaPad*%
%ADD30C,1.2700*%
D10*
X390479Y319278D02*
D03*
X395621Y313149D02*
D03*
X400764Y307021D02*
D03*
X405906Y300893D02*
D03*
X411048Y294764D02*
D03*
X416191Y288636D02*
D03*
X421333Y282508D02*
D03*
X426475Y276379D02*
D03*
X361361Y221742D02*
D03*
X356219Y227871D02*
D03*
X351077Y233999D02*
D03*
X345934Y240128D02*
D03*
X340792Y246255D02*
D03*
X335650Y252384D02*
D03*
X330507Y258512D02*
D03*
X325365Y264641D02*
D03*
D11*
X424688Y255951D02*
D03*
X418559Y250809D02*
D03*
X412431Y245667D02*
D03*
X406302Y240524D02*
D03*
X399941Y235956D02*
D03*
X394046Y230240D02*
D03*
X387917Y225098D02*
D03*
X381789Y219955D02*
D03*
X327152Y285069D02*
D03*
X333280Y290211D02*
D03*
X339409Y295353D02*
D03*
X345537Y300496D02*
D03*
X351665Y305638D02*
D03*
X357794Y310781D02*
D03*
X363923Y315922D02*
D03*
X370051Y321065D02*
D03*
D12*
X59460Y26670D02*
D03*
X89460D02*
D03*
X59460Y59690D02*
D03*
X89460D02*
D03*
X399830Y425870D02*
D03*
X429830D02*
D03*
X483630Y307340D02*
D03*
X453630D02*
D03*
X483630Y341630D02*
D03*
X453630D02*
D03*
D13*
X421640Y395150D02*
D03*
Y354150D02*
D03*
D14*
X480060Y275350D02*
D03*
Y245350D02*
D03*
D15*
X422849Y218958D02*
D03*
X445831Y238242D02*
D03*
D16*
X454020Y150438D02*
D03*
X439020D02*
D03*
X424020D02*
D03*
X409020D02*
D03*
X394020D02*
D03*
X379020D02*
D03*
X364020D02*
D03*
X349020D02*
D03*
X334020D02*
D03*
X319020D02*
D03*
X304020D02*
D03*
X289020D02*
D03*
X274020D02*
D03*
Y15240D02*
D03*
X289020D02*
D03*
X304020D02*
D03*
X319020D02*
D03*
X334020D02*
D03*
X349020D02*
D03*
X364020D02*
D03*
X379020D02*
D03*
X394020D02*
D03*
X409020D02*
D03*
X424020D02*
D03*
X439020D02*
D03*
X454020D02*
D03*
D17*
X255270Y135438D02*
D03*
Y120438D02*
D03*
Y105438D02*
D03*
Y90438D02*
D03*
Y75438D02*
D03*
Y60198D02*
D03*
Y45212D02*
D03*
Y30226D02*
D03*
D18*
X462280Y229070D02*
Y241300D01*
X445770Y257810D02*
X462280Y241300D01*
X426547Y257810D02*
X445770D01*
X424688Y255951D02*
X426547Y257810D01*
X466160Y210090D02*
X485432Y229362D01*
X450675Y210090D02*
X466160D01*
X524320Y205550D02*
X542290Y223520D01*
X457556Y205550D02*
X524320D01*
X455130Y220980D02*
X459740D01*
X454660Y221450D02*
X455130Y220980D01*
X454660Y221450D02*
X462280Y229070D01*
X418559Y250809D02*
X425450Y243918D01*
Y238036D02*
Y243918D01*
Y238036D02*
X439522Y223964D01*
X436664Y184658D02*
X457556Y205550D01*
X449945Y210820D02*
X450675Y210090D01*
X447872Y210820D02*
X449945D01*
X406302Y240524D02*
X422849Y223977D01*
X412280Y265684D02*
X446323D01*
X444062Y214630D02*
X447872Y210820D01*
X439522Y208598D02*
Y223964D01*
X344208Y325628D02*
X370051D01*
X333291Y329492D02*
Y379085D01*
Y319670D02*
Y329492D01*
X387463Y225552D02*
X387917D01*
X385356D02*
X387463D01*
X384848Y228167D02*
Y238252D01*
Y226060D02*
Y228167D01*
X387463Y225552D02*
X387917Y225098D01*
X384848Y228167D02*
X387463Y225552D01*
X380276Y232739D02*
X384848Y228167D01*
X232194Y425450D02*
Y437896D01*
X427996Y339762D02*
Y354150D01*
X419138Y379689D02*
Y395150D01*
X444030Y342900D02*
X453630D01*
X381789Y215138D02*
X388912D01*
X304020Y23058D02*
X306242D01*
X426475Y272235D02*
Y276379D01*
Y270891D02*
Y272235D01*
X395770D02*
X426475D01*
X550456Y274320D02*
Y284226D01*
X420408Y279400D02*
Y282508D01*
X289020Y69412D02*
Y135128D01*
X320840Y253746D02*
Y264641D01*
X339128Y243332D02*
Y246255D01*
X59460Y48528D02*
Y59690D01*
Y26670D02*
Y48528D01*
X472986Y275350D02*
Y283210D01*
X412026Y294764D02*
Y297942D01*
X399941Y234442D02*
X403136D01*
X390479Y319278D02*
Y328341D01*
X293370Y425450D02*
X390479Y328341D01*
X342938Y324358D02*
X344208Y325628D01*
X370051Y321065D02*
Y325628D01*
X380276Y232739D02*
Y325716D01*
X374136Y331856D02*
X380276Y325716D01*
X368076Y331856D02*
X374136D01*
X363842Y336091D02*
X368076Y331856D01*
X339890Y336091D02*
X363842D01*
X333291Y329492D02*
X339890Y336091D01*
Y313071D02*
X344232D01*
X387917Y225098D02*
Y225552D01*
X384848Y226060D02*
X385356Y225552D01*
X384848Y238252D02*
X412280Y265684D01*
X446323D02*
X466657Y245350D01*
X480060D01*
X232410Y415328D02*
Y425450D01*
Y415328D02*
X238290Y409448D01*
X264960D01*
X318364Y356044D01*
Y311150D02*
Y356044D01*
Y311150D02*
X325838Y303677D01*
X331085D01*
X339409Y295353D01*
X232194Y425450D02*
X232410D01*
X232194Y437896D02*
X263690D01*
X276898Y424688D01*
Y418013D02*
Y424688D01*
Y418013D02*
X294398Y400513D01*
X311863D01*
X333291Y379085D01*
Y319670D02*
X339890Y313071D01*
X344232D02*
X351665Y305638D01*
X398780Y179070D02*
X411051Y166800D01*
X431330D01*
X436664Y172134D01*
Y184658D01*
X345537Y300496D02*
Y303471D01*
X340791Y308217D02*
X345537Y303471D01*
X331684Y308217D02*
X340791D01*
X328751Y311150D02*
X331684Y308217D01*
X328751Y311150D02*
Y375898D01*
X309361Y395288D02*
X328751Y375898D01*
X287972Y395288D02*
X309361D01*
X257810Y425450D02*
X287972Y395288D01*
X244132Y135438D02*
X255270D01*
X234950Y143548D02*
X244132Y135438D01*
X234950Y143548D02*
Y195580D01*
X241300Y201930D02*
Y228600D01*
X234950Y195580D02*
X241300Y201930D01*
X361361Y198871D02*
Y221742D01*
X332270Y195880D02*
X361361Y198871D01*
X322110Y185720D02*
X332270Y195880D01*
X322110Y176276D02*
Y185720D01*
X249974Y191008D02*
X264706Y176276D01*
X249974Y191008D02*
Y204114D01*
X263690Y217830D01*
X279438D01*
X281216Y243116D01*
X292100Y254000D01*
X351574Y207772D02*
Y223226D01*
X356219Y227871D01*
X419138Y395150D02*
X421640D01*
X406369Y366921D02*
X419138Y379689D01*
X406369Y341445D02*
Y366921D01*
Y341445D02*
X412280Y335534D01*
X417360D01*
X296456Y304365D02*
Y329978D01*
Y304365D02*
X315752Y285069D01*
X327152D01*
X289020Y12884D02*
Y15240D01*
X280454Y4318D02*
X289020Y12884D01*
X245656Y4318D02*
X280454D01*
X224574Y25400D02*
X245656Y4318D01*
X224574Y25400D02*
Y237274D01*
X241300Y254000D01*
X312966Y234950D02*
Y235966D01*
X306870Y242062D02*
X312966Y235966D01*
X306870Y242062D02*
Y259588D01*
X322618Y275336D01*
X331941D01*
X339636Y267641D01*
X330507Y258512D02*
X339636Y267641D01*
X322309Y41347D02*
X328714Y47752D01*
X322309Y39125D02*
Y41347D01*
X306242Y23058D02*
X322309Y39125D01*
X304020Y15240D02*
Y23058D01*
X369570Y359426D02*
Y374650D01*
Y359426D02*
X400342Y328654D01*
Y317870D02*
Y328654D01*
X395621Y313149D02*
X400342Y317870D01*
X523532Y318478D02*
Y385826D01*
Y318478D02*
X542290Y299720D01*
X265468Y290830D02*
Y384556D01*
X289020Y69412D02*
X307886Y50546D01*
X320840Y264641D02*
X325365D01*
X316522Y249428D02*
X320840Y253746D01*
X260350Y195580D02*
Y204940D01*
X268700Y213290D01*
X306146D01*
X322586Y229730D01*
Y239320D01*
X327522Y244257D01*
Y247999D01*
X331264D01*
X335650Y252384D01*
X349607Y233999D02*
X351077D01*
X341668Y226060D02*
X349607Y233999D01*
X341668Y214630D02*
Y226060D01*
X336842Y209804D02*
X341668Y214630D01*
X400764Y307021D02*
X407454Y313711D01*
Y327963D01*
X382054Y353363D02*
X407454Y327963D01*
X382054Y353363D02*
Y387566D01*
X369570Y400050D02*
X382054Y387566D01*
X542290Y274320D02*
X550456D01*
Y284226D02*
X554774Y288544D01*
Y393700D01*
X509308Y439166D02*
X554774Y393700D01*
X417868Y439166D02*
X509308D01*
X417868Y419608D02*
Y439166D01*
X406184Y407924D02*
X417868Y419608D01*
X406184Y375920D02*
Y407924D01*
X394246Y363982D02*
X406184Y375920D01*
X394246Y354838D02*
Y363982D01*
X413170Y307370D02*
X431768D01*
X406692Y300893D02*
X413170Y307370D01*
X405906Y300893D02*
X406692D01*
X443978Y316992D02*
X453630Y307340D01*
X418376Y316992D02*
X443978D01*
X307124Y308356D02*
Y316738D01*
Y308356D02*
X317538Y297942D01*
X325550D01*
X333280Y290211D01*
X480060Y275350D02*
X520470D01*
X533770Y262050D01*
X548170D01*
X554774Y255446D01*
Y243078D02*
Y255446D01*
X548170Y236474D02*
X554774Y243078D01*
X515912Y236474D02*
X548170D01*
X508800Y229362D02*
X515912Y236474D01*
X485432Y229362D02*
X508800D01*
X444062Y214630D02*
Y234959D01*
X445831Y236728D01*
Y238242D01*
X420408Y282508D02*
X421333D01*
X399834Y279400D02*
X420408D01*
X389928Y289306D02*
X399834Y279400D01*
X390690Y267155D02*
X395770Y272235D01*
X536194Y255016D02*
X542290Y248920D01*
X525480Y260673D02*
X536194Y255016D01*
X472409Y260673D02*
X525480D01*
X466636Y266446D02*
X472409Y260673D01*
X466636Y266446D02*
Y275590D01*
X461556Y280670D02*
X466636Y275590D01*
X438696Y280670D02*
X461556D01*
X427774Y291592D02*
X438696Y280670D01*
X419714Y291592D02*
X427774D01*
X416191Y288636D02*
X419714Y291592D01*
X411048Y294764D02*
X412026D01*
Y297942D02*
X428293D01*
X440485Y285750D01*
X470446D01*
X472986Y283210D01*
Y275350D02*
X480060D01*
X381789Y215138D02*
Y219955D01*
X388912Y215138D02*
X393484Y210566D01*
X339128Y246255D02*
X340792D01*
X332524Y243332D02*
X339128D01*
X332270Y243078D02*
X332524Y243332D01*
X332270Y235082D02*
Y243078D01*
X327762Y230574D02*
X332270Y235082D01*
X327762Y223584D02*
Y230574D01*
X305346Y201168D02*
X327762Y223584D01*
X127292Y64516D02*
X128054Y65278D01*
X127292Y45720D02*
Y64516D01*
X123990Y42418D02*
X127292Y45720D01*
X65570Y42418D02*
X123990D01*
X59460Y48528D02*
X65570Y42418D01*
X454020Y138430D02*
Y150438D01*
X448940Y133350D02*
X454020Y138430D01*
X332524Y133350D02*
X448940D01*
X327444Y138430D02*
X332524Y133350D01*
X327444Y138430D02*
Y164084D01*
X335710Y172350D01*
Y191340D01*
X369686D01*
X372656Y194310D01*
Y298104D01*
X366976Y303784D02*
X372656Y298104D01*
X366976Y303784D02*
Y312283D01*
X363923Y315922D02*
X366976Y312283D01*
X399941Y234442D02*
Y235956D01*
X403136Y200914D02*
Y234442D01*
X386372Y184150D02*
X403136Y200914D01*
X386372Y173482D02*
Y184150D01*
Y173482D02*
X398310Y161544D01*
X437426D01*
X454316Y178435D01*
Y186478D01*
X461810Y193971D01*
X484110D01*
X434886Y203962D02*
X439522Y208598D01*
X363004Y245926D02*
Y246888D01*
X351077Y233999D02*
X363004Y245926D01*
X422849Y203139D02*
Y218958D01*
X398780Y179070D02*
X422849Y203139D01*
X454020Y150438D02*
Y170012D01*
X464180Y180172D01*
X426475Y270891D02*
X456603D01*
X421640Y354150D02*
X427996D01*
Y339762D02*
X453630Y314127D01*
Y307340D02*
Y314127D01*
X399830Y384806D02*
Y425870D01*
X394754Y379730D02*
X399830Y384806D01*
X345830Y240128D02*
X345934D01*
X334048Y228346D02*
X345830Y240128D01*
X334048Y223266D02*
Y228346D01*
X327190Y216408D02*
X334048Y223266D01*
X327190Y203398D02*
Y216408D01*
X311974Y188182D02*
X327190Y203398D01*
X311974Y127992D02*
Y188182D01*
Y127992D02*
X317538Y122428D01*
Y42418D02*
Y122428D01*
X316014Y40894D02*
X317538Y42418D01*
X293408Y40894D02*
X316014D01*
X288074Y46228D02*
X293408Y40894D01*
X289020Y135128D02*
Y150438D01*
X241300Y228600D02*
X252567Y239867D01*
Y281712D01*
X242930Y291350D02*
X252567Y281712D01*
X345537Y298899D02*
Y300496D01*
Y298899D02*
X351066Y293370D01*
X355130D01*
X360972Y299212D01*
Y307603D01*
X357794Y310781D02*
X360972Y307603D01*
X433616Y150438D02*
X439020D01*
X433616Y142494D02*
Y150438D01*
X430568Y139446D02*
X433616Y142494D01*
X371640Y139446D02*
X430568D01*
X371640D02*
Y158750D01*
X366052Y164338D02*
X371640Y158750D01*
X362712Y164338D02*
X366052D01*
X347980Y179070D02*
X362712Y164338D01*
X255270Y135438D02*
X268770D01*
X274020Y140688D01*
Y150438D01*
Y15240D02*
Y50546D01*
X467360Y373380D02*
Y388404D01*
X446316Y409448D02*
X467360Y388404D01*
X433132Y409448D02*
X446316D01*
X429830Y412750D02*
X433132Y409448D01*
X429830Y412750D02*
Y425870D01*
X244132Y30226D02*
X255270D01*
X244132D02*
Y135438D01*
X422849Y218958D02*
Y223977D01*
X453630Y341630D02*
Y342900D01*
X440220Y346710D02*
X444030Y342900D01*
X440220Y346710D02*
Y392430D01*
X437500Y395150D02*
X440220Y392430D01*
X421640Y395150D02*
X437500D01*
X133014Y31630D02*
X140230D01*
X121704Y20320D02*
X133014Y31630D01*
X105194Y20320D02*
X121704D01*
X98844Y26670D02*
X105194Y20320D01*
X89460Y26670D02*
X98844D01*
X480060Y359170D02*
Y373380D01*
Y359170D02*
X483630Y355600D01*
Y341630D02*
Y355600D01*
Y307340D02*
Y341630D01*
X272072Y15240D02*
X274020D01*
X257086Y30226D02*
X272072Y15240D01*
X255270Y30226D02*
X257086D01*
X242930Y291350D02*
Y356350D01*
X105550Y52730D02*
X114830D01*
X98590Y59690D02*
X105550Y52730D01*
X89460Y59690D02*
X98590D01*
D19*
X454660Y373380D02*
D03*
D20*
X467360D02*
D03*
X480060D02*
D03*
D21*
X234950Y195580D02*
D03*
X260350D02*
D03*
X140230Y52730D02*
D03*
Y31630D02*
D03*
X114830D02*
D03*
D22*
X285750Y195580D02*
D03*
X114830Y52730D02*
D03*
D23*
X293370Y425450D02*
D03*
X542290Y325120D02*
D03*
X369570Y374650D02*
D03*
D24*
X232410Y425450D02*
D03*
X347980Y179070D02*
D03*
D25*
X257810Y425450D02*
D03*
X373380Y179070D02*
D03*
X398780D02*
D03*
X424180D02*
D03*
X542290Y299720D02*
D03*
Y274320D02*
D03*
Y248920D02*
D03*
Y223520D02*
D03*
X369570Y400050D02*
D03*
Y425450D02*
D03*
D26*
X200000Y35000D02*
D03*
X470000Y415000D02*
D03*
D27*
X241300Y228600D02*
D03*
Y254000D02*
D03*
X266700Y228600D02*
D03*
Y254000D02*
D03*
X292100Y228600D02*
D03*
D28*
Y254000D02*
D03*
D29*
X287930Y356350D02*
D03*
Y291350D02*
D03*
X242930Y356350D02*
D03*
Y291350D02*
D03*
D30*
X459740Y220980D02*
D03*
X342938Y324358D02*
D03*
X322110Y176276D02*
D03*
X264706D02*
D03*
X351574Y207772D02*
D03*
X417360Y335534D02*
D03*
X296456Y329978D02*
D03*
X312966Y234950D02*
D03*
X328714Y47752D02*
D03*
X523532Y385826D02*
D03*
X265468Y384556D02*
D03*
Y290830D02*
D03*
X307886Y50546D02*
D03*
X316522Y249428D02*
D03*
X336842Y209804D02*
D03*
X394246Y354838D02*
D03*
X431768Y307370D02*
D03*
X418376Y316992D02*
D03*
X307124Y316738D02*
D03*
X389928Y289306D02*
D03*
X390690Y267155D02*
D03*
X393484Y210566D02*
D03*
X305346Y201168D02*
D03*
X128054Y65278D02*
D03*
X484110Y193971D02*
D03*
X434886Y203962D02*
D03*
X363004Y246888D02*
D03*
X464180Y180172D02*
D03*
X456603Y270891D02*
D03*
X394754Y379730D02*
D03*
X288074Y46228D02*
D03*
X289020Y135128D02*
D03*
X274020Y50546D02*
D03*
%TF.MD5,A71B020844A51368D52993691B622AA5*%
M02*
